<svg xmlns="http://www.w3.org/2000/svg" width="129.063" height="88" viewBox="0 0 129.063 88">
  <g id="Group_1201311" data-name="Group 1201311" transform="translate(-788.103 -1982.118)">
    <g id="Rectangle_410589" data-name="Rectangle 410589" transform="translate(788.103 2007.607)" fill="#a1c6f1" stroke="#6f89a8" stroke-width="1">
      <rect width="129.063" height="43.021" rx="8" stroke="none"/>
      <rect x="0.5" y="0.5" width="128.063" height="42.021" rx="7.5" fill="none"/>
    </g>
    <g id="Layer_4" transform="translate(804.634 1978.118)">
      <g id="Group_1203939" data-name="Group 1203939">
        <g id="Group_1203927" data-name="Group 1203927">
          <path id="Path_1282169" data-name="Path 1282169" d="M44.865,91.891a1.445,1.445,0,0,1-1.384-1.033c-.926-3.115-2.468-5.129-4.582-5.987-7.748-3.148-12.921-5.783-16.432-9.944-1.8-2.116-5.178-1.472-7.549.024a1.445,1.445,0,1,1-1.543-2.444c3.391-2.138,8.372-2.883,11.3.554,3.13,3.71,7.985,6.156,15.314,9.132,2.968,1.205,5.076,3.844,6.265,7.841a1.445,1.445,0,0,1-1.386,1.857Z" fill="#2a2a2a"/>
        </g>
        <g id="Group_1203928" data-name="Group 1203928">
          <path id="Path_1282170" data-name="Path 1282170" d="M60.533,90.133a1.447,1.447,0,0,1-1.345-1.971l.54-1.4a4.754,4.754,0,0,1,1.413-2.442A34.015,34.015,0,0,0,65.28,79.49c4.5-5.926,4.7-8.414,4.842-10.233a8.948,8.948,0,0,1,.33-2.043L70.527,67c.738-2.145,2.7-7.832,8.624-5.9,1.338.456,2.157-.313,3.843-2.294,1.521-1.786,3.417-4.007,6.49-3.638a3.784,3.784,0,0,1,.489.085,1.445,1.445,0,0,1-.694,2.8l-.247-.037c-1.324-.154-2.34.9-3.838,2.659-1.623,1.906-3.641,4.278-6.954,3.165-2.712-.894-3.806.686-4.982,4.1A6.225,6.225,0,0,0,73,69.487c-.173,2.175-.41,5.151-5.425,11.756A36.525,36.525,0,0,1,63.09,86.45a1.923,1.923,0,0,0-.2.187c-.063.1-.241.562-.467,1.153l-.548,1.422a1.444,1.444,0,0,1-1.346.921Z" fill="#2a2a2a"/>
        </g>
        <g id="Group_1203929" data-name="Group 1203929">
          <path id="Path_1282171" data-name="Path 1282171" d="M90.263,47.679H5.744l-.228.228a42.492,42.492,0,0,0,42.5,42.648,31.079,31.079,0,0,0,3.225-.133,41.59,41.59,0,0,0,9.3-1.735A42.489,42.489,0,0,0,89.6,56.641a37.068,37.068,0,0,0,.756-5.271c.075-.941.119-2.839.13-3.48a.211.211,0,0,0-.223-.211Z" fill="#86daf1"/>
          <path id="Path_1282172" data-name="Path 1282172" d="M48.013,92A43.939,43.939,0,0,1,4.07,47.9l0-.59.84-.849.831-.228H90.868l1.016.931.046.751c-.012.66-.058,2.6-.135,3.571a38.761,38.761,0,0,1-.786,5.466A43.8,43.8,0,0,1,60.957,90.068a43.24,43.24,0,0,1-9.619,1.795A32.352,32.352,0,0,1,48.013,92ZM6.973,49.124a41.051,41.051,0,0,0,41.04,39.984,29.926,29.926,0,0,0,3.076-.124A40.8,40.8,0,0,0,88.184,56.352a36.163,36.163,0,0,0,.731-5.088c.043-.543.075-1.4.1-2.14Zm83.29,0h.022Z" fill="#2a2a2a"/>
        </g>
        <g id="Group_1203930" data-name="Group 1203930">
          <path id="Path_1282173" data-name="Path 1282173" d="M6.1,41.01c.089-.556.2-1.111.311-1.645A42.466,42.466,0,0,1,35.464,7.312a41.659,41.659,0,0,1,9.291-1.734,31.041,31.041,0,0,1,3.223-.133A42.439,42.439,0,0,1,89.9,41.01" fill="#db9067"/>
          <path id="Path_1282174" data-name="Path 1282174" d="M89.9,42.456a1.446,1.446,0,0,1-1.425-1.216A40.991,40.991,0,0,0,47.978,6.891a29.877,29.877,0,0,0-3.074.124,40.5,40.5,0,0,0-9.018,1.678A40.911,40.911,0,0,0,7.827,39.654c-.108.519-.215,1.053-.3,1.585a1.445,1.445,0,0,1-2.853-.456c.093-.58.208-1.157.323-1.713A43.79,43.79,0,0,1,35.04,5.932a43.206,43.206,0,0,1,9.615-1.8A32.3,32.3,0,0,1,47.978,4,43.879,43.879,0,0,1,91.326,40.78a1.443,1.443,0,0,1-1.2,1.656,1.314,1.314,0,0,1-.232.02Z" fill="#2a2a2a"/>
        </g>
        <g id="Group_1203931" data-name="Group 1203931">
          <path id="Path_1282175" data-name="Path 1282175" d="M48.177,40.233a1.44,1.44,0,0,1-.866-.291L38.55,33.36a3.073,3.073,0,0,1-1.134-3.2l1.736-6.987.224-1.63-.352,1.4-7.3-1.821a3.142,3.142,0,0,1-2.034-1.65L25.748,11.6a1.444,1.444,0,1,1,2.583-1.293L32.287,18.2l1.314.4,6.127,1.537a3.077,3.077,0,0,1,2.225,3.737l-1.731,6.968.018.013.05.2,8.754,6.577a1.446,1.446,0,0,1-.867,2.6Z" fill="#2a2a2a"/>
        </g>
        <g id="Group_1203932" data-name="Group 1203932">
          <path id="Path_1282176" data-name="Path 1282176" d="M16.881,33.009a1.445,1.445,0,0,1-.456-2.816l6.856-2.286,8.954-8.926a1.445,1.445,0,0,1,2.043,2.045L25.4,29.9a3.1,3.1,0,0,1-1.209.747l-6.854,2.284a1.419,1.419,0,0,1-.458.076Z" fill="#2a2a2a"/>
        </g>
        <g id="Group_1203933" data-name="Group 1203933">
          <path id="Path_1282177" data-name="Path 1282177" d="M41.515,35.225a1.446,1.446,0,0,1-.456-2.818l6.67-2.216a1.446,1.446,0,0,1,.912,2.744l-6.67,2.216A1.422,1.422,0,0,1,41.515,35.225Z" fill="#2a2a2a"/>
        </g>
        <g id="Group_1203934" data-name="Group 1203934">
          <path id="Path_1282178" data-name="Path 1282178" d="M26.513,37.826a1.445,1.445,0,0,1-1.37-.99l-2.408-7.224a1.445,1.445,0,0,1,2.742-.912l2.408,7.224a1.444,1.444,0,0,1-.914,1.826,1.414,1.414,0,0,1-.458.076Z" fill="#2a2a2a"/>
        </g>
        <g id="Group_1203935" data-name="Group 1203935">
          <path id="Path_1282179" data-name="Path 1282179" d="M65.473,38.091a1.446,1.446,0,0,1-1.42-1.185L62.68,29.417a1.445,1.445,0,0,1,2.843-.521L66.9,36.385a1.445,1.445,0,0,1-1.161,1.682,1.548,1.548,0,0,1-.262.024Z" fill="#2a2a2a"/>
        </g>
        <g id="Group_1203936" data-name="Group 1203936">
          <path id="Path_1282180" data-name="Path 1282180" d="M74.674,30.6H63.649a3.07,3.07,0,0,1-2.762-1.711l-4.023-8.045L48.54,18.693l-6.777,4.441a1.446,1.446,0,0,1-1.6-2.406l6.62-4.413a3.1,3.1,0,0,1,2.463-.428l8.192,2.049a3.078,3.078,0,0,1,2.013,1.617L63.471,27.6l11.2.111a1.447,1.447,0,0,1,0,2.893Z" fill="#2a2a2a"/>
        </g>
        <g id="Group_1203937" data-name="Group 1203937">
          <path id="Path_1282181" data-name="Path 1282181" d="M50.112,19.043a1.446,1.446,0,0,1-1.022-2.468l5.483-5.483a1.445,1.445,0,1,1,2.043,2.045L51.133,18.62a1.437,1.437,0,0,1-1.021.423Z" fill="#2a2a2a"/>
        </g>
        <g id="Group_1203938" data-name="Group 1203938">
          <path id="Path_1282182" data-name="Path 1282182" d="M24.639,47.679c-.7,3.777-.056,9.149,6.575,11.835,7.862,3.162,13.262,0,13.262,7.582s-1.9,11.7,3.805,11.7c4.225,0,9.457-8.245,9.457-12.05,0-5.316-4.2-6.087,1.9-9.137,2.378-1.2,9.6-1.511,10.52-9.933H24.639Z" fill="#08bc77"/>
          <path id="Path_1282183" data-name="Path 1282183" d="M48.282,80.244c-2.007,0-3.372-.458-4.294-1.439-1.486-1.582-1.338-3.955-1.133-7.237.082-1.315.176-2.809.176-4.472,0-3.74-1.146-3.9-4.944-4.446a30.16,30.16,0,0,1-7.413-1.795c-8.35-3.382-8-10.526-7.457-13.439l.219-1.183H71.772l-.176,1.6C70.748,55.576,65,57.366,61.9,58.33a12.548,12.548,0,0,0-1.612.571c-2.8,1.4-2.738,1.565-2.125,3.132a12.09,12.09,0,0,1,1.014,4.715c0,4.242-5.471,13.5-10.9,13.5ZM25.9,49.124c-.282,3.174.684,6.955,5.86,9.05A27.317,27.317,0,0,0,38.5,59.791c3.819.545,7.425,1.059,7.425,7.3,0,1.73-.1,3.282-.182,4.652-.148,2.364-.275,4.407.355,5.077a3.138,3.138,0,0,0,2.188.527c3.271,0,8.012-7.445,8.012-10.6a9.321,9.321,0,0,0-.815-3.662c-1.134-2.9-.9-4.561,3.517-6.766a13.787,13.787,0,0,1,2.052-.749c2.677-.834,6.245-1.945,7.393-6.447H25.9Z" fill="#2a2a2a"/>
        </g>
      </g>
    </g>
  </g>
</svg>
