<svg xmlns="http://www.w3.org/2000/svg" width="129.063" height="88.188" viewBox="0 0 129.063 88.188">
  <g id="Group_1201313" data-name="Group 1201313" transform="translate(-788.103 -1976.732)">
    <g id="Rectangle_410589" data-name="Rectangle 410589" transform="translate(788.103 2007.607)" fill="#a1c6f1" stroke="#6f89a8" stroke-width="1">
      <rect width="129.063" height="43.021" rx="8" stroke="none"/>
      <rect x="0.5" y="0.5" width="128.063" height="42.021" rx="7.5" fill="none"/>
    </g>
    <g id="water-cycle_525893" transform="translate(807.037 1976.732)">
      <g id="Group_1204039" data-name="Group 1204039" transform="translate(1.747 1.722)">
        <path id="Path_1282287" data-name="Path 1282287" d="M10.024,332.856a11.491,11.491,0,0,0,11.367,11.611,11.491,11.491,0,0,0,11.367-11.611,11.717,11.717,0,0,0-2.552-7.33h0l-8.776-11.543-8.814,11.482h.007A11.716,11.716,0,0,0,10.024,332.856Z" transform="translate(-10.024 -261.624)" fill="#bef7f0"/>
        <path id="Path_1282288" data-name="Path 1282288" d="M369.988,28.872a11.369,11.369,0,1,0,22.734,0,11.717,11.717,0,0,0-2.552-7.33h0L381.4,10l-8.814,11.482h.007A11.716,11.716,0,0,0,369.988,28.872Z" transform="translate(-307.987 -9.999)" fill="#bef7f0"/>
      </g>
      <path id="Path_1282289" data-name="Path 1282289" d="M128.032,103.352a22.042,22.042,0,1,0,39.135-13.915h0L150.152,67.526l-17.092,21.8h.013A21.952,21.952,0,0,0,128.032,103.352Z" transform="translate(-105.959 -55.895)" fill="#12addd"/>
      <path id="Path_1282290" data-name="Path 1282290" d="M160.254,80.1,143.237,58.193a1.722,1.722,0,0,0-1.356-.666h0a1.722,1.722,0,0,0-1.355.66l-17.092,21.8q-.046.059-.086.12a23.764,23.764,0,1,0,36.926.021ZM141.8,115.395a20.32,20.32,0,0,1-15.673-33.252,1.711,1.711,0,0,0,.134-.186L141.87,62.049l15.623,20.117c.02.028.042.056.064.083A20.319,20.319,0,0,1,141.8,115.395Z" transform="translate(-97.684 -47.618)"/>
      <path id="Path_1282291" data-name="Path 1282291" d="M292.915,284.048a1.722,1.722,0,0,0-2.072,1.281,13.34,13.34,0,0,1-7.9,9.251,1.722,1.722,0,1,0,1.311,3.185,16.793,16.793,0,0,0,9.941-11.646A1.723,1.723,0,0,0,292.915,284.048Z" transform="translate(-233.306 -235.084)"/>
      <path id="Path_1282292" data-name="Path 1282292" d="M335.992,245.43v.035a1.722,1.722,0,0,0,3.445,0v-.035a1.722,1.722,0,1,0-3.445,0Z" transform="translate(-278.099 -201.731)"/>
      <path id="Path_1282293" data-name="Path 1282293" d="M1.932,49.72q.08,0,.16-.007a1.722,1.722,0,0,0,1.557-1.873A40.65,40.65,0,0,1,60.039,6.755l-1.3.752a1.722,1.722,0,1,0,1.722,2.983l4.169-2.407a1.722,1.722,0,0,0,.63-2.353L62.851,1.561a1.721,1.721,0,0,0-3.142,1.35A44.1,44.1,0,0,0,.219,48.156,1.722,1.722,0,0,0,1.932,49.72Z" transform="translate(-0.008 -0.058)"/>
      <path id="Path_1282294" data-name="Path 1282294" d="M209.272,214.961a1.722,1.722,0,1,0-3.414.458,40.832,40.832,0,0,1-29.166,44.449,40.258,40.258,0,0,1-24.856-.832L153.464,258a1.722,1.722,0,1,0-1.845-2.909l-4.066,2.578a1.722,1.722,0,0,0-.533,2.376l2.552,4.032a1.721,1.721,0,0,0,3.165-1.115,43.557,43.557,0,0,0,12.775,1.922,44.127,44.127,0,0,0,43.759-49.927Z" transform="translate(-121.456 -176.699)"/>
      <path id="Path_1282295" data-name="Path 1282295" d="M23.308,316.214l-.006-.009-8.776-11.543a1.723,1.723,0,0,0-1.367-.68h0a1.722,1.722,0,0,0-1.366.674L2.974,316.139c-.02.027-.04.054-.059.082a13.514,13.514,0,0,0-2.89,8.358,13.228,13.228,0,0,0,13.089,13.333A13.228,13.228,0,0,0,26.2,324.578,13.52,13.52,0,0,0,23.308,316.214ZM13.114,334.467a9.78,9.78,0,0,1-9.645-9.889,10.053,10.053,0,0,1,2.217-6.307,1.693,1.693,0,0,0,.105-.145l7.357-9.583,7.382,9.709c.017.024.035.048.054.071a10.062,10.062,0,0,1,2.176,6.256A9.78,9.78,0,0,1,13.114,334.467Z" transform="translate(0 -251.624)"/>
      <path id="Path_1282296" data-name="Path 1282296" d="M73.424,413.554a1.722,1.722,0,0,0-1.722,1.722,4.028,4.028,0,0,1-3.961,4.083,1.722,1.722,0,0,0,0,3.445,7.476,7.476,0,0,0,7.406-7.528A1.722,1.722,0,0,0,73.424,413.554Z" transform="translate(-54.626 -342.322)"/>
      <path id="Path_1282297" data-name="Path 1282297" d="M362.881,12.237a13.513,13.513,0,0,0-2.891,8.358,13.091,13.091,0,1,0,26.178,0,13.52,13.52,0,0,0-2.9-8.364l-.006-.009L374.491.68A1.723,1.723,0,0,0,373.124,0h0a1.723,1.723,0,0,0-1.366.674l-8.814,11.482C362.919,12.182,362.9,12.209,362.881,12.237Zm2.77,2.051a1.7,1.7,0,0,0,.1-.144l7.358-9.584,7.382,9.709c.017.024.035.048.054.071a10.062,10.062,0,0,1,2.176,6.256,9.648,9.648,0,1,1-19.289,0A10.053,10.053,0,0,1,365.651,14.288Z" transform="translate(-297.963)"/>
      <path id="Path_1282298" data-name="Path 1282298" d="M427.705,118.82a7.476,7.476,0,0,0,7.406-7.528,1.722,1.722,0,1,0-3.445,0,4.028,4.028,0,0,1-3.961,4.083,1.722,1.722,0,1,0,0,3.445Z" transform="translate(-352.59 -90.697)"/>
    </g>
  </g>
</svg>
