<svg xmlns="http://www.w3.org/2000/svg" width="129.063" height="107.942" viewBox="0 0 129.063 107.942">
  <g id="Group_1201317" data-name="Group 1201317" transform="translate(-788.103 -1965.138)">
    <g id="Rectangle_410589" data-name="Rectangle 410589" transform="translate(788.103 2007.607)" fill="#a1c6f1" stroke="#6f89a8" stroke-width="1">
      <rect width="129.063" height="43.021" rx="8" stroke="none"/>
      <rect x="0.5" y="0.5" width="128.063" height="42.021" rx="7.5" fill="none"/>
    </g>
    <g id="chlorine_18562927" transform="translate(758.441 1959.428)">
      <g id="Group_1203946" data-name="Group 1203946" transform="translate(51.437 7.436)">
        <path id="Path_1282218" data-name="Path 1282218" d="M108.774,192.972a25.526,25.526,0,1,1-35.1-23.74,4.034,4.034,0,0,0,2.577-3.636V141.485l14.353.041v24.11a3.858,3.858,0,0,0,2.365,3.652,25.531,25.531,0,0,1,15.809,23.683Z" transform="translate(-57.722 -113.933)" fill="#f5f5f5"/>
        <path id="Path_1282219" data-name="Path 1282219" d="M177.1,41.306a3.2,3.2,0,1,1-3.2-3.2A3.2,3.2,0,0,1,177.1,41.306Zm23.392.051a3.2,3.2,0,1,0,3.2,3.2A3.2,3.2,0,0,0,200.487,41.357Zm-8.472-19.924a3.2,3.2,0,1,0,3.2,3.2,3.2,3.2,0,0,0-3.2-3.2Zm-12.417-1.3a3.264,3.264,0,0,0,1.551-2.6c0-2.1-2.568-3.811-5.735-3.811a7.123,7.123,0,0,0-4.449,1.407,8.512,8.512,0,0,0-1.461-.126,8.116,8.116,0,0,0-2.738.46,6.833,6.833,0,0,0-4.826-1.741c-3.179,0-5.756,1.712-5.756,3.825,0,.006,0,.011,0,.017-2.927.18-5.218,1.816-5.218,3.808a2.739,2.739,0,0,0,.425,1.444c-1.8.729-3,2.045-3,3.548a3.7,3.7,0,0,0,2,3.043c-2,4.987.552,6.335,1.934,6.927a7.512,7.512,0,0,0,5.425,0c1.368-.587,2.278-4.487,2.3-5.647a8.969,8.969,0,0,0,2.54.359c3.2,0,5.834-1.6,6.2-3.657a7.23,7.23,0,0,0,4.822-.761,7.85,7.85,0,0,0,3.266.679c3.167,0,5.735-1.706,5.735-3.811,0-1.451-1.22-2.712-3.015-3.356Z" transform="translate(-128.841 -13.712)" fill="#365e7d"/>
        <path id="Path_1282220" data-name="Path 1282220" d="M148.866,115.676a3.322,3.322,0,0,1-3.482,3.115l-14.353-.041a3.143,3.143,0,1,1,.018-6.25l14.353.041a3.323,3.323,0,0,1,3.464,3.135Z" transform="translate(-112.507 -91.198)" fill="#6cf"/>
        <path id="Path_1282221" data-name="Path 1282221" d="M122.231,373.679a20.428,20.428,0,0,1-40.848,0s10.028,4.844,20.424,0,20.424,0,20.424,0Z" transform="translate(-76.281 -294.368)" fill="#52cc7b"/>
        <path id="Path_1282222" data-name="Path 1282222" d="M261.737,312.28H219.762a4.81,4.81,0,0,1-4.134-7.267l20.987-35.307a4.81,4.81,0,0,1,8.269,0l20.987,35.307A4.81,4.81,0,0,1,261.737,312.28Z" transform="translate(-181.042 -212.659)" fill="#ffdf40"/>
        <path id="Path_1282223" data-name="Path 1282223" d="M324.465,337.3A2.462,2.462,0,1,1,322,334.838,2.462,2.462,0,0,1,324.465,337.3ZM322,307.618a3.466,3.466,0,0,0-3.466,3.466c0,.121,1,17.073,1,17.073a2.462,2.462,0,0,0,4.924,0s1-16.951,1-17.073A3.466,3.466,0,0,0,322,307.618Z" transform="translate(-262.296 -244.241)" fill="#393939"/>
      </g>
      <path id="Path_1282224" data-name="Path 1282224" d="M114.609,23.274a4.922,4.922,0,1,0-4.922-4.922A4.927,4.927,0,0,0,114.609,23.274Zm0-6.393a1.472,1.472,0,1,1-1.472,1.472A1.473,1.473,0,0,1,114.609,16.881ZM123.081,43.2a4.922,4.922,0,1,0-4.922-4.922A4.927,4.927,0,0,0,123.081,43.2Zm0-6.393a1.472,1.472,0,1,1-1.471,1.472A1.473,1.473,0,0,1,123.081,36.8Zm-31.51-1.776a4.922,4.922,0,1,0,4.922-4.922A4.927,4.927,0,0,0,91.571,35.029Zm6.393,0a1.472,1.472,0,1,1-1.472-1.472A1.473,1.473,0,0,1,97.964,35.029Zm39.783,63.878L116.76,63.6a6.535,6.535,0,0,0-11.234,0l-5.2,8.755A27.15,27.15,0,0,0,87.335,61.2a2.146,2.146,0,0,1-1.3-2.057V36.478a5.259,5.259,0,0,0,1.88-1.074,4.622,4.622,0,0,0,.02-6.979,5.372,5.372,0,0,0-3.6-1.371h-.424c.057-.212.11-.421.157-.625q.549.055,1.111.055c3.324,0,6.158-1.438,7.359-3.579a8.8,8.8,0,0,0,3.778-.666,9.864,9.864,0,0,0,3.154.506c4.183,0,7.46-2.432,7.46-5.536a4.869,4.869,0,0,0-2.021-3.823,4.408,4.408,0,0,0,.556-2.138c0-3.1-3.277-5.536-7.46-5.536a9.223,9.223,0,0,0-4.9,1.331c-.336-.033-.675-.05-1.014-.05a10.056,10.056,0,0,0-2.338.268,9.1,9.1,0,0,0-5.225-1.55c-3.476,0-6.327,1.674-7.2,4.018-3.211.638-5.5,2.789-5.5,5.357a4.331,4.331,0,0,0,.043.611,5.351,5.351,0,0,0-2.617,4.38,5.008,5.008,0,0,0,1.685,3.648,8.613,8.613,0,0,0-.388,3.29l-.576,0h-.016a5.038,5.038,0,0,0-5.2,4.836,4.894,4.894,0,0,0,3.464,4.586v22.66a2.33,2.33,0,0,1-1.5,2.042,27.266,27.266,0,0,0,9.487,52.507c.251.007.5.01.752.01a26.966,26.966,0,0,0,15.531-4.871h39.624a6.535,6.535,0,0,0,5.617-9.874ZM74.634,18.127a1.725,1.725,0,0,0,.822-2.5,1.024,1.024,0,0,1-.17-.541c0-.882,1.478-1.955,3.6-2.086A1.725,1.725,0,0,0,80.5,11.277c0-.011,0-.023,0-.036.023-.967,1.775-2.081,4.03-2.081a5.115,5.115,0,0,1,3.594,1.223,1.725,1.725,0,0,0,1.817.416,6.727,6.727,0,0,1,3.317-.258,1.723,1.723,0,0,0,1.387-.363A5.47,5.47,0,0,1,98.007,9.16c2.259,0,4.01,1.122,4.01,2.086,0,.554-.576,1.022-.823,1.2a1.725,1.725,0,0,0,.415,3.031c1.12.4,1.873,1.1,1.873,1.732,0,.965-1.752,2.086-4.01,2.086a6.111,6.111,0,0,1-2.543-.52,1.724,1.724,0,0,0-1.671.125,5.818,5.818,0,0,1-3.685.487,1.726,1.726,0,0,0-1.886,1.41c-.194,1.08-2.05,2.236-4.506,2.236a7.221,7.221,0,0,1-2.05-.287,1.725,1.725,0,0,0-2.215,1.627,11.3,11.3,0,0,1-.605,2.67l-6.257-.018a5.6,5.6,0,0,1,.533-3.263,1.725,1.725,0,0,0-.7-2.11,2.082,2.082,0,0,1-1.179-1.575c0-.711.755-1.475,1.922-1.949ZM68.221,31.858a1.614,1.614,0,0,1,1.746-1.382H84.326a1.979,1.979,0,0,1,1.3.506,1.177,1.177,0,0,1-.005,1.85,1.991,1.991,0,0,1-1.3.471l-14.353-.041a1.625,1.625,0,0,1-1.743-1.405Zm8.093,78.336A24,24,0,0,1,53.161,86.655a23.68,23.68,0,0,1,14.87-22.321A5.777,5.777,0,0,0,71.685,59.1V36.718l10.9.031V59.135a5.607,5.607,0,0,0,3.433,5.252A23.723,23.723,0,0,1,98.274,75.8l-4.682,7.876a26.567,26.567,0,0,0-17.36,1.507c-9.494,4.422-18.855.053-18.945.01a1.725,1.725,0,0,0-2.475,1.589A22.154,22.154,0,0,0,76.9,108.468h.066a21.928,21.928,0,0,0,8.482-1.685,6.409,6.409,0,0,0,1.565,1.2,23.648,23.648,0,0,1-10.7,2.209Zm7.473-6.46a18.526,18.526,0,0,1-6.823,1.284h-.056A18.839,18.839,0,0,1,58.5,89.325,26.817,26.817,0,0,0,77.69,88.309,22.827,22.827,0,0,1,91.734,86.8l-7.2,12.106a6.457,6.457,0,0,0-.75,4.826Zm51.023.038a3.051,3.051,0,0,1-2.681,1.559H90.155a3.085,3.085,0,0,1-2.651-4.661l20.987-35.307a3.084,3.084,0,0,1,5.3,0l20.987,35.307a3.05,3.05,0,0,1,.03,3.1ZM111.143,95.66a4.187,4.187,0,1,0,4.187,4.187A4.192,4.192,0,0,0,111.143,95.66Zm0,4.924a.737.737,0,1,1,.737-.737A.738.738,0,0,1,111.143,100.584Zm0-32.144a5.2,5.2,0,0,0-5.191,5.191c0,.069,0,.171,1,17.13a4.187,4.187,0,0,0,8.374,0c1-16.959,1-17.062,1-17.13a5.2,5.2,0,0,0-5.191-5.191Zm.74,22.162c0,.034,0,.068,0,.1a.737.737,0,0,1-1.474,0c0-.034,0-.068,0-.1-.268-4.517-.958-16.2-1-17a1.741,1.741,0,0,1,3.482,0c-.043.809-.733,12.487-1,17Z" transform="translate(0 0)"/>
    </g>
  </g>
</svg>
