<svg xmlns="http://www.w3.org/2000/svg" width="129.063" height="106.227" viewBox="0 0 129.063 106.227">
  <g id="Group_1201316" data-name="Group 1201316" transform="translate(-788.103 -1964.956)">
    <g id="Rectangle_410589" data-name="Rectangle 410589" transform="translate(788.103 2007.607)" fill="#a1c6f1" stroke="#6f89a8" stroke-width="1">
      <rect width="129.063" height="43.021" rx="8" stroke="none"/>
      <rect x="0.5" y="0.5" width="128.063" height="42.021" rx="7.5" fill="none"/>
    </g>
    <g id="Cut_Down" data-name="Cut Down" transform="translate(784.503 1958.641)">
      <g id="Group_1203945" data-name="Group 1203945" transform="translate(19.017 7.821)">
        <path id="Path_1282204" data-name="Path 1282204" d="M413.014,210.186c3.082,3.133-2.119,13.254-5.25,16.336A7.96,7.96,0,1,1,396.6,215.176C399.728,212.094,409.932,207.055,413.014,210.186Z" transform="translate(-315.728 -167.582)" fill="#80ed99" fill-rule="evenodd"/>
        <path id="Path_1282205" data-name="Path 1282205" d="M429.338,209.892c2.853-.886,5.524-1.063,6.859.293,3.082,3.133-2.119,13.254-5.25,16.336a7.952,7.952,0,0,1-7.286,2.1,7.929,7.929,0,0,0,2.17-1.518c3.131-3.082,8.332-13.206,5.25-16.336A3.308,3.308,0,0,0,429.338,209.892Z" transform="translate(-338.911 -167.582)" fill="#57cc99" fill-rule="evenodd"/>
        <path id="Path_1282206" data-name="Path 1282206" d="M24.965,387.62c-.6,2.778,5.754,6.5,8.534,7.095a5.149,5.149,0,1,0,2.159-10.068c-2.78-.6-10.1.2-10.693,2.974Z" transform="translate(-24.926 -305.593)" fill="#80ed99" fill-rule="evenodd"/>
        <path id="Path_1282207" data-name="Path 1282207" d="M157.2,340.967H84.181s.021-.034.057-.1a51.043,51.043,0,0,0,7.019-25.829V301.085a2.559,2.559,0,0,1,2.559-2.559h53.753a2.559,2.559,0,0,1,2.559,2.559v13.956a51.039,51.039,0,0,0,7.018,25.828Z" transform="translate(-71.586 -237.924)" fill="#dd9854" fill-rule="evenodd"/>
        <path id="Path_1282208" data-name="Path 1282208" d="M323.671,298.526h12.485a2.559,2.559,0,0,1,2.559,2.559v13.956a51.039,51.039,0,0,0,7.018,25.828c.039.065.058.1.058.1H333.306s-.019-.034-.057-.1a51.038,51.038,0,0,1-7.016-25.829V301.085A2.561,2.561,0,0,0,323.671,298.526Z" transform="translate(-260.173 -237.924)" fill="#b86f44" fill-rule="evenodd"/>
        <path id="Path_1282209" data-name="Path 1282209" d="M96.465,199.986l3.156,5.467-2.772,1.6a3.154,3.154,0,0,1-4.306-1.154s0,0,0-.006a3.15,3.15,0,0,1,1.152-4.306C95.078,200.789,96.465,199.986,96.465,199.986Z" transform="translate(-77.837 -160.328)" fill="#b86f44" fill-rule="evenodd"/>
        <path id="Path_1282210" data-name="Path 1282210" d="M166.512,46.314l56.263-32.483a3.155,3.155,0,0,1,4.31,1.154v0a3.155,3.155,0,0,1-1.154,4.31L169.668,51.779Z" transform="translate(-136.418 -13.407)" fill="#dd9854" fill-rule="evenodd"/>
        <path id="Path_1282211" data-name="Path 1282211" d="M384.242,19.591l9.986-5.764a3.155,3.155,0,0,1,4.31,1.154v0a3.155,3.155,0,0,1-1.154,4.31L388.2,24.6a5.919,5.919,0,0,0-.765-2.366,0,0,0,0,0,0,0,5.911,5.911,0,0,0-3.188-2.638Z" transform="translate(-307.87 -13.404)" fill="#b86f44" fill-rule="evenodd"/>
        <path id="Path_1282212" data-name="Path 1282212" d="M123.436,194.1l-12.485-21.625,11.548-6.668,3.5,6.064,2.748-1.586a16.827,16.827,0,0,0,22.981,6.158l3.811,6.6L136.389,194.1Z" transform="translate(-92.667 -133.413)" fill="#bdc7d5" fill-rule="evenodd"/>
        <path id="Path_1282213" data-name="Path 1282213" d="M230.631,257.953,249.784,246.9l2.706,4.689-11.031,6.368Z" transform="translate(-186.909 -197.268)" fill="#94a1b3" fill-rule="evenodd"/>
      </g>
      <path id="Path_1282214" data-name="Path 1282214" d="M310.785,381.546a1.594,1.594,0,0,0-1.594,1.594v10.5a1.594,1.594,0,1,0,3.188,0v-10.5a1.594,1.594,0,0,0-1.594-1.594Z" transform="translate(-229.754 -295.477)" fill="#28323e"/>
      <path id="Path_1282215" data-name="Path 1282215" d="M145.175,416.136a1.594,1.594,0,0,0-1.594,1.594v10.5a1.594,1.594,0,1,0,3.188,0v-10.5A1.594,1.594,0,0,0,145.175,416.136Z" transform="translate(-99.344 -322.715)" fill="#28323e"/>
      <path id="Path_1282216" data-name="Path 1282216" d="M106.149,111.7a1.557,1.557,0,0,0-.092-1.622l-.019-.033a49.494,49.494,0,0,1-6.8-25.022V71.067A4.126,4.126,0,0,0,99,69.693l.879-.858a9.485,9.485,0,0,0,5.516,1.807h.078a9.488,9.488,0,0,0,6.7-2.744,28.2,28.2,0,0,0,5.319-8.7c1.814-4.593,1.8-8.013-.051-9.891s-5.267-1.949-9.888-.208a28.185,28.185,0,0,0-8.783,5.181,9.558,9.558,0,0,0-1.127,12.285l-.775.757a4.121,4.121,0,0,0-1.783-.408H79.517L85.4,63.52a1.594,1.594,0,0,0,.584-2.177l-2.706-4.689s-2.784-4.823-3.811-6.6a1.594,1.594,0,0,0-2.177-.583A15.234,15.234,0,0,1,57.35,45.235c11.388-6.577,42.627-24.614,52.061-30.06a4.75,4.75,0,0,0,1.74-6.488c-.016-.027-.031-.053-.048-.078a4.761,4.761,0,0,0-6.442-1.661L49.534,38.775a1.592,1.592,0,0,0-1.482.058L36.5,45.5a1.592,1.592,0,0,0-.792,1.254l-1.638.945a4.727,4.727,0,0,0-2.21,2.885,4.782,4.782,0,0,0,.442,3.537c.012.023.024.045.037.068a4.752,4.752,0,0,0,6.484,1.737l1.391-.8,6.807,11.789H41.332a4.159,4.159,0,0,0-4.153,4.155V85.023a49.384,49.384,0,0,1-.5,6.97l-1.271-.267a6.748,6.748,0,0,0-5.328-6.411c-2.872-.615-11.66-.126-12.586,4.2-.408,1.9.845,3.971,3.622,5.99a18.523,18.523,0,0,0,6.135,3,6.725,6.725,0,0,0,7.486-3.658l1.388.292a49.436,49.436,0,0,1-5.743,14.9l-.055.091a1.594,1.594,0,0,0,1.365,2.418H104.72a1.6,1.6,0,0,0,1.429-.84ZM30.6,94.893a3.526,3.526,0,0,1-2.675.491,15.719,15.719,0,0,1-4.93-2.459c-1.94-1.41-2.44-2.456-2.379-2.742s.947-1.035,3.294-1.525a18.4,18.4,0,0,1,3.648-.373,9.513,9.513,0,0,1,1.859.149,3.528,3.528,0,0,1,2.237,1.545,3.564,3.564,0,0,1,.458,1.054L29.089,90.4a1.594,1.594,0,1,0-.656,3.12l3,.63A3.56,3.56,0,0,1,30.6,94.893ZM101,56.551a24.894,24.894,0,0,1,7.671-4.469,13.762,13.762,0,0,1,4.655-1.049,2.613,2.613,0,0,1,1.836.509c.632.642.843,2.726-.641,6.483a24.882,24.882,0,0,1-4.591,7.6,6.321,6.321,0,0,1-4.463,1.828h-.052a6.331,6.331,0,0,1-3.209-.9l4.293-4.193a1.594,1.594,0,1,0-2.228-2.281L99.967,64.29A6.376,6.376,0,0,1,101,56.551ZM73.14,66.912H68.689l12.619-7.285,1.112,1.927Zm33.112-57.2a1.566,1.566,0,0,1,2.136.572l.028.046a1.562,1.562,0,0,1-.6,2.086L52.938,44.1l-1.562-2.706L106.252,9.71ZM37.232,53.167a1.559,1.559,0,0,1-2.1-.535l-.025-.045a1.556,1.556,0,0,1,.568-2.125l1.393-.8,1.562,2.7Zm2.248-5.7,8.787-5.074c.114.2,2.784,4.819,2.706,4.684a1.6,1.6,0,0,0,2.26.536l1.344-.775a18.428,18.428,0,0,0,22.889,6.133l2.25,3.9-17.4,10.046H50.708ZM65.3,109.354a4.636,4.636,0,0,1,1.331-2.876l.359-.375,1.613-1.683a3.809,3.809,0,0,0,1.1-2.639c0-.4,0-.83,0-1.29l2.923,3.961a1.594,1.594,0,1,0,2.566-1.892l-5.148-6.98a1.587,1.587,0,0,0-.347-.344c0-2.472,0-4.58.007-4.889a1.594,1.594,0,0,0-3.172-.3c-.015.115-.04.308-.013,11.731a.649.649,0,0,1-.206.432L64.688,103.9l-.36.376a7.785,7.785,0,0,0-2.225,5.082H34.4a52.686,52.686,0,0,0,5.962-24.331V71.07a.967.967,0,0,1,.965-.967H58.225c-.029,1.762-.089,5.327-.129,7.7a4.6,4.6,0,0,1-1.344,3.075l-1.98,2.063a3.824,3.824,0,0,0-1.088,2.633c0,.413,0,.846,0,1.293L50.761,82.9A1.594,1.594,0,1,0,48.2,84.795l5.15,6.978a1.585,1.585,0,0,0,.346.34c0,2.508,0,4.572-.009,4.886a1.594,1.594,0,0,0,1.37,1.682,1.625,1.625,0,0,0,.223.016,1.594,1.594,0,0,0,1.577-1.373c.018-.133.044-.314.017-11.75a.655.655,0,0,1,.2-.43l1.98-2.063a7.768,7.768,0,0,0,2.232-5.227c.041-2.394.1-6.009.13-7.751H86.927V87.733a1.594,1.594,0,0,0,3.188,0V70.1h4.968a.968.968,0,0,1,.967.967V85.025a52.689,52.689,0,0,0,5.962,24.329Zm4.386-18.9c0-.032.007-.064.009-.094C69.69,90.4,69.686,90.436,69.683,90.452ZM53.7,96.879c0,.035-.009.071-.011.106,0-.054.009-.089.011-.106Z" fill="#28323e"/>
      <path id="Path_1282217" data-name="Path 1282217" d="M210.3,240.185a1.594,1.594,0,0,0-2.181-.572l-6.5,3.8a1.594,1.594,0,1,0,1.609,2.753l6.5-3.8A1.594,1.594,0,0,0,210.3,240.185Z" transform="translate(-144.424 -183.54)" fill="#28323e"/>
    </g>
  </g>
</svg>
