<svg xmlns="http://www.w3.org/2000/svg" xmlns:xlink="http://www.w3.org/1999/xlink" width="110.621" height="86.154" viewBox="0 0 110.621 86.154">
  <defs>
    <clipPath id="clip-path">
      <path id="path4146" d="M0-682.665H86.154v86.154H0Z" transform="translate(0 682.665)"/>
    </clipPath>
  </defs>
  <g id="Group_1201278" data-name="Group 1201278" transform="translate(-788.103 -1972.264)">
    <g id="Rectangle_410589" data-name="Rectangle 410589" transform="translate(788.103 2002.557)" fill="#ffc94a" stroke="#b18c32" stroke-width="1">
      <rect width="110.621" height="36.874" rx="8" stroke="none"/>
      <rect x="0.5" y="0.5" width="109.621" height="35.874" rx="7.5" fill="none"/>
    </g>
    <g id="g4140" transform="translate(801.32 1972.264)">
      <g id="g4142" transform="translate(0 0)">
        <g id="g4144" clip-path="url(#clip-path)">
          <g id="g4150" transform="translate(1.262 50.568)">
            <path id="path4152" d="M-157.465-4.12l-22.478,22.554a.9.9,0,0,0,.637,1.534h58.553a2.023,2.023,0,0,0,1.433-.6L-96.841-3.181a.9.9,0,0,0-.637-1.534h-58.553a2.023,2.023,0,0,0-1.433.6" transform="translate(180.207 4.715)" fill="#ffa78f"/>
          </g>
          <g id="g4154" transform="translate(18.114 69.665)">
            <path id="path4156" d="M-28.7,0c-2.289,0-4.145,1.586-4.145,3.542a3.189,3.189,0,0,0,.76,2.044h6.768a3.189,3.189,0,0,0,.76-2.044C-24.552,1.586-26.408,0-28.7,0" transform="translate(32.841 0)" fill="#f89580"/>
          </g>
          <g id="g4158" transform="translate(55.163 50.568)">
            <path id="path4160" d="M-199.6,0h-5.553a.9.9,0,0,1,.637,1.534L-226.99,24.088a2.023,2.023,0,0,1-1.433.6h5.553a2.024,2.024,0,0,0,1.433-.6l22.478-22.554A.9.9,0,0,0-199.6,0" transform="translate(228.423)" fill="#f89580"/>
          </g>
          <g id="g4162" transform="translate(37.38 60.031)">
            <path id="path4164" d="M-77.915-27.074c0,2.16-2.519,3.91-5.627,3.91s-5.627-1.751-5.627-3.91,2.519-3.91,5.627-3.91,5.627,1.751,5.627,3.91" transform="translate(89.168 30.984)" fill="#f89580"/>
          </g>
          <g id="g4166" transform="translate(1.262 37.079)">
            <path id="path4168" d="M-157.465-4.12l-22.478,22.554a.9.9,0,0,0,.637,1.534h58.553a2.023,2.023,0,0,0,1.433-.6L-96.841-3.181a.9.9,0,0,0-.637-1.534h-58.553a2.023,2.023,0,0,0-1.433.6" transform="translate(180.207 4.715)" fill="#e8ad8c"/>
          </g>
          <g id="g4170" transform="translate(55.163 37.079)">
            <path id="path4172" d="M-199.6,0h-5.553a.9.9,0,0,1,.637,1.534L-226.99,24.088a2.024,2.024,0,0,1-1.433.6h5.553a2.024,2.024,0,0,0,1.433-.6l22.478-22.554A.9.9,0,0,0-199.6,0" transform="translate(228.423)" fill="#e19a74"/>
          </g>
          <g id="g4174" transform="translate(1.262 22.763)">
            <path id="path4176" d="M-157.465-4.12l-22.478,22.554a.9.9,0,0,0,.637,1.534h58.553a2.023,2.023,0,0,0,1.433-.6L-96.841-3.181a.9.9,0,0,0-.637-1.534h-58.553a2.023,2.023,0,0,0-1.433.6" transform="translate(180.207 4.715)" fill="#68ca44"/>
          </g>
          <g id="g4178" transform="translate(55.163 22.763)">
            <path id="path4180" d="M-199.6,0h-5.553a.9.9,0,0,1,.637,1.534L-226.99,24.088a2.024,2.024,0,0,1-1.433.6h5.553a2.024,2.024,0,0,0,1.433-.6l22.478-22.554A.9.9,0,0,0-199.6,0" transform="translate(228.423)" fill="#4fc123"/>
          </g>
          <g id="g4182" transform="translate(16.901 18.54)">
            <path id="path4184" d="M-57.67-76.894a2.776,2.776,0,0,1-2.776-2.776,2.776,2.776,0,0,1,2.776-2.776,2.776,2.776,0,0,1,2.776,2.776,2.776,2.776,0,0,1-2.776,2.776m0-11.106A8.339,8.339,0,0,0-66-79.67c0,6.761,8.329,11.863,8.329,11.863s8.329-5.332,8.329-11.863A8.339,8.339,0,0,0-57.67-88" transform="translate(66 88)" fill="#fd8087"/>
          </g>
          <g id="g4186" transform="translate(57.89 10.903)">
            <path id="path4188" d="M0-5.128a.739.739,0,0,1,.827-.735A6.71,6.71,0,0,1,6.709.8V2.1H5.253A5.253,5.253,0,0,1,0-3.154Z" transform="translate(0 5.868)" fill="#68ca44"/>
          </g>
          <g id="g4190" transform="translate(64.599 10.903)">
            <path id="path4192" d="M-46.453-5.128a.739.739,0,0,0-.827-.735A6.71,6.71,0,0,0-53.163.8V2.1h1.456a5.253,5.253,0,0,0,5.253-5.253Z" transform="translate(53.163 5.868)" fill="#4fc123"/>
          </g>
          <g id="g4194" transform="translate(18.114 69.665)">
            <path id="path4196" d="M-52.128-38.677a3.189,3.189,0,0,0,.76-2.044c0-1.956-1.856-3.542-4.145-3.542s-4.145,1.586-4.145,3.542a3.189,3.189,0,0,0,.76,2.044" transform="translate(59.657 44.263)" fill="none" stroke="#000" stroke-linecap="round" stroke-linejoin="round" stroke-miterlimit="10" stroke-width="1.4"/>
          </g>
          <g id="g4198" transform="translate(37.379 61.762)">
            <path id="path4200" d="M-71.313,0a3.132,3.132,0,0,1,.954,2.179c0,2.161-2.519,3.911-5.627,3.911s-5.627-1.75-5.627-3.911A3.132,3.132,0,0,1-80.659,0" transform="translate(81.613 0)" fill="none" stroke="#000" stroke-linecap="round" stroke-linejoin="round" stroke-miterlimit="10" stroke-width="1.4"/>
          </g>
          <g id="g4202" transform="translate(1.262 61.762)">
            <path id="path4204" d="M-84.328,0-96.243,11.956a.9.9,0,0,0,.636,1.533h41.359" transform="translate(96.507)" fill="none" stroke="#000" stroke-linecap="round" stroke-linejoin="round" stroke-miterlimit="10" stroke-width="1.4"/>
          </g>
          <g id="g4206" transform="translate(49.411 50.568)">
            <path id="path4208" d="M-161.338,0h11.279a.9.9,0,0,1,.636,1.535L-171.9,24.088a2.022,2.022,0,0,1-1.432.594H-184.64" transform="translate(184.64)" fill="none" stroke="#000" stroke-linecap="round" stroke-linejoin="round" stroke-miterlimit="10" stroke-width="1.4"/>
          </g>
          <g id="g4210" transform="translate(8.999 52.728)">
            <path id="path4212" d="M-62.543-62.543l-9.033-9.033" transform="translate(71.576 71.576)" fill="none" stroke="#000" stroke-linecap="round" stroke-linejoin="round" stroke-miterlimit="10" stroke-width="1.4"/>
          </g>
          <g id="g4214" transform="translate(14.342 47.447)">
            <path id="path4216" d="M-99.1-99.112l-14.313-14.315" transform="translate(113.413 113.426)" fill="none" stroke="#000" stroke-linecap="round" stroke-linejoin="round" stroke-miterlimit="10" stroke-width="1.4"/>
          </g>
          <g id="g4218" transform="translate(24.964 47.447)">
            <path id="path4220" d="M-99.112-99.112l-14.315-14.315" transform="translate(113.426 113.426)" fill="none" stroke="#000" stroke-linecap="round" stroke-linejoin="round" stroke-miterlimit="10" stroke-width="1.4"/>
          </g>
          <g id="g4222" transform="translate(35.589 47.447)">
            <path id="path4224" d="M-99.112-99.112l-14.315-14.315" transform="translate(113.426 113.426)" fill="none" stroke="#000" stroke-linecap="round" stroke-linejoin="round" stroke-miterlimit="10" stroke-width="1.4"/>
          </g>
          <g id="g4226" transform="translate(46.21 47.447)">
            <path id="path4228" d="M-99.123-99.112l-14.316-14.315" transform="translate(113.44 113.426)" fill="none" stroke="#000" stroke-linecap="round" stroke-linejoin="round" stroke-miterlimit="10" stroke-width="1.4"/>
          </g>
          <g id="g4230" transform="translate(56.835 47.447)">
            <path id="path4232" d="M-65.861-65.861l-9.512-9.512" transform="translate(75.373 75.373)" fill="none" stroke="#000" stroke-linecap="round" stroke-linejoin="round" stroke-miterlimit="10" stroke-width="1.4"/>
          </g>
          <g id="g4234" transform="translate(64.503 44.489)">
            <path id="path4236" d="M-49.48-49.48l-7.146-7.146" transform="translate(56.627 56.627)" fill="none" stroke="#000" stroke-linecap="round" stroke-linejoin="round" stroke-miterlimit="10" stroke-width="1.4"/>
          </g>
          <g id="g4238" transform="translate(69.805 39.17)">
            <path id="path4240" d="M-49.48-49.48l-7.146-7.146" transform="translate(56.627 56.627)" fill="none" stroke="#000" stroke-linecap="round" stroke-linejoin="round" stroke-miterlimit="10" stroke-width="1.4"/>
          </g>
          <g id="g4242" transform="translate(1.262 37.078)">
            <path id="path4244" d="M-489.01,0h12.1a.9.9,0,0,1,.636,1.535l-22.479,22.555a2.022,2.022,0,0,1-1.432.594h-58.554a.9.9,0,0,1-.636-1.535l12.738-12.78" transform="translate(559.638)" fill="none" stroke="#000" stroke-linecap="round" stroke-linejoin="round" stroke-miterlimit="10" stroke-width="1.4"/>
          </g>
          <g id="g4246" transform="translate(1.262 22.764)">
            <path id="path4248" d="M-302.124,0h39.094a.9.9,0,0,1,.636,1.535l-22.479,22.553a2.024,2.024,0,0,1-1.432.6h-58.554a.9.9,0,0,1-.636-1.535l15.93-15.984" transform="translate(345.76)" fill="none" stroke="#000" stroke-linecap="round" stroke-linejoin="round" stroke-miterlimit="10" stroke-width="1.4"/>
          </g>
          <g id="g4250" transform="translate(32.474 22.764)">
            <path id="path4252" d="M-45.239,0h-6.534" transform="translate(51.773)" fill="none" stroke="#000" stroke-linecap="round" stroke-linejoin="round" stroke-miterlimit="10" stroke-width="1.4"/>
          </g>
          <g id="g4254" transform="translate(31.036 22.763)">
            <path id="path4256" d="M-170.635,0-195.28,24.683" transform="translate(195.28)" fill="none" stroke="#000" stroke-linecap="round" stroke-linejoin="round" stroke-miterlimit="10" stroke-width="1.4"/>
          </g>
          <g id="g4258" transform="translate(29.535 35.104)">
            <path id="path4260" d="M-306.877,0H-351.2" transform="translate(351.199)" fill="none" stroke="#000" stroke-linecap="round" stroke-linejoin="round" stroke-miterlimit="10" stroke-width="1.4"/>
          </g>
          <g id="g4262" transform="translate(12.297 35.104)">
            <path id="path4264" d="M-59.162,0h-8.545" transform="translate(67.706)" fill="none" stroke="#000" stroke-linecap="round" stroke-linejoin="round" stroke-miterlimit="10" stroke-width="1.4"/>
          </g>
          <g id="g4266" transform="translate(16.901 18.54)">
            <path id="path4268" d="M-57.67-76.894a2.776,2.776,0,0,1-2.776-2.776,2.776,2.776,0,0,1,2.776-2.776,2.776,2.776,0,0,1,2.776,2.776A2.776,2.776,0,0,1-57.67-76.894Zm0-11.106A8.339,8.339,0,0,0-66-79.67c0,6.761,8.329,11.863,8.329,11.863s8.329-5.332,8.329-11.863A8.339,8.339,0,0,0-57.67-88Z" transform="translate(66 88)" fill="none" stroke="#000" stroke-linecap="round" stroke-linejoin="round" stroke-miterlimit="10" stroke-width="1.4"/>
          </g>
          <g id="g4270" transform="translate(64.599 18.355)">
            <path id="path4272" d="M0,0V11.038" fill="none" stroke="#000" stroke-linecap="round" stroke-linejoin="round" stroke-miterlimit="10" stroke-width="1.4"/>
          </g>
          <g id="g4274" transform="translate(57.89 10.903)">
            <path id="path4276" d="M0-5.128a.739.739,0,0,1,.827-.735A6.71,6.71,0,0,1,6.709.8V2.1H5.253A5.253,5.253,0,0,1,0-3.154Z" transform="translate(0 5.868)" fill="none" stroke="#000" stroke-linecap="round" stroke-linejoin="round" stroke-miterlimit="10" stroke-width="1.4"/>
          </g>
          <g id="g4278" transform="translate(64.599 10.903)">
            <path id="path4280" d="M-46.453-5.128a.739.739,0,0,0-.827-.735A6.71,6.71,0,0,0-53.163.8V2.1h1.456a5.253,5.253,0,0,0,5.253-5.253Z" transform="translate(53.163 5.868)" fill="none" stroke="#000" stroke-linecap="round" stroke-linejoin="round" stroke-miterlimit="10" stroke-width="1.4"/>
          </g>
        </g>
      </g>
    </g>
  </g>
</svg>
