<svg xmlns="http://www.w3.org/2000/svg" width="129.063" height="85.671" viewBox="0 0 129.063 85.671">
  <g id="Group_1202137" data-name="Group 1202137" transform="translate(-787.781 -2548.76)">
    <g id="Rectangle_410589" data-name="Rectangle 410589" transform="translate(787.781 2575.623)" fill="#a1c6f2" stroke="#6f89a8" stroke-width="1">
      <rect width="129.063" height="43.021" rx="8" stroke="none"/>
      <rect x="0.5" y="0.5" width="128.063" height="42.021" rx="7.5" fill="none"/>
    </g>
    <g id="Layer_x0020_1" transform="translate(798.983 2537.244)">
      <g id="_277258712" transform="translate(9.139 11.516)">
        <g id="Group_1204253" data-name="Group 1204253" transform="translate(0.968 0.967)">
          <path id="_277263104" d="M37.338,45.422l2.084-5.99c2.439.3,4.99-.647,7.3-1.318,1.334-.387,2.537-.767,3.652-1.107l1.954,6.125c-1.086.3-2.67.641-3.866.987-3.865,1.12-7.075,2.2-11.128,1.3Z" transform="translate(-22.239 -23.45)" fill="#f4af19"/>
          <path id="_277262360" d="M109.743,43.132l1.954-6.125c1.115.341,2.318.721,3.652,1.107,2.313.67,4.864,1.616,7.3,1.318l2.084,5.99c-4.053.894-7.263-.182-11.128-1.3-1.2-.347-2.78-.687-3.866-.987Z" transform="translate(-53.391 -23.45)" fill="#f4af19"/>
          <path id="_277262216" d="M88.265,136.067H75.47V123.156h12.8Z" transform="translate(-38.645 -60.515)" fill="#be694f" fill-rule="evenodd"/>
          <path id="_277262072" d="M75.47,55.445h12.8v28.64H75.47Z" transform="translate(-38.645 -31.383)" fill="#be694f" fill-rule="evenodd"/>
          <rect id="_277262552" width="30.205" height="25.72" rx="12.86" transform="translate(28.12)" fill="#29af5c"/>
          <g id="Group_1204250" data-name="Group 1204250" transform="translate(70.688 32.153)">
            <path id="_277262240" d="M138.287,84.755q-6.769-7.555,0-15.11Q145.056,77.2,138.287,84.755Z" transform="translate(-134.903 -69.645)" fill="#29af5c" fill-rule="evenodd"/>
            <path id="_277261472" d="M139.149,87.372a.965.965,0,0,0,1.93,0V77.534a.965.965,0,0,0-1.93,0Z" transform="translate(-136.73 -72.624)" fill="#26874a"/>
          </g>
          <g id="Group_1204251" data-name="Group 1204251" transform="translate(8.989 32.153)">
            <path id="_277261232" d="M30,84.755Q23.23,77.2,30,69.645,36.768,77.2,30,84.755Z" transform="translate(-26.614 -69.645)" fill="#29af5c" fill-rule="evenodd"/>
            <path id="_277261856" d="M30.861,87.372a.965.965,0,0,0,1.93,0V77.534a.965.965,0,0,0-1.93,0Z" transform="translate(-28.442 -72.624)" fill="#26874a"/>
          </g>
          <path id="_277261496" d="M73.953,116.616h12.8a8.405,8.405,0,0,0,0-10.9h-12.8a8.405,8.405,0,0,0,0,10.9Z" transform="translate(-37.128 -53.01)" fill="#f4af19" fill-rule="evenodd"/>
          <path id="_277261808" d="M86.949,144.123H56.684a4.589,4.589,0,0,0-4.575,4.576v4.576H91.525V148.7A4.589,4.589,0,0,0,86.949,144.123Z" transform="translate(-28.594 -69.536)" fill="#f4af19" fill-rule="evenodd"/>
          <path id="_277261040" d="M119.125,93.97h24.747V94.3A12.41,12.41,0,0,1,131.5,106.676h0A12.41,12.41,0,0,1,119.125,94.3Z" transform="translate(-57.427 -47.958)" fill="#be694f" fill-rule="evenodd"/>
          <path id="_277260728" d="M10.837,93.97H35.584V94.3a12.41,12.41,0,0,1-12.374,12.374h0A12.41,12.41,0,0,1,10.837,94.3Z" transform="translate(-10.837 -47.958)" fill="#be694f" fill-rule="evenodd"/>
          <path id="_277260560" d="M86.7,38.28q.116-9.9,10.018-10.018Q96.6,38.164,86.7,38.28Z" transform="translate(-43.476 -19.688)" fill="#a3e261" fill-rule="evenodd"/>
          <path id="_277260632" d="M79.134,38.28q-.116-9.9-10.018-10.018Q69.232,38.164,79.134,38.28Z" transform="translate(-35.911 -19.688)" fill="#a3e261" fill-rule="evenodd"/>
          <path id="_277260800" d="M81.085,40.232q-.009-.747-.074-1.438L75.3,33.081a.965.965,0,0,0-1.364,1.364l5.713,5.713Q80.338,40.223,81.085,40.232Z" transform="translate(-37.862 -21.639)" fill="#89bc54" fill-rule="evenodd"/>
          <path id="_277260200" d="M86.7,40.232q.009-.747.074-1.438l5.713-5.713a.965.965,0,0,1,1.364,1.364l-5.713,5.713Q87.445,40.223,86.7,40.232Z" transform="translate(-43.476 -21.639)" fill="#89bc54" fill-rule="evenodd"/>
          <g id="Group_1204252" data-name="Group 1204252" transform="translate(7.278 12.571)">
            <circle id="_277259936" cx="5.095" cy="5.095" r="5.095" fill="#be694f"/>
            <circle id="_277259888" cx="5.095" cy="5.095" r="5.095" transform="translate(61.699)" fill="#be694f"/>
          </g>
        </g>
        <g id="Group_1204254" data-name="Group 1204254">
          <path id="_277259744" d="M52.343,151.584H89.832v-3.61a3.615,3.615,0,0,0-3.61-3.612H55.954a3.616,3.616,0,0,0-3.61,3.612Zm38.453,1.93H51.379a.965.965,0,0,1-.965-.965v-4.575a5.546,5.546,0,0,1,5.539-5.541H86.221a5.546,5.546,0,0,1,5.539,5.541v4.575A.965.965,0,0,1,90.8,153.513Z" transform="translate(-26.897 -67.842)" fill-rule="evenodd"/>
          <path id="_277260272" d="M87.537,136.069a.965.965,0,0,1-.965-.964V125.088H75.7V135.1a.965.965,0,0,1-1.93,0V124.123a.965.965,0,0,1,.964-.965h12.8a.965.965,0,0,1,.965.965V135.1a.965.965,0,0,1-.965.965Z" transform="translate(-36.948 -59.549)" fill-rule="evenodd"/>
          <path id="_277260104" d="M73.225,116.854a.965.965,0,0,1-.736-.339,9.37,9.37,0,0,1,0-12.157.965.965,0,0,1,1.469,1.252,7.436,7.436,0,0,0,0,9.652.965.965,0,0,1-.733,1.591Zm12.793,0a.965.965,0,0,1-.734-1.591,7.44,7.44,0,0,0,0-9.652.965.965,0,1,1,1.467-1.252,9.37,9.37,0,0,1,0,12.157A.965.965,0,0,1,86.019,116.854Z" transform="translate(-35.431 -51.315)" fill-rule="evenodd"/>
          <path id="_277259840" d="M87.537,85.05h-12.8a.965.965,0,0,1-.965-.965V56.408a.965.965,0,1,1,1.929,0V83.12H86.573V56.408a.965.965,0,1,1,1.929,0V84.085a.965.965,0,0,1-.965.965Z" transform="translate(-36.948 -30.415)" fill-rule="evenodd"/>
          <path id="_277259792" d="M120.975,39.722a19.808,19.808,0,0,1-5.622-1.113c-.338-.1-.671-.2-1-.3-.989-.287-1.889-.564-2.762-.833l-.9-.278a.965.965,0,1,1,.563-1.845l.91.28c.864.266,1.757.542,2.73.824.336.1.677.2,1.021.3a15.005,15.005,0,0,0,5.9.982.965.965,0,1,1,.233,1.915,8.768,8.768,0,0,1-1.067.063Zm.006,6.27a26.892,26.892,0,0,1-7.652-1.467l-.715-.209c-.641-.186-1.407-.372-2.149-.552-.621-.151-1.206-.293-1.706-.432a.965.965,0,1,1,.515-1.86c.47.13,1.043.269,1.648.416.76.185,1.548.377,2.229.574l.72.209c3.561,1.041,6.373,1.863,9.933,1.078a.965.965,0,1,1,.414,1.884,14.887,14.887,0,0,1-3.236.358Z" transform="translate(-51.694 -21.754)" fill-rule="evenodd"/>
          <path id="_277260296" d="M136.269,35.511a4.131,4.131,0,1,0,4.13,4.131A4.136,4.136,0,0,0,136.269,35.511Zm0,10.191a6.06,6.06,0,1,1,6.06-6.06A6.068,6.068,0,0,1,136.269,45.7Z" transform="translate(-61.228 -21.01)" fill-rule="evenodd"/>
          <path id="_277259816" d="M39.642,39.722a8.78,8.78,0,0,1-1.067-.063.965.965,0,0,1,.233-1.915,15.012,15.012,0,0,0,5.9-.982c.344-.1.685-.207,1.021-.3.969-.281,1.859-.555,2.721-.821l.919-.282a.965.965,0,0,1,.563,1.846l-.913.281c-.87.268-1.769.545-2.754.831-.327.1-.661.2-1,.3a19.82,19.82,0,0,1-5.622,1.113Zm-.006,6.27a14.894,14.894,0,0,1-3.236-.358.965.965,0,1,1,.414-1.884c3.56.785,6.372-.037,9.933-1.077l.72-.21c.682-.2,1.469-.389,2.231-.574.6-.147,1.176-.286,1.646-.416a.965.965,0,1,1,.515,1.86c-.5.138-1.085.281-1.706.432-.739.18-1.508.367-2.149.553l-.714.208a26.922,26.922,0,0,1-7.654,1.467Z" transform="translate(-20.541 -21.754)" fill-rule="evenodd"/>
          <path id="_277259120" d="M27.976,35.511a4.131,4.131,0,1,0,4.131,4.131A4.136,4.136,0,0,0,27.976,35.511Zm0,10.191a6.06,6.06,0,1,1,6.06-6.06A6.066,6.066,0,0,1,27.976,45.7Z" transform="translate(-14.636 -21.01)" fill-rule="evenodd"/>
          <path id="_277258880" d="M34.855,76.65A.968.968,0,0,1,34,76.138L22.48,54.487,10.957,76.138a.965.965,0,1,1-1.7-.906L21.627,51.98a.966.966,0,0,1,1.7,0L35.705,75.231a.965.965,0,0,1-.85,1.418Z" transform="translate(-9.139 -28.705)" fill-rule="evenodd"/>
          <path id="_277258832" d="M11.086,94.207a11.41,11.41,0,0,0,22.785,0Zm11.393,12.707A13.354,13.354,0,0,1,9.139,93.575v-.333a.965.965,0,0,1,.964-.965H34.852a.965.965,0,0,1,.965.965v.332a13.354,13.354,0,0,1-13.339,13.339Z" transform="translate(-9.139 -46.263)" fill-rule="evenodd"/>
          <path id="_277258928" d="M72.323,13.446a11.9,11.9,0,1,0,0,23.792h4.485a11.9,11.9,0,1,0,0-23.792Zm4.484,25.722H72.323a13.826,13.826,0,1,1,0-27.651h4.485a13.826,13.826,0,1,1,0,27.651Z" transform="translate(-30.374 -11.516)" fill-rule="evenodd"/>
          <path id="_277259360" d="M94.984,28.536c-5.089.349-7.66,2.921-8.01,8.009C92.064,36.2,94.635,33.625,94.984,28.536Zm-9.013,9.979a.963.963,0,0,1-.965-.976c.083-7.095,3.875-10.889,10.97-10.972h.012a.966.966,0,0,1,.965.976c-.084,7.094-3.877,10.888-10.972,10.972Z" transform="translate(-41.78 -17.992)" fill-rule="evenodd"/>
          <path id="_277258808" d="M85.972,41.194a.965.965,0,0,1-.683-1.647l6.47-6.47a.965.965,0,0,1,1.365,1.364l-6.47,6.469A.963.963,0,0,1,85.972,41.194Z" transform="translate(-41.78 -20.671)" fill-rule="evenodd"/>
          <path id="_277259288" d="M69.391,28.536c.35,5.088,2.92,7.66,8.01,8.009C77.051,31.457,74.48,28.885,69.391,28.536Zm9.015,9.979h-.012c-7.095-.084-10.888-3.877-10.973-10.972a.966.966,0,0,1,.977-.976c7.093.083,10.888,3.877,10.972,10.972a.973.973,0,0,1-.283.693.963.963,0,0,1-.681.282Z" transform="translate(-34.214 -17.992)" fill-rule="evenodd"/>
          <path id="_277259192" d="M81.086,41.194a.965.965,0,0,1-.683-.282l-6.47-6.47A.965.965,0,1,1,75.3,33.078l6.47,6.47a.965.965,0,0,1-.682,1.647Z" transform="translate(-36.894 -20.671)" fill-rule="evenodd"/>
          <path id="_277259168" d="M28.856,70.338c-3.25,3.739-3.25,7.277,0,11.017C32.1,77.615,32.1,74.077,28.856,70.338Zm0,13.4a.971.971,0,0,1-.692-.291c-4.858-4.975-4.858-10.234,0-15.208a.965.965,0,0,1,1.381,0c4.86,4.974,4.86,10.234,0,15.208A.962.962,0,0,1,28.856,83.741Z" transform="translate(-15.757 -35.797)" fill-rule="evenodd"/>
          <path id="_277259144" d="M31.4,87.448a.965.965,0,0,1-.965-.965v-8.95a.965.965,0,1,1,1.929,0v8.95a.965.965,0,0,1-.965.965Z" transform="translate(-18.302 -39.504)" fill-rule="evenodd"/>
          <path id="_277258544" d="M143.147,76.65a.963.963,0,0,1-.852-.512L130.772,54.487,119.249,76.138a.965.965,0,1,1-1.7-.906L129.92,51.98a.966.966,0,0,1,1.7,0L144,75.231a.965.965,0,0,1-.85,1.418Z" transform="translate(-55.731 -28.705)" fill-rule="evenodd"/>
          <path id="_277258112" d="M119.38,94.207a11.41,11.41,0,0,0,22.785,0Zm11.393,12.707a13.354,13.354,0,0,1-13.339-13.339v-.333a.965.965,0,0,1,.965-.965h24.749a.965.965,0,0,1,.965.965v.332a13.354,13.354,0,0,1-13.34,13.339Z" transform="translate(-55.732 -46.263)" fill-rule="evenodd"/>
          <path id="_277258496" d="M137.572,70.338c-3.249,3.739-3.249,7.277,0,11.017C140.821,77.615,140.821,74.077,137.572,70.338Zm0,13.4a.963.963,0,0,1-.69-.291c-4.86-4.975-4.86-10.234,0-15.208a.965.965,0,0,1,1.381,0c4.858,4.974,4.858,10.234,0,15.208A.967.967,0,0,1,137.572,83.741Z" transform="translate(-62.531 -35.797)" fill-rule="evenodd"/>
          <path id="_277258208" d="M140.116,87.448a.965.965,0,0,1-.965-.965v-8.95a.965.965,0,1,1,1.929,0v8.95a.965.965,0,0,1-.965.965Z" transform="translate(-65.075 -39.504)" fill-rule="evenodd"/>
        </g>
      </g>
    </g>
  </g>
</svg>
