<svg xmlns="http://www.w3.org/2000/svg" width="129.063" height="101.945" viewBox="0 0 129.063 101.945">
  <g id="Group_1201310" data-name="Group 1201310" transform="translate(-788.103 -1968.192)">
    <g id="Rectangle_410589" data-name="Rectangle 410589" transform="translate(788.103 2007.607)" fill="#a1c6f1" stroke="#6f89a8" stroke-width="1">
      <rect width="129.063" height="43.021" rx="8" stroke="none"/>
      <rect x="0.5" y="0.5" width="128.063" height="42.021" rx="7.5" fill="none"/>
    </g>
    <g id="temperature_1552706" transform="translate(803.856 1967.192)">
      <g id="Group_1203925" data-name="Group 1203925" transform="translate(2.644 2.644)">
        <g id="Group_1203924" data-name="Group 1203924" transform="translate(0 0)">
          <path id="Path_1282163" data-name="Path 1282163" d="M78.377,14.43,75.121,31.794A5.023,5.023,0,0,1,66.258,34l-.1-.132a16.545,16.545,0,0,0-24.615-1.348l-.362.362a15.9,15.9,0,0,1-11.23,4.653,4.933,4.933,0,0,1-3.946-7.893l2.96-3.946a4.926,4.926,0,0,0,.987-2.96A14.783,14.783,0,0,0,17.259,8.1h-.016a42.379,42.379,0,0,0-8.5,9.7h7.942a5.039,5.039,0,0,1,5.048,5.048,4.958,4.958,0,0,1-.855,2.8L19.38,27.9a5.666,5.666,0,0,0-.937,3.124v8.846a5.619,5.619,0,0,0,4.078,5.41l3.354.954a5.625,5.625,0,0,1-1.546,11.033H20.663a8.921,8.921,0,0,1-7.975-4.933A8.921,8.921,0,0,0,4.713,47.4H2V85.217a3.3,3.3,0,0,0,3.289,3.289,3.215,3.215,0,0,0,2.318-.97,3.215,3.215,0,0,0,.97-2.318V72.062a3.3,3.3,0,0,1,3.289-3.289,3.313,3.313,0,0,1,3.289,3.289V93.438a3.3,3.3,0,0,0,3.289,3.289,3.313,3.313,0,0,0,3.289-3.289V67.13a3.3,3.3,0,0,1,3.289-3.289,3.312,3.312,0,0,1,3.289,3.289V86.861A3.3,3.3,0,0,0,31.6,90.15H36.53v4.933h4.933V78.64a3.3,3.3,0,0,1,3.289-3.289A3.313,3.313,0,0,1,48.04,78.64v14.8a3.3,3.3,0,0,0,3.289,3.289,3.313,3.313,0,0,0,3.289-3.289V88.505h6.577V81.928A3.31,3.31,0,0,1,62.509,79.3l3.946-2.96a3.31,3.31,0,0,0,1.315-2.631V67.13a3.3,3.3,0,0,0-3.289-3.289H62.838a3.313,3.313,0,0,1-3.289-3.289,3.3,3.3,0,0,1,3.289-3.289H71.06a3.313,3.313,0,0,0,3.289-3.289,3.3,3.3,0,0,0-3.289-3.289H67.771A3.3,3.3,0,0,1,64.483,47.4V42.465A22.92,22.92,0,0,1,80.925,49.4V26.023a6.536,6.536,0,0,1,1.907-4.637A42.037,42.037,0,0,0,78.377,14.43Z" transform="translate(-2 1.93)" fill="#69d6f4"/>
          <path id="Path_1282164" data-name="Path 1282164" d="M72.4,18.361,69.142,35.724a5.023,5.023,0,0,1-8.863,2.2l-.1-.132a16.545,16.545,0,0,0-24.615-1.348l-.362.362a15.9,15.9,0,0,1-11.23,4.653,4.933,4.933,0,0,1-3.946-7.893l2.96-3.946a4.926,4.926,0,0,0,.987-2.96A14.783,14.783,0,0,0,11.28,12.03,42.717,42.717,0,0,1,72.4,18.361Z" transform="translate(3.979 -2)" fill="#b4dd7f"/>
          <path id="Path_1282165" data-name="Path 1282165" d="M2.51,43.6H2V37.02A42.363,42.363,0,0,1,8.742,14h7.942a5.039,5.039,0,0,1,5.048,5.048,4.958,4.958,0,0,1-.855,2.8L19.38,24.1a5.666,5.666,0,0,0-.937,3.124v8.846a5.619,5.619,0,0,0,4.078,5.41l3.354.954a5.625,5.625,0,0,1-1.546,11.033H20.663a8.921,8.921,0,0,1-7.975-4.933A8.921,8.921,0,0,0,4.713,43.6Z" transform="translate(-2 5.731)" fill="#b4dd7f"/>
          <path id="Path_1282166" data-name="Path 1282166" d="M65.731,67.748a1.049,1.049,0,0,0-.23-.132h.23V21.577A6.581,6.581,0,0,0,54.5,16.924l-.016.016a6.536,6.536,0,0,0-1.907,4.637V67.748a13.154,13.154,0,1,0,13.154,0Z" transform="translate(26.348 6.376)" fill="#ef7385"/>
        </g>
      </g>
      <g id="Group_1203926" data-name="Group 1203926" transform="translate(1 1)">
        <path id="Path_1282167" data-name="Path 1282167" d="M96.368,75.856V30.6a8.231,8.231,0,0,0-8.221-8.221,8.115,8.115,0,0,0-4.132,1.156A44.383,44.383,0,0,0,1,45.4v44.4a4.933,4.933,0,1,0,9.866,0V76.637a1.644,1.644,0,0,1,3.289,0V98.012a4.933,4.933,0,1,0,9.866,0V71.7a1.644,1.644,0,1,1,3.289,0V91.435a4.939,4.939,0,0,0,4.933,4.933h4.933V93.08H32.241A1.645,1.645,0,0,1,30.6,91.435V71.7a4.933,4.933,0,1,0-9.866,0V98.012a1.644,1.644,0,1,1-3.289,0V76.637a4.933,4.933,0,1,0-9.866,0V89.791a1.644,1.644,0,0,1-3.289,0V53.617H5.351a7.24,7.24,0,0,1,6.511,4.024,10.5,10.5,0,0,0,9.451,5.842h3.66a7.268,7.268,0,0,0,2-14.256l-3.351-.957a4,4,0,0,1-2.887-3.828V35.589a3.983,3.983,0,0,1,.668-2.208l1.5-2.244a6.692,6.692,0,0,0-5.568-10.4H12.533a41.46,41.46,0,0,1,5.859-6.289A13.194,13.194,0,0,1,28.953,27.308a3.318,3.318,0,0,1-.656,1.973L25.334,33.23A6.578,6.578,0,0,0,30.6,43.751a17.4,17.4,0,0,0,12.388-5.13l.375-.373a14.892,14.892,0,0,1,22.162,1.23l.1.128a6.663,6.663,0,0,0,11.752-2.933l2.544-13.564q.841,1.3,1.59,2.68A8.145,8.145,0,0,0,79.925,30.6V50.373a24.357,24.357,0,0,0-14-4.964L60.959,39.2a5.365,5.365,0,0,0-4.211-2.024H53.98a5.409,5.409,0,0,0-5.3,5.444,2.094,2.094,0,0,1-1.524,1.973l-1.233.352a12.118,12.118,0,0,0-8.749,11.6V61.4a11.843,11.843,0,0,0,10.4,11.568,8.807,8.807,0,0,1,3.876,1.583l1.483,1.08a1.65,1.65,0,0,1,.679,1.33V98.012a1.644,1.644,0,0,1-3.289,0v-14.8a4.933,4.933,0,0,0-9.866,0V99.657h3.289V83.214a1.644,1.644,0,0,1,3.289,0v14.8a4.933,4.933,0,0,0,9.866,0V76.966a4.951,4.951,0,0,0-2.031-3.989L53.39,71.9a12.14,12.14,0,0,0-5.324-2.177,8.577,8.577,0,0,1-7.6-8.315V56.545a8.816,8.816,0,0,1,6.365-8.44l1.235-.352A5.368,5.368,0,0,0,51.971,42.7a2.133,2.133,0,0,1,2.011-2.233h2.767a2.093,2.093,0,0,1,1.643.789l5.091,6.365v4.356a4.939,4.939,0,0,0,4.933,4.933H71.7a1.644,1.644,0,0,1,0,3.289H63.483a4.933,4.933,0,1,0,0,9.866h1.644A1.645,1.645,0,0,1,66.771,71.7v6.577a1.65,1.65,0,0,1-.658,1.315l-3.946,2.961A4.947,4.947,0,0,0,60.194,86.5V93.08h3.289V86.5a1.65,1.65,0,0,1,.658-1.315l3.945-2.961a4.944,4.944,0,0,0,1.975-3.945V71.7a4.939,4.939,0,0,0-4.933-4.933H63.483a1.644,1.644,0,0,1,0-3.289H71.7a4.933,4.933,0,0,0,0-9.866H68.415a1.646,1.646,0,0,1-1.644-1.644V48.765a21.1,21.1,0,0,1,13.154,5.924V75.854a14.773,14.773,0,0,0-6.395,14.654A14.8,14.8,0,1,0,96.368,75.856ZM17.328,24.02a3.4,3.4,0,0,1,2.831,5.291l-1.5,2.244a7.267,7.267,0,0,0-1.22,4.033v8.853a7.3,7.3,0,0,0,5.272,6.988l3.351.957a3.98,3.98,0,0,1-1.092,7.807h-3.66A7.24,7.24,0,0,1,14.8,56.171a10.5,10.5,0,0,0-9.451-5.842H4.289V45.4A40.856,40.856,0,0,1,10.3,24.02ZM74.144,36.066a3.374,3.374,0,0,1-5.954,1.483l-.1-.128a18.182,18.182,0,0,0-27.052-1.5l-.375.373A14.135,14.135,0,0,1,30.6,40.463,3.29,3.29,0,0,1,27.965,35.2l2.963-3.948a6.625,6.625,0,0,0,1.314-3.945A16.509,16.509,0,0,0,21.553,11.941a41.069,41.069,0,0,1,55.713,7.475ZM95.822,96.725a11.394,11.394,0,0,1-9,2.858,11.5,11.5,0,0,1-4.433-21.394l.82-.475V30.6a4.933,4.933,0,0,1,9.866,0V35.53H86.5v3.289H93.08v3.289H89.791V45.4H93.08v3.289H86.5v3.289H93.08v3.289H89.791V58.55H93.08v3.289H86.5v3.289H93.08v3.289H89.791V71.7H93.08v3.289H86.5v3.289h7.534a11.488,11.488,0,0,1,1.786,18.444Z" transform="translate(-1 -1)"/>
        <path id="Path_1282168" data-name="Path 1282168" d="M52.289,54H49a8.231,8.231,0,0,0,8.221,8.221V58.933A4.939,4.939,0,0,1,52.289,54Z" transform="translate(29.925 33.147)"/>
        <rect id="Rectangle_412896" data-name="Rectangle 412896" width="4" height="4" transform="translate(44 7.945)"/>
        <rect id="Rectangle_412897" data-name="Rectangle 412897" width="3" height="3" transform="translate(56 19.945)"/>
        <rect id="Rectangle_412898" data-name="Rectangle 412898" width="4" height="3" transform="translate(31 32.945)"/>
        <rect id="Rectangle_412899" data-name="Rectangle 412899" width="3" height="3" transform="translate(33 11.945)"/>
        <rect id="Rectangle_412900" data-name="Rectangle 412900" width="3" height="3" transform="translate(43 22.945)"/>
        <rect id="Rectangle_412901" data-name="Rectangle 412901" width="3" height="3" transform="translate(56 11.945)"/>
        <rect id="Rectangle_412902" data-name="Rectangle 412902" width="3" height="3" transform="translate(36 19.945)"/>
      </g>
    </g>
  </g>
</svg>
