<svg xmlns="http://www.w3.org/2000/svg" width="129.063" height="99.858" viewBox="0 0 129.063 99.858">
  <g id="Group_1201314" data-name="Group 1201314" transform="translate(-788.103 -1969.247)">
    <g id="Rectangle_410589" data-name="Rectangle 410589" transform="translate(788.103 2007.607)" fill="#a1c6f1" stroke="#6f89a8" stroke-width="1">
      <rect width="129.063" height="43.021" rx="8" stroke="none"/>
      <rect x="0.5" y="0.5" width="128.063" height="42.021" rx="7.5" fill="none"/>
    </g>
    <g id="coral_17014961" transform="translate(801.198 1967.747)">
      <g id="Group_1204032" data-name="Group 1204032" transform="translate(1.491 17.461)">
        <g id="Group_1204005" data-name="Group 1204005">
          <g id="Group_1203947" data-name="Group 1203947" transform="translate(0.775 0.808)">
            <path id="Path_1282225" data-name="Path 1282225" d="M100.316,12.175c-2.425.444-2.821,2.187-5.944,2.187-3.6,0-3.6-2.282-7.212-2.282-3.63,0-3.63,2.282-7.228,2.282-3.566,0-3.566-2.282-7.18-2.282-3.6,0-3.6,2.282-7.228,2.282a6.264,6.264,0,0,1-3.931-1.347,5.618,5.618,0,0,0-3.249-.935c-3.6,0-3.6,2.282-7.212,2.282-3.6,0-3.6-2.282-7.2-2.282-3.63,0-3.63,2.282-7.228,2.282-3.566,0-3.566-2.282-7.18-2.282-3.6,0-3.6,2.282-7.228,2.282a6.227,6.227,0,0,1-3.931-1.347,5.618,5.618,0,0,0-3.249-.935c-3.6-.016-3.6,2.267-7.212,2.267-3.123,0-3.551-1.7-5.928-2.172v9.764c2.378.476,2.79,2.172,5.928,2.172,3.614,0,3.614-2.282,7.212-2.282a5.739,5.739,0,0,1,3.249.935A6.227,6.227,0,0,0,22.3,24.111c3.63,0,3.63-2.282,7.228-2.282,3.614,0,3.614,2.282,7.18,2.282,3.6,0,3.6-2.282,7.228-2.282,3.6,0,3.6,2.282,7.2,2.282,3.614,0,3.614-2.282,7.212-2.282a5.739,5.739,0,0,1,3.249.935,6.264,6.264,0,0,0,3.931,1.347c3.63,0,3.63-2.282,7.228-2.282,3.614,0,3.614,2.282,7.18,2.282,3.6,0,3.6-2.282,7.228-2.282,3.6,0,3.6,2.282,7.212,2.282,3.123,0,3.519-1.744,5.944-2.187Z" transform="translate(-1.98 -12.08)" fill="#6bbeeb"/>
          </g>
          <g id="Group_1203948" data-name="Group 1203948" transform="translate(0.775 10.556)">
            <path id="Path_1282226" data-name="Path 1282226" d="M100.316,18.341V90.809H1.98V18.341c2.378.476,2.79,2.172,5.928,2.172,3.614,0,3.614-2.282,7.212-2.282a5.739,5.739,0,0,1,3.249.935A6.227,6.227,0,0,0,22.3,20.512c3.63,0,3.63-2.282,7.228-2.282,3.614,0,3.614,2.282,7.18,2.282,3.6,0,3.6-2.282,7.228-2.282,3.6,0,3.6,2.282,7.2,2.282,3.614,0,3.614-2.282,7.212-2.282a5.739,5.739,0,0,1,3.249.935,6.264,6.264,0,0,0,3.931,1.347c3.63,0,3.63-2.282,7.228-2.282,3.614,0,3.614,2.282,7.18,2.282,3.6,0,3.6-2.282,7.228-2.282,3.6,0,3.6,2.282,7.212,2.282,3.107,0,3.5-1.728,5.944-2.172Z" transform="translate(-1.98 -18.23)" fill="#56a7d2"/>
          </g>
          <g id="Group_1203954" data-name="Group 1203954" transform="translate(38.312 40.387)">
            <g id="Group_1203952" data-name="Group 1203952" transform="translate(0.474 0)">
              <g id="Group_1203949" data-name="Group 1203949" transform="translate(3.849)">
                <path id="Path_1282227" data-name="Path 1282227" d="M31.8,73.332a.349.349,0,0,1-.127-.016.783.783,0,0,1-.634-.888,49.881,49.881,0,0,0,.079-9.225l-.048-.919a70.289,70.289,0,0,1,.571-12.031c1.03-8.385-2.821-11.713-2.98-11.84a.774.774,0,0,1-.1-1.078.76.76,0,0,1,1.078-.111c.19.159,4.676,3.931,3.535,13.219a68.835,68.835,0,0,0-.555,11.777l.048.919a49.444,49.444,0,0,1-.1,9.558A.807.807,0,0,1,31.8,73.332Z" transform="translate(-28.389 -37.05)"/>
              </g>
              <g id="Group_1203950" data-name="Group 1203950" transform="translate(7.275 3.788)">
                <path id="Path_1282228" data-name="Path 1282228" d="M31.31,46.906a.768.768,0,0,1-.143-1.522c3.614-.745,3.661-4.993,3.661-5.183a.761.761,0,1,1,1.522,0c0,1.965-1,5.881-4.9,6.689a.439.439,0,0,1-.143.016Z" transform="translate(-30.551 -39.44)"/>
              </g>
              <g id="Group_1203951" data-name="Group 1203951" transform="translate(0 3.806)">
                <path id="Path_1282229" data-name="Path 1282229" d="M33.885,44.87a.594.594,0,0,1-.174-.016A18.465,18.465,0,0,1,26.2,40.765a.771.771,0,0,1-.032-1.078.79.79,0,0,1,1.094-.032,17.022,17.022,0,0,0,6.816,3.709.781.781,0,0,1,.571.935A.8.8,0,0,1,33.885,44.87Z" transform="translate(-25.961 -39.451)"/>
              </g>
            </g>
            <g id="Group_1203953" data-name="Group 1203953" transform="translate(0 11.326)">
              <path id="Path_1282230" data-name="Path 1282230" d="M33.743,49.2a.79.79,0,0,1-.7-.428c-1.95-4.042-6.213-2.885-6.4-2.837a.767.767,0,1,1-.428-1.474A6.9,6.9,0,0,1,34.424,48.1a.775.775,0,0,1-.365,1.03.71.71,0,0,1-.317.063Z" transform="translate(-25.662 -44.196)"/>
            </g>
          </g>
          <g id="Group_1203978" data-name="Group 1203978" transform="translate(58.605 22.936)">
            <g id="Group_1203959" data-name="Group 1203959" transform="translate(0.737 4.803)">
              <g id="Group_1203958" data-name="Group 1203958">
                <g id="Group_1203957" data-name="Group 1203957">
                  <g id="Group_1203955" data-name="Group 1203955" transform="translate(0.777 0.745)">
                    <path id="Path_1282231" data-name="Path 1282231" d="M73.2,55.741,62.752,67.153l.365,8.4h-13.6l.365-8.4L39.42,55.741l3.6-3.6,7.228,6.61.317-7.323L39.42,39.272l3.6-3.6,7.925,7.244.571-13.378h9.574l.586,13.378L69.6,35.674l3.6,3.6L62.054,51.429l.317,7.323,7.228-6.61Z" transform="translate(-39.42 -29.54)" fill="#b9dd53"/>
                  </g>
                  <g id="Group_1203956" data-name="Group 1203956">
                    <path id="Path_1282232" data-name="Path 1282232" d="M63.4,76.606H49.8a.743.743,0,0,1-.555-.238.751.751,0,0,1-.206-.571l.349-8.084L39.152,56.539a.766.766,0,0,1,.016-1.062l3.6-3.6a.766.766,0,0,1,1.062-.016l6.007,5.5.238-5.357L39.136,40.07a.766.766,0,0,1,.016-1.062l3.6-3.6a.766.766,0,0,1,1.062-.016l6.7,6.134L51.024,29.8a.755.755,0,0,1,.761-.729h9.574a.755.755,0,0,1,.761.729l.507,11.729,6.7-6.134a.782.782,0,0,1,1.062.016l3.6,3.6a.766.766,0,0,1,.016,1.062L63.07,52.006l.238,5.357,6.007-5.5a.766.766,0,0,1,1.062.016l3.6,3.6a.766.766,0,0,1,.016,1.062L63.752,67.713,64.1,75.8a.773.773,0,0,1-.206.571.573.573,0,0,1-.491.238ZM50.6,75.068h12l-.333-7.608a.738.738,0,0,1,.206-.555l9.954-10.873-2.568-2.568-6.673,6.118a.761.761,0,0,1-.808.143.786.786,0,0,1-.476-.682l-.317-7.307a.738.738,0,0,1,.206-.555L72.438,39.563,69.87,37.011,62.5,43.763a.761.761,0,0,1-.808.143.786.786,0,0,1-.476-.682l-.555-12.649h-8.1l-.555,12.649a.778.778,0,0,1-.476.682.761.761,0,0,1-.808-.143l-7.37-6.752-2.568,2.552L51.436,51.181a.778.778,0,0,1,.206.555l-.317,7.323a.778.778,0,0,1-.476.682.761.761,0,0,1-.808-.143L43.352,53.48l-2.568,2.568,9.97,10.873a.778.778,0,0,1,.206.555Z" transform="translate(-38.93 -29.07)"/>
                  </g>
                </g>
              </g>
            </g>
            <g id="Group_1203960" data-name="Group 1203960" transform="translate(20.363 18.168)">
              <path id="Path_1282233" data-name="Path 1282233" d="M52.085,41.446a.768.768,0,0,1-.523-1.331L54.194,37.7a.763.763,0,0,1,1.03,1.125l-2.631,2.409A.694.694,0,0,1,52.085,41.446Z" transform="translate(-51.312 -37.502)"/>
            </g>
            <g id="Group_1203961" data-name="Group 1203961" transform="translate(11.566 34.003)">
              <path id="Path_1282234" data-name="Path 1282234" d="M48.358,50.691a.756.756,0,0,1-.523-.206L46.012,48.82a.763.763,0,1,1,1.03-1.125l1.823,1.664a.757.757,0,0,1,.048,1.078A.705.705,0,0,1,48.358,50.691Z" transform="translate(-45.762 -47.492)"/>
            </g>
            <g id="Group_1203962" data-name="Group 1203962" transform="translate(13.608 0.761)">
              <path id="Path_1282235" data-name="Path 1282235" d="M56.624,31.307a4.787,4.787,0,1,1-4.787-4.787A4.783,4.783,0,0,1,56.624,31.307Z" transform="translate(-47.05 -26.52)" fill="#83960f"/>
            </g>
            <g id="Group_1203963" data-name="Group 1203963" transform="translate(12.847)">
              <path id="Path_1282236" data-name="Path 1282236" d="M52.134,37.151a5.556,5.556,0,1,1,5.548-5.564A5.571,5.571,0,0,1,52.134,37.151Zm0-9.574a4.018,4.018,0,1,0,4.01,4.01,4.028,4.028,0,0,0-4.01-4.01Z" transform="translate(-46.57 -26.04)"/>
            </g>
            <g id="Group_1203965" data-name="Group 1203965" transform="translate(30.944 27.401)">
              <g id="Group_1203964" data-name="Group 1203964">
                <path id="Path_1282237" data-name="Path 1282237" d="M62.334,47.674a2.544,2.544,0,1,1,0-3.6A2.535,2.535,0,0,1,62.334,47.674Z" transform="translate(-57.987 -43.327)" fill="#83960f"/>
              </g>
            </g>
            <g id="Group_1203967" data-name="Group 1203967" transform="translate(30.171 26.627)">
              <g id="Group_1203966" data-name="Group 1203966">
                <path id="Path_1282238" data-name="Path 1282238" d="M60.813,49.466a3.285,3.285,0,0,1-2.346-.967,3.244,3.244,0,0,1-.967-2.346A3.316,3.316,0,1,1,63.159,48.5,3.259,3.259,0,0,1,60.813,49.466Zm0-5.088a1.771,1.771,0,0,0-1.252,3.027,1.782,1.782,0,0,0,2.52-2.52,1.84,1.84,0,0,0-1.268-.507Z" transform="translate(-57.5 -42.839)"/>
              </g>
            </g>
            <g id="Group_1203969" data-name="Group 1203969" transform="translate(30.944 10.933)">
              <g id="Group_1203968" data-name="Group 1203968">
                <path id="Path_1282239" data-name="Path 1282239" d="M62.334,37.284a2.544,2.544,0,1,1,0-3.6A2.535,2.535,0,0,1,62.334,37.284Z" transform="translate(-57.987 -32.937)" fill="#83960f"/>
              </g>
            </g>
            <g id="Group_1203971" data-name="Group 1203971" transform="translate(30.171 10.164)">
              <g id="Group_1203970" data-name="Group 1203970">
                <path id="Path_1282240" data-name="Path 1282240" d="M60.813,39.074a3.285,3.285,0,0,1-2.346-.967,3.244,3.244,0,0,1-.967-2.346,3.316,3.316,0,1,1,5.659,2.346A3.259,3.259,0,0,1,60.813,39.074Zm0-5.088a1.771,1.771,0,0,0-1.252,3.027,1.782,1.782,0,0,0,2.52-2.52,1.84,1.84,0,0,0-1.268-.507Z" transform="translate(-57.5 -32.452)"/>
              </g>
            </g>
            <g id="Group_1203973" data-name="Group 1203973" transform="translate(0.765 10.933)">
              <g id="Group_1203972" data-name="Group 1203972">
                <path id="Path_1282241" data-name="Path 1282241" d="M39.7,37.284a2.544,2.544,0,1,0,0-3.6A2.535,2.535,0,0,0,39.7,37.284Z" transform="translate(-38.947 -32.937)" fill="#83960f"/>
              </g>
            </g>
            <g id="Group_1203975" data-name="Group 1203975" transform="translate(0 10.152)">
              <g id="Group_1203974" data-name="Group 1203974">
                <path id="Path_1282242" data-name="Path 1282242" d="M41.786,39.078a3.313,3.313,0,1,1,2.346-.967A3.285,3.285,0,0,1,41.786,39.078Zm-1.268-2.045a1.782,1.782,0,1,0,0-2.52A1.779,1.779,0,0,0,40.518,37.034Z" transform="translate(-38.465 -32.445)"/>
              </g>
            </g>
            <g id="Group_1203976" data-name="Group 1203976" transform="translate(0.765 27.401)">
              <path id="Path_1282243" data-name="Path 1282243" d="M39.7,47.674a2.544,2.544,0,1,0,0-3.6A2.535,2.535,0,0,0,39.7,47.674Z" transform="translate(-38.947 -43.327)" fill="#83960f"/>
            </g>
            <g id="Group_1203977" data-name="Group 1203977" transform="translate(0 26.621)">
              <path id="Path_1282244" data-name="Path 1282244" d="M41.786,49.468a3.313,3.313,0,1,1,2.346-.967A3.285,3.285,0,0,1,41.786,49.468Zm-1.268-2.045a1.782,1.782,0,1,0,0-2.52A1.779,1.779,0,0,0,40.518,47.424Z" transform="translate(-38.465 -42.835)"/>
            </g>
          </g>
          <g id="Group_1203983" data-name="Group 1203983" transform="translate(0.028 58.697)">
            <g id="Group_1203982" data-name="Group 1203982">
              <g id="Group_1203981" data-name="Group 1203981">
                <g id="Group_1203979" data-name="Group 1203979" transform="translate(0.762 0.72)">
                  <path id="Path_1282245" data-name="Path 1282245" d="M100.31,61.141c-10.382,4.454-27.58,2.631-50.611-7.656-18.688-8.321-33.9-4.359-47.71,7.228V72.775h98.32Z" transform="translate(-1.99 -49.056)" fill="#ffca6b"/>
                </g>
                <g id="Group_1203980" data-name="Group 1203980">
                  <path id="Path_1282246" data-name="Path 1282246" d="M87.975,64.434c-10.414,0-23.522-3.376-38.311-9.97-17.1-7.64-32.018-5.389-46.9,7.1a.758.758,0,0,1-1.078-.1.772.772,0,0,1,.1-1.078C16.965,47.664,32.831,45.27,50.3,53.069c21.43,9.574,39.182,12.284,49.992,7.656a.77.77,0,1,1,.618,1.411A33.2,33.2,0,0,1,87.975,64.434Z" transform="translate(-1.509 -48.602)"/>
                </g>
              </g>
            </g>
          </g>
          <g id="Group_1203984" data-name="Group 1203984" transform="translate(0.014 82.375)">
            <path id="Path_1282247" data-name="Path 1282247" d="M100.6,65.062H2.261a.761.761,0,0,1,0-1.522h98.32a.761.761,0,0,1,.761.761A.748.748,0,0,1,100.6,65.062Z" transform="translate(-1.5 -63.54)"/>
          </g>
          <g id="Group_1203985" data-name="Group 1203985" transform="translate(0 9.748)">
            <path id="Path_1282248" data-name="Path 1282248" d="M94.642,21.588a6.546,6.546,0,0,1-4.01-1.268,5.115,5.115,0,0,0-3.186-1.03,5.179,5.179,0,0,0-3.218,1.03,6.689,6.689,0,0,1-4.01,1.268,6.44,6.44,0,0,1-3.978-1.268,5.129,5.129,0,0,0-3.2-1.03A5.214,5.214,0,0,0,69.852,20.3a7.05,7.05,0,0,1-8.068,0l-.317-.19a4.947,4.947,0,0,0-2.837-.824,5.115,5.115,0,0,0-3.186,1.03,6.7,6.7,0,0,1-4.026,1.268,6.584,6.584,0,0,1-4.01-1.268,5.115,5.115,0,0,0-3.186-1.03A5.179,5.179,0,0,0,41,20.319a6.689,6.689,0,0,1-4.01,1.268,6.44,6.44,0,0,1-3.978-1.268,5.129,5.129,0,0,0-3.2-1.03A5.214,5.214,0,0,0,26.628,20.3a6.615,6.615,0,0,1-4.042,1.268A6.626,6.626,0,0,1,18.56,20.3l-.317-.206a4.947,4.947,0,0,0-2.837-.824A5.115,5.115,0,0,0,12.22,20.3a6.7,6.7,0,0,1-4.026,1.268A6.615,6.615,0,0,1,4.152,20.3a5.758,5.758,0,0,0-2.045-.919.768.768,0,1,1,.3-1.506A7.091,7.091,0,0,1,4.961,19a5.144,5.144,0,0,0,3.218,1.03A5.129,5.129,0,0,0,11.38,19a6.65,6.65,0,0,1,4.01-1.268,6.433,6.433,0,0,1,3.646,1.046l.333.222a5.06,5.06,0,0,0,3.2,1.03A5.144,5.144,0,0,0,25.788,19a7.036,7.036,0,0,1,8.036.016,5.015,5.015,0,0,0,3.154,1.014A5.08,5.08,0,0,0,40.164,19a6.719,6.719,0,0,1,4.042-1.268A6.508,6.508,0,0,1,48.216,19,5.466,5.466,0,0,0,54.6,19a6.65,6.65,0,0,1,4.01-1.268,6.433,6.433,0,0,1,3.646,1.046l.333.206a5.06,5.06,0,0,0,3.2,1.03,5.144,5.144,0,0,0,3.218-1.03A7.036,7.036,0,0,1,77.048,19,5.015,5.015,0,0,0,80.2,20.018a5.08,5.08,0,0,0,3.186-1.03A6.719,6.719,0,0,1,87.43,17.72a6.546,6.546,0,0,1,4.01,1.268A5.451,5.451,0,0,0,97.8,19a6.626,6.626,0,0,1,2.647-1.141.752.752,0,0,1,.888.618.76.76,0,0,1-.618.888,5.383,5.383,0,0,0-2.092.935,6.3,6.3,0,0,1-3.978,1.284Z" transform="translate(-1.491 -17.72)"/>
          </g>
          <g id="Group_1203986" data-name="Group 1203986">
            <path id="Path_1282249" data-name="Path 1282249" d="M94.642,15.422a6.546,6.546,0,0,1-4.01-1.268,5.115,5.115,0,0,0-3.186-1.03,5.179,5.179,0,0,0-3.218,1.03,6.689,6.689,0,0,1-4.01,1.268,6.44,6.44,0,0,1-3.978-1.268,5.129,5.129,0,0,0-3.2-1.03,5.214,5.214,0,0,0-3.186,1.014,7.05,7.05,0,0,1-8.068,0l-.317-.19a4.947,4.947,0,0,0-2.837-.824,5.115,5.115,0,0,0-3.186,1.03,6.7,6.7,0,0,1-4.026,1.268,6.584,6.584,0,0,1-4.01-1.268,5.115,5.115,0,0,0-3.186-1.03A5.179,5.179,0,0,0,41,14.154a6.689,6.689,0,0,1-4.01,1.268,6.44,6.44,0,0,1-3.978-1.268,5.129,5.129,0,0,0-3.2-1.03,5.214,5.214,0,0,0-3.186,1.014,6.615,6.615,0,0,1-4.042,1.268,6.626,6.626,0,0,1-4.026-1.268l-.317-.206a4.947,4.947,0,0,0-2.837-.824,5.115,5.115,0,0,0-3.186,1.03,6.594,6.594,0,0,1-4.026,1.284,6.615,6.615,0,0,1-4.042-1.268,5.758,5.758,0,0,0-2.045-.919.768.768,0,1,1,.3-1.506,7.09,7.09,0,0,1,2.552,1.125,5.144,5.144,0,0,0,3.218,1.03,5.129,5.129,0,0,0,3.2-1.03,6.65,6.65,0,0,1,4.01-1.268,6.433,6.433,0,0,1,3.646,1.046l.333.222a5.06,5.06,0,0,0,3.2,1.03,5.144,5.144,0,0,0,3.218-1.03,7.036,7.036,0,0,1,8.036.016,5.015,5.015,0,0,0,3.154,1.014,5.08,5.08,0,0,0,3.186-1.03,6.719,6.719,0,0,1,4.042-1.268,6.508,6.508,0,0,1,4.01,1.268,5.466,5.466,0,0,0,6.388,0,6.65,6.65,0,0,1,4.01-1.268,6.433,6.433,0,0,1,3.646,1.046l.333.206a5.06,5.06,0,0,0,3.2,1.03,5.144,5.144,0,0,0,3.218-1.03,7.036,7.036,0,0,1,8.036.016A5.015,5.015,0,0,0,80.2,13.868a5.08,5.08,0,0,0,3.186-1.03A6.719,6.719,0,0,1,87.43,11.57a6.546,6.546,0,0,1,4.01,1.268,5.451,5.451,0,0,0,6.356.016,6.626,6.626,0,0,1,2.647-1.141.752.752,0,0,1,.888.618.76.76,0,0,1-.618.888,5.383,5.383,0,0,0-2.092.935,6.4,6.4,0,0,1-3.978,1.268Z" transform="translate(-1.491 -11.57)"/>
          </g>
          <g id="Group_1203989" data-name="Group 1203989" transform="translate(18.052 67.507)">
            <g id="Group_1203987" data-name="Group 1203987">
              <path id="Path_1282250" data-name="Path 1282250" d="M15.067,55.682H13.641a.761.761,0,0,1-.761-.761.771.771,0,0,1,.761-.761h1.427a.761.761,0,0,1,0,1.522Z" transform="translate(-12.88 -54.16)"/>
            </g>
            <g id="Group_1203988" data-name="Group 1203988" transform="translate(4.502)">
              <path id="Path_1282251" data-name="Path 1282251" d="M27.227,55.682H16.481a.761.761,0,0,1-.761-.761.771.771,0,0,1,.761-.761H27.227a.761.761,0,0,1,.761.761A.771.771,0,0,1,27.227,55.682Z" transform="translate(-15.72 -54.16)"/>
            </g>
          </g>
          <g id="Group_1203992" data-name="Group 1203992" transform="translate(29.955 75.21)">
            <g id="Group_1203990" data-name="Group 1203990" transform="translate(0)">
              <path id="Path_1282252" data-name="Path 1282252" d="M22.577,60.542H21.151a.761.761,0,0,1-.761-.761.771.771,0,0,1,.761-.761h1.427a.761.761,0,1,1,0,1.522Z" transform="translate(-20.39 -59.02)"/>
            </g>
            <g id="Group_1203991" data-name="Group 1203991" transform="translate(4.502)">
              <path id="Path_1282253" data-name="Path 1282253" d="M34.737,60.542H23.991a.761.761,0,0,1-.761-.761.771.771,0,0,1,.761-.761H34.737a.761.761,0,0,1,.761.761A.771.771,0,0,1,34.737,60.542Z" transform="translate(-23.23 -59.02)"/>
            </g>
          </g>
          <g id="Group_1203995" data-name="Group 1203995" transform="translate(80.233 78.349)">
            <g id="Group_1203993" data-name="Group 1203993">
              <path id="Path_1282254" data-name="Path 1282254" d="M54.3,62.522H52.871A.761.761,0,0,1,52.855,61h1.427a.761.761,0,0,1,.016,1.522Z" transform="translate(-52.11 -61)"/>
            </g>
            <g id="Group_1203994" data-name="Group 1203994" transform="translate(4.486)">
              <path id="Path_1282255" data-name="Path 1282255" d="M66.447,62.522H55.7a.761.761,0,0,1-.761-.761A.775.775,0,0,1,55.717,61H66.463a.761.761,0,0,1,.761.761A.775.775,0,0,1,66.447,62.522Z" transform="translate(-54.94 -61)"/>
            </g>
          </g>
          <g id="Group_1203998" data-name="Group 1203998" transform="translate(3.533 76.986)">
            <g id="Group_1203996" data-name="Group 1203996">
              <path id="Path_1282256" data-name="Path 1282256" d="M5.907,61.662H4.481a.761.761,0,0,1,0-1.522H5.907a.761.761,0,0,1,.761.761A.771.771,0,0,1,5.907,61.662Z" transform="translate(-3.72 -60.14)"/>
            </g>
            <g id="Group_1203997" data-name="Group 1203997" transform="translate(4.502)">
              <path id="Path_1282257" data-name="Path 1282257" d="M18.052,61.662H7.321a.761.761,0,0,1,0-1.522H18.067a.761.761,0,0,1,.761.761A.775.775,0,0,1,18.052,61.662Z" transform="translate(-6.56 -60.14)"/>
            </g>
          </g>
          <g id="Group_1204001" data-name="Group 1204001" transform="translate(55.855 76.986)">
            <g id="Group_1203999" data-name="Group 1203999">
              <path id="Path_1282258" data-name="Path 1282258" d="M38.917,61.662H37.491a.761.761,0,0,1,0-1.522h1.427a.761.761,0,0,1,0,1.522Z" transform="translate(-36.73 -60.14)"/>
            </g>
            <g id="Group_1204000" data-name="Group 1204000" transform="translate(4.486)">
              <path id="Path_1282259" data-name="Path 1282259" d="M51.067,61.662H40.321a.761.761,0,0,1,0-1.522H51.067a.761.761,0,0,1,.761.761A.751.751,0,0,1,51.067,61.662Z" transform="translate(-39.56 -60.14)"/>
            </g>
          </g>
          <g id="Group_1204002" data-name="Group 1204002" transform="translate(43.27 70.519)">
            <path id="Path_1282260" data-name="Path 1282260" d="M36.414,57.582H29.551a.761.761,0,1,1,0-1.522h6.863a.761.761,0,0,1,0,1.522Z" transform="translate(-28.79 -56.06)"/>
          </g>
          <g id="Group_1204003" data-name="Group 1204003" transform="translate(79.075 54.081)">
            <path id="Path_1282261" data-name="Path 1282261" d="M52.521,55.993a.755.755,0,0,1-.761-.729L51.38,46.5a.787.787,0,0,1,.729-.808.8.8,0,0,1,.808.729l.38,8.765a.787.787,0,0,1-.729.808Z" transform="translate(-51.38 -45.69)" fill="#fff"/>
          </g>
          <g id="Group_1204004" data-name="Group 1204004" transform="translate(78.853 49.611)">
            <path id="Path_1282262" data-name="Path 1282262" d="M52.049,45.39a.755.755,0,0,1-.761-.729l-.048-.983a.787.787,0,0,1,.729-.808.808.808,0,0,1,.808.729l.048.983a.787.787,0,0,1-.729.808Z" transform="translate(-51.24 -42.87)" fill="#fff"/>
          </g>
        </g>
        <g id="Group_1204015" data-name="Group 1204015" transform="translate(4.534 27.96)">
          <g id="Group_1204013" data-name="Group 1204013" transform="translate(0.49)">
            <g id="Group_1204006" data-name="Group 1204006" transform="translate(3.833)">
              <path id="Path_1282263" data-name="Path 1282263" d="M10.488,65.492a.349.349,0,0,1-.127-.016.783.783,0,0,1-.634-.888,49.881,49.881,0,0,0,.079-9.225l-.048-.919a70.22,70.22,0,0,1,.571-12.03c1.03-8.385-2.821-11.713-2.98-11.84a.774.774,0,0,1-.1-1.078.76.76,0,0,1,1.078-.111c.19.159,4.676,3.931,3.535,13.219a68.835,68.835,0,0,0-.555,11.777l.048.919a49.444,49.444,0,0,1-.1,9.558A.8.8,0,0,1,10.488,65.492Z" transform="translate(-7.079 -29.21)"/>
            </g>
            <g id="Group_1204007" data-name="Group 1204007" transform="translate(7.259 3.788)">
              <path id="Path_1282264" data-name="Path 1282264" d="M10,39.066a.768.768,0,0,1-.143-1.522c3.614-.745,3.661-4.993,3.661-5.183a.761.761,0,0,1,1.522,0c0,1.965-1,5.881-4.9,6.689-.032,0-.079.016-.143.016Z" transform="translate(-9.241 -31.6)"/>
            </g>
            <g id="Group_1204008" data-name="Group 1204008" transform="translate(0 3.79)">
              <path id="Path_1282265" data-name="Path 1282265" d="M12.585,37.02A.594.594,0,0,1,12.41,37,18.465,18.465,0,0,1,4.9,32.915a.771.771,0,0,1-.032-1.078.79.79,0,0,1,1.094-.032,17.022,17.022,0,0,0,6.816,3.709.781.781,0,0,1,.571.935.8.8,0,0,1-.761.571Z" transform="translate(-4.661 -31.601)"/>
            </g>
            <g id="Group_1204009" data-name="Group 1204009" transform="translate(6.73 9.113)">
              <path id="Path_1282266" data-name="Path 1282266" d="M9.673,59.116H9.593a.764.764,0,0,1-.682-.84c.032-.269.745-6.451,7.64-10.208,4.153-2.267,6.372-6.419,6.61-12.363a.769.769,0,1,1,1.537.048c-.254,6.53-2.742,11.111-7.4,13.647-6.166,3.36-6.832,8.8-6.847,9.019a.812.812,0,0,1-.777.7Z" transform="translate(-8.907 -34.96)"/>
            </g>
            <g id="Group_1204010" data-name="Group 1204010" transform="translate(18.7 10.651)">
              <path id="Path_1282267" data-name="Path 1282267" d="M17.9,44.474c-.238,0-.476-.016-.729-.032a.763.763,0,1,1,.111-1.522,6.275,6.275,0,0,0,4.739-1.379,7.821,7.821,0,0,0,2.251-4.882.786.786,0,0,1,.808-.729.766.766,0,0,1,.729.808,9.255,9.255,0,0,1-2.758,5.928A7.589,7.589,0,0,1,17.9,44.474Z" transform="translate(-16.459 -35.93)"/>
            </g>
            <g id="Group_1204011" data-name="Group 1204011" transform="translate(12.076 11.218)">
              <path id="Path_1282268" data-name="Path 1282268" d="M14.943,48.718a.736.736,0,0,1-.46-.159c-5.056-3.82.143-11.618.365-11.935a.765.765,0,1,1,1.268.856c-.048.063-4.612,6.911-.713,9.859a.762.762,0,0,1,.143,1.078A.774.774,0,0,1,14.943,48.718Z" transform="translate(-12.28 -36.287)"/>
            </g>
            <g id="Group_1204012" data-name="Group 1204012" transform="translate(11.829 23.512)">
              <path id="Path_1282269" data-name="Path 1282269" d="M18.585,48.175a7.944,7.944,0,0,1-6.324-2.932.763.763,0,1,1,1.252-.872c.111.159,2.71,3.725,8.464,1.617A.767.767,0,0,1,22.5,47.43a11.282,11.282,0,0,1-3.915.745Z" transform="translate(-12.124 -44.044)"/>
            </g>
          </g>
          <g id="Group_1204014" data-name="Group 1204014" transform="translate(0 11.326)">
            <path id="Path_1282270" data-name="Path 1282270" d="M12.433,41.355a.79.79,0,0,1-.7-.428c-1.95-4.042-6.213-2.885-6.4-2.837a.784.784,0,0,1-.951-.523.771.771,0,0,1,.523-.951,6.906,6.906,0,0,1,8.211,3.646.775.775,0,0,1-.365,1.03.862.862,0,0,1-.317.063Z" transform="translate(-4.352 -36.356)"/>
          </g>
        </g>
        <g id="Group_1204023" data-name="Group 1204023" transform="translate(14.929 17.42)">
          <g id="Group_1204016" data-name="Group 1204016" transform="translate(0.761 0.761)">
            <path id="Path_1282271" data-name="Path 1282271" d="M22.6,27.114a4.059,4.059,0,0,1-4.074,4.074H15.464a4.074,4.074,0,1,1,.016-8.147h3.059A4.069,4.069,0,0,1,22.6,27.114Z" transform="translate(-11.39 -23.04)" fill="#ffca6b"/>
          </g>
          <g id="Group_1204017" data-name="Group 1204017" transform="translate(11.84 0.9)">
            <path id="Path_1282272" data-name="Path 1282272" d="M22.485,27.062l1.427,3.931s-3.963.222-5.532-2.948v-.016a3.935,3.935,0,0,0,.111-.967,4.885,4.885,0,0,0-.111-.967v-.016c1.553-3.17,5.532-2.948,5.532-2.948Z" transform="translate(-18.38 -23.128)" fill="#ffca6b"/>
          </g>
          <g id="Group_1204022" data-name="Group 1204022">
            <g id="Group_1204018" data-name="Group 1204018">
              <path id="Path_1282273" data-name="Path 1282273" d="M11.671,28.155a.761.761,0,0,1-.761-.761,4.843,4.843,0,0,1,4.85-4.834.761.761,0,0,1,.761.761.771.771,0,0,1-.761.761,3.3,3.3,0,0,0-3.3,3.313A.789.789,0,0,1,11.671,28.155Z" transform="translate(-10.91 -22.56)"/>
            </g>
            <g id="Group_1204019" data-name="Group 1204019" transform="translate(4.074 0.016)">
              <path id="Path_1282274" data-name="Path 1282274" d="M17.3,32.223H14.241a.761.761,0,1,1,0-1.522H17.3a3.3,3.3,0,0,0,3.3-3.3,3.308,3.308,0,0,0-3.3-3.313.761.761,0,0,1-.761-.761.771.771,0,0,1,.761-.761,4.827,4.827,0,1,1,0,9.653Z" transform="translate(-13.48 -22.57)"/>
            </g>
            <g id="Group_1204020" data-name="Group 1204020" transform="translate(11.079 0.12)">
              <path id="Path_1282275" data-name="Path 1282275" d="M24.018,32.042c-.919,0-4.486-.206-6.039-3.376a.852.852,0,0,1-.079-.333.711.711,0,0,1,.016-.19,3.219,3.219,0,0,0,0-1.553.975.975,0,0,1-.016-.206,1.007,1.007,0,0,1,.079-.365c1.759-3.582,6.071-3.392,6.261-3.376a.77.77,0,0,1,.682,1.03L23.59,27.35l1.331,3.661a.8.8,0,0,1-.079.682.75.75,0,0,1-.6.349h-.222Zm-4.549-3.836a4.8,4.8,0,0,0,3.6,2.235l-1.03-2.821a.743.743,0,0,1,0-.523l1.03-2.837a4.8,4.8,0,0,0-3.6,2.235,5.244,5.244,0,0,1,.079.872A3.861,3.861,0,0,1,19.469,28.206Z" transform="translate(-17.9 -22.636)"/>
            </g>
            <g id="Group_1204021" data-name="Group 1204021" transform="translate(3.091 3.646)">
              <path id="Path_1282276" data-name="Path 1282276" d="M14.207,26.382h-.586a.761.761,0,1,1,0-1.522h.586a.761.761,0,0,1,.761.761A.771.771,0,0,1,14.207,26.382Z" transform="translate(-12.86 -24.86)"/>
            </g>
          </g>
        </g>
        <g id="Group_1204031" data-name="Group 1204031" transform="translate(39.418 18.212)">
          <g id="Group_1204024" data-name="Group 1204024" transform="translate(0.761 0.761)">
            <path id="Path_1282277" data-name="Path 1282277" d="M41.565,28.9a5.358,5.358,0,0,1-5.357,5.357H32.2a5.357,5.357,0,0,1,0-10.715h4.01A5.351,5.351,0,0,1,41.565,28.9Z" transform="translate(-26.84 -23.54)" fill="#ff9a9a"/>
          </g>
          <g id="Group_1204025" data-name="Group 1204025" transform="translate(15.343 0.947)">
            <path id="Path_1282278" data-name="Path 1282278" d="M41.429,28.829,43.3,34s-5.215.285-7.26-3.883V30.1a5.556,5.556,0,0,0,.158-1.268,4.8,4.8,0,0,0-.158-1.268v-.016c2.045-4.169,7.26-3.883,7.26-3.883Z" transform="translate(-36.04 -23.657)" fill="#ff9a9a"/>
          </g>
          <g id="Group_1204030" data-name="Group 1204030">
            <g id="Group_1204026" data-name="Group 1204026">
              <path id="Path_1282279" data-name="Path 1282279" d="M27.121,29.955a.761.761,0,0,1-.761-.761,6.142,6.142,0,0,1,6.134-6.134.761.761,0,0,1,0,1.522,4.6,4.6,0,0,0-4.6,4.6A.788.788,0,0,1,27.121,29.955Z" transform="translate(-26.36 -23.06)"/>
            </g>
            <g id="Group_1204027" data-name="Group 1204027" transform="translate(5.357 0.016)">
              <path id="Path_1282280" data-name="Path 1282280" d="M34.511,35.307H30.5a.761.761,0,1,1,0-1.522h4.01a4.6,4.6,0,0,0,.016-9.193.761.761,0,0,1,0-1.522,6.131,6.131,0,0,1,4.327,10.461,6.2,6.2,0,0,1-4.343,1.775Z" transform="translate(-29.74 -23.07)"/>
            </g>
            <g id="Group_1204028" data-name="Group 1204028" transform="translate(14.567 0.184)">
              <path id="Path_1282281" data-name="Path 1282281" d="M43.348,35.054c-1.173,0-5.738-.269-7.719-4.311a.852.852,0,0,1-.079-.333.9.9,0,0,1,.016-.206,4.644,4.644,0,0,0,0-2.156.772.772,0,0,1-.016-.19,1.007,1.007,0,0,1,.079-.365c2.251-4.565,7.767-4.327,8-4.311a.77.77,0,0,1,.682,1.03L42.54,29.126l1.775,4.9a.8.8,0,0,1-.079.682.75.75,0,0,1-.6.349h-.285Zm-6.229-4.771a6.74,6.74,0,0,0,5.357,3.186L41,29.38a.743.743,0,0,1,0-.523l1.474-4.105a6.72,6.72,0,0,0-5.357,3.186,6.255,6.255,0,0,1,0,2.346Z" transform="translate(-35.55 -23.176)"/>
            </g>
            <g id="Group_1204029" data-name="Group 1204029" transform="translate(4.058 4.803)">
              <path id="Path_1282282" data-name="Path 1282282" d="M30.442,27.612h-.761a.761.761,0,0,1,0-1.522h.761a.761.761,0,0,1,.761.761A.751.751,0,0,1,30.442,27.612Z" transform="translate(-28.92 -26.09)"/>
            </g>
          </g>
        </g>
      </g>
      <g id="Group_1204035" data-name="Group 1204035" transform="translate(2.837 1.5)">
        <g id="Group_1204033" data-name="Group 1204033" transform="translate(4.185 0.761)">
          <path id="Path_1282283" data-name="Path 1282283" d="M27.995,9.018H4.98A4.119,4.119,0,0,1,12.16,6.26,3.272,3.272,0,0,1,14.823,4.9a3.323,3.323,0,0,1,2.076.745,3.054,3.054,0,0,1-.016-.38,3.281,3.281,0,1,1,6.562,0h.808a3.751,3.751,0,0,1,3.741,3.757Z" transform="translate(-4.98 -1.98)" fill="#d5dce5"/>
        </g>
        <g id="Group_1204034" data-name="Group 1204034">
          <path id="Path_1282284" data-name="Path 1282284" d="M33.3,10.059H29.539a.761.761,0,0,1-.761-.761,2.976,2.976,0,0,0-2.98-2.98H24.99a.778.778,0,0,1-.666-.38.715.715,0,0,1-.111-.4,2.5,2.5,0,0,0-5.009,0,1.723,1.723,0,0,0,.016.285.771.771,0,0,1-.4.761.8.8,0,0,1-.856-.079,2.525,2.525,0,0,0-3.646.476.783.783,0,0,1-.586.317.69.69,0,0,1-.6-.238A3.356,3.356,0,0,0,7.285,9.3a.761.761,0,0,1-.761.761H2.34V8.522H5.811A4.892,4.892,0,0,1,10.63,4.4a4.971,4.971,0,0,1,3.027,1.046,4.119,4.119,0,0,1,4.105-.793,4.05,4.05,0,0,1,7.925.127H25.8a4.516,4.516,0,0,1,4.454,3.741H33.3a.761.761,0,0,1,.761.761.745.745,0,0,1-.761.777Z" transform="translate(-2.34 -1.5)"/>
        </g>
      </g>
      <g id="Group_1204038" data-name="Group 1204038" transform="translate(62.735 4.163)">
        <g id="Group_1204036" data-name="Group 1204036" transform="translate(5.785 0.745)">
          <path id="Path_1282285" data-name="Path 1282285" d="M71.36,12.067H43.78a4.938,4.938,0,0,1,8.607-3.3,3.9,3.9,0,0,1,3.2-1.633,3.942,3.942,0,0,1,2.489.888,4.179,4.179,0,0,1-.032-.444,3.931,3.931,0,1,1,7.862,0h.983a4.468,4.468,0,0,1,4.47,4.486Z" transform="translate(-43.78 -3.65)" fill="#d5dce5"/>
        </g>
        <g id="Group_1204037" data-name="Group 1204037">
          <path id="Path_1282286" data-name="Path 1282286" d="M78,13.1H73.511a.761.761,0,0,1-.761-.761,3.731,3.731,0,0,0-3.725-3.725h-.967a.8.8,0,0,1-.682-.4.736.736,0,0,1-.1-.365,3.17,3.17,0,1,0-6.34,0,2.808,2.808,0,0,0,.016.365.771.771,0,0,1-.4.761.742.742,0,0,1-.856-.079,3.218,3.218,0,0,0-2.013-.713A3.162,3.162,0,0,0,55.125,9.5a.783.783,0,0,1-.586.317.761.761,0,0,1-.618-.254,4.164,4.164,0,0,0-7.26,2.79.761.761,0,0,1-.761.761H40.891a.761.761,0,0,1-.761-.761.771.771,0,0,1,.761-.761h4.3a5.7,5.7,0,0,1,9.273-3.63,4.721,4.721,0,0,1,3.233-1.3,4.787,4.787,0,0,1,1.775.349A4.683,4.683,0,0,1,64.08,3.18a4.732,4.732,0,0,1,4.644,3.931h.269a5.259,5.259,0,0,1,5.2,4.486h3.772a.761.761,0,0,1,.761.761A.731.731,0,0,1,78,13.1Z" transform="translate(-40.13 -3.18)"/>
        </g>
      </g>
    </g>
  </g>
</svg>
