<svg xmlns="http://www.w3.org/2000/svg" width="129.063" height="74.962" viewBox="0 0 129.063 74.962">
  <g id="Group_1202132" data-name="Group 1202132" transform="translate(-787.781 -2555.652)">
    <g id="Rectangle_410589" data-name="Rectangle 410589" transform="translate(787.781 2575.623)" fill="#a1c6f2" stroke="#6f89a8" stroke-width="1">
      <rect width="129.063" height="43.021" rx="8" stroke="none"/>
      <rect x="0.5" y="0.5" width="128.063" height="42.021" rx="7.5" fill="none"/>
    </g>
    <g id="Layer_18" data-name="Layer 18" transform="translate(804.245 2547.152)">
      <path id="Path_1282730" data-name="Path 1282730" d="M82.546,14.966a1.6,1.6,0,1,0-3.19.159V72.543H10.295A1.595,1.595,0,0,0,8.708,74.3l.478,4.785a1.6,1.6,0,0,0,1.587,1.435H87.331a1.595,1.595,0,0,0,1.595-1.754Z" transform="translate(2.201 2.944)" fill="#eac180"/>
      <rect id="Rectangle_412914" data-name="Rectangle 412914" width="79.747" height="62.203" rx="1" transform="translate(5 16.475)" fill="#ecd8b8"/>
      <rect id="Rectangle_412915" data-name="Rectangle 412915" width="11.165" height="19.139" rx="1" transform="translate(12.975 8.5)" fill="#efd362"/>
      <rect id="Rectangle_412916" data-name="Rectangle 412916" width="11.165" height="19.139" rx="1" transform="translate(39.291 8.5)" fill="#efd362"/>
      <rect id="Rectangle_412917" data-name="Rectangle 412917" width="11.165" height="19.139" rx="1" transform="translate(65.608 8.5)" fill="#efd362"/>
      <path id="Path_1282731" data-name="Path 1282731" d="M61.3,22.5H32.595A1.6,1.6,0,0,0,31,24.095V62.374a1.6,1.6,0,0,0,1.595,1.595H61.3A1.6,1.6,0,0,0,62.9,62.374V24.095A1.6,1.6,0,0,0,61.3,22.5Z" transform="translate(15.469 8.329)" fill="#efd362"/>
      <g id="Group_1204236" data-name="Group 1204236" transform="translate(16.128 30.521)">
        <path id="Path_1282732" data-name="Path 1282732" d="M33,24.5H44.165v6.38H33Z" transform="translate(0.53 -21.002)" fill="#3eab47"/>
        <path id="Path_1282733" data-name="Path 1282733" d="M33,30.5H44.165v6.38H33Z" transform="translate(0.53 -17.432)" fill="#3eab47"/>
        <path id="Path_1282734" data-name="Path 1282734" d="M33,36.5H44.165v6.38H33Z" transform="translate(0.53 -13.862)" fill="#3eab47"/>
        <path id="Path_1282735" data-name="Path 1282735" d="M33,42.5H44.165v6.38H33Z" transform="translate(0.53 -10.293)" fill="#3eab47"/>
        <path id="Path_1282736" data-name="Path 1282736" d="M42,24.5H53.165v6.38H42Z" transform="translate(5.885 -21.002)" fill="#3eab47"/>
        <path id="Path_1282737" data-name="Path 1282737" d="M42,30.5H53.165v6.38H42Z" transform="translate(5.885 -17.432)" fill="#3eab47"/>
        <path id="Path_1282738" data-name="Path 1282738" d="M42,36.5H53.165v6.38H42Z" transform="translate(5.885 -13.862)" fill="#3eab47"/>
        <path id="Path_1282739" data-name="Path 1282739" d="M42,42.5H53.165v6.38H42Z" transform="translate(5.885 -10.293)" fill="#3eab47"/>
        <path id="Path_1282740" data-name="Path 1282740" d="M33.328,23.357a4.389,4.389,0,0,0-4.343-.788,8.12,8.12,0,0,0-3.552,1.914,14.592,14.592,0,0,0-2.255,3.624,15.141,15.141,0,0,0-2.257-3.622c-1.8-1.8-5.86-3.163-7.895-1.128A4.388,4.388,0,0,0,12.24,27.7a8.145,8.145,0,0,0,1.914,3.55,19.535,19.535,0,0,0,7.429,3.632V51.324a1.595,1.595,0,0,0,3.19,0V34.877A19.222,19.222,0,0,0,32.2,31.25a8.155,8.155,0,0,0,1.914-3.55,4.392,4.392,0,0,0-.79-4.343Z" transform="translate(-11.977 -22.307)" fill="#3eab47"/>
      </g>
      <path id="Path_1282741" data-name="Path 1282741" d="M35.315,45.284a5.264,5.264,0,0,0-1.129.121,11.15,11.15,0,0,0-18.474,0c-.145-.03-.292-.056-.437-.075a5.582,5.582,0,0,0-6.233,4.844,5.463,5.463,0,0,0,.088,1.809,1.6,1.6,0,0,0,1.561,1.276H39.222a1.6,1.6,0,0,0,1.563-1.276,5.582,5.582,0,0,0-5.471-6.7Z" transform="translate(2.382 19.039)" fill="#cb7e47"/>
      <path id="Path_1282742" data-name="Path 1282742" d="M84.747,17.91a1.6,1.6,0,0,0-1.667-1.435c-.268.013-6.3,0-6.3,0v-6.38A1.6,1.6,0,0,0,75.185,8.5H67.2a1.6,1.6,0,0,0-1.595,1.595v6.38H50.456v-6.38A1.6,1.6,0,0,0,48.861,8.5H40.886a1.6,1.6,0,0,0-1.595,1.595v6.38H24.139v-6.38A1.6,1.6,0,0,0,22.544,8.5H14.57a1.6,1.6,0,0,0-1.595,1.595v6.38H6.595A1.6,1.6,0,0,0,5,18.07V77.083a1.6,1.6,0,0,0,1.595,1.595h4.466l.335,3.349a1.6,1.6,0,0,0,1.587,1.435H89.532a1.595,1.595,0,0,0,1.595-1.754ZM68.8,18.07V11.69h4.785v12.76H68.8Zm-26.317,0V11.69h4.785v12.76H42.481Zm-26.317,0V11.69h4.785v12.76H16.165ZM8.19,75.488V19.665h4.785v6.38a1.6,1.6,0,0,0,1.595,1.595h7.975a1.6,1.6,0,0,0,1.595-1.595v-6.38H39.291v6.38a1.6,1.6,0,0,0,1.595,1.595h7.975a1.6,1.6,0,0,0,1.595-1.595v-6.38H65.608v6.38A1.6,1.6,0,0,0,67.2,27.639h7.975a1.6,1.6,0,0,0,1.595-1.595v-6.38h4.785V75.488Zm6.22,4.785-.159-1.595h68.9a1.6,1.6,0,0,0,1.595-1.595V50.048l3.021,30.224ZM76.772,30.829H48.063a1.6,1.6,0,0,0-1.595,1.595V70.7A1.6,1.6,0,0,0,48.063,72.3H76.772A1.6,1.6,0,0,0,78.367,70.7V32.424A1.6,1.6,0,0,0,76.772,30.829ZM60.823,69.108H49.658v-6.38H60.823Zm0-9.57H49.658v-6.38H60.823Zm0-9.57H49.658v-6.38H60.823Zm0-9.57H49.658v-6.38H60.823ZM75.177,69.108H64.013v-6.38H75.177Zm0-9.57H64.013v-6.38H75.177Zm0-9.57H64.013v-6.38H75.177Zm0-9.57H64.013v-6.38H75.177ZM37.7,64.323a5.264,5.264,0,0,0-1.129.121,11.086,11.086,0,0,0-7.67-4.785c0-.041.024-.078.024-.12V43.091a19.222,19.222,0,0,0,7.431-3.627,8.155,8.155,0,0,0,1.914-3.55,4.392,4.392,0,0,0-.788-4.343,4.389,4.389,0,0,0-4.343-.788A8.12,8.12,0,0,0,29.583,32.7a14.592,14.592,0,0,0-2.254,3.624A15.141,15.141,0,0,0,25.072,32.7c-1.8-1.8-5.86-3.163-7.895-1.128a4.388,4.388,0,0,0-.786,4.343,8.145,8.145,0,0,0,1.914,3.55A19.535,19.535,0,0,0,25.734,43.1V59.538c0,.043.021.078.024.12A11.094,11.094,0,0,0,18.1,64.443c-.145-.03-.292-.056-.437-.075a5.582,5.582,0,0,0-6.233,4.844,5.463,5.463,0,0,0,.078,1.81A1.6,1.6,0,0,0,13.072,72.3H41.6a1.6,1.6,0,0,0,1.563-1.276,5.582,5.582,0,0,0-5.471-6.7ZM31.84,34.954A5.048,5.048,0,0,1,34.8,33.735a.751.751,0,0,1,.419.091A4.271,4.271,0,0,1,34.1,37.209a17.009,17.009,0,0,1-4.718,2.461,16.972,16.972,0,0,1,2.461-4.716ZM20.557,37.209a4.271,4.271,0,0,1-1.129-3.383,4.271,4.271,0,0,1,3.384,1.128,16.972,16.972,0,0,1,2.461,4.716,16.972,16.972,0,0,1-4.716-2.461Zm-5.852,31.9a2.392,2.392,0,0,1,2.552-1.576,2.349,2.349,0,0,1,.8.263,1.595,1.595,0,0,0,2.158-.692,7.964,7.964,0,0,1,14.219,0,1.595,1.595,0,0,0,2.161.694A2.373,2.373,0,0,1,39.942,69.1Z"/>
    </g>
  </g>
</svg>
