<svg xmlns="http://www.w3.org/2000/svg" width="129.063" height="74.768" viewBox="0 0 129.063 74.768">
  <g id="Group_1201007" data-name="Group 1201007" transform="translate(-788.103 -1988.243)">
    <g id="Rectangle_410589" data-name="Rectangle 410589" transform="translate(788.103 2007.607)" fill="#ffc94a" stroke="#b18c32" stroke-width="1">
      <rect width="129.063" height="43.021" rx="8" stroke="none"/>
      <rect x="0.5" y="0.5" width="128.063" height="42.021" rx="7.5" fill="none"/>
    </g>
    <g id="map_7506187" transform="translate(809.491 1983.243)">
      <g id="Icons" transform="translate(1.495 6.497)">
        <path id="Path_1282402" data-name="Path 1282402" d="M82.074,9.8v58.27a2.976,2.976,0,0,1-2.228,2.886l-3.125.822a2.048,2.048,0,0,1-2.093-.628l-3.693-4.1,4.037-1.062a1.516,1.516,0,0,0,1.121-1.45V15.7a1.5,1.5,0,0,0-1.869-1.45L54.083,19.546a1.41,1.41,0,0,1-.748.015l-29.157-7.3a1.581,1.581,0,0,0-.748,0l-11.02,2.9,2.108-6.818L23.011,6.1a2.98,2.98,0,0,1,1.5-.015l28.41,7.117a2.98,2.98,0,0,0,1.5,0L78.32,6.9a2.99,2.99,0,0,1,3.753,2.9Z" transform="translate(4.651 -6.001)" fill="#ffeb3a"/>
        <path id="Path_1282403" data-name="Path 1282403" d="M57.714,6.633,55.8,7.14a2.99,2.99,0,0,1,1.186,2.394V67.8a2.976,2.976,0,0,1-2.228,2.886l-.734.193a2.048,2.048,0,0,0,2.093.628l3.125-.822A2.976,2.976,0,0,0,61.467,67.8V9.534a2.99,2.99,0,0,0-3.753-2.9Z" transform="translate(25.258 -5.737)" fill="#fdd834"/>
        <path id="Path_1282404" data-name="Path 1282404" d="M66.492,67.964l-.628,5.084a2.074,2.074,0,0,1-1.555,1.764l-4.246,1.121a2.98,2.98,0,0,1-1.5.015l-28.41-7.117a2.98,2.98,0,0,0-1.5,0L4.753,75.141A2.99,2.99,0,0,1,1,72.241V13.971a2.976,2.976,0,0,1,2.228-2.886L9.209,9.5l6.385,4.59L8.1,16.049A1.516,1.516,0,0,0,6.981,17.5V66.334a1.5,1.5,0,0,0,1.869,1.45l20.141-5.293a1.41,1.41,0,0,1,.748-.015l29.157,7.3a1.41,1.41,0,0,0,.748-.015Z" transform="translate(-1 -4.268)" fill="#ffeb3a"/>
        <path id="Path_1282405" data-name="Path 1282405" d="M60.361,12.986V37.673H55.516A7.3,7.3,0,0,1,50.867,36l-4.083-3.41A7.268,7.268,0,0,1,44.2,26.458l.882-11.394,13.412-3.529a1.5,1.5,0,0,1,1.869,1.45Z" transform="translate(20.383 -3.284)" fill="#ffdf00"/>
        <path id="Path_1282406" data-name="Path 1282406" d="M54.677,11.536l-2.8.737a1.5,1.5,0,0,1,.182.713V37.673h4.486V12.986a1.5,1.5,0,0,0-1.869-1.45Z" transform="translate(24.197 -3.284)" fill="#fec108"/>
        <path id="Path_1282407" data-name="Path 1282407" d="M62.429,36.488V60.636a1.516,1.516,0,0,1-1.121,1.45L57.27,63.148h-.015l-2.333-2.6a1.1,1.1,0,0,0-1.9.508l-1.062,5.338-3.005-2a1.1,1.1,0,0,0-1.7.778l-.075.628-6.848,1.794a.8.8,0,0,1-.329.06V15.7a1.346,1.346,0,0,0,.419-.06l6.729-1.764-.882,11.394A7.268,7.268,0,0,0,48.852,31.4l4.082,3.409a7.3,7.3,0,0,0,4.65,1.675Z" transform="translate(18.315 -2.099)" fill="#a4c400"/>
        <path id="Path_1282408" data-name="Path 1282408" d="M52.51,29V53.148a1.516,1.516,0,0,1-1.121,1.45l-.419.111.852.951h.015L55.874,54.6A1.516,1.516,0,0,0,57,53.148V29Z" transform="translate(23.748 5.389)" fill="#90ac00"/>
        <path id="Path_1282409" data-name="Path 1282409" d="M45.225,16.41l-.837,8.254A9.386,9.386,0,0,1,32.59,32.8L20,29.359V10.16a1.993,1.993,0,0,1,.419.045Z" transform="translate(8.41 -3.942)" fill="#ff9801"/>
        <path id="Path_1282410" data-name="Path 1282410" d="M49.9,15.476V67.421a1.891,1.891,0,0,1-.419-.045l-5.562-1.391V62.831a5.069,5.069,0,0,0-4.052-4.949,5.064,5.064,0,0,1-3.992-4.127l-.359-2.093a5.064,5.064,0,0,0-3.992-4.127L20,45.232V27.289l12.59,3.439a9.386,9.386,0,0,0,11.8-8.134l.837-8.254,4.351,1.092a1.246,1.246,0,0,0,.329.045Z" transform="translate(8.41 -1.871)" fill="#60a917"/>
        <path id="Path_1282411" data-name="Path 1282411" d="M27.429,10.16v19.2l-1.824,2a12.1,12.1,0,0,1-6.355,3.708,11.374,11.374,0,0,1-7.327-.837L5,30.989V17.173a1.516,1.516,0,0,1,1.121-1.45l7.491-1.959.613.434a1.1,1.1,0,0,0,1.7-.628l.135-.464h.015L27.1,10.2a1.166,1.166,0,0,1,.329-.045Z" transform="translate(0.981 -3.942)" fill="#ffdf00"/>
        <path id="Path_1282412" data-name="Path 1282412" d="M27.429,23V40.943l-7.85,1.121a5.031,5.031,0,0,0-3.8,2.736L13.329,49.69A5.048,5.048,0,0,1,10.7,52.127L5,54.4V24.63l6.923,3.245a11.374,11.374,0,0,0,7.327.837A12.1,12.1,0,0,0,25.6,25Z" transform="translate(0.981 2.417)" fill="#a4c400"/>
        <path id="Path_1282413" data-name="Path 1282413" d="M27.429,35V49.8a1.346,1.346,0,0,0-.419.06L6.869,55.156A1.5,1.5,0,0,1,5,53.706V48.457l5.7-2.273a5.048,5.048,0,0,0,2.632-2.437l2.452-4.889a5.032,5.032,0,0,1,3.8-2.736Z" transform="translate(0.981 8.36)" fill="#ffdf00"/>
        <path id="Path_1282414" data-name="Path 1282414" d="M43.924,52.6v3.155l-23.6-5.906A1.246,1.246,0,0,0,20,49.8V35l11.528,2.3a5.064,5.064,0,0,1,3.992,4.127l.359,2.093a5.064,5.064,0,0,0,3.992,4.127A5.069,5.069,0,0,1,43.924,52.6Z" transform="translate(8.41 8.36)" fill="#ff9801"/>
      </g>
      <g id="Icons_copy" data-name="Icons copy" transform="translate(0 5)">
        <path id="Path_1282415" data-name="Path 1282415" d="M87.956,6.717a4.438,4.438,0,0,0-3.871-.772l-23.879,6.3a1.518,1.518,0,0,1-.781,0L31,5.129a4.469,4.469,0,0,0-2.226.024L20.283,7.4a1.5,1.5,0,0,0-1.047,1l-2.114,6.817-6.546-4.7a1.512,1.512,0,0,0-1.255-.232L3.34,11.866A4.486,4.486,0,0,0,0,16.2V74.471a4.486,4.486,0,0,0,5.63,4.347l23.879-6.3a1.518,1.518,0,0,1,.781,0l28.423,7.122a4.6,4.6,0,0,0,1.078.13,4.382,4.382,0,0,0,1.148-.15L65.185,78.5a3.58,3.58,0,0,0,2.654-3.032l.631-5.07,2.472,1.645a1.5,1.5,0,0,0,2.3-.951l.912-4.556,5.506,6.119a3.577,3.577,0,0,0,3.589,1.072L86.37,72.9a4.486,4.486,0,0,0,3.345-4.342V10.292a4.474,4.474,0,0,0-1.758-3.575ZM18.173,18.308A2.63,2.63,0,0,0,19.688,16.9l8.722-2.285V31.336L26.977,32.91a10.589,10.589,0,0,1-5.57,3.255,9.834,9.834,0,0,1-6.373-.731L8.971,32.595V19.724l6.818-1.782.039.027a2.57,2.57,0,0,0,2.345.339ZM58.315,70.193l-2.99-.748V67.457a6.563,6.563,0,0,0-5.251-6.415,3.589,3.589,0,0,1-2.816-2.914L46.9,56.042a6.591,6.591,0,0,0-5.174-5.347L31.4,48.631V33.873L42.1,36.8a10.882,10.882,0,0,0,13.679-9.42l.662-6.533,1.872.462ZM28.41,48.561l-6.572.938a6.527,6.527,0,0,0-4.918,3.547l-2.452,4.886a3.565,3.565,0,0,1-1.85,1.717L8.971,61.108V35.9l4.785,2.243a12.807,12.807,0,0,0,5.51,1.25,13,13,0,0,0,2.777-.3,13.433,13.433,0,0,0,6.367-3.439ZM8.971,64.327l4.759-1.9a6.554,6.554,0,0,0,3.411-3.155l2.455-4.9a3.539,3.539,0,0,1,2.671-1.92l6.142-.878V63.464l-19.438,5.1ZM31.4,51.682l9.737,1.944A3.589,3.589,0,0,1,43.96,56.54l.357,2.086a6.593,6.593,0,0,0,5.171,5.347,3.571,3.571,0,0,1,2.845,3.484V68.7L31.4,63.464Zm21.4-24.6a7.889,7.889,0,0,1-9.912,6.826L31.4,30.772V14.57L53.51,20.1Zm12.071,48a.6.6,0,0,1-.449.511l-4.26,1.121a1.471,1.471,0,0,1-.739,0L31.047,69.62a4.187,4.187,0,0,0-1.111-.15,4.877,4.877,0,0,0-1.16.15L4.861,75.929a1.468,1.468,0,0,1-1.281-.256,1.5,1.5,0,0,1-.589-1.2V16.2a1.5,1.5,0,0,1,1.115-1.44l5.3-1.406,3.234,2.324L8.2,16.835a3.013,3.013,0,0,0-2.223,2.893V68.563a2.982,2.982,0,0,0,1.174,2.377,2.938,2.938,0,0,0,2.57.513l20.145-5.3,29.157,7.3a3.046,3.046,0,0,0,.73.09,2.523,2.523,0,0,0,.758-.109L65.23,72.2Zm8.355-11.916a2.575,2.575,0,0,0-1.856,1.989L70.743,68.3l-1.153-.769a2.564,2.564,0,0,0-3.909,1.449l-4.377,1.159V21.306l4-1.047-.721,9.3A8.77,8.77,0,0,0,67.7,36.955l4.088,3.412a8.792,8.792,0,0,0,5.6,2.014h3.349V65.039l-3.162.828-1.742-1.93a2.581,2.581,0,0,0-2.611-.764Zm7.515-23.776H77.394A5.8,5.8,0,0,1,73.7,38.063l-4.083-3.409a5.77,5.77,0,0,1-2.051-4.867l.8-10.337L80.743,16.2Zm5.981,29.168A1.5,1.5,0,0,1,85.61,70l-3.126.824a.6.6,0,0,1-.6-.179l-2.059-2.28,1.684-.449a3.013,3.013,0,0,0,2.223-2.886V16.2a2.981,2.981,0,0,0-1.174-2.383,2.944,2.944,0,0,0-2.57-.513l-20.145,5.3-29.157-7.3a3.116,3.116,0,0,0-1.5,0l-8.408,2.213,1.071-3.453,7.7-2.034a1.506,1.506,0,0,1,.739,0l28.378,7.108a4.457,4.457,0,0,0,2.271,0L84.854,8.834a1.468,1.468,0,0,1,1.281.256,1.5,1.5,0,0,1,.589,1.2Z" transform="translate(0 -5)"/>
      </g>
    </g>
  </g>
</svg>
