<svg xmlns="http://www.w3.org/2000/svg" width="129.063" height="87.279" viewBox="0 0 129.063 87.279">
  <g id="Group_1203812" data-name="Group 1203812" transform="translate(-788.103 -1983.574)">
    <g id="Rectangle_410589" data-name="Rectangle 410589" transform="translate(788.103 2007.607)" fill="#ffc94a" stroke="#b18c32" stroke-width="1">
      <rect width="129.063" height="43.021" rx="8" stroke="none"/>
      <rect x="0.5" y="0.5" width="128.063" height="42.021" rx="7.5" fill="none"/>
    </g>
    <g id="compass_6253715" transform="translate(808.994 1983.574)">
      <g id="Group_1204120" data-name="Group 1204120" transform="translate(1.408 1.408)">
        <g id="Group_1204106" data-name="Group 1204106" transform="translate(0 32.11)">
          <path id="Path_1282466" data-name="Path 1282466" d="M74.163,208.057v4.035a2.583,2.583,0,0,1-2.587,2.587,6.181,6.181,0,0,0-5.86,4.223l-.952.238a6.177,6.177,0,0,0-4.679,5.992v.809H53.047l-1.124-3.375a3.8,3.8,0,0,0-.917-1.482l-.665-.665a3.786,3.786,0,0,0-3.6-1l-3.549.887-.3-.894a3.791,3.791,0,0,0-4.515-2.478l-2.226.556-.69-2.759a3.79,3.79,0,0,0-5.951-2.113l-4.621,3.465v-7.039l-2.37-7.111a1.954,1.954,0,0,0-3.706,0l-2.37,7.111v7.039H13.793a3.791,3.791,0,0,0-2.68,1.11L8,220.31V192.155h4.433a2.891,2.891,0,0,1,2.045.846l1.123,1.123a2.891,2.891,0,0,0,2.045.846h3.75a2.893,2.893,0,0,1,1.293.3l4.41,2.207a2.893,2.893,0,0,0,1.293.3h1.283a2.891,2.891,0,0,0,2.8-2.189l.1-.414a2.89,2.89,0,0,1,3.718-2.041,2.86,2.86,0,0,0,.913.148,2.89,2.89,0,0,0,1.489-.412l4-2.4a25.371,25.371,0,0,0,31.463,17.577Z" transform="translate(-8 -190.48)" fill="#f0d0b4"/>
        </g>
        <g id="Group_1204107" data-name="Group 1204107" transform="translate(0 22.524)">
          <path id="Path_1282467" data-name="Path 1282467" d="M42.7,145.587l-4,2.4a2.89,2.89,0,0,1-1.489.412,2.86,2.86,0,0,1-.913-.148,2.89,2.89,0,0,0-3.718,2.041l-.1.414a2.891,2.891,0,0,1-2.8,2.189H28.391a2.893,2.893,0,0,1-1.293-.3l-4.41-2.207a2.893,2.893,0,0,0-1.293-.3h-3.75a2.891,2.891,0,0,1-2.045-.846l-1.123-1.123a2.891,2.891,0,0,0-2.045-.846H8V136H41.94a25.636,25.636,0,0,0-.155,2.815,25.35,25.35,0,0,0,.915,6.771Z" transform="translate(-8 -136)" fill="#b4dd7f"/>
        </g>
        <g id="Group_1204108" data-name="Group 1204108" transform="translate(52.086 36.956)">
          <path id="Path_1282468" data-name="Path 1282468" d="M333.562,218.02v30.615H304v-.809a6.177,6.177,0,0,1,4.679-5.992l.952-.238a6.181,6.181,0,0,1,5.86-4.223,2.583,2.583,0,0,0,2.587-2.587v-4.035a25.392,25.392,0,0,0,15.485-12.731Z" transform="translate(-304 -218.02)" fill="#b4dd7f"/>
        </g>
        <g id="Group_1204109" data-name="Group 1204109" transform="translate(16.893 53.494)">
          <path id="Path_1282469" data-name="Path 1282469" d="M131.03,322.7l1.124,3.375H104v-9.854l4.621-3.465a3.789,3.789,0,0,1,5.951,2.113l.69,2.759,2.226-.556A3.791,3.791,0,0,1,122,319.552l.3.894,3.549-.887a3.786,3.786,0,0,1,3.6,1l.665.665A3.8,3.8,0,0,1,131.03,322.7Z" transform="translate(-104 -312)" fill="#b4dd7f"/>
        </g>
        <g id="Group_1204110" data-name="Group 1204110" transform="translate(0 57.717)">
          <path id="Path_1282470" data-name="Path 1282470" d="M16.446,336v9.854H8v-5.631l3.113-3.113a3.791,3.791,0,0,1,2.68-1.11Z" transform="translate(-8 -336)" fill="#b4dd7f"/>
        </g>
        <g id="Group_1204111" data-name="Group 1204111" transform="translate(8.446 50.678)">
          <path id="Path_1282471" data-name="Path 1282471" d="M64.446,312.893v8.446H56V296h8.446v16.893Z" transform="translate(-56 -296)" fill="#ff826e"/>
        </g>
        <g id="Group_1204112" data-name="Group 1204112" transform="translate(8.446 76.017)">
          <path id="Path_1282472" data-name="Path 1282472" d="M64.446,440v4.223a4.223,4.223,0,0,1-8.446,0V440Z" transform="translate(-56 -440)" fill="#ccd1d9"/>
        </g>
        <g id="Group_1204113" data-name="Group 1204113" transform="translate(8.446 42.232)">
          <path id="Path_1282473" data-name="Path 1282473" d="M62.076,249.336l2.37,7.111H56l2.37-7.111a1.953,1.953,0,0,1,3.706,0Z" transform="translate(-56 -248)" fill="#ccd1d9"/>
        </g>
        <g id="Group_1204114" data-name="Group 1204114" transform="translate(33.786)">
          <path id="Path_1282474" data-name="Path 1282474" d="M200.155,30.524A25.558,25.558,0,1,1,200,33.339a25.635,25.635,0,0,1,.155-2.815Z" transform="translate(-200 -8)" fill="#ccd1d9"/>
        </g>
        <g id="Group_1204115" data-name="Group 1204115" transform="translate(59.125 5.631)">
          <path id="Path_1282475" data-name="Path 1282475" d="M344,40a19.708,19.708,0,1,1,0,39.416,2.812,2.812,0,0,0,2.815-2.815V64.586a5.633,5.633,0,0,0,0-9.756V42.815A2.815,2.815,0,0,0,344,40Z" transform="translate(-344 -40)" fill="#69d6f4"/>
        </g>
        <g id="Group_1204116" data-name="Group 1204116" transform="translate(39.416 5.631)">
          <path id="Path_1282476" data-name="Path 1282476" d="M251.708,40a2.812,2.812,0,0,0-2.815,2.815V54.83a5.633,5.633,0,0,0,0,9.756V76.6a2.815,2.815,0,0,0,2.815,2.815,19.708,19.708,0,0,1,0-39.416Z" transform="translate(-232 -40)" fill="#69d6f4"/>
        </g>
        <g id="Group_1204117" data-name="Group 1204117" transform="translate(56.309 30.217)">
          <path id="Path_1282477" data-name="Path 1282477" d="M333.631,179.72v12.015a2.815,2.815,0,1,1-5.631,0V179.72a5.639,5.639,0,0,0,5.631,0Z" transform="translate(-328 -179.72)" fill="#ffeaa7"/>
        </g>
        <g id="Group_1204118" data-name="Group 1204118" transform="translate(56.309 5.631)">
          <path id="Path_1282478" data-name="Path 1282478" d="M333.631,42.815V54.83a5.639,5.639,0,0,0-5.631,0V42.815a2.815,2.815,0,1,1,5.631,0Z" transform="translate(-328 -40)" fill="#ffeaa7"/>
        </g>
        <g id="Group_1204119" data-name="Group 1204119" transform="translate(53.494 19.708)">
          <path id="Path_1282479" data-name="Path 1282479" d="M320.446,130.509a5.633,5.633,0,1,1,2.815-4.878A5.611,5.611,0,0,1,320.446,130.509Z" transform="translate(-312 -120)" fill="#fcd770"/>
        </g>
      </g>
      <g id="Group_1204121" data-name="Group 1204121">
        <circle id="Ellipse_12762" data-name="Ellipse 12762" cx="1.447" cy="1.447" r="1.447" transform="translate(59.314 25.317)"/>
        <path id="Path_1282480" data-name="Path 1282480" d="M84.464,38.682A26.745,26.745,0,1,0,34.12,22.524H0V70.387H8.446V81.648a5.631,5.631,0,0,0,11.262,0V70.387H84.464ZM52.11,67.571H47.47l-.8-2.412a5.228,5.228,0,0,0-1.256-2.032l-.665-.665a5.226,5.226,0,0,0-4.937-1.367l-2.3.574a5.225,5.225,0,0,0-6.066-3.059l-.86.215-.348-1.394a5.2,5.2,0,0,0-8.162-2.9l-2.368,1.776V51.858L17.266,44.53a3.361,3.361,0,0,0-6.377,0L8.446,51.858v5.859H7.2a5.165,5.165,0,0,0-3.676,1.522l-.71.71V36.6H5.841a1.474,1.474,0,0,1,1.049.434l1.122,1.122a4.271,4.271,0,0,0,3.04,1.259H14.8a1.492,1.492,0,0,1,.663.157l4.41,2.205a4.319,4.319,0,0,0,1.923.454h1.283a4.292,4.292,0,0,0,4.17-3.256l.1-.412a1.483,1.483,0,0,1,1.908-1.047,4.293,4.293,0,0,0,3.571-.392l2.473-1.484A26.753,26.753,0,0,0,66.163,52.9V55.13a1.181,1.181,0,0,1-1.179,1.179,7.573,7.573,0,0,0-6.9,4.441l-.251.063a7.572,7.572,0,0,0-5.72,6.759ZM11.262,53.494h5.631V76.017H11.262Zm.545-2.815,1.752-5.258a.545.545,0,0,1,1.035,0l1.753,5.258ZM81.6,25.339a21.028,21.028,0,0,0-5.182-12.487l1.993-1.993a23.834,23.834,0,0,1,6.01,14.481Zm-2.821,2.815a18.223,18.223,0,0,1-4.356,10.493L72.478,36.7l-1.991,1.991,1.946,1.946a18.259,18.259,0,0,1-7.784,3.942,4.221,4.221,0,0,0,.107-.941V32.374a7.031,7.031,0,0,0,0-11.254V9.854a4.221,4.221,0,0,0-.107-.941,18.263,18.263,0,0,1,7.784,3.942L70.487,14.8l1.991,1.991,1.946-1.946a18.222,18.222,0,0,1,4.356,10.493H76.017v2.815h2.762Zm-39.315,0a21.028,21.028,0,0,0,5.182,12.487l-1.993,1.993a23.834,23.834,0,0,1-6.01-14.481Zm2.821-2.815a18.223,18.223,0,0,1,4.356-10.493l1.946,1.946L50.578,14.8l-1.946-1.946a18.259,18.259,0,0,1,7.784-3.942,4.228,4.228,0,0,0-.107.941V21.12a7.031,7.031,0,0,0,0,11.254V43.64a4.221,4.221,0,0,0,.107.941,18.263,18.263,0,0,1-7.784-3.942l1.946-1.946L48.587,36.7l-1.946,1.946a18.222,18.222,0,0,1-4.356-10.493h2.762V25.339H42.286ZM61.94,9.854v10a7.066,7.066,0,0,0-2.815,0v-10a1.408,1.408,0,0,1,2.815,0ZM60.532,45.047a1.409,1.409,0,0,1-1.408-1.408v-10a7.066,7.066,0,0,0,2.815,0v10A1.409,1.409,0,0,1,60.532,45.047Zm0-14.077a4.223,4.223,0,1,1,4.223-4.223A4.228,4.228,0,0,1,60.532,30.97Zm-13.9,11.663a21.028,21.028,0,0,0,12.487,5.182v2.821a23.834,23.834,0,0,1-14.481-6.01Zm27.79-31.772A21.029,21.029,0,0,0,61.94,5.679V2.858a23.835,23.835,0,0,1,14.481,6.01Zm-15.3-5.182a21.029,21.029,0,0,0-12.487,5.182L44.644,8.867A23.834,23.834,0,0,1,59.125,2.858ZM44.646,12.852a21.028,21.028,0,0,0-5.182,12.487H36.644a23.835,23.835,0,0,1,6.01-14.481ZM61.94,50.636V47.815a21.028,21.028,0,0,0,12.487-5.182l1.993,1.993A23.834,23.834,0,0,1,61.94,50.636Zm16.472-8-1.993-1.993A21.028,21.028,0,0,0,81.6,28.155h2.821A23.834,23.834,0,0,1,78.412,42.635Zm-44.589-17.3q-.036.7-.037,1.408a26.734,26.734,0,0,0,.7,6.1l-3.1,1.862a1.483,1.483,0,0,1-1.232.135,4.3,4.3,0,0,0-5.53,3.035l-.1.412a1.481,1.481,0,0,1-1.439,1.124H21.8a1.492,1.492,0,0,1-.663-.157l-4.41-2.205A4.318,4.318,0,0,0,14.8,36.6H11.052A1.474,1.474,0,0,1,10,36.167L8.881,35.045a4.271,4.271,0,0,0-3.04-1.259H2.815V25.339ZM2.815,67.571v-3.64l2.7-2.7a2.366,2.366,0,0,1,1.685-.7H8.446v7.039H2.815ZM14.077,84.464a2.819,2.819,0,0,1-2.815-2.815V78.833h5.631v2.815A2.819,2.819,0,0,1,14.077,84.464Zm5.631-24.635,4.057-3.043a2.383,2.383,0,0,1,3.741,1.329l1.031,4.125,3.591-.9A2.393,2.393,0,0,1,34.968,62.9l.71,2.13,4.813-1.2a2.394,2.394,0,0,1,2.263.627l.665.665a2.4,2.4,0,0,1,.576.931l.507,1.521H19.708Zm35.235,7.743a4.758,4.758,0,0,1,3.571-4.027l1.7-.426.244-.733a4.762,4.762,0,0,1,4.524-3.26,4,4,0,0,0,3.995-3.995v-3a26.853,26.853,0,0,0,12.67-8.982V67.571Z"/>
      </g>
    </g>
  </g>
</svg>
