<svg xmlns="http://www.w3.org/2000/svg" width="129.063" height="82.171" viewBox="0 0 129.063 82.171">
  <g id="Group_1203813" data-name="Group 1203813" transform="translate(-788.103 -1988.032)">
    <g id="Rectangle_410589" data-name="Rectangle 410589" transform="translate(788.103 2007.607)" fill="#ffc94a" stroke="#b18c32" stroke-width="1">
      <rect width="129.063" height="43.021" rx="8" stroke="none"/>
      <rect x="0.5" y="0.5" width="128.063" height="42.021" rx="7.5" fill="none"/>
    </g>
    <g id="meander_11015655" transform="translate(805.548 1982.032)">
      <g id="Group_1204104" data-name="Group 1204104" transform="translate(7.5 7.5)">
        <path id="Path_1282441" data-name="Path 1282441" d="M86.671,11.651V82.518a4.152,4.152,0,0,1-4.151,4.153H11.651A4.152,4.152,0,0,1,7.5,82.518V11.651A4.152,4.152,0,0,1,11.651,7.5H82.52A4.152,4.152,0,0,1,86.671,11.651Z" transform="translate(-7.5 -7.5)" fill="#60b7ff"/>
        <path id="Path_1282442" data-name="Path 1282442" d="M291.726,11.651V78.789C269.086,84.4,271.513,68.127,273.759,53.9s-4.3-16.467-12.162-20.21-3.369-9.916-1.751-17.215-2.179-8.98-2.179-8.98h29.908A4.152,4.152,0,0,1,291.726,11.651Z" transform="translate(-217.337 -7.5)" fill="#26a6fe"/>
        <path id="Path_1282443" data-name="Path 1282443" d="M453.177,7.5H448.39a4.152,4.152,0,0,1,4.151,4.151V82.518a4.152,4.152,0,0,1-4.151,4.153h4.787a4.152,4.152,0,0,0,4.151-4.153V11.651A4.152,4.152,0,0,0,453.177,7.5Z" transform="translate(-378.157 -7.5)" fill="#26a6fe"/>
        <path id="Path_1282444" data-name="Path 1282444" d="M52.043,58.77c-3.46,12.433-14.776,11.79-17.77,6.55,0,0-19.676,7.137-26.773-14.864v-38.8A4.152,4.152,0,0,1,11.651,7.5H43.629a9.607,9.607,0,0,1,2.058,11.039c-2.993,6.549-13.1,8.42-9.356,18.9S55.793,45.3,52.043,58.77Z" transform="translate(-7.5 -7.5)" fill="#d1f19e"/>
        <g id="Group_1204103" data-name="Group 1204103" transform="translate(17.242 0)">
          <path id="Path_1282445" data-name="Path 1282445" d="M120.484,370.47a21.766,21.766,0,0,1-4.749.981,23.357,23.357,0,0,0,5.392-.069A6,6,0,0,1,120.484,370.47Z" transform="translate(-115.735 -312.65)" fill="#d1f19e"/>
          <path id="Path_1282446" data-name="Path 1282446" d="M158.923,37.438c-3.742-10.479,6.362-12.35,9.356-18.9A9.607,9.607,0,0,0,166.221,7.5h-4.782A9.607,9.607,0,0,1,163.5,18.539c-2.993,6.549-13.1,8.42-9.356,18.9S173.6,45.3,169.853,58.77c-1.648,5.921-5.077,8.875-8.541,9.78,4.576,1.238,10.891-1.04,13.323-9.78C178.385,45.3,162.665,47.917,158.923,37.438Z" transform="translate(-147.334 -7.5)" fill="#bbec6c"/>
        </g>
        <path id="Path_1282447" data-name="Path 1282447" d="M321.746,11.651V77.857c-22.639,5.614-20.213-9.73-17.967-23.952s-4.3-16.467-12.162-20.21-3.369-9.916-1.751-17.215-2.179-8.98-2.179-8.98h29.908A4.152,4.152,0,0,1,321.746,11.651Z" transform="translate(-242.575 -7.5)" fill="#d1f19e"/>
        <path id="Path_1282448" data-name="Path 1282448" d="M453.2,7.5H448.42a4.152,4.152,0,0,1,4.151,4.151V78.789a44.265,44.265,0,0,0,4.782-.932V11.651A4.152,4.152,0,0,0,453.2,7.5Z" transform="translate(-378.182 -7.5)" fill="#bbec6c"/>
        <path id="Path_1282449" data-name="Path 1282449" d="M21.405,16.312s3.39,4.068.969,6.974c-2.383,2.863-5.52.089-5.617,0,.045.113,1.7,4.279-2.882,4.2,0,0,3.548,8.878-6.375,8.151V11.651A4.152,4.152,0,0,1,11.651,7.5h9.754S25.975,11.492,21.405,16.312Z" transform="translate(-7.5 -7.5)" fill="#97da7b"/>
        <path id="Path_1282450" data-name="Path 1282450" d="M21.405,7.5H16.623s4.57,3.992,0,8.812a13.035,13.035,0,0,1-2.362,8.6c-1.436,2.115-3.885,5.911-6.761,8.057v2.671c9.923.726,6.375-8.151,6.375-8.151,4.58.081,2.926-4.084,2.882-4.2.1.088,3.234,2.861,5.617,0,2.421-2.906-.969-6.974-.969-6.974C25.975,11.492,21.405,7.5,21.405,7.5Z" transform="translate(-7.5 -7.5)" fill="#80d261"/>
        <path id="Path_1282451" data-name="Path 1282451" d="M458.784,230.986v22.368a6.032,6.032,0,0,1-6.446-2.734c-2.381-3.793-.294-6.027-.294-6.027a3.947,3.947,0,0,1-1.911-3.676,4.074,4.074,0,0,1,2.293-3.44S450.993,229.411,458.784,230.986Z" transform="translate(-379.613 -195.214)" fill="#97da7b"/>
        <path id="Path_1282452" data-name="Path 1282452" d="M474.48,231.672v20.744a6.213,6.213,0,0,0,4.782.938V230.986C476.947,230.518,475.446,230.9,474.48,231.672Z" transform="translate(-400.091 -195.214)" fill="#80d261"/>
        <circle id="Ellipse_12760" data-name="Ellipse 12760" cx="3.311" cy="3.311" r="3.311" transform="translate(15.936 37.694)" fill="#60b7ff"/>
        <path id="Path_1282453" data-name="Path 1282453" d="M385.6,56.648a6.113,6.113,0,1,0-10.346,4.409,2.85,2.85,0,0,1,.926,2.18,3.288,3.288,0,0,0,0,.39,3.311,3.311,0,0,0,6.615-.222q0-.048,0-.1a3.062,3.062,0,0,1,.952-2.28A6.092,6.092,0,0,0,385.6,56.648Z" transform="translate(-315.089 -43.68)" fill="#60b7ff"/>
        <path id="Path_1282454" data-name="Path 1282454" d="M405.259,56.648a6.114,6.114,0,0,0-6.555-6.1,6.011,6.011,0,0,0-1.945.472,6.113,6.113,0,0,1,1.867,10.007,3.062,3.062,0,0,0-.952,2.28q0,.048,0,.1a3.3,3.3,0,0,1-.912,2.282,3.3,3.3,0,0,0,5.694-2.282q0-.048,0-.1a3.062,3.062,0,0,1,.952-2.28A6.092,6.092,0,0,0,405.259,56.648Z" transform="translate(-334.75 -43.68)" fill="#26a6fe"/>
      </g>
      <g id="Group_1204105" data-name="Group 1204105" transform="translate(7.5 7.5)">
        <path id="Path_1282455" data-name="Path 1282455" d="M68.588,86.671H11.651A4.152,4.152,0,0,1,7.5,82.518V11.651A4.152,4.152,0,0,1,11.651,7.5H82.52a4.152,4.152,0,0,1,4.151,4.151V82.518a4.152,4.152,0,0,1-4.151,4.153H74.167" transform="translate(-7.5 -7.5)" fill="none" stroke="#000" stroke-linecap="round" stroke-linejoin="round" stroke-miterlimit="10" stroke-width="3"/>
        <path id="Path_1282456" data-name="Path 1282456" d="M52.043,58.77c-3.46,12.433-14.776,11.79-17.77,6.55,0,0-19.676,7.137-26.773-14.864v-38.8A4.152,4.152,0,0,1,11.651,7.5H43.629a9.607,9.607,0,0,1,2.058,11.039c-2.993,6.549-13.1,8.42-9.356,18.9,3.111,8.712,14.5,8.37,16.1,15.751" transform="translate(-7.5 -7.5)" fill="none" stroke="#000" stroke-linecap="round" stroke-linejoin="round" stroke-miterlimit="10" stroke-width="3"/>
        <path id="Path_1282457" data-name="Path 1282457" d="M321.746,11.651V77.857c-22.639,5.614-20.213-9.73-17.967-23.952s-4.3-16.467-12.162-20.21-3.369-9.916-1.751-17.215-2.179-8.98-2.179-8.98h29.908A4.152,4.152,0,0,1,321.746,11.651Z" transform="translate(-242.575 -7.5)" fill="none" stroke="#000" stroke-linecap="round" stroke-linejoin="round" stroke-miterlimit="10" stroke-width="3"/>
        <path id="Path_1282458" data-name="Path 1282458" d="M21.405,16.312s3.39,4.068.969,6.974c-2.383,2.863-5.52.089-5.617,0,.045.113,1.7,4.279-2.882,4.2,0,0,3.548,8.878-6.375,8.151V11.651A4.152,4.152,0,0,1,11.651,7.5h9.754S25.975,11.492,21.405,16.312Z" transform="translate(-7.5 -7.5)" fill="none" stroke="#000" stroke-linecap="round" stroke-linejoin="round" stroke-miterlimit="10" stroke-width="3"/>
        <path id="Path_1282459" data-name="Path 1282459" d="M458.784,230.986v22.368a6.032,6.032,0,0,1-6.446-2.734c-2.381-3.793-.294-6.027-.294-6.027a3.947,3.947,0,0,1-1.911-3.676,4.074,4.074,0,0,1,2.293-3.44S450.993,229.411,458.784,230.986Z" transform="translate(-379.613 -195.214)" fill="none" stroke="#000" stroke-linecap="round" stroke-linejoin="round" stroke-miterlimit="10" stroke-width="3"/>
        <circle id="Ellipse_12761" data-name="Ellipse 12761" cx="3.311" cy="3.311" r="3.311" transform="translate(15.936 37.694)" fill="none" stroke="#000" stroke-linecap="round" stroke-linejoin="round" stroke-miterlimit="10" stroke-width="3"/>
        <path id="Path_1282460" data-name="Path 1282460" d="M385.6,56.648a6.113,6.113,0,1,0-10.346,4.409,2.85,2.85,0,0,1,.926,2.18,3.288,3.288,0,0,0,0,.39,3.311,3.311,0,0,0,6.615-.222q0-.048,0-.1a3.062,3.062,0,0,1,.952-2.28A6.092,6.092,0,0,0,385.6,56.648Z" transform="translate(-315.089 -43.68)" fill="none" stroke="#000" stroke-linecap="round" stroke-linejoin="round" stroke-miterlimit="10" stroke-width="3"/>
        <line id="Line_835" data-name="Line 835" transform="translate(27.215 46.236)" fill="none" stroke="#000" stroke-linecap="round" stroke-linejoin="round" stroke-miterlimit="10" stroke-width="3"/>
        <line id="Line_836" data-name="Line 836" transform="translate(73.224 23.036)" fill="none" stroke="#000" stroke-linecap="round" stroke-linejoin="round" stroke-miterlimit="10" stroke-width="3"/>
        <path id="Path_1282461" data-name="Path 1282461" d="M250.83,149.117s-.62,4.446,3.1,6.824" transform="translate(-212.036 -126.558)" fill="none" stroke="#000" stroke-linecap="round" stroke-linejoin="round" stroke-miterlimit="10" stroke-width="3"/>
        <path id="Path_1282462" data-name="Path 1282462" d="M345.148,285.694s1.448,3.885,0,6.883" transform="translate(-291.361 -241.378)" fill="none" stroke="#000" stroke-linecap="round" stroke-linejoin="round" stroke-miterlimit="10" stroke-width="3"/>
        <path id="Path_1282463" data-name="Path 1282463" d="M272.3,392.707a9.778,9.778,0,0,1-6.927,5.79" transform="translate(-224.295 -331.344)" fill="none" stroke="#000" stroke-linecap="round" stroke-linejoin="round" stroke-miterlimit="10" stroke-width="3"/>
        <path id="Path_1282464" data-name="Path 1282464" d="M71.777,426.9s-5.687-.207-9.616-2.585" transform="translate(-53.454 -357.918)" fill="none" stroke="#000" stroke-linecap="round" stroke-linejoin="round" stroke-miterlimit="10" stroke-width="3"/>
        <path id="Path_1282465" data-name="Path 1282465" d="M207.9,465.569a17.758,17.758,0,0,0,9.616,0" transform="translate(-175.977 -392.6)" fill="none" stroke="#000" stroke-linecap="round" stroke-linejoin="round" stroke-miterlimit="10" stroke-width="3"/>
      </g>
    </g>
  </g>
</svg>
