<svg id="Group_1204189" data-name="Group 1204189" xmlns="http://www.w3.org/2000/svg" xmlns:xlink="http://www.w3.org/1999/xlink" width="82.001" height="82.001" viewBox="0 0 82.001 82.001">
  <defs>
    <clipPath id="clip-path">
      <path id="path4531" d="M0-682.665H54.27v54.27H0Z" transform="translate(0 682.665)"/>
    </clipPath>
  </defs>
  <g id="Group_1187152" data-name="Group 1187152" transform="translate(0)">
    <g id="Group_1185946" data-name="Group 1185946" transform="translate(0)">
      <g id="Group_1184280" data-name="Group 1184280" transform="translate(0)">
        <g id="Group_1182168" data-name="Group 1182168" transform="translate(0)">
          <g id="Group_1178877" data-name="Group 1178877" transform="translate(0)">
            <g id="Group_1111311" data-name="Group 1111311" transform="translate(0)">
              <g id="Group_1098742" data-name="Group 1098742" transform="translate(0)">
                <g id="Rectangle_400898" data-name="Rectangle 400898" transform="translate(0)" fill="#fff" stroke="#7e6424" stroke-width="1" opacity="0.859">
                  <rect width="82.001" height="82.001" rx="41" stroke="none"/>
                  <rect x="0.5" y="0.5" width="81.001" height="81.001" rx="40.5" fill="none"/>
                </g>
                <g id="Rectangle_400907" data-name="Rectangle 400907" transform="translate(0)" fill="none" stroke="#7e6424" stroke-width="1">
                  <rect width="82.001" height="82.001" rx="41" stroke="none"/>
                  <rect x="0.5" y="0.5" width="81.001" height="81.001" rx="40.5" fill="none"/>
                </g>
              </g>
            </g>
          </g>
        </g>
      </g>
    </g>
  </g>
  <g id="g4521" transform="translate(13.866 696.531)">
    <g id="g4523" transform="translate(19.952 -667.893)">
      <path id="path4525" d="M-131.189-27.723l-7.183,12.441-4.147-2.394,7.183-12.441Z" transform="translate(142.518 30.117)" fill="#7b849b"/>
    </g>
    <g id="g4527" transform="translate(0 -682.665)">
      <g id="g4529" clip-path="url(#clip-path)">
        <g id="g4535" transform="translate(30.071 6.289)">
          <path id="path4537" d="M-186.648-53.561l-4.874,1.306-8.232,2.206a2.378,2.378,0,0,1-.621.083,2.394,2.394,0,0,1-2.311-1.775,2.4,2.4,0,0,1,1.693-2.933l8.232-2.206,4.874-1.306Z" transform="translate(202.767 58.187)" fill="#7b849b"/>
        </g>
        <g id="g4539" transform="translate(39.987 6.289)">
          <path id="path4541" d="M-71.837-53.561l-4.874,1.306a5.565,5.565,0,0,1-1.138-2.174,5.565,5.565,0,0,1-.1-2.452l4.874-1.306Z" transform="translate(78.041 58.187)" fill="#5d6a85"/>
        </g>
        <g id="g4543" transform="translate(42.296 2.394)">
          <path id="path4545" d="M-2.22-81.446A5.587,5.587,0,0,0,4.622-77.5a5.587,5.587,0,0,0,3.95-6.842,5.587,5.587,0,0,0-6.842-3.95,5.587,5.587,0,0,0-3.95,6.842" transform="translate(2.412 88.48)" fill="#83deff"/>
        </g>
        <g id="g4547" transform="translate(6.09 33.263)">
          <path id="path4549" d="M-143.456-45.544l-8.721,10.393-3.668-3.078,8.721-10.393a2.394,2.394,0,0,1,3.373-.3,2.394,2.394,0,0,1,.3,3.373" transform="translate(155.845 49.478)" fill="#5d6a85"/>
        </g>
        <g id="g4551" transform="translate(11.173 24.741)">
          <path id="path4553" d="M-184.822-92.411A7.981,7.981,0,0,1-192.8-84.43a7.981,7.981,0,0,1-7.981-7.981,7.981,7.981,0,0,1,7.981-7.981,7.981,7.981,0,0,1,7.981,7.981" transform="translate(200.783 100.392)" fill="#83deff"/>
        </g>
        <g id="g4555" transform="translate(11.173 24.9)">
          <path id="path4557" d="M-111-181.107a8,8,0,0,1-1.6.161,7.981,7.981,0,0,1-7.981-7.98,7.981,7.981,0,0,1,6.387-7.821,17.836,17.836,0,0,0,3.2,15.641" transform="translate(120.586 196.747)" fill="#2ecefb"/>
        </g>
        <g id="g4559" transform="translate(0.798 42.298)">
          <path id="path4561" d="M-106.27-15.136a5.587,5.587,0,0,1,.689,7.871,5.586,5.586,0,0,1-7.87.689,5.587,5.587,0,0,1-.689-7.871,5.587,5.587,0,0,1,7.871-.689" transform="translate(115.447 16.443)" fill="#f5c956"/>
        </g>
        <g id="g4563" transform="translate(20.493 32.72)">
          <path id="path4565" d="M-177.644-82.262l-2.394,4.148-4.642-2.679-7.108-4.1a2.394,2.394,0,0,1-1.2-2.076,2.387,2.387,0,0,1,.321-1.194,2.4,2.4,0,0,1,3.271-.877l6.955,4.016Z" transform="translate(192.986 89.366)" fill="#7b849b"/>
        </g>
        <g id="g4567" transform="translate(28.799 37.057)">
          <path id="path4569" d="M-81.47-32.046-83.865-27.9l-4.642-2.679a5.771,5.771,0,0,1,.766-2.547,5.734,5.734,0,0,1,1.475-1.689Z" transform="translate(88.506 34.813)" fill="#5d6a85"/>
        </g>
        <g id="g4571" transform="translate(31.123 37.508)">
          <path id="path4573" d="M-8.678-32.355a5.586,5.586,0,0,0,2.045,7.631A5.586,5.586,0,0,0,1-26.768,5.587,5.587,0,0,0-1.046-34.4a5.587,5.587,0,0,0-7.631,2.045" transform="translate(9.427 35.149)" fill="#60daa8"/>
        </g>
        <g id="g4575" transform="translate(22.602 3.991)">
          <path id="path4577" d="M-184.824-92.4a7.981,7.981,0,0,1-5.512,7.59,7.929,7.929,0,0,1-2.47.391,7.982,7.982,0,0,1-7.98-7.982,7.98,7.98,0,0,1,7.9-7.979h.082a7.981,7.981,0,0,1,7.981,7.98" transform="translate(200.786 100.385)" fill="#60daa8"/>
        </g>
        <g id="g4579" transform="translate(22.602 3.992)">
          <path id="path4581" d="M-121-180.283a7.932,7.932,0,0,1-2.47.391,7.981,7.981,0,0,1-7.98-7.981,7.98,7.98,0,0,1,7.9-7.979A19.662,19.662,0,0,0-121-180.283" transform="translate(131.453 195.853)" fill="#00c67f"/>
        </g>
        <g id="g4583" transform="translate(12.069 4.693)">
          <path id="path4585" d="M-151.746-94.218l-13.105-3.512,1.239-4.625,13.105,3.512a2.394,2.394,0,0,1,1.693,2.932,2.394,2.394,0,0,1-2.932,1.693" transform="translate(164.852 102.354)" fill="#5d6a85"/>
        </g>
        <g id="g4587" transform="translate(4.788 0.798)">
          <path id="path4589" d="M-127.188-81.446a5.587,5.587,0,0,1-6.842,3.95,5.587,5.587,0,0,1-3.95-6.842,5.587,5.587,0,0,1,6.842-3.95,5.586,5.586,0,0,1,3.95,6.842" transform="translate(138.172 88.48)" fill="#f5c956"/>
        </g>
        <g id="g4591" transform="translate(25.299 20.008)">
          <path id="path4593" d="M-50.349,0-54.7,7.533" transform="translate(54.697)" fill="none" stroke="#000" stroke-linecap="round" stroke-linejoin="round" stroke-miterlimit="10" stroke-width="2"/>
        </g>
        <g id="g4595" transform="translate(21.285 18.147)">
          <path id="path4597" d="M-45.259,0l-3.909,6.77" transform="translate(49.168)" fill="none" stroke="#000" stroke-linecap="round" stroke-linejoin="round" stroke-miterlimit="10" stroke-width="2"/>
        </g>
        <g id="g4599" transform="translate(38.525 11.629)">
          <path id="path4601" d="M-58.367,0l-5.041,1.351" transform="translate(63.408)" fill="none" stroke="#000" stroke-linecap="round" stroke-linejoin="round" stroke-miterlimit="10" stroke-width="2"/>
        </g>
        <g id="g4603" transform="translate(37.711 7.002)">
          <path id="path4605" d="M-53.5,0l-4.621,1.239" transform="translate(58.125)" fill="none" stroke="#000" stroke-linecap="round" stroke-linejoin="round" stroke-miterlimit="10" stroke-width="2"/>
        </g>
        <g id="g4607" transform="translate(42.295 2.407)">
          <path id="path4609" d="M-57.28-.436a5.586,5.586,0,0,1,6.037,4.1,5.586,5.586,0,0,1-3.95,6.842,5.587,5.587,0,0,1-6.842-3.951,5.583,5.583,0,0,1,1.4-5.347" transform="translate(62.226 0.474)" fill="none" stroke="#000" stroke-linecap="round" stroke-linejoin="round" stroke-miterlimit="10" stroke-width="2"/>
        </g>
        <g id="g4611" transform="translate(11.541 40.092)">
          <path id="path4613" d="M-52.332,0l-4.52,5.386" transform="translate(56.852)" fill="none" stroke="#000" stroke-linecap="round" stroke-linejoin="round" stroke-miterlimit="10" stroke-width="2"/>
        </g>
        <g id="g4615" transform="translate(7.888 36.997)">
          <path id="path4617" d="M-52.311,0l-4.518,5.383" transform="translate(56.829)" fill="none" stroke="#000" stroke-linecap="round" stroke-linejoin="round" stroke-miterlimit="10" stroke-width="2"/>
        </g>
        <g id="g4619" transform="translate(19.588 38.808)">
          <path id="path4621" d="M0-21.928a7.949,7.949,0,0,0,4.741-1.894" transform="translate(0 23.821)" fill="none" stroke="#000" stroke-linecap="round" stroke-linejoin="round" stroke-miterlimit="10" stroke-width="2"/>
        </g>
        <g id="g4623" transform="translate(11.173 24.752)">
          <path id="path4625" d="M-56.592-177.621a8.262,8.262,0,0,1-4.887-7.358,7.981,7.981,0,0,1,7.981-7.982,7.986,7.986,0,0,1,7.757,9.861" transform="translate(61.48 192.961)" fill="none" stroke="#000" stroke-linecap="round" stroke-linejoin="round" stroke-miterlimit="10" stroke-width="2"/>
        </g>
        <g id="g4627" transform="translate(0.798 42.31)">
          <path id="path4629" d="M-106.27-15.135a5.587,5.587,0,0,1,.689,7.871,5.586,5.586,0,0,1-7.87.689,5.586,5.586,0,0,1-.689-7.87A5.587,5.587,0,0,1-106.27-15.135Z" transform="translate(115.447 16.442)" fill="none" stroke="#000" stroke-linecap="round" stroke-linejoin="round" stroke-miterlimit="10" stroke-width="2"/>
        </g>
        <g id="g4631" transform="translate(20.493 32.732)">
          <path id="path4633" d="M-150.8-66.767l-9.431-5.446a2.4,2.4,0,0,0-3.271.877,2.4,2.4,0,0,0,.877,3.271l9.42,5.439" transform="translate(163.822 72.534)" fill="none" stroke="#000" stroke-linecap="round" stroke-linejoin="round" stroke-miterlimit="10" stroke-width="2"/>
        </g>
        <g id="g4635" transform="translate(31.123 37.52)">
          <path id="path4637" d="M-8.678-32.354a5.587,5.587,0,0,0,2.045,7.631A5.586,5.586,0,0,0,1-26.768,5.587,5.587,0,0,0-1.046-34.4,5.587,5.587,0,0,0-8.678-32.354Z" transform="translate(9.427 35.148)" fill="none" stroke="#000" stroke-linecap="round" stroke-linejoin="round" stroke-miterlimit="10" stroke-width="2"/>
        </g>
        <g id="g4639" transform="translate(22.609 4.002)">
          <path id="path4641" d="M-15.852-40.551a7.97,7.97,0,0,1,6.6-3.5,7.981,7.981,0,0,1,7.982,7.98,7.982,7.982,0,0,1-7.982,7.981,7.982,7.982,0,0,1-7.974-7.669" transform="translate(17.221 44.053)" fill="none" stroke="#000" stroke-linecap="round" stroke-linejoin="round" stroke-miterlimit="10" stroke-width="2"/>
        </g>
        <g id="g4643" transform="translate(14.68 6.352)">
          <path id="path4645" d="M-55.317,0l6.956,1.863A2.4,2.4,0,0,1-46.668,4.8,2.393,2.393,0,0,1-49.6,6.489L-60.095,3.677" transform="translate(60.095)" fill="none" stroke="#000" stroke-linecap="round" stroke-linejoin="round" stroke-miterlimit="10" stroke-width="2"/>
        </g>
        <g id="g4647" transform="translate(4.788 0.81)">
          <path id="path4649" d="M-127.188-81.447a5.587,5.587,0,0,1-6.842,3.95,5.587,5.587,0,0,1-3.95-6.842,5.587,5.587,0,0,1,6.842-3.95A5.587,5.587,0,0,1-127.188-81.447Z" transform="translate(138.172 88.481)" fill="none" stroke="#000" stroke-linecap="round" stroke-linejoin="round" stroke-miterlimit="10" stroke-width="2"/>
        </g>
      </g>
    </g>
  </g>
</svg>
