<svg id="Group_1204122" data-name="Group 1204122" xmlns="http://www.w3.org/2000/svg" width="82.001" height="82.001" viewBox="0 0 82.001 82.001">
  <g id="Group_1187152" data-name="Group 1187152" transform="translate(0)">
    <g id="Group_1185946" data-name="Group 1185946" transform="translate(0)">
      <g id="Group_1184280" data-name="Group 1184280" transform="translate(0)">
        <g id="Group_1182168" data-name="Group 1182168" transform="translate(0)">
          <g id="Group_1178877" data-name="Group 1178877" transform="translate(0)">
            <g id="Group_1111311" data-name="Group 1111311" transform="translate(0)">
              <g id="Group_1098742" data-name="Group 1098742" transform="translate(0)">
                <g id="Rectangle_400898" data-name="Rectangle 400898" transform="translate(0)" fill="#fff" stroke="#4f6278" stroke-width="1" opacity="0.859">
                  <rect width="82.001" height="82.001" rx="41" stroke="none"/>
                  <rect x="0.5" y="0.5" width="81.001" height="81.001" rx="40.5" fill="none"/>
                </g>
                <g id="Rectangle_400907" data-name="Rectangle 400907" transform="translate(0)" fill="none" stroke="#4f6278" stroke-width="1">
                  <rect width="82.001" height="82.001" rx="41" stroke="none"/>
                  <rect x="0.5" y="0.5" width="81.001" height="81.001" rx="40.5" fill="none"/>
                </g>
              </g>
            </g>
          </g>
        </g>
      </g>
    </g>
  </g>
  <g id="Fill_out_line" data-name="Fill out line" transform="translate(0.673 0.67)">
    <path id="Path_1282515" data-name="Path 1282515" d="M140.636,24h0a2.294,2.294,0,0,0-1.622.672h0a12.011,12.011,0,0,0-1.955,2.572H109.871a12.011,12.011,0,0,0-1.955-2.572h0A2.294,2.294,0,0,0,106.294,24h0A2.294,2.294,0,0,0,104,26.294h0a2.294,2.294,0,0,0,.672,1.622h0a12.012,12.012,0,0,0,2.572,1.955V67.8a1.622,1.622,0,0,0-1.622,1.622h0a1.622,1.622,0,0,0,1.622,1.622h32.442a1.622,1.622,0,0,0,1.622-1.622h0a1.622,1.622,0,0,0-1.622-1.622V29.871a12.011,12.011,0,0,0,2.572-1.955h0a2.294,2.294,0,0,0,.672-1.622h0A2.294,2.294,0,0,0,140.636,24Z" transform="translate(-79.082 -7.189)" fill="#c4965c"/>
    <circle id="Ellipse_12763" data-name="Ellipse 12763" cx="12.83" cy="12.83" r="12.83" transform="translate(31.392 27.547)" fill="#a3d6eb"/>
    <path id="Path_1282516" data-name="Path 1282516" d="M173.788,147.575a13.788,13.788,0,1,1,13.788-13.788A13.8,13.8,0,0,1,173.788,147.575Zm0-25.953a12.166,12.166,0,1,0,12.166,12.166A12.166,12.166,0,0,0,173.788,121.622Z" transform="translate(-129.404 -93.456)" fill="#eedc9a"/>
    <path id="Path_1282517" data-name="Path 1282517" d="M282.433,184h6.488v4.055a2.433,2.433,0,0,1-2.433,2.433H280v-4.055A2.433,2.433,0,0,1,282.433,184Z" transform="translate(-237.239 -150.968)" fill="#349966"/>
    <path id="Path_1282518" data-name="Path 1282518" d="M229.677,227.355v-4.866h-3.244A2.433,2.433,0,0,1,224,220.055V216h6.488a2.433,2.433,0,0,1,2.433,2.433v8.921" transform="translate(-186.916 -179.724)" fill="#4ba477"/>
    <path id="Path_1282519" data-name="Path 1282519" d="M56,327.3V320h8.11v7.3l-4.055,4.055Z" transform="translate(-35.948 -273.18)" fill="#a3d6eb"/>
    <path id="Path_1282520" data-name="Path 1282520" d="M43.464,377.327a2.839,2.839,0,0,1-2.838,2.839H26.838a2.839,2.839,0,0,1-.262-5.665,2.432,2.432,0,0,1,3.109-3.113,3.65,3.65,0,0,1,7.268-.142h.022a2.431,2.431,0,0,1,2.054,3.735,2.839,2.839,0,0,1,4.434,2.348Z" transform="translate(-7.191 -316.314)" fill="#ad7d4d"/>
    <rect id="Rectangle_412909" data-name="Rectangle 412909" width="3.207" height="7.698" transform="translate(22.411 35.245)" fill="#396795"/>
    <path id="Path_1282521" data-name="Path 1282521" d="M80,320v1.622a1.622,1.622,0,0,0,1.622,1.622h0a1.622,1.622,0,0,0,1.622-1.622V320Z" transform="translate(-57.515 -273.18)" fill="#8acce7"/>
    <path id="Path_1282522" data-name="Path 1282522" d="M173.788,120a13.788,13.788,0,1,0,13.788,13.788A13.8,13.8,0,0,0,173.788,120Zm0,25.953a12.166,12.166,0,1,1,12.166-12.166A12.166,12.166,0,0,1,173.788,145.953Z" transform="translate(-129.404 -93.456)"/>
    <path id="Path_1282523" data-name="Path 1282523" d="M231.41,176h-6.488a3.248,3.248,0,0,0-3.244,3.244h-4.866a.811.811,0,0,0-.811.811v4.055a3.248,3.248,0,0,0,3.244,3.244h2.433V190.6h-1.622v1.622h8.11V190.6h-1.622V184.11h2.433a3.248,3.248,0,0,0,3.244-3.244v-4.055a.811.811,0,0,0-.811-.811Zm-8.11,14.6v-4.055a.811.811,0,0,0-.811-.811,2.436,2.436,0,0,1-2.433-2.433v-.811h-1.622v.811a4.034,4.034,0,0,0,.813,2.433h0a1.624,1.624,0,0,1-1.622-1.622v-3.244H223.3a1.624,1.624,0,0,1,1.622,1.622v8.11Zm7.3-9.732a1.624,1.624,0,0,1-1.622,1.622h0a4.034,4.034,0,0,0,.813-2.433v-.811h-1.622v.811a2.437,2.437,0,0,1-1.626,2.295,3.248,3.248,0,0,0-3.241-3.106,1.624,1.624,0,0,1,1.622-1.622H230.6Z" transform="translate(-179.727 -143.779)"/>
    <path id="Path_1282524" data-name="Path 1282524" d="M63.75,21.3a3.1,3.1,0,1,0-4.391-4.391,12.78,12.78,0,0,0-1.845,2.335H31.253a12.78,12.78,0,0,0-1.845-2.335A3.1,3.1,0,1,0,25.017,21.3a12.781,12.781,0,0,0,2.335,1.845V46.009H24.918V43.575h.811a.811.811,0,0,0,.811-.811v-7.3a.811.811,0,0,0-.811-.811H22.485a.811.811,0,0,0-.811.811v7.3a.811.811,0,0,0,.811.811H23.3v2.433H20.052a.811.811,0,0,0-.811.811v7.3a.812.812,0,0,0,.237.574l.152.152a3.242,3.242,0,0,0-1.2,2.518q0,.1.006.2a3.651,3.651,0,0,0,1.21,7.1H60.6a2.433,2.433,0,0,0,.811-4.727V23.145A12.781,12.781,0,0,0,63.75,21.3ZM23.3,36.276h1.622v5.677H23.3Zm0,11.355h1.622v.811a.811.811,0,0,1-1.622,0Zm-2.433,6.153V47.631h.811v.811a2.433,2.433,0,1,0,4.866,0v-.811h.811v3.412a4.43,4.43,0,0,0-1.217-.168,4.481,4.481,0,0,0-4.293,3.248c-.056,0-.112,0-.167,0a3.212,3.212,0,0,0-.444.03ZM33.434,63.04H19.647a2.027,2.027,0,0,1-.188-4.046.811.811,0,0,0,.688-1.084,1.622,1.622,0,0,1,1.527-2.17,1.579,1.579,0,0,1,.543.094.812.812,0,0,0,1.086-.7,2.839,2.839,0,0,1,5.653-.111.81.81,0,0,0,.844.721,1.624,1.624,0,0,1,1.606,1.622,1.606,1.606,0,0,1-.252.866.811.811,0,0,0,1.14,1.107,2.028,2.028,0,1,1,1.141,3.7ZM60.2,21.976a.811.811,0,0,0-.412.706V59.8H58.171v1.622H60.6a.811.811,0,0,1,0,1.622H36.467a3.65,3.65,0,0,0-3.438-5.655v-.022a3.25,3.25,0,0,0-2.582-3.176,4.442,4.442,0,0,0-1.473-2.3V22.682a.811.811,0,0,0-.412-.706,11.184,11.184,0,0,1-2.4-1.823,1.483,1.483,0,0,1,2.1-2.1,11.184,11.184,0,0,1,1.823,2.4.812.812,0,0,0,.706.412H57.977a.812.812,0,0,0,.706-.412,11.184,11.184,0,0,1,1.823-2.4,1.483,1.483,0,1,1,2.1,2.1A11.184,11.184,0,0,1,60.2,21.976Z" transform="translate(0)"/>
  </g>
</svg>
