<svg id="Group_1204187" data-name="Group 1204187" xmlns="http://www.w3.org/2000/svg" width="82.001" height="82.001" viewBox="0 0 82.001 82.001">
  <g id="Group_1187152" data-name="Group 1187152" transform="translate(0)">
    <g id="Group_1185946" data-name="Group 1185946" transform="translate(0)">
      <g id="Group_1184280" data-name="Group 1184280" transform="translate(0)">
        <g id="Group_1182168" data-name="Group 1182168" transform="translate(0)">
          <g id="Group_1178877" data-name="Group 1178877" transform="translate(0)">
            <g id="Group_1111311" data-name="Group 1111311" transform="translate(0)">
              <g id="Group_1098742" data-name="Group 1098742" transform="translate(0)">
                <g id="Rectangle_400898" data-name="Rectangle 400898" transform="translate(0)" fill="#fff" stroke="#7e6424" stroke-width="1" opacity="0.859">
                  <rect width="82.001" height="82.001" rx="41" stroke="none"/>
                  <rect x="0.5" y="0.5" width="81.001" height="81.001" rx="40.5" fill="none"/>
                </g>
                <g id="Rectangle_400907" data-name="Rectangle 400907" transform="translate(0)" fill="none" stroke="#7e6424" stroke-width="1">
                  <rect width="82.001" height="82.001" rx="41" stroke="none"/>
                  <rect x="0.5" y="0.5" width="81.001" height="81.001" rx="40.5" fill="none"/>
                </g>
              </g>
            </g>
          </g>
        </g>
      </g>
    </g>
  </g>
  <g id="drought_4849560" transform="translate(14.531 -24.283)">
    <g id="Group_1204201" data-name="Group 1204201" transform="translate(0 61.929)">
      <g id="Group_1204200" data-name="Group 1204200">
        <path id="Path_1282691" data-name="Path 1282691" d="M42.333,229l-1.6,2.336,1.075,3.029L37.3,236.412l1.582-2.946-1.509-2.512L38.787,229H19.508l-2.522,3.494,1.923,1.53-4.921,4,1.147-3.918-2.378-2.595L14.525,229H5.5v12.033H57.292V229Z" transform="translate(-4.931 -228.431)" fill="#935434"/>
        <path id="Path_1282692" data-name="Path 1282692" d="M52.361,236.66H.569A.567.567,0,0,1,0,236.091V224.069a.567.567,0,0,1,.569-.569H9.6a.555.555,0,0,1,.5.3.576.576,0,0,1-.041.589l-1.509,2.14,2.078,2.254a.543.543,0,0,1,.124.538l-.641,2.192,2.967-2.419L11.7,228a.566.566,0,0,1-.1-.775l2.522-3.484a.573.573,0,0,1,.455-.238h19.28a.561.561,0,0,1,.507.31.576.576,0,0,1-.041.589l-1.189,1.644,1.323,2.192a.566.566,0,0,1,.01.558l-.8,1.478,2.512-1.147-.9-2.533a.584.584,0,0,1,.062-.507l1.6-2.336a.56.56,0,0,1,.465-.248H52.371a.567.567,0,0,1,.569.569v12.023a.576.576,0,0,1-.579.569ZM1.127,235.533H51.8v-10.9H37.7l-1.272,1.85.982,2.75a.558.558,0,0,1-.3.7l-4.518,2.047a.554.554,0,0,1-.641-.124.564.564,0,0,1-.083-.651l1.437-2.667-1.344-2.233a.564.564,0,0,1,.031-.62l.765-1.054H14.876l-2.037,2.822,1.5,1.2a.549.549,0,0,1,.207.434.569.569,0,0,1-.207.445l-4.931,4a.575.575,0,0,1-.672.031.559.559,0,0,1-.227-.631l1.065-3.618L7.4,226.963a.561.561,0,0,1-.041-.7l1.147-1.623H1.127Z" transform="translate(0 -223.5)" fill="#262626"/>
      </g>
    </g>
    <g id="Group_1204202" data-name="Group 1204202" transform="translate(18.874 62.156)">
      <path id="Path_1282693" data-name="Path 1282693" d="M183.138,233.144a.566.566,0,0,1-.2-1.1l4.879-1.809-2.895-3.618a.567.567,0,0,1,.889-.7l3.38,4.228a.57.57,0,0,1-.248.889l-5.613,2.078A.6.6,0,0,1,183.138,233.144Z" transform="translate(-182.578 -225.701)" fill="#262626"/>
    </g>
    <g id="Group_1204203" data-name="Group 1204203" transform="translate(21.34 67.566)">
      <path id="Path_1282694" data-name="Path 1282694" d="M209.064,282.09a.578.578,0,0,1-.465-.238l-2.068-2.936a.564.564,0,0,1,.92-.651l2.068,2.936a.572.572,0,0,1-.134.786A.517.517,0,0,1,209.064,282.09Z" transform="translate(-206.431 -278.031)" fill="#262626"/>
    </g>
    <g id="Group_1204204" data-name="Group 1204204" transform="translate(2.158 61.926)">
      <path id="Path_1282695" data-name="Path 1282695" d="M22.688,230.229a.517.517,0,0,1-.289-.083.559.559,0,0,1-.2-.775l.9-1.53-2.14-3.5a.564.564,0,1,1,.961-.589l2.316,3.794a.534.534,0,0,1,0,.579l-1.075,1.819A.526.526,0,0,1,22.688,230.229Z" transform="translate(-20.876 -223.476)" fill="#262626"/>
    </g>
    <g id="Group_1204205" data-name="Group 1204205" transform="translate(20.343 69.029)">
      <path id="Path_1282696" data-name="Path 1282696" d="M204.237,297.6l-2.037,2.657" transform="translate(-201.64 -297.04)" fill="#935434"/>
      <path id="Path_1282697" data-name="Path 1282697" d="M197.342,295.957a.587.587,0,0,1-.341-.114.572.572,0,0,1-.1-.8l2.047-2.646a.568.568,0,1,1,.9.693l-2.047,2.646A.6.6,0,0,1,197.342,295.957Z" transform="translate(-196.781 -292.181)" fill="#262626"/>
    </g>
    <g id="Group_1204206" data-name="Group 1204206" transform="translate(39.012 62.156)">
      <path id="Path_1282698" data-name="Path 1282698" d="M377.938,233.144a.566.566,0,0,1-.2-1.1l4.879-1.809-2.895-3.618a.567.567,0,1,1,.889-.7l3.38,4.228a.57.57,0,0,1-.248.889l-5.613,2.078A.7.7,0,0,1,377.938,233.144Z" transform="translate(-377.378 -225.701)" fill="#262626"/>
    </g>
    <g id="Group_1204207" data-name="Group 1204207" transform="translate(41.478 67.566)">
      <path id="Path_1282699" data-name="Path 1282699" d="M403.864,282.09a.578.578,0,0,1-.465-.238l-2.068-2.936a.564.564,0,0,1,.92-.651l2.068,2.936a.571.571,0,0,1-.134.786A.517.517,0,0,1,403.864,282.09Z" transform="translate(-401.231 -278.031)" fill="#262626"/>
    </g>
    <g id="Group_1204208" data-name="Group 1204208" transform="translate(40.47 69.029)">
      <path id="Path_1282700" data-name="Path 1282700" d="M398.947,297.6l-2.047,2.657" transform="translate(-396.34 -297.04)" fill="#935434"/>
      <path id="Path_1282701" data-name="Path 1282701" d="M392.042,295.957a.587.587,0,0,1-.341-.114.572.572,0,0,1-.1-.8l2.047-2.646a.568.568,0,1,1,.9.693l-2.047,2.646A.6.6,0,0,1,392.042,295.957Z" transform="translate(-391.481 -292.181)" fill="#262626"/>
    </g>
    <g id="Group_1204209" data-name="Group 1204209" transform="translate(4.087 66.388)">
      <path id="Path_1282702" data-name="Path 1282702" d="M46.485,274.137,45.1,272.1" transform="translate(-44.525 -271.535)" fill="#935434"/>
      <path id="Path_1282703" data-name="Path 1282703" d="M41.5,269.8a.561.561,0,0,1-.465-.248l-1.4-2.026a.565.565,0,0,1,.93-.641l1.4,2.037a.564.564,0,0,1-.145.786A.581.581,0,0,1,41.5,269.8Z" transform="translate(-39.536 -266.636)" fill="#262626"/>
    </g>
    <g id="Group_1204215" data-name="Group 1204215" transform="translate(0 73.931)">
      <g id="Group_1204211" data-name="Group 1204211">
        <g id="Group_1204210" data-name="Group 1204210">
          <path id="Path_1282704" data-name="Path 1282704" d="M5.5,345.1H57.3v12.209H5.5Z" transform="translate(-4.931 -344.531)" fill="#f7931e"/>
          <path id="Path_1282705" data-name="Path 1282705" d="M52.361,352.936H.569A.567.567,0,0,1,0,352.367v-12.2a.567.567,0,0,1,.569-.569h51.8a.567.567,0,0,1,.569.569v12.209a.574.574,0,0,1-.579.558ZM1.127,351.809H51.8V340.737H1.127Z" transform="translate(0 -339.6)" fill="#262626"/>
        </g>
      </g>
      <g id="Group_1204212" data-name="Group 1204212" transform="translate(4.311 3.37)">
        <path id="Path_1282706" data-name="Path 1282706" d="M85.046,373.337h-.31a.567.567,0,0,1-.569-.569.561.561,0,0,1,.569-.569h.31a.569.569,0,1,1,0,1.137Zm-2.357,0h-.31a.567.567,0,0,1-.569-.569.561.561,0,0,1,.569-.569h.31a.569.569,0,1,1,0,1.137Zm-2.357,0h-.31a.567.567,0,0,1-.569-.569.561.561,0,0,1,.569-.569h.31a.569.569,0,1,1,0,1.137Zm-2.357,0h-.31a.567.567,0,0,1-.569-.569.561.561,0,0,1,.569-.569h.31a.569.569,0,0,1,0,1.137Zm-2.367,0H75.3a.567.567,0,0,1-.569-.569.561.561,0,0,1,.569-.569h.31a.569.569,0,1,1,0,1.137Zm-2.357,0h-.31a.567.567,0,0,1-.569-.569.561.561,0,0,1,.569-.569h.31a.569.569,0,1,1,0,1.137Zm-2.357,0h-.31a.567.567,0,0,1-.569-.569.561.561,0,0,1,.569-.569h.31a.569.569,0,1,1,0,1.137Zm-2.357,0h-.31a.567.567,0,0,1-.569-.569.561.561,0,0,1,.569-.569h.31a.569.569,0,1,1,0,1.137Zm-2.367,0h-.31a.567.567,0,0,1-.569-.569.561.561,0,0,1,.569-.569h.31a.567.567,0,0,1,.569.569A.56.56,0,0,1,66.169,373.337Zm-2.357,0H63.5a.567.567,0,0,1-.569-.569.561.561,0,0,1,.569-.569h.31a.569.569,0,1,1,0,1.137Zm-2.357,0h-.31a.567.567,0,0,1-.569-.569.561.561,0,0,1,.569-.569h.31a.569.569,0,1,1,0,1.137Zm-2.357,0h-.31a.567.567,0,0,1-.569-.569.561.561,0,0,1,.569-.569h.31a.569.569,0,0,1,0,1.137Zm-2.357,0h-.31a.567.567,0,0,1-.569-.569.561.561,0,0,1,.569-.569h.31a.569.569,0,0,1,0,1.137Zm-2.367,0h-.31a.567.567,0,0,1-.569-.569.561.561,0,0,1,.569-.569h.31a.567.567,0,0,1,.569.569A.56.56,0,0,1,54.374,373.337Zm-2.357,0h-.31a.567.567,0,0,1-.569-.569.561.561,0,0,1,.569-.569h.31a.569.569,0,1,1,0,1.137Zm-2.357,0h-.31a.567.567,0,0,1-.569-.569.561.561,0,0,1,.569-.569h.31a.569.569,0,1,1,0,1.137Zm-2.357,0h-.31a.567.567,0,0,1-.569-.569.561.561,0,0,1,.569-.569h.31a.569.569,0,1,1,0,1.137Zm-2.357,0h-.31a.567.567,0,0,1-.569-.569.561.561,0,0,1,.569-.569h.31a.569.569,0,1,1,0,1.137Zm-2.367,0h-.31a.567.567,0,0,1-.569-.569.561.561,0,0,1,.569-.569h.31a.569.569,0,0,1,0,1.137Z" transform="translate(-41.7 -372.2)" fill="#262626"/>
      </g>
      <g id="Group_1204213" data-name="Group 1204213" transform="translate(4.311 6.213)">
        <path id="Path_1282707" data-name="Path 1282707" d="M85.046,400.837h-.31a.567.567,0,0,1-.569-.569.56.56,0,0,1,.569-.569h.31a.569.569,0,1,1,0,1.137Zm-2.357,0h-.31a.567.567,0,0,1-.569-.569.56.56,0,0,1,.569-.569h.31a.569.569,0,1,1,0,1.137Zm-2.357,0h-.31a.567.567,0,0,1-.569-.569.56.56,0,0,1,.569-.569h.31a.569.569,0,1,1,0,1.137Zm-2.357,0h-.31a.567.567,0,0,1-.569-.569.56.56,0,0,1,.569-.569h.31a.569.569,0,0,1,0,1.137Zm-2.367,0H75.3a.567.567,0,0,1-.569-.569.56.56,0,0,1,.569-.569h.31a.569.569,0,1,1,0,1.137Zm-2.357,0h-.31a.567.567,0,0,1-.569-.569.56.56,0,0,1,.569-.569h.31a.569.569,0,1,1,0,1.137Zm-2.357,0h-.31a.567.567,0,0,1-.569-.569.56.56,0,0,1,.569-.569h.31a.569.569,0,1,1,0,1.137Zm-2.357,0h-.31a.567.567,0,0,1-.569-.569.56.56,0,0,1,.569-.569h.31a.569.569,0,1,1,0,1.137Zm-2.367,0h-.31a.567.567,0,0,1-.569-.569.56.56,0,0,1,.569-.569h.31a.567.567,0,0,1,.569.569A.561.561,0,0,1,66.169,400.837Zm-2.357,0H63.5a.567.567,0,0,1-.569-.569.56.56,0,0,1,.569-.569h.31a.569.569,0,1,1,0,1.137Zm-2.357,0h-.31a.567.567,0,0,1-.569-.569.56.56,0,0,1,.569-.569h.31a.569.569,0,1,1,0,1.137Zm-2.357,0h-.31a.567.567,0,0,1-.569-.569.56.56,0,0,1,.569-.569h.31a.569.569,0,0,1,0,1.137Zm-2.357,0h-.31a.567.567,0,0,1-.569-.569.56.56,0,0,1,.569-.569h.31a.569.569,0,0,1,0,1.137Zm-2.367,0h-.31a.567.567,0,0,1-.569-.569.56.56,0,0,1,.569-.569h.31a.567.567,0,0,1,.569.569A.561.561,0,0,1,54.374,400.837Zm-2.357,0h-.31a.567.567,0,0,1-.569-.569.56.56,0,0,1,.569-.569h.31a.569.569,0,1,1,0,1.137Zm-2.357,0h-.31a.567.567,0,0,1-.569-.569.56.56,0,0,1,.569-.569h.31a.569.569,0,1,1,0,1.137Zm-2.357,0h-.31a.567.567,0,0,1-.569-.569.56.56,0,0,1,.569-.569h.31a.569.569,0,1,1,0,1.137Zm-2.357,0h-.31a.567.567,0,0,1-.569-.569.56.56,0,0,1,.569-.569h.31a.569.569,0,1,1,0,1.137Zm-2.367,0h-.31a.567.567,0,0,1-.569-.569.56.56,0,0,1,.569-.569h.31a.569.569,0,0,1,0,1.137Z" transform="translate(-41.7 -399.7)" fill="#262626"/>
      </g>
      <g id="Group_1204214" data-name="Group 1204214" transform="translate(4.311 9.066)">
        <path id="Path_1282708" data-name="Path 1282708" d="M85.046,428.437h-.31a.569.569,0,0,1,0-1.137h.31a.567.567,0,0,1,.569.569A.574.574,0,0,1,85.046,428.437Zm-2.357,0h-.31a.569.569,0,1,1,0-1.137h.31a.567.567,0,0,1,.569.569A.574.574,0,0,1,82.689,428.437Zm-2.357,0h-.31a.569.569,0,0,1,0-1.137h.31a.567.567,0,0,1,.569.569A.581.581,0,0,1,80.332,428.437Zm-2.357,0h-.31a.569.569,0,1,1,0-1.137h.31a.567.567,0,0,1,.569.569A.581.581,0,0,1,77.975,428.437Zm-2.367,0H75.3a.569.569,0,0,1,0-1.137h.31a.567.567,0,0,1,.569.569A.574.574,0,0,1,75.608,428.437Zm-2.357,0h-.31a.569.569,0,0,1,0-1.137h.31a.567.567,0,0,1,.569.569A.574.574,0,0,1,73.251,428.437Zm-2.357,0h-.31a.569.569,0,0,1,0-1.137h.31a.567.567,0,0,1,.569.569A.581.581,0,0,1,70.894,428.437Zm-2.357,0h-.31a.569.569,0,1,1,0-1.137h.31a.567.567,0,0,1,.569.569A.581.581,0,0,1,68.537,428.437Zm-2.367,0h-.31a.569.569,0,1,1,0-1.137h.31a.569.569,0,1,1,0,1.137Zm-2.357,0H63.5a.569.569,0,1,1,0-1.137h.31a.567.567,0,0,1,.569.569A.574.574,0,0,1,63.812,428.437Zm-2.357,0h-.31a.569.569,0,0,1,0-1.137h.31a.567.567,0,0,1,.569.569A.574.574,0,0,1,61.455,428.437Zm-2.357,0h-.31a.569.569,0,1,1,0-1.137h.31a.567.567,0,0,1,.569.569A.581.581,0,0,1,59.1,428.437Zm-2.357,0h-.31a.569.569,0,0,1,0-1.137h.31a.567.567,0,0,1,.569.569A.581.581,0,0,1,56.741,428.437Zm-2.367,0h-.31a.569.569,0,1,1,0-1.137h.31a.569.569,0,0,1,0,1.137Zm-2.357,0h-.31a.569.569,0,1,1,0-1.137h.31a.567.567,0,0,1,.569.569A.574.574,0,0,1,52.017,428.437Zm-2.357,0h-.31a.569.569,0,0,1,0-1.137h.31a.567.567,0,0,1,.569.569A.574.574,0,0,1,49.66,428.437Zm-2.357,0h-.31a.569.569,0,1,1,0-1.137h.31a.567.567,0,0,1,.569.569A.581.581,0,0,1,47.3,428.437Zm-2.357,0h-.31a.569.569,0,1,1,0-1.137h.31a.567.567,0,0,1,.569.569A.581.581,0,0,1,44.946,428.437Zm-2.367,0h-.31a.569.569,0,1,1,0-1.137h.31a.567.567,0,0,1,.569.569A.574.574,0,0,1,42.579,428.437Z" transform="translate(-41.7 -427.3)" fill="#262626"/>
      </g>
    </g>
    <g id="Group_1204216" data-name="Group 1204216" transform="translate(14.185 48.621)">
      <path id="Path_1282709" data-name="Path 1282709" d="M148.679,100.246c-4.011-.465-6.079,4.776-6.079,4.776s1.664-1.365,4.569.682c2.2,1.551,5.717-.755,5.717-.755S151.976,100.629,148.679,100.246Z" transform="translate(-142.043 -99.655)" fill="#22b573"/>
      <path id="Path_1282710" data-name="Path 1282710" d="M144.169,101.922a3.693,3.693,0,0,1-2.161-.641c-2.471-1.747-3.835-.744-3.887-.7a.559.559,0,0,1-.682.021.565.565,0,0,1-.186-.662c.093-.227,2.285-5.634,6.668-5.128,3.66.424,4.642,4.962,4.683,5.148a.564.564,0,0,1-.248.589A8.868,8.868,0,0,1,144.169,101.922Zm-4.848-2.791a5.834,5.834,0,0,1,3.339,1.23c1.5,1.054,3.856-.072,4.735-.558-.3-.992-1.292-3.608-3.608-3.877-2.4-.279-4.052,1.819-4.879,3.225A2.571,2.571,0,0,1,139.321,99.131Z" transform="translate(-137.213 -94.776)" fill="#262626"/>
    </g>
    <g id="Group_1204217" data-name="Group 1204217" transform="translate(26.394 43.3)">
      <path id="Path_1282711" data-name="Path 1282711" d="M265.507,48.8c4.032.041,5.438,5.489,5.438,5.489s-1.489-1.561-4.611.114c-1.85.982-4.2-.445-5.148-1.127a.676.676,0,0,1-.217-.827c.486-1.106,1.933-3.67,4.538-3.649Z" transform="translate(-260.329 -48.23)" fill="#22b573"/>
      <path id="Path_1282712" data-name="Path 1282712" d="M259.913,50.371A7.68,7.68,0,0,1,255.83,48.8a1.239,1.239,0,0,1-.4-1.52c.548-1.2,2.119-3.98,5.024-3.98h.041c4.414.041,5.913,5.675,5.975,5.913a.57.57,0,0,1-.269.631.564.564,0,0,1-.682-.1c-.041-.041-1.272-1.21-3.939.217A3.367,3.367,0,0,1,259.913,50.371Zm.538-5.934c-2.254,0-3.546,2.316-4,3.318a.1.1,0,0,0,.041.134c.848.61,2.977,1.933,4.549,1.1a5.485,5.485,0,0,1,3.877-.734c-.651-1.5-2.037-3.784-4.435-3.8A.038.038,0,0,0,260.451,44.437Z" transform="translate(-255.314 -43.3)" fill="#262626"/>
    </g>
    <g id="Group_1204218" data-name="Group 1204218" transform="translate(26.341 46.169)">
      <path id="Path_1282713" data-name="Path 1282713" d="M255.369,88.041a.567.567,0,0,1-.569-.569V73.465a1.918,1.918,0,0,1,1.664-1.9l3.711-.507a.563.563,0,1,1,.145,1.116l-3.711.507a.8.8,0,0,0-.693.786V87.472A.538.538,0,0,1,255.369,88.041Z" transform="translate(-254.8 -71.051)" fill="#262626"/>
    </g>
    <g id="Group_1204219" data-name="Group 1204219" transform="translate(20.239 51.433)">
      <path id="Path_1282714" data-name="Path 1282714" d="M202.407,130.695a.579.579,0,0,1-.538-.383l-1.716-5.169a1.43,1.43,0,0,0-.724-.827l-3.287-1.251a.563.563,0,0,1,.393-1.054l3.308,1.261a.078.078,0,0,1,.041.021,2.516,2.516,0,0,1,1.334,1.5l1.716,5.169a.568.568,0,0,1-.362.713.905.905,0,0,1-.165.021Z" transform="translate(-195.778 -121.978)" fill="#262626"/>
    </g>
  </g>
</svg>
