<svg id="Group_1204124" data-name="Group 1204124" xmlns="http://www.w3.org/2000/svg" width="82.001" height="82.001" viewBox="0 0 82.001 82.001">
  <g id="Group_1187152" data-name="Group 1187152" transform="translate(0)">
    <g id="Group_1185946" data-name="Group 1185946" transform="translate(0)">
      <g id="Group_1184280" data-name="Group 1184280" transform="translate(0)">
        <g id="Group_1182168" data-name="Group 1182168" transform="translate(0)">
          <g id="Group_1178877" data-name="Group 1178877" transform="translate(0)">
            <g id="Group_1111311" data-name="Group 1111311" transform="translate(0)">
              <g id="Group_1098742" data-name="Group 1098742" transform="translate(0)">
                <g id="Rectangle_400898" data-name="Rectangle 400898" transform="translate(0)" fill="#fff" stroke="#4f6278" stroke-width="1" opacity="0.859">
                  <rect width="82.001" height="82.001" rx="41" stroke="none"/>
                  <rect x="0.5" y="0.5" width="81.001" height="81.001" rx="40.5" fill="none"/>
                </g>
                <g id="Rectangle_400907" data-name="Rectangle 400907" transform="translate(0)" fill="none" stroke="#4f6278" stroke-width="1">
                  <rect width="82.001" height="82.001" rx="41" stroke="none"/>
                  <rect x="0.5" y="0.5" width="81.001" height="81.001" rx="40.5" fill="none"/>
                </g>
              </g>
            </g>
          </g>
        </g>
      </g>
    </g>
  </g>
  <g id="livestock_3397536" transform="translate(15.706 15.627)">
    <g id="Group_1204152" data-name="Group 1204152" transform="translate(1.759 1.786)">
      <g id="Group_1204128" data-name="Group 1204128" transform="translate(42.456 37.738)">
        <path id="Path_1282537" data-name="Path 1282537" d="M60.717,50.3v9.136H56V50h4.717Z" transform="translate(-56 -50)" fill="#dfb28b"/>
      </g>
      <g id="Group_1204129" data-name="Group 1204129" transform="translate(34.593 37.738)">
        <path id="Path_1282538" data-name="Path 1282538" d="M50.717,50v9.435H46V50h4.717Z" transform="translate(-46 -50)" fill="#dfb28b"/>
      </g>
      <g id="Group_1204130" data-name="Group 1204130" transform="translate(26.731 37.738)">
        <path id="Path_1282539" data-name="Path 1282539" d="M36,50h4.717v9.435H36Z" transform="translate(-36 -50)" fill="#dfb28b"/>
      </g>
      <g id="Group_1204131" data-name="Group 1204131" transform="translate(18.869 37.738)">
        <path id="Path_1282540" data-name="Path 1282540" d="M26,50h4.717v9.435H26Z" transform="translate(-26 -50)" fill="#dfb28b"/>
      </g>
      <g id="Group_1204132" data-name="Group 1204132" transform="translate(11.007 37.738)">
        <path id="Path_1282541" data-name="Path 1282541" d="M16,50h4.717v9.435H16Z" transform="translate(-16 -50)" fill="#dfb28b"/>
      </g>
      <g id="Group_1204133" data-name="Group 1204133" transform="translate(3.145 37.738)">
        <path id="Path_1282542" data-name="Path 1282542" d="M7.572,50h3.145v9.435H6V50Z" transform="translate(-6 -50)" fill="#dfb28b"/>
      </g>
      <g id="Group_1204134" data-name="Group 1204134" transform="translate(39.311 37.738)">
        <path id="Path_1282543" data-name="Path 1282543" d="M55.145,54.717v4.717H52V50h3.145Z" transform="translate(-52 -50)" fill="#d3a06c"/>
      </g>
      <g id="Group_1204135" data-name="Group 1204135" transform="translate(31.449 37.738)">
        <path id="Path_1282544" data-name="Path 1282544" d="M45.145,54.717v4.717H42V50h3.145Z" transform="translate(-42 -50)" fill="#d3a06c"/>
      </g>
      <g id="Group_1204136" data-name="Group 1204136" transform="translate(23.586 37.738)">
        <path id="Path_1282545" data-name="Path 1282545" d="M35.145,54.717v4.717H32V50h3.145Z" transform="translate(-32 -50)" fill="#d3a06c"/>
      </g>
      <g id="Group_1204137" data-name="Group 1204137" transform="translate(15.724 37.738)">
        <path id="Path_1282546" data-name="Path 1282546" d="M25.145,54.717v4.717H22V50h3.145Z" transform="translate(-22 -50)" fill="#d3a06c"/>
      </g>
      <g id="Group_1204138" data-name="Group 1204138" transform="translate(7.862 37.738)">
        <path id="Path_1282547" data-name="Path 1282547" d="M15.145,54.717v4.717H12V50h3.145Z" transform="translate(-12 -50)" fill="#d3a06c"/>
      </g>
      <g id="Group_1204139" data-name="Group 1204139" transform="translate(0 37.738)">
        <path id="Path_1282548" data-name="Path 1282548" d="M5.145,54.717v4.717H2V50H5.145Z" transform="translate(-2 -50)" fill="#d3a06c"/>
      </g>
      <g id="Group_1204140" data-name="Group 1204140" transform="translate(0)">
        <path id="Path_1282549" data-name="Path 1282549" d="M16.364,33.606a4.936,4.936,0,0,1-1-1.73l-.637-1.9a4.01,4.01,0,0,0-.818-1.423,2.358,2.358,0,0,0-.9-4.536h-.086l-.7-6.29H11.1a1.648,1.648,0,0,0-.833.236l-5.9,3.7L2,17.724l3.035-6.581A7.969,7.969,0,0,1,6.607,8.887a7.763,7.763,0,0,1,.708-.629,7.964,7.964,0,0,1,3.334-1.541L12.221,2l.692.692a5.689,5.689,0,0,1,1.667,4.025,9.121,9.121,0,0,1,4.411,4.851L21.655,18.5A3.881,3.881,0,0,1,20.319,20.3l-1.179.888a1.583,1.583,0,0,0-.629,1.258v1.572A3.145,3.145,0,0,0,24.171,25.9L25,24.8a3.158,3.158,0,0,1,1.525-1.1l.833-.275a4.719,4.719,0,0,1,1.376,3.334v.016a4.7,4.7,0,0,0,1.069,3l-1.069.535v.6a8.059,8.059,0,0,0,2.359,5.692l6.337-.975a4.551,4.551,0,0,0,1.824-.7,7.4,7.4,0,0,1,.487,2.65v2.17H28.731a5.693,5.693,0,0,1-3.145-5.087v-.417a3.932,3.932,0,0,0-7.784-.786h-.6a2.318,2.318,0,0,0-.841.157Z" transform="translate(-2 -2)" fill="#cf9e76"/>
      </g>
      <g id="Group_1204141" data-name="Group 1204141" transform="translate(10.221)">
        <path id="Path_1282550" data-name="Path 1282550" d="M24.435,18.5l-2.665-6.934a9.121,9.121,0,0,0-4.411-4.851,5.689,5.689,0,0,0-1.667-4.025L15,2a11.22,11.22,0,0,1,5.967,1.745,11.087,11.087,0,0,1,4.112,4.686l2.249,4.819a3.931,3.931,0,0,0-2.539,3.2l-.149,1.187a3.963,3.963,0,0,1-.2.865Z" transform="translate(-15 -2)" fill="#b27946"/>
      </g>
      <g id="Group_1204142" data-name="Group 1204142" transform="translate(2.359)">
        <path id="Path_1282551" data-name="Path 1282551" d="M12.862,2,11.29,6.717A7.964,7.964,0,0,0,7.956,8.258a7.763,7.763,0,0,0-.708.629L5,5.145l.881-.7A11.132,11.132,0,0,1,12.839,2Z" transform="translate(-5 -2)" fill="#b27946"/>
      </g>
      <g id="Group_1204143" data-name="Group 1204143" transform="translate(16.511 4.717)">
        <path id="Path_1282552" data-name="Path 1282552" d="M36.892,17.529a6.29,6.29,0,0,0,5.393,3.051H54.449v9.435H51.209a3.135,3.135,0,0,1-2.98-2.154l-.11-.322a3.279,3.279,0,0,0-2.429-2.17h-.008a2.311,2.311,0,0,0-.574-.951,2.351,2.351,0,0,0-3.884.881H39.817a3.142,3.142,0,0,0-3.106,2.626L36.5,29.228a1.6,1.6,0,0,1-.849,1.148l-1.36.676a4.7,4.7,0,0,1-1.069-3v-.016a4.719,4.719,0,0,0-1.376-3.334l-.833.275a3.158,3.158,0,0,0-1.525,1.1l-.826,1.1A3.144,3.144,0,0,1,23,25.3V23.724a1.583,1.583,0,0,1,.629-1.258l1.179-.888a3.881,3.881,0,0,0,1.337-1.793,3.963,3.963,0,0,0,.2-.865l.149-1.187a3.933,3.933,0,0,1,3.9-3.444h.464l1.085-1.447a6.377,6.377,0,0,0,1.274-3.821A1.02,1.02,0,0,1,34.243,8a1.031,1.031,0,0,1,.857.456,7.563,7.563,0,0,1,1.266,4.191V14.29h-.6a2.841,2.841,0,0,0-2.547,1.572,1.584,1.584,0,0,0,1.572,1.572h.142a2.75,2.75,0,0,0,1.6-.5l.008.008Z" transform="translate(-23 -8)" fill="#ccd1d9"/>
      </g>
      <g id="Group_1204144" data-name="Group 1204144" transform="translate(26.731 11.007)">
        <path id="Path_1282553" data-name="Path 1282553" d="M40.717,16l-.244.991a2.834,2.834,0,0,1-1.164,1.651,2.75,2.75,0,0,1-1.6.5h-.142A1.584,1.584,0,0,1,36,17.572,2.841,2.841,0,0,1,38.547,16h2.17Z" transform="translate(-36 -16)" fill="#aab2bd"/>
      </g>
      <g id="Group_1204145" data-name="Group 1204145" transform="translate(15.724 28.304)">
        <path id="Path_1282554" data-name="Path 1282554" d="M29.862,42.348a5.693,5.693,0,0,0,3.145,5.087H25.145a2.524,2.524,0,0,0-1.407-2.272L22,44.29V41.931a3.7,3.7,0,0,1,.079-.786,3.931,3.931,0,0,1,7.784.786Z" transform="translate(-22 -38)" fill="#e6e9ed"/>
      </g>
      <g id="Group_1204146" data-name="Group 1204146" transform="translate(4.717 25.159)">
        <path id="Path_1282555" data-name="Path 1282555" d="M11.145,46.579H8V38.112a3.972,3.972,0,0,1,.118-.967,4.112,4.112,0,0,1,1.4-2.225A4.048,4.048,0,0,1,12.112,34a4.089,4.089,0,0,1,2.406.778,4.181,4.181,0,0,1,.676.613,4.01,4.01,0,0,1,.818,1.423l.637,1.9a4.936,4.936,0,0,0,1,1.73A2.4,2.4,0,0,0,16.2,42.074l-.338,1.36h3.145l1.738.873a2.524,2.524,0,0,1,1.407,2.272H11.145Z" transform="translate(-8 -34)" fill="#ffeaa7"/>
      </g>
      <g id="Group_1204147" data-name="Group 1204147" transform="translate(12.579 31.449)">
        <path id="Path_1282556" data-name="Path 1282556" d="M18.338,43.785a2.4,2.4,0,0,1,1.447-1.627A2.318,2.318,0,0,1,20.626,42h.6a3.7,3.7,0,0,0-.079.786v2.359H18Z" transform="translate(-18 -42)" fill="#ff826e"/>
      </g>
      <g id="Group_1204148" data-name="Group 1204148" transform="translate(5.504 22.014)">
        <path id="Path_1282557" data-name="Path 1282557" d="M14.5,30a2.358,2.358,0,0,1,.9,4.536,4.181,4.181,0,0,0-.676-.613,4.089,4.089,0,0,0-2.406-.778,4.048,4.048,0,0,0-2.595.92,2.353,2.353,0,0,1,3.2-3.451A2.329,2.329,0,0,1,14.417,30Z" transform="translate(-9 -30)" fill="#ff826e"/>
      </g>
      <g id="Group_1204149" data-name="Group 1204149" transform="translate(1.572 28.304)">
        <path id="Path_1282558" data-name="Path 1282558" d="M7.263,38a3.972,3.972,0,0,0-.118.967v2.178H4l.212-.857A3.027,3.027,0,0,1,7.145,38Z" transform="translate(-4 -38)" fill="#ff826e"/>
      </g>
      <g id="Group_1204150" data-name="Group 1204150" transform="translate(26.731 22.014)">
        <path id="Path_1282559" data-name="Path 1282559" d="M39.491,32.626A3.142,3.142,0,0,1,42.6,30H44a2.179,2.179,0,0,0-.142.786v1.093a2.353,2.353,0,0,0,1.054,1.966l1.305.873,1.305-.873a2.353,2.353,0,0,0,1.054-1.966V30.786a2.134,2.134,0,0,0-.118-.715h.008a3.279,3.279,0,0,1,2.429,2.17l.11.322a3.135,3.135,0,0,0,2.98,2.154h3.239V45.724H47.007v-2.17a7.4,7.4,0,0,0-.487-2.65,4.551,4.551,0,0,1-1.824.7l-6.337.975A8.059,8.059,0,0,1,36,36.887v-.6l1.069-.535,1.36-.676a1.6,1.6,0,0,0,.849-1.148Z" transform="translate(-36 -30)" fill="#ecc19c"/>
      </g>
      <g id="Group_1204151" data-name="Group 1204151" transform="translate(34.593 20.442)">
        <path id="Path_1282560" data-name="Path 1282560" d="M50.717,30.359v1.093a2.353,2.353,0,0,1-1.054,1.966l-1.305.873-1.305-.873A2.353,2.353,0,0,1,46,31.451V30.359a2.179,2.179,0,0,1,.142-.786,2.348,2.348,0,0,1,4.458.071A2.134,2.134,0,0,1,50.717,30.359Z" transform="translate(-46 -28)" fill="#dfb28b"/>
      </g>
    </g>
    <g id="Group_1204153" data-name="Group 1204153" transform="translate(0.871 1)">
      <circle id="Ellipse_12764" data-name="Ellipse 12764" cx="0.786" cy="0.786" r="0.786" transform="translate(33.122 26.731)"/>
      <circle id="Ellipse_12765" data-name="Ellipse 12765" cx="0.786" cy="0.786" r="0.786" transform="translate(23.688 15.724)"/>
      <circle id="Ellipse_12766" data-name="Ellipse 12766" cx="0.786" cy="0.786" r="0.786" transform="translate(7.964 9.435)"/>
      <circle id="Ellipse_12767" data-name="Ellipse 12767" cx="0.786" cy="0.786" r="0.786" transform="translate(18.971 31.449)"/>
      <circle id="Ellipse_12768" data-name="Ellipse 12768" cx="0.786" cy="0.786" r="0.786" transform="translate(7.964 28.304)"/>
      <path id="Path_1282561" data-name="Path 1282561" d="M11,43h1.572v3.145H11Z" transform="translate(-3.036 -9.979)"/>
      <path id="Path_1282562" data-name="Path 1282562" d="M30.2,15.152h-.138v1.572H30.2a3.613,3.613,0,0,0,1.313-.253,7.111,7.111,0,0,0,6.041,3.4H49.718V18.3H37.554a5.531,5.531,0,0,1-4.719-2.672l-.014-.024a3.612,3.612,0,0,0,.9-1.627l.492-1.967H32.421v-.859a8.317,8.317,0,0,0-1.4-4.625,1.811,1.811,0,0,0-3.317,1,5.608,5.608,0,0,1-1.115,3.345l-.851,1.134h-.068a4.676,4.676,0,0,0-.932.1l-1.969-4.22A11.93,11.93,0,0,0,4.5,3.615L3.09,4.746,5.395,8.588A8.582,8.582,0,0,0,4.083,10.6L.871,17.558l2.984,4.974,6.586-4.116a.781.781,0,0,1,.417-.12h.417l.542,4.873a3.145,3.145,0,0,0-.624.273,3.105,3.105,0,0,0-1.572-.429,3.148,3.148,0,0,0-3.145,3.145,3.107,3.107,0,0,0,.471,1.634,4.891,4.891,0,0,0-.941,1.551,3.794,3.794,0,0,0-3.223,2.844l-.459,1.833H5.69v4.717H.972V49.745H49.718V38.738H40.283V37.351A8.191,8.191,0,0,0,39.935,35a5.341,5.341,0,0,0,1.921-4.124H40.283a3.776,3.776,0,0,1-3.219,3.752l-5.93.912a7.216,7.216,0,0,1-1.859-4.855v-.109l1.994-1a2.367,2.367,0,0,0,1.272-1.722l.216-1.3a2.351,2.351,0,0,1,2.327-1.971h.48v1.1a3.14,3.14,0,0,0,1.4,2.617l1.745,1.163L40.455,28.3a3.141,3.141,0,0,0,1.4-2.617v-.52a2.482,2.482,0,0,1,.786,1.124l.11.329A3.926,3.926,0,0,0,46.481,29.3h3.237V27.731H46.481a2.356,2.356,0,0,1-2.238-1.613l-.11-.329a4.071,4.071,0,0,0-2.606-2.573,3.12,3.12,0,0,0-5.524-.2h-.918A3.918,3.918,0,0,0,31.207,26.3l-.216,1.3a.787.787,0,0,1-.425.574l-.748.374a3.974,3.974,0,0,1-.542-2.006,5.466,5.466,0,0,0-.868-2.963,4.043,4.043,0,0,0,2.44-3.708H29.276a2.483,2.483,0,0,1-1.7,2.359l-1.547.516a3.907,3.907,0,0,0-1.9,1.37l-.826,1.1a2.372,2.372,0,0,1-1.888.944,2.32,2.32,0,0,1-1.01-.237l2.352-2.352-1.112-1.112-2.352,2.352a2.32,2.32,0,0,1-.237-1.01V22.228a.789.789,0,0,1,.314-.629l1.181-.885A4.743,4.743,0,0,0,22.4,17.525l.149-1.19a3.149,3.149,0,0,1,3.12-2.755h.854l1.322-1.763a7.121,7.121,0,0,0,.639-1.028l2.363.9v.33a3.6,3.6,0,0,0-3.062,1.994l1.407.7a2.048,2.048,0,0,1,1.841-1.138H32.2l0,.013a2.055,2.055,0,0,1-2,1.559Zm6.938,9.435a1.572,1.572,0,0,1,3.145,0v1.1a1.569,1.569,0,0,1-.7,1.308l-.872.581-.872-.582a1.568,1.568,0,0,1-.7-1.307ZM19.479,11.075A9.86,9.86,0,0,0,18.765,9.6l2.179-1.816c.142.248.278.5.4.763l.84,1.8-2.5,1.252Zm.575-4.593-2.2,1.833a9.82,9.82,0,0,0-1.539-1.484l1.469-2.448a10.42,10.42,0,0,1,2.269,2.1ZM9.8,5.836l-.024.008L8.449,3.19a10.37,10.37,0,0,1,2.417-.553Zm5.283-.007a6.41,6.41,0,0,0-1.142-3.057,10.384,10.384,0,0,1,2.482.826Zm-9.6-.987A10.36,10.36,0,0,1,7.014,3.834L8.292,6.39A8.691,8.691,0,0,0,6.555,7.465L5.145,5.116ZM9.621,24.586a1.556,1.556,0,0,1,1.046.41l.526.474L11.719,25a1.552,1.552,0,0,1,1.046-.41,1.571,1.571,0,0,1,1.014,2.772,4.854,4.854,0,0,0-5.6-.564,1.572,1.572,0,0,1,1.438-2.208ZM4.342,32.449a2.225,2.225,0,0,1,1.35-1.425c0,.011,0,.023,0,.034v1.392Zm2.92-1.392a3.326,3.326,0,0,1,6.481-1.051l.635,1.906a5.754,5.754,0,0,0,.6,1.25,3.135,3.135,0,0,0-1.063,1.669l-.583,2.335H17.3l1.572.786a1.737,1.737,0,0,1,.772.786H7.262Zm8.083,4.536.1-.381A1.569,1.569,0,0,1,16.7,34.045v1.549ZM26.2,38.738H21.315a3.305,3.305,0,0,0-1.741-2.193l-1.3-.652V34.021a3.145,3.145,0,0,1,6.29,0v.415A6.432,6.432,0,0,0,26.2,38.738Zm17.224,9.435H41.856V40.311h1.572Zm-6.29-3.145h3.145v3.145H37.138Zm3.145-1.572H37.138V40.311h3.145Zm-4.717,4.717H33.993V40.311h1.572ZM8.835,43.456H5.69V40.311H8.835ZM5.69,45.028H8.835v3.145H5.69Zm4.717-4.717h1.572v7.862H10.407Zm6.29,3.145H13.552V40.311H16.7Zm-3.145,1.572H16.7v3.145H13.552Zm4.717-4.717h1.572v7.862H18.269Zm6.29,3.145H21.414V40.311h3.145Zm-3.145,1.572h3.145v3.145H21.414Zm4.717-4.717H27.7v7.862H26.131Zm3.145,4.717h3.145v3.145H29.276Zm3.145-1.572H29.276V40.311h3.145ZM2.545,40.311H4.117v7.862H2.545ZM45,48.173V45.028h3.145v3.145Zm3.145-4.717H45V40.311h3.145Zm-28.538-24-1.182.885a2.371,2.371,0,0,0-.943,1.887V23.8a3.931,3.931,0,0,0,7.076,2.359l.826-1.1a2.339,2.339,0,0,1,1.141-.822l.327-.109a3.913,3.913,0,0,1,.851,2.437,5.522,5.522,0,0,0,.7,2.689l-.7.351v1.081a8.781,8.781,0,0,0,2.589,6.25l.281.281L37.3,36.182a5.4,5.4,0,0,0,1.226-.344,6.64,6.64,0,0,1,.181,1.513v1.388H28.7a4.868,4.868,0,0,1-2.569-4.3v-.415a4.714,4.714,0,0,0-9.159-1.572h-.006a3.24,3.24,0,0,0-.527.044,4.148,4.148,0,0,1-.569-1.079l-.635-1.906a4.863,4.863,0,0,0-.445-.943,3.143,3.143,0,0,0-1.4-5.488l-.533-4.8a4.222,4.222,0,0,0,3.8-2.879l-1.491-.5a2.661,2.661,0,0,1-2.527,1.822h-1.78a2.358,2.358,0,0,0-1.25.359L4.38,20.35,2.647,17.463l2.863-6.2a7.12,7.12,0,0,1,5.051-3.985l.447-.09,1.309-3.928A4.873,4.873,0,0,1,13.552,6.5v.486l.435.217a8.263,8.263,0,0,1,4.025,4.433l2.545,6.618a3.152,3.152,0,0,1-.95,1.2Zm1.542-4.039-.9-2.341,2.6-1.3.418.9A4.72,4.72,0,0,0,21.149,15.417Zm8.127-7.889a.247.247,0,0,1,.436-.132,6.741,6.741,0,0,1,1.021,2.567l-1.69-.645a7.155,7.155,0,0,0,.233-1.79Z" transform="translate(-0.871 -1)"/>
    </g>
  </g>
</svg>
