<svg id="Group_1204188" data-name="Group 1204188" xmlns="http://www.w3.org/2000/svg" width="82.001" height="82.001" viewBox="0 0 82.001 82.001">
  <g id="Group_1187152" data-name="Group 1187152" transform="translate(0)">
    <g id="Group_1185946" data-name="Group 1185946" transform="translate(0)">
      <g id="Group_1184280" data-name="Group 1184280" transform="translate(0)">
        <g id="Group_1182168" data-name="Group 1182168" transform="translate(0)">
          <g id="Group_1178877" data-name="Group 1178877" transform="translate(0)">
            <g id="Group_1111311" data-name="Group 1111311" transform="translate(0)">
              <g id="Group_1098742" data-name="Group 1098742" transform="translate(0)">
                <g id="Rectangle_400898" data-name="Rectangle 400898" transform="translate(0)" fill="#fff" stroke="#7e6424" stroke-width="1" opacity="0.859">
                  <rect width="82.001" height="82.001" rx="41" stroke="none"/>
                  <rect x="0.5" y="0.5" width="81.001" height="81.001" rx="40.5" fill="none"/>
                </g>
                <g id="Rectangle_400907" data-name="Rectangle 400907" transform="translate(0)" fill="none" stroke="#7e6424" stroke-width="1">
                  <rect width="82.001" height="82.001" rx="41" stroke="none"/>
                  <rect x="0.5" y="0.5" width="81.001" height="81.001" rx="40.5" fill="none"/>
                </g>
              </g>
            </g>
          </g>
        </g>
      </g>
    </g>
  </g>
  <g id="bioquimico" transform="translate(13.977 13.77)">
    <path id="Path_1282643" data-name="Path 1282643" d="M39.867,43.5v-1.23A4.985,4.985,0,0,0,36.532,41H34.863s-.834,5-2.5,7.507l-5-3.337-5,3.337C20.683,46,19.849,41,19.849,41h-2.5a4.171,4.171,0,0,0-4.171,4.171v6.673L11.507,41H4L6.5,57.683H36.53a1.668,1.668,0,0,1-1.54-2.31Z" transform="translate(-0.332 -6.41)" fill="#fff"/>
    <path id="Path_1282644" data-name="Path 1282644" d="M9,26h5V36.844H9Z" transform="translate(-1.161 -3.922)" fill="#71caf0"/>
    <g id="Group_1204192" data-name="Group 1204192" transform="translate(14.512 8.731)">
      <path id="Path_1282645" data-name="Path 1282645" d="M44.251,24.171a2.085,2.085,0,0,0,0-4.171H43v4.171Z" transform="translate(-21.312 -11.658)" fill="#fce0b9"/>
      <path id="Path_1282646" data-name="Path 1282646" d="M19.085,20a2.085,2.085,0,1,0,0,4.171h1.251V20Z" transform="translate(-17 -11.658)" fill="#fce0b9"/>
      <path id="Path_1282647" data-name="Path 1282647" d="M37.762,12.323a3.693,3.693,0,0,0-5.576-1.634,3.693,3.693,0,0,1-4.1.127l-.365-.228a3.694,3.694,0,0,0-5.521,2.16L21,18.341V24.18h.042a9.172,9.172,0,0,0,18.268,0h.042V18.341Z" transform="translate(-17.663 -10)" fill="#fce0b9"/>
    </g>
    <path id="Path_1282648" data-name="Path 1282648" d="M9,39v3.337a2.5,2.5,0,0,0,5,0V39Z" transform="translate(-1.161 -6.078)" fill="#78af4f"/>
    <path id="Path_1282649" data-name="Path 1282649" d="M57.552,53.383l-1.917-4.669-2.956-7.2V31.5H53.1a1.251,1.251,0,0,0,0-2.5H45.585a1.251,1.251,0,1,0,0,2.5H46v10.01L41.126,53.383a1.668,1.668,0,0,0,1.54,2.31H56.012A1.668,1.668,0,0,0,57.552,53.383Z" transform="translate(-6.468 -4.42)" fill="#71caf0"/>
    <path id="Path_1282650" data-name="Path 1282650" d="M8,39.748V34.337h.834a1.668,1.668,0,0,0,0-3.337h-5A.834.834,0,0,0,3,31.834l1.092,7.914Z" transform="translate(-0.166 -4.751)" fill="#fce0b9"/>
    <path id="Path_1282651" data-name="Path 1282651" d="M27.551,9.486l.365.228a3.693,3.693,0,0,0,4.1-.127A3.693,3.693,0,0,1,37.6,11.221l1.589,6.018-.348-8.321a6.586,6.586,0,0,0-9.1-5.027l-3.9,1.67A5.839,5.839,0,0,0,20,11.4l.834,5.839,1.2-5.593A3.694,3.694,0,0,1,27.551,9.486Z" transform="translate(-2.985 -0.166)" fill="#665642"/>
    <path id="Path_1282652" data-name="Path 1282652" d="M32,22.5a3.337,3.337,0,0,0,3.337,3.337h4.171a1.668,1.668,0,0,0,1.668-1.668V20H32Zm4.171-.834a.834.834,0,1,1-.834.834A.834.834,0,0,1,36.171,21.668Z" transform="translate(-4.976 -2.927)" fill="#71caf0"/>
    <circle id="Ellipse_12769" data-name="Ellipse 12769" cx="0.834" cy="0.834" r="0.834" transform="translate(30.361 18.741)" fill="#fff"/>
    <path id="Path_1282653" data-name="Path 1282653" d="M22.668,25.839h4.171A3.337,3.337,0,0,0,30.176,22.5V20H21v4.171A1.668,1.668,0,0,0,22.668,25.839ZM26,21.668a.834.834,0,1,1-.834.834A.834.834,0,0,1,26,21.668Z" transform="translate(-3.151 -2.927)" fill="#71caf0"/>
    <circle id="Ellipse_12770" data-name="Ellipse 12770" cx="0.834" cy="0.834" r="0.834" transform="translate(22.019 18.741)" fill="#fff"/>
    <path id="Path_1282654" data-name="Path 1282654" d="M51,37.668V41a1.668,1.668,0,0,0,1.668,1.668H56a.834.834,0,0,0,.834-.834v-5A.834.834,0,0,0,56,36H52.666A1.668,1.668,0,0,0,51,37.668Z" transform="translate(-8.127 -5.581)" fill="#fce0b9"/>
    <path id="Path_1282655" data-name="Path 1282655" d="M12,32.668a1.668,1.668,0,0,0,1.668,1.668h2.5A.834.834,0,0,0,17,33.5V31.834A.834.834,0,0,0,16.171,31h-2.5A1.668,1.668,0,0,0,12,32.668Z" transform="translate(-1.659 -4.751)" fill="#fce0b9"/>
    <path id="Path_1282656" data-name="Path 1282656" d="M49,36.668A1.668,1.668,0,0,0,47.337,35h-2.5a.834.834,0,0,0-.834.834V37.5a.834.834,0,0,0,.834.834h2.5A1.668,1.668,0,0,0,49,36.668Z" transform="translate(-6.966 -5.415)" fill="#fce0b9"/>
    <circle id="Ellipse_12771" data-name="Ellipse 12771" cx="1.668" cy="1.668" r="1.668" transform="translate(44.541 15.405)" fill="#fca947"/>
    <circle id="Ellipse_12772" data-name="Ellipse 12772" cx="1.668" cy="1.668" r="1.668" transform="translate(42.039 6.229)" fill="#fca947"/>
    <path id="Path_1282657" data-name="Path 1282657" d="M49.7,52.444a5.363,5.363,0,0,0-4.385-.712l-2.228.607-1.964,4.782a1.669,1.669,0,0,0,1.541,2.31H56.012a1.668,1.668,0,0,0,1.54-2.31l-1.917-4.669A5.362,5.362,0,0,1,49.7,52.444Z" transform="translate(-6.468 -8.158)" fill="#fca947"/>
    <path id="Path_1282658" data-name="Path 1282658" d="M42.666,59.58h9.979l-.464-.183a19.884,19.884,0,0,1-8.9-6.961l-.188.051-1.964,4.782a1.669,1.669,0,0,0,1.54,2.311Z" transform="translate(-6.468 -8.307)" fill="#e68f29"/>
    <path id="Path_1282659" data-name="Path 1282659" d="M31.171,36.8A9.124,9.124,0,0,1,27,35.8V39.3l4.171,5,4.171-5V35.8A9.124,9.124,0,0,1,31.171,36.8Z" transform="translate(-4.146 -5.547)" fill="#fce0b9"/>
    <path id="Path_1282660" data-name="Path 1282660" d="M25.839,6.934l3.9-1.671a6.586,6.586,0,0,1,9.1,5.027l.28,6.69.068.259-.348-8.321a6.586,6.586,0,0,0-9.1-5.027l-3.9,1.67A5.839,5.839,0,0,0,20,11.4l.072.5A5.836,5.836,0,0,1,25.839,6.934Z" transform="translate(-2.985 -0.166)" fill="#735f47"/>
    <path id="Path_1282661" data-name="Path 1282661" d="M28.842,36.4l5.188,4.842L35.647,39.3V35.8a9.056,9.056,0,0,1-6.8.6Z" transform="translate(-4.452 -5.547)" fill="#f5cba1"/>
    <path id="Path_1282662" data-name="Path 1282662" d="M37.75,41s-.834,5-2.5,7.507l-.061-.041c-.008.013-.016.028-.024.041L30.2,45.2l0,0s-4.977,3.279-4.985,3.267l-.06.04-.1-.3a25.471,25.471,0,0,1-2.314-7.166c0-.028-.008-.045-.008-.045H21.4c.483,2.458,1.285,6.787,2.65,9.233a.838.838,0,0,0,1.2.292l4.9-3.27,4.9,3.27a.838.838,0,0,0,1.2-.293C37.626,47.786,38.7,43.457,39.238,41H37.75Z" transform="translate(-3.218 -6.41)" fill="#ccc"/>
    <path id="Path_1282663" data-name="Path 1282663" d="M39.507,40.5,36.171,38v1.668l-4.171,5,5,3.337C38.673,45.507,39.507,40.5,39.507,40.5Z" transform="translate(-4.976 -5.912)" fill="#fff"/>
    <path id="Path_1282664" data-name="Path 1282664" d="M26.337,38,23,40.5s.834,5,2.5,7.507l5-3.337-4.171-5Z" transform="translate(-3.483 -5.912)" fill="#fff"/>
    <path id="Path_1282665" data-name="Path 1282665" d="M11.5,43.5A2.5,2.5,0,0,1,9,41v1.668a2.5,2.5,0,0,0,5,0V41A2.5,2.5,0,0,1,11.5,43.5Z" transform="translate(-1.161 -6.41)" fill="#619c35"/>
    <path id="Path_1282666" data-name="Path 1282666" d="M26.71,24.17a1.46,1.46,0,1,1,1.46-1.46A1.461,1.461,0,0,1,26.71,24.17Zm0-1.668a.209.209,0,0,0-.209.209c0,.229.417.229.417,0A.209.209,0,0,0,26.71,22.5Z" transform="translate(-3.856 -3.134)"/>
    <path id="Path_1282667" data-name="Path 1282667" d="M36.71,24.17a1.46,1.46,0,1,1,1.46-1.46A1.461,1.461,0,0,1,36.71,24.17Zm0-1.668a.209.209,0,0,0-.209.209c0,.229.417.229.417,0A.209.209,0,0,0,36.71,22.5Z" transform="translate(-5.515 -3.134)"/>
    <path id="Path_1282668" data-name="Path 1282668" d="M31.378,33.128A3.132,3.132,0,0,1,28.25,30H29.5a1.877,1.877,0,0,0,3.754,0h1.251A3.132,3.132,0,0,1,31.378,33.128Z" transform="translate(-4.354 -4.585)"/>
    <path id="Path_1282669" data-name="Path 1282669" d="M5.345,51.387a.833.833,0,0,0,.826.72H49.545a2.5,2.5,0,0,0,2.311-3.461l-4.4-10.72h.423a1.67,1.67,0,0,0,1.668-1.668v-5a1.67,1.67,0,0,0-1.668-1.668h-.832v-1.71a2.086,2.086,0,0,0-.417-4.129H39.118a2.086,2.086,0,0,0-.417,4.129v.876h-.832A1.67,1.67,0,0,0,36.2,30.419v1.668a1.67,1.67,0,0,0,1.668,1.668H38.7v.566a5.83,5.83,0,0,0-2.5-.566H34.809l-2.78-2.085v-.938a10.007,10.007,0,0,0,5-8.656h.417a2.919,2.919,0,1,0,0-5.838H37l-.314-7.523a.735.735,0,0,0-.01-.1A7.421,7.421,0,0,0,26.423,2.958L22.677,4.563a6.68,6.68,0,0,0-6.5,6.671.808.808,0,0,0,.008.118l.7,4.886H16.6a2.92,2.92,0,1,0,0,5.839h.417a10.008,10.008,0,0,0,5,8.656v.937l-2.78,2.085H17.849a5.817,5.817,0,0,0-4.171,1.761v-5.1h.834a1.67,1.67,0,0,0,1.668-1.668V27.083a1.67,1.67,0,0,0-1.668-1.668h-.834V22.078a.833.833,0,0,0-.834-.834h-5A.833.833,0,0,0,7,22.078v3.337H3.668A1.67,1.67,0,0,0,2,27.083a.745.745,0,0,0,.008.114Zm44.893-1.32a.819.819,0,0,1-.693.371H36.2a.835.835,0,0,1-.769-1.159l1.808-4.4,1.833-.5a4.528,4.528,0,0,1,3.7.6,6.155,6.155,0,0,0,5.976.49l1.566,3.814A.816.816,0,0,1,50.238,50.068ZM47.88,36.258H44.54a.834.834,0,0,1-.834-.834V32.088a.834.834,0,0,1,.834-.834h3.338Zm-8.345-10.01h-.417a.417.417,0,1,1,0-.834h7.511a.417.417,0,1,1,0,.834H42.873v1.668h2.5v1.668H44.54a2.49,2.49,0,0,0-1.829.807,2.5,2.5,0,0,0-2.34-1.641h0V27.083a.833.833,0,0,0-.834-.834Zm-1.667,4.171h2.5a.834.834,0,0,1,0,1.668h-2.5Zm2.5,3.337a2.483,2.483,0,0,0,1.667-.65v2.318a2.505,2.505,0,0,0,2.5,2.5h1.113l2.464,6a4.52,4.52,0,0,1-4.418-.338,6.206,6.206,0,0,0-5.067-.822l-.594.162,2.268-5.521a.826.826,0,0,0,.063-.317V33.756ZM38.7,36.279v.649L33.888,48.642a2.5,2.5,0,0,0-.05,1.8H27.858V40.319l3.708,2.472a.836.836,0,0,0,1.157-.231c1.384-2.076,2.2-5.636,2.5-7.136H36.2A4.149,4.149,0,0,1,38.7,36.279Zm-5.084-1.332a25.4,25.4,0,0,1-1.86,5.966l-3.5-2.331,3.576-4.292a.835.835,0,0,0,.194-.535ZM18.683,17.907H26.19v1.668a2.505,2.505,0,0,1-2.5,2.5H19.517a.834.834,0,0,1-.834-.834Zm.2-1.668.969-4.539a2.86,2.86,0,0,1,4.274-1.673l.365.228A4.515,4.515,0,0,0,29.52,10.1a2.859,2.859,0,0,1,4.3,1.221l1.3,4.919H18.88Zm8.979,1.668h7.507v3.337a.834.834,0,0,1-.834.834H30.361a2.505,2.505,0,0,1-2.5-2.5ZM38.7,19.159a1.253,1.253,0,0,1-1.251,1.251h-.417v-2.5h.417A1.253,1.253,0,0,1,38.7,19.159ZM22.854,6.229a.822.822,0,0,0,.329-.068l3.9-1.671a5.754,5.754,0,0,1,7.941,4.345l.053,1.276a4.53,4.53,0,0,0-6.525-1.37,2.852,2.852,0,0,1-3.178.1l-.365-.228a4.526,4.526,0,0,0-6.778,2.693l-.217,1.012-.163-1.14A5.011,5.011,0,0,1,22.854,6.229ZM16.6,20.41a1.251,1.251,0,1,1,0-2.5h.417v2.5Zm2.237,3.23a2.466,2.466,0,0,0,.682.107h4.171a4.156,4.156,0,0,0,3.337-1.694,4.156,4.156,0,0,0,3.337,1.694h4.171a2.466,2.466,0,0,0,.682-.107,8.336,8.336,0,0,1-16.379,0Zm8.19,8.448a9.945,9.945,0,0,0,3.337-.584v1.95l-3.337,4-3.337-4V31.5A9.945,9.945,0,0,0,27.024,32.088Zm-5,1.668a.838.838,0,0,0,.193.535l3.576,4.292-3.5,2.331a25.375,25.375,0,0,1-1.86-5.966ZM12.844,46.268a.833.833,0,0,0,.834-.834V39.6a4.175,4.175,0,0,1,4.171-4.171h.976c.3,1.5,1.117,5.06,2.5,7.136a.835.835,0,0,0,1.157.231l3.708-2.472v10.12H19.517V47.1H17.849v3.337H6.9L4.883,35.831H7v.428A3.34,3.34,0,0,0,10.341,39.6a3.3,3.3,0,0,0,1.692-.477c-.013.158-.024.316-.024.477v5H10.341v1.668ZM8.673,33.756H12.01v2.5a1.668,1.668,0,1,1-3.337,0Zm3.337-1.668H8.673V30.419a2.486,2.486,0,0,0,1.668-.651,2.482,2.482,0,0,0,1.668.651Zm2.5-3.337h-2.5a.834.834,0,1,1,0-1.668h2.5ZM8.673,22.912H12.01v2.5a2.486,2.486,0,0,0-1.668.651,2.482,2.482,0,0,0-1.668-.651Zm0,4.171a.834.834,0,1,1,0,1.668h-2.5v1.668H7v3.743H4.653l-.976-7.079Z" transform="translate(0 0)"/>
    <path id="Path_1282670" data-name="Path 1282670" d="M54.5,22A2.5,2.5,0,1,0,52,19.5,2.505,2.505,0,0,0,54.5,22Zm0-3.337a.834.834,0,1,1-.834.834A.834.834,0,0,1,54.5,18.668Z" transform="translate(-8.293 -2.429)"/>
    <path id="Path_1282671" data-name="Path 1282671" d="M54,8.5A2.5,2.5,0,1,0,51.5,11,2.505,2.505,0,0,0,54,8.5Zm-2.5.834a.834.834,0,1,1,.834-.834A.834.834,0,0,1,51.5,9.337Z" transform="translate(-7.795 -0.605)"/>
  </g>
</svg>
