<svg id="Group_1204123" data-name="Group 1204123" xmlns="http://www.w3.org/2000/svg" width="82.001" height="82.001" viewBox="0 0 82.001 82.001">
  <g id="Group_1187152" data-name="Group 1187152" transform="translate(0)">
    <g id="Group_1185946" data-name="Group 1185946" transform="translate(0)">
      <g id="Group_1184280" data-name="Group 1184280" transform="translate(0)">
        <g id="Group_1182168" data-name="Group 1182168" transform="translate(0)">
          <g id="Group_1178877" data-name="Group 1178877" transform="translate(0)">
            <g id="Group_1111311" data-name="Group 1111311" transform="translate(0)">
              <g id="Group_1098742" data-name="Group 1098742" transform="translate(0)">
                <g id="Rectangle_400898" data-name="Rectangle 400898" transform="translate(0)" fill="#fff" stroke="#4f6278" stroke-width="1" opacity="0.859">
                  <rect width="82.001" height="82.001" rx="41" stroke="none"/>
                  <rect x="0.5" y="0.5" width="81.001" height="81.001" rx="40.5" fill="none"/>
                </g>
                <g id="Rectangle_400907" data-name="Rectangle 400907" transform="translate(0)" fill="none" stroke="#4f6278" stroke-width="1">
                  <rect width="82.001" height="82.001" rx="41" stroke="none"/>
                  <rect x="0.5" y="0.5" width="81.001" height="81.001" rx="40.5" fill="none"/>
                </g>
              </g>
            </g>
          </g>
        </g>
      </g>
    </g>
  </g>
  <g id="water-cycle_525893" transform="translate(14.643 14.666)">
    <g id="Group_1204127" data-name="Group 1204127" transform="translate(1.054 1.029)">
      <path id="Path_1282525" data-name="Path 1282525" d="M10.024,325.254a6.79,6.79,0,1,0,13.577,0,7,7,0,0,0-1.524-4.378h0l-5.241-6.894-5.264,6.857h0A7,7,0,0,0,10.024,325.254Z" transform="translate(-10.024 -282.712)" fill="#bef7f0"/>
      <path id="Path_1282526" data-name="Path 1282526" d="M369.988,21.27a6.79,6.79,0,1,0,13.577,0,7,7,0,0,0-1.524-4.378h0L376.8,10l-5.264,6.857h0A7,7,0,0,0,369.988,21.27Z" transform="translate(-332.959 -9.999)" fill="#bef7f0"/>
    </g>
    <path id="Path_1282527" data-name="Path 1282527" d="M128.032,88.923a13.164,13.164,0,1,0,23.373-8.31h0L141.243,67.526,131.035,80.544h.008A13.11,13.11,0,0,0,128.032,88.923Z" transform="translate(-114.839 -60.58)" fill="#12addd"/>
    <path id="Path_1282528" data-name="Path 1282528" d="M143.249,71.011,133.087,57.925a1.029,1.029,0,0,0-.81-.4h0a1.028,1.028,0,0,0-.809.394L121.257,70.939q-.027.035-.052.072a14.193,14.193,0,1,0,22.053.013ZM132.227,92.088a12.136,12.136,0,0,1-9.36-19.859,1.021,1.021,0,0,0,.08-.111l9.323-11.89L141.6,72.242c.012.017.025.033.038.05a12.135,12.135,0,0,1-9.412,19.8Z" transform="translate(-105.87 -51.609)"/>
    <path id="Path_1282529" data-name="Path 1282529" d="M288.47,284.029a1.028,1.028,0,0,0-1.237.765,7.967,7.967,0,0,1-4.717,5.525,1.029,1.029,0,1,0,.783,1.9,10.029,10.029,0,0,0,5.937-6.955A1.029,1.029,0,0,0,288.47,284.029Z" transform="translate(-252.859 -254.786)"/>
    <path id="Path_1282530" data-name="Path 1282530" d="M335.992,244.737v.021a1.029,1.029,0,0,0,2.057,0v-.021a1.029,1.029,0,0,0-2.057,0Z" transform="translate(-301.406 -218.638)"/>
    <path id="Path_1282531" data-name="Path 1282531" d="M1.168,29.722q.048,0,.1,0a1.029,1.029,0,0,0,.93-1.119A24.278,24.278,0,0,1,35.871,4.062l-.778.449a1.029,1.029,0,1,0,1.028,1.781l2.49-1.438a1.029,1.029,0,0,0,.376-1.405L37.551.96a1.028,1.028,0,0,0-1.876.806A26.337,26.337,0,0,0,.145,28.788,1.029,1.029,0,0,0,1.168,29.722Z" transform="translate(-0.009 -0.062)"/>
    <path id="Path_1282532" data-name="Path 1282532" d="M184.092,214.359a1.029,1.029,0,1,0-2.039.274,24.386,24.386,0,0,1-17.419,26.546,24.043,24.043,0,0,1-14.845-.5l.973-.617a1.029,1.029,0,1,0-1.1-1.737l-2.428,1.54a1.029,1.029,0,0,0-.318,1.419l1.524,2.408a1.028,1.028,0,0,0,1.89-.666,26.014,26.014,0,0,0,7.63,1.148,26.354,26.354,0,0,0,26.134-29.818Z" transform="translate(-131.635 -191.508)"/>
    <path id="Path_1282533" data-name="Path 1282533" d="M13.93,311.288l0-.005-5.241-6.894a1.029,1.029,0,0,0-.816-.406h0a1.029,1.029,0,0,0-.816.4l-5.264,6.857c-.012.016-.024.032-.035.049a8.071,8.071,0,0,0-1.726,4.992,7.9,7.9,0,0,0,7.817,7.963,7.9,7.9,0,0,0,7.817-7.963A8.075,8.075,0,0,0,13.93,311.288Zm-6.088,10.9a5.841,5.841,0,0,1-5.76-5.906,6,6,0,0,1,1.324-3.767,1.019,1.019,0,0,0,.063-.087l4.394-5.724,4.409,5.8.032.042a6.009,6.009,0,0,1,1.3,3.736A5.841,5.841,0,0,1,7.842,322.189Z" transform="translate(0 -272.712)"/>
    <path id="Path_1282534" data-name="Path 1282534" d="M70.441,413.554a1.029,1.029,0,0,0-1.029,1.029,2.406,2.406,0,0,1-2.366,2.439,1.029,1.029,0,0,0,0,2.057,4.465,4.465,0,0,0,4.423-4.5A1.029,1.029,0,0,0,70.441,413.554Z" transform="translate(-59.204 -371.012)"/>
    <path id="Path_1282535" data-name="Path 1282535" d="M361.716,7.308A8.071,8.071,0,0,0,359.99,12.3a7.819,7.819,0,1,0,15.634,0,8.075,8.075,0,0,0-1.729-5l0-.005L368.65.406A1.029,1.029,0,0,0,367.834,0h0a1.029,1.029,0,0,0-.816.4L361.751,7.26C361.739,7.276,361.728,7.292,361.716,7.308Zm1.654,1.225a1.017,1.017,0,0,0,.062-.086l4.394-5.724,4.409,5.8.032.042a6.009,6.009,0,0,1,1.3,3.736,5.762,5.762,0,1,1-11.52,0A6,6,0,0,1,363.371,8.533Z" transform="translate(-322.936)"/>
    <path id="Path_1282536" data-name="Path 1282536" d="M427.012,115.094a4.465,4.465,0,0,0,4.423-4.5,1.029,1.029,0,0,0-2.057,0,2.406,2.406,0,0,1-2.366,2.439,1.029,1.029,0,0,0,0,2.057Z" transform="translate(-382.14 -98.299)"/>
  </g>
</svg>
