<svg id="Group_1204126" data-name="Group 1204126" xmlns="http://www.w3.org/2000/svg" width="82.001" height="82.001" viewBox="0 0 82.001 82.001">
  <g id="Group_1187152" data-name="Group 1187152" transform="translate(0)">
    <g id="Group_1185946" data-name="Group 1185946" transform="translate(0)">
      <g id="Group_1184280" data-name="Group 1184280" transform="translate(0)">
        <g id="Group_1182168" data-name="Group 1182168" transform="translate(0)">
          <g id="Group_1178877" data-name="Group 1178877" transform="translate(0)">
            <g id="Group_1111311" data-name="Group 1111311" transform="translate(0)">
              <g id="Group_1098742" data-name="Group 1098742" transform="translate(0)">
                <g id="Rectangle_400898" data-name="Rectangle 400898" transform="translate(0)" fill="#fff" stroke="#4f6278" stroke-width="1" opacity="0.859">
                  <rect width="82.001" height="82.001" rx="41" stroke="none"/>
                  <rect x="0.5" y="0.5" width="81.001" height="81.001" rx="40.5" fill="none"/>
                </g>
                <g id="Rectangle_400907" data-name="Rectangle 400907" transform="translate(0)" fill="none" stroke="#4f6278" stroke-width="1">
                  <rect width="82.001" height="82.001" rx="41" stroke="none"/>
                  <rect x="0.5" y="0.5" width="81.001" height="81.001" rx="40.5" fill="none"/>
                </g>
              </g>
            </g>
          </g>
        </g>
      </g>
    </g>
  </g>
  <g id="drought_4849560" transform="translate(14.221 -24.54)">
    <g id="Group_1204168" data-name="Group 1204168" transform="translate(0 62.146)">
      <g id="Group_1204167" data-name="Group 1204167" transform="translate(0 0)">
        <path id="Path_1282578" data-name="Path 1282578" d="M42.764,229l-1.621,2.364,1.088,3.064-4.56,2.071,1.6-2.981-1.527-2.541L39.177,229H19.671l-2.552,3.535,1.945,1.548-4.978,4.047,1.161-3.964-2.405-2.625L14.63,229H5.5v12.174H57.9V229Z" transform="translate(-4.925 -228.425)" fill="#935434"/>
        <path id="Path_1282579" data-name="Path 1282579" d="M52.973,236.814H.575A.574.574,0,0,1,0,236.239V224.075a.574.574,0,0,1,.575-.575H9.716a.561.561,0,0,1,.5.3.583.583,0,0,1-.042.6l-1.527,2.165,2.1,2.28a.55.55,0,0,1,.126.544l-.648,2.217,3-2.447-1.391-1.109a.573.573,0,0,1-.1-.784l2.552-3.525a.58.58,0,0,1,.46-.241H34.252a.567.567,0,0,1,.512.314.583.583,0,0,1-.042.6l-1.2,1.663,1.339,2.217a.573.573,0,0,1,.01.565l-.805,1.5,2.541-1.161-.91-2.562a.591.591,0,0,1,.063-.512l1.621-2.364a.567.567,0,0,1,.471-.251H52.983a.574.574,0,0,1,.575.575v12.163a.582.582,0,0,1-.586.575ZM1.14,235.674H52.408V224.65H38.143l-1.286,1.872.994,2.782a.565.565,0,0,1-.3.711l-4.57,2.071a.56.56,0,0,1-.648-.126.571.571,0,0,1-.084-.659l1.454-2.7-1.36-2.259a.571.571,0,0,1,.031-.628l.774-1.067H15.05l-2.06,2.855,1.517,1.213a.555.555,0,0,1,.209.439.576.576,0,0,1-.209.45l-4.989,4.047a.582.582,0,0,1-.68.031.566.566,0,0,1-.23-.638l1.077-3.661L7.488,227a.567.567,0,0,1-.042-.711l1.161-1.642H1.14Z" transform="translate(0 -223.5)" fill="#262626"/>
      </g>
    </g>
    <g id="Group_1204169" data-name="Group 1204169" transform="translate(19.095 62.377)">
      <path id="Path_1282580" data-name="Path 1282580" d="M183.145,233.231a.573.573,0,0,1-.2-1.109l4.936-1.83-2.928-3.661a.573.573,0,0,1,.9-.711l3.42,4.278a.576.576,0,0,1-.251.9l-5.679,2.1A.609.609,0,0,1,183.145,233.231Z" transform="translate(-182.578 -225.701)" fill="#262626"/>
    </g>
    <g id="Group_1204170" data-name="Group 1204170" transform="translate(21.59 67.85)">
      <path id="Path_1282581" data-name="Path 1282581" d="M209.094,282.138a.585.585,0,0,1-.471-.241l-2.092-2.97a.57.57,0,0,1,.931-.659l2.092,2.97a.578.578,0,0,1-.136.795A.523.523,0,0,1,209.094,282.138Z" transform="translate(-206.431 -278.031)" fill="#262626"/>
    </g>
    <g id="Group_1204171" data-name="Group 1204171" transform="translate(2.183 62.144)">
      <path id="Path_1282582" data-name="Path 1282582" d="M22.709,230.308a.523.523,0,0,1-.293-.084.566.566,0,0,1-.2-.784l.91-1.548-2.165-3.545a.57.57,0,1,1,.973-.6l2.343,3.838a.54.54,0,0,1,0,.586l-1.088,1.841A.532.532,0,0,1,22.709,230.308Z" transform="translate(-20.876 -223.476)" fill="#262626"/>
    </g>
    <g id="Group_1204172" data-name="Group 1204172" transform="translate(20.581 69.33)">
      <path id="Path_1282583" data-name="Path 1282583" d="M204.26,297.6l-2.06,2.688" transform="translate(-201.633 -297.033)" fill="#935434"/>
      <path id="Path_1282584" data-name="Path 1282584" d="M197.348,296a.594.594,0,0,1-.345-.115.579.579,0,0,1-.1-.805l2.071-2.677a.574.574,0,0,1,.91.7l-2.071,2.677A.6.6,0,0,1,197.348,296Z" transform="translate(-196.781 -292.181)" fill="#262626"/>
    </g>
    <g id="Group_1204173" data-name="Group 1204173" transform="translate(39.469 62.377)">
      <path id="Path_1282585" data-name="Path 1282585" d="M377.945,233.231a.573.573,0,0,1-.2-1.109l4.936-1.83-2.928-3.661a.573.573,0,0,1,.9-.711l3.42,4.278a.576.576,0,0,1-.251.9l-5.679,2.1A.71.71,0,0,1,377.945,233.231Z" transform="translate(-377.378 -225.701)" fill="#262626"/>
    </g>
    <g id="Group_1204174" data-name="Group 1204174" transform="translate(41.963 67.85)">
      <path id="Path_1282586" data-name="Path 1282586" d="M403.894,282.138a.585.585,0,0,1-.471-.241l-2.092-2.97a.57.57,0,0,1,.931-.659l2.092,2.97a.578.578,0,0,1-.136.795A.523.523,0,0,1,403.894,282.138Z" transform="translate(-401.231 -278.031)" fill="#262626"/>
    </g>
    <g id="Group_1204175" data-name="Group 1204175" transform="translate(40.944 69.33)">
      <path id="Path_1282587" data-name="Path 1282587" d="M398.971,297.6l-2.071,2.688" transform="translate(-396.333 -297.033)" fill="#935434"/>
      <path id="Path_1282588" data-name="Path 1282588" d="M392.048,296a.594.594,0,0,1-.345-.115.579.579,0,0,1-.1-.805l2.071-2.677a.574.574,0,0,1,.91.7l-2.071,2.677A.6.6,0,0,1,392.048,296Z" transform="translate(-391.481 -292.181)" fill="#262626"/>
    </g>
    <g id="Group_1204176" data-name="Group 1204176" transform="translate(4.135 66.658)">
      <path id="Path_1282589" data-name="Path 1282589" d="M46.5,274.16l-1.4-2.06" transform="translate(-44.518 -271.529)" fill="#935434"/>
      <path id="Path_1282590" data-name="Path 1282590" d="M41.52,269.833a.568.568,0,0,1-.471-.251l-1.412-2.05a.572.572,0,1,1,.941-.648l1.412,2.06a.571.571,0,0,1-.146.795A.588.588,0,0,1,41.52,269.833Z" transform="translate(-39.536 -266.636)" fill="#262626"/>
    </g>
    <g id="Group_1204182" data-name="Group 1204182" transform="translate(0 74.289)">
      <g id="Group_1204178" data-name="Group 1204178" transform="translate(0 0)">
        <g id="Group_1204177" data-name="Group 1204177">
          <path id="Path_1282591" data-name="Path 1282591" d="M5.5,345.1H57.908v12.352H5.5Z" transform="translate(-4.925 -344.525)" fill="#f7931e"/>
          <path id="Path_1282592" data-name="Path 1282592" d="M52.973,353.092H.575A.574.574,0,0,1,0,352.516V340.175a.574.574,0,0,1,.575-.575H52.983a.574.574,0,0,1,.575.575v12.352a.581.581,0,0,1-.586.565ZM1.14,351.952H52.408v-11.2H1.14Z" transform="translate(0 -339.6)" fill="#262626"/>
        </g>
      </g>
      <g id="Group_1204179" data-name="Group 1204179" transform="translate(4.361 3.41)">
        <path id="Path_1282593" data-name="Path 1282593" d="M85.553,373.35h-.314a.574.574,0,0,1-.575-.575.567.567,0,0,1,.575-.575h.314a.575.575,0,1,1,0,1.15Zm-2.385,0h-.314a.574.574,0,0,1-.575-.575.567.567,0,0,1,.575-.575h.314a.575.575,0,1,1,0,1.15Zm-2.385,0H80.47a.574.574,0,0,1-.575-.575.567.567,0,0,1,.575-.575h.314a.575.575,0,0,1,0,1.15Zm-2.385,0h-.314a.574.574,0,0,1-.575-.575.567.567,0,0,1,.575-.575H78.4a.575.575,0,0,1,0,1.15Zm-2.4,0h-.314a.574.574,0,0,1-.575-.575.567.567,0,0,1,.575-.575H76a.575.575,0,0,1,0,1.15Zm-2.385,0h-.314a.574.574,0,0,1-.575-.575.567.567,0,0,1,.575-.575h.314a.575.575,0,1,1,0,1.15Zm-2.385,0h-.314a.574.574,0,0,1-.575-.575.567.567,0,0,1,.575-.575h.314a.575.575,0,1,1,0,1.15Zm-2.385,0h-.314a.574.574,0,0,1-.575-.575.567.567,0,0,1,.575-.575h.314a.575.575,0,0,1,0,1.15Zm-2.4,0h-.314a.574.574,0,0,1-.575-.575.567.567,0,0,1,.575-.575h.314a.574.574,0,0,1,.575.575A.567.567,0,0,1,66.456,373.35Zm-2.385,0h-.314a.574.574,0,0,1-.575-.575.567.567,0,0,1,.575-.575h.314a.575.575,0,0,1,0,1.15Zm-2.385,0h-.314a.574.574,0,0,1-.575-.575.567.567,0,0,1,.575-.575h.314a.575.575,0,0,1,0,1.15Zm-2.385,0h-.314a.574.574,0,0,1-.575-.575.567.567,0,0,1,.575-.575H59.3a.575.575,0,1,1,0,1.15Zm-2.385,0H56.6a.574.574,0,0,1-.575-.575.567.567,0,0,1,.575-.575h.314a.575.575,0,0,1,0,1.15Zm-2.4,0h-.314a.574.574,0,0,1-.575-.575.567.567,0,0,1,.575-.575h.314a.574.574,0,0,1,.575.575A.567.567,0,0,1,54.522,373.35Zm-2.385,0h-.314a.574.574,0,0,1-.575-.575.567.567,0,0,1,.575-.575h.314a.575.575,0,0,1,0,1.15Zm-2.385,0h-.314a.574.574,0,0,1-.575-.575.567.567,0,0,1,.575-.575h.314a.575.575,0,1,1,0,1.15Zm-2.385,0h-.314a.574.574,0,0,1-.575-.575.567.567,0,0,1,.575-.575h.314a.575.575,0,1,1,0,1.15Zm-2.385,0H44.67a.574.574,0,0,1-.575-.575.567.567,0,0,1,.575-.575h.314a.575.575,0,0,1,0,1.15Zm-2.4,0h-.314a.574.574,0,0,1-.575-.575.567.567,0,0,1,.575-.575h.314a.575.575,0,0,1,0,1.15Z" transform="translate(-41.7 -372.2)" fill="#262626"/>
      </g>
      <g id="Group_1204180" data-name="Group 1204180" transform="translate(4.361 6.286)">
        <path id="Path_1282594" data-name="Path 1282594" d="M85.553,400.85h-.314a.574.574,0,0,1-.575-.575.567.567,0,0,1,.575-.575h.314a.575.575,0,1,1,0,1.15Zm-2.385,0h-.314a.574.574,0,0,1-.575-.575.567.567,0,0,1,.575-.575h.314a.575.575,0,1,1,0,1.15Zm-2.385,0H80.47a.574.574,0,0,1-.575-.575.567.567,0,0,1,.575-.575h.314a.575.575,0,1,1,0,1.15Zm-2.385,0h-.314a.574.574,0,0,1-.575-.575.567.567,0,0,1,.575-.575H78.4a.575.575,0,1,1,0,1.15Zm-2.4,0h-.314a.574.574,0,0,1-.575-.575.567.567,0,0,1,.575-.575H76a.575.575,0,1,1,0,1.15Zm-2.385,0h-.314a.574.574,0,0,1-.575-.575.567.567,0,0,1,.575-.575h.314a.575.575,0,1,1,0,1.15Zm-2.385,0h-.314a.574.574,0,0,1-.575-.575.567.567,0,0,1,.575-.575h.314a.575.575,0,1,1,0,1.15Zm-2.385,0h-.314a.574.574,0,0,1-.575-.575.567.567,0,0,1,.575-.575h.314a.575.575,0,1,1,0,1.15Zm-2.4,0h-.314a.574.574,0,0,1-.575-.575.567.567,0,0,1,.575-.575h.314a.574.574,0,0,1,.575.575A.567.567,0,0,1,66.456,400.85Zm-2.385,0h-.314a.574.574,0,0,1-.575-.575.567.567,0,0,1,.575-.575h.314a.575.575,0,1,1,0,1.15Zm-2.385,0h-.314a.574.574,0,0,1-.575-.575.567.567,0,0,1,.575-.575h.314a.575.575,0,1,1,0,1.15Zm-2.385,0h-.314a.574.574,0,0,1-.575-.575.567.567,0,0,1,.575-.575H59.3a.575.575,0,1,1,0,1.15Zm-2.385,0H56.6a.574.574,0,0,1-.575-.575.567.567,0,0,1,.575-.575h.314a.575.575,0,1,1,0,1.15Zm-2.4,0h-.314a.574.574,0,0,1-.575-.575.567.567,0,0,1,.575-.575h.314a.574.574,0,0,1,.575.575A.567.567,0,0,1,54.522,400.85Zm-2.385,0h-.314a.574.574,0,0,1-.575-.575.567.567,0,0,1,.575-.575h.314a.575.575,0,1,1,0,1.15Zm-2.385,0h-.314a.574.574,0,0,1-.575-.575.567.567,0,0,1,.575-.575h.314a.575.575,0,1,1,0,1.15Zm-2.385,0h-.314a.574.574,0,0,1-.575-.575.567.567,0,0,1,.575-.575h.314a.575.575,0,1,1,0,1.15Zm-2.385,0H44.67a.574.574,0,0,1-.575-.575.567.567,0,0,1,.575-.575h.314a.575.575,0,1,1,0,1.15Zm-2.4,0h-.314a.574.574,0,0,1-.575-.575.567.567,0,0,1,.575-.575h.314a.575.575,0,1,1,0,1.15Z" transform="translate(-41.7 -399.7)" fill="#262626"/>
      </g>
      <g id="Group_1204181" data-name="Group 1204181" transform="translate(4.361 9.172)">
        <path id="Path_1282595" data-name="Path 1282595" d="M85.553,428.45h-.314a.575.575,0,0,1,0-1.15h.314a.574.574,0,0,1,.575.575A.58.58,0,0,1,85.553,428.45Zm-2.385,0h-.314a.575.575,0,0,1,0-1.15h.314a.574.574,0,0,1,.575.575A.58.58,0,0,1,83.168,428.45Zm-2.385,0H80.47a.575.575,0,0,1,0-1.15h.314a.574.574,0,0,1,.575.575A.587.587,0,0,1,80.784,428.45Zm-2.385,0h-.314a.575.575,0,0,1,0-1.15H78.4a.574.574,0,0,1,.575.575A.587.587,0,0,1,78.4,428.45Zm-2.4,0h-.314a.575.575,0,0,1,0-1.15H76a.574.574,0,0,1,.575.575A.58.58,0,0,1,76,428.45Zm-2.385,0h-.314a.575.575,0,0,1,0-1.15h.314a.574.574,0,0,1,.575.575A.58.58,0,0,1,73.62,428.45Zm-2.385,0h-.314a.575.575,0,0,1,0-1.15h.314a.574.574,0,0,1,.575.575A.587.587,0,0,1,71.235,428.45Zm-2.385,0h-.314a.575.575,0,0,1,0-1.15h.314a.574.574,0,0,1,.575.575A.587.587,0,0,1,68.851,428.45Zm-2.4,0h-.314a.575.575,0,0,1,0-1.15h.314a.575.575,0,1,1,0,1.15Zm-2.385,0h-.314a.575.575,0,0,1,0-1.15h.314a.574.574,0,0,1,.575.575A.58.58,0,0,1,64.071,428.45Zm-2.385,0h-.314a.575.575,0,1,1,0-1.15h.314a.574.574,0,0,1,.575.575A.58.58,0,0,1,61.686,428.45Zm-2.385,0h-.314a.575.575,0,0,1,0-1.15H59.3a.574.574,0,0,1,.575.575A.587.587,0,0,1,59.3,428.45Zm-2.385,0H56.6a.575.575,0,0,1,0-1.15h.314a.574.574,0,0,1,.575.575A.587.587,0,0,1,56.917,428.45Zm-2.4,0h-.314a.575.575,0,0,1,0-1.15h.314a.575.575,0,0,1,0,1.15Zm-2.385,0h-.314a.575.575,0,0,1,0-1.15h.314a.574.574,0,0,1,.575.575A.58.58,0,0,1,52.138,428.45Zm-2.385,0h-.314a.575.575,0,1,1,0-1.15h.314a.574.574,0,0,1,.575.575A.58.58,0,0,1,49.753,428.45Zm-2.385,0h-.314a.575.575,0,0,1,0-1.15h.314a.574.574,0,0,1,.575.575A.587.587,0,0,1,47.369,428.45Zm-2.385,0H44.67a.575.575,0,1,1,0-1.15h.314a.574.574,0,0,1,.575.575A.587.587,0,0,1,44.984,428.45Zm-2.4,0h-.314a.575.575,0,1,1,0-1.15h.314a.574.574,0,0,1,.575.575A.58.58,0,0,1,42.589,428.45Z" transform="translate(-41.7 -427.3)" fill="#262626"/>
      </g>
    </g>
    <g id="Group_1204183" data-name="Group 1204183" transform="translate(14.351 48.684)">
      <path id="Path_1282596" data-name="Path 1282596" d="M148.75,100.247c-4.058-.471-6.15,4.832-6.15,4.832s1.684-1.381,4.623.69c2.228,1.569,5.784-.763,5.784-.763S152.086,100.634,148.75,100.247Z" transform="translate(-142.037 -99.648)" fill="#22b573"/>
      <path id="Path_1282597" data-name="Path 1282597" d="M144.251,102.006a3.736,3.736,0,0,1-2.186-.648c-2.5-1.768-3.88-.753-3.932-.711a.565.565,0,0,1-.69.021.571.571,0,0,1-.188-.669c.094-.23,2.311-5.7,6.746-5.187,3.7.429,4.7,5.02,4.738,5.208a.571.571,0,0,1-.251.6A8.972,8.972,0,0,1,144.251,102.006Zm-4.905-2.824a5.9,5.9,0,0,1,3.378,1.245c1.516,1.067,3.9-.073,4.79-.565-.3-1-1.307-3.65-3.65-3.922-2.426-.282-4.1,1.841-4.936,3.263A2.6,2.6,0,0,1,139.346,99.182Z" transform="translate(-137.213 -94.776)" fill="#262626"/>
    </g>
    <g id="Group_1204184" data-name="Group 1204184" transform="translate(26.702 43.3)">
      <path id="Path_1282598" data-name="Path 1282598" d="M265.561,48.8c4.079.042,5.5,5.554,5.5,5.554s-1.506-1.579-4.665.115c-1.872.994-4.246-.45-5.208-1.14a.684.684,0,0,1-.22-.837C261.461,51.372,262.925,48.778,265.561,48.8Z" transform="translate(-260.322 -48.224)" fill="#22b573"/>
      <path id="Path_1282599" data-name="Path 1282599" d="M259.967,50.454a7.77,7.77,0,0,1-4.131-1.59,1.254,1.254,0,0,1-.408-1.537c.554-1.213,2.144-4.027,5.083-4.027h.042c4.466.042,5.982,5.742,6.045,5.982a.577.577,0,0,1-.272.638.57.57,0,0,1-.69-.1c-.042-.042-1.286-1.224-3.985.22A3.406,3.406,0,0,1,259.967,50.454Zm.544-6c-2.28,0-3.587,2.343-4.047,3.357a.1.1,0,0,0,.042.136c.858.617,3.012,1.956,4.6,1.109a5.549,5.549,0,0,1,3.922-.743c-.659-1.517-2.06-3.828-4.487-3.849A.038.038,0,0,0,260.511,44.45Z" transform="translate(-255.314 -43.3)" fill="#262626"/>
    </g>
    <g id="Group_1204185" data-name="Group 1204185" transform="translate(26.649 46.202)">
      <path id="Path_1282600" data-name="Path 1282600" d="M255.375,88.24a.574.574,0,0,1-.575-.575V73.493a1.941,1.941,0,0,1,1.684-1.924l3.755-.512a.569.569,0,0,1,.146,1.13l-3.755.512a.81.81,0,0,0-.7.795V87.665A.544.544,0,0,1,255.375,88.24Z" transform="translate(-254.8 -71.051)" fill="#262626"/>
    </g>
    <g id="Group_1204186" data-name="Group 1204186" transform="translate(20.476 51.529)">
      <path id="Path_1282601" data-name="Path 1282601" d="M202.484,130.8a.586.586,0,0,1-.544-.387L200.2,125.18a1.447,1.447,0,0,0-.732-.837l-3.326-1.265a.569.569,0,1,1,.4-1.067l3.347,1.276a.079.079,0,0,1,.042.021,2.546,2.546,0,0,1,1.349,1.516l1.736,5.229a.575.575,0,0,1-.366.722A.915.915,0,0,1,202.484,130.8Z" transform="translate(-195.778 -121.978)" fill="#262626"/>
    </g>
  </g>
</svg>
