<svg xmlns="http://www.w3.org/2000/svg" width="129.063" height="86.596" viewBox="0 0 129.063 86.596">
  <g id="Group_1202134" data-name="Group 1202134" transform="translate(-787.781 -2550.836)">
    <g id="Rectangle_410589" data-name="Rectangle 410589" transform="translate(787.781 2575.623)" fill="#a1c6f2" stroke="#6f89a8" stroke-width="1">
      <rect width="129.063" height="43.021" rx="8" stroke="none"/>
      <rect x="0.5" y="0.5" width="128.063" height="42.021" rx="7.5" fill="none"/>
    </g>
    <g id="_x36__bird" transform="translate(808.347 2550.836)">
      <g id="Group_1204249" data-name="Group 1204249" transform="translate(0.801 0)">
        <g id="Group_1204239" data-name="Group 1204239" transform="translate(26.872 17.176)">
          <path id="Path_1282782" data-name="Path 1282782" d="M181.689,105.529l-22.016,18.856c15.794,12.8,39.616-1.95,26.663-22.838Z" transform="translate(-159.673 -101.547)" fill="#a0e897" fill-rule="evenodd"/>
        </g>
        <g id="Group_1204240" data-name="Group 1204240" transform="translate(2.605 1.269)">
          <path id="Path_1282783" data-name="Path 1282783" d="M86.2,23.772c-2.032-1.614-2.4-9.183,0-10.835a.015.015,0,0,1,0-.01A10.893,10.893,0,0,0,65.88,18.355a10.757,10.757,0,0,0,1.252,5.053C80.086,44.3,56.264,59.04,40.469,46.245L18.526,54.194c-3.125,1.705-2.884,5.355-.544,6.753a4.227,4.227,0,0,0,2.388.552l21.491-3.011a52.205,52.205,0,0,0,10.367,1.657,46.21,46.21,0,0,0,8.639-.3c16-2.137,27.38-13.136,20.273-31.546A10.909,10.909,0,0,0,86.2,23.782s0,0,0-.01Z" transform="translate(-16.203 -7.5)" fill="#62d2a2" fill-rule="evenodd"/>
        </g>
        <g id="Group_1204241" data-name="Group 1204241" transform="translate(2.279 52.256)">
          <path id="Path_1282784" data-name="Path 1282784" d="M19.787,317.967l20.475-9.015-21.491,3.011a4.228,4.228,0,0,1-2.388-.552C12.583,312.626,14.052,319.96,19.787,317.967Z" transform="translate(-14.278 -308.951)" fill="#a0e897" fill-rule="evenodd"/>
        </g>
        <g id="Group_1204242" data-name="Group 1204242" transform="translate(1.269 67.616)">
          <path id="Path_1282785" data-name="Path 1282785" d="M45.663,399.762H9.168a.869.869,0,0,0-.867.869v4.385a.868.868,0,0,0,.867.865H65l11.374,11.344a.862.862,0,0,0,.188.139h.857a.862.862,0,0,0,.188-.139l3.106-3.1a.868.868,0,0,0,0-1.225l-7.035-7.017H91.222a.869.869,0,0,0,.872-.865v-4.385a.87.87,0,0,0-.872-.869H45.663Z" transform="translate(-8.301 -399.761)" fill="#c68642" fill-rule="evenodd"/>
        </g>
        <g id="Group_1204243" data-name="Group 1204243" transform="translate(67.93 47.295)">
          <path id="Path_1282786" data-name="Path 1282786" d="M414.843,279.618c6.376,16.34-9.13,18.477-8.485,13.549C402.2,295.905,397.329,281.069,414.843,279.618Z" transform="translate(-402.416 -279.618)" fill="#62d2a2" fill-rule="evenodd"/>
        </g>
        <g id="Group_1204244" data-name="Group 1204244" transform="translate(30.941 14.851)">
          <path id="Path_1282787" data-name="Path 1282787" d="M224.049,87.8a9.813,9.813,0,0,1-4.425,3.453c-1.907.879-3.3,1.287-3.616,2.185-.26.716.3,1.753.905,3.6,6.043,18.559-10.382,29.485-33.183,28.8a51.122,51.122,0,0,0,7.69,1.023,46.208,46.208,0,0,0,8.639-.3c16-2.137,27.38-13.136,20.273-31.546a10.909,10.909,0,0,0,5.056-4.515v-.01A4.936,4.936,0,0,1,224.049,87.8Z" transform="translate(-183.73 -87.804)" fill="#41c48b" fill-rule="evenodd"/>
        </g>
        <g id="Group_1204245" data-name="Group 1204245" transform="translate(70.935 6.696)">
          <path id="Path_1282788" data-name="Path 1282788" d="M421.854,39.6c-2.4,1.652-2.037,9.222,0,10.835v.01a20.678,20.678,0,0,0,10.223-5.427,20.638,20.638,0,0,0-10.223-5.427A.015.015,0,0,0,421.854,39.6Z" transform="translate(-420.185 -39.587)" fill="#ffd670" fill-rule="evenodd"/>
        </g>
        <g id="Group_1204246" data-name="Group 1204246" transform="translate(73.798 47.295)">
          <path id="Path_1282789" data-name="Path 1282789" d="M440.59,280.051c3.607,9.322.077,14-3.482,15.374,3.785.73,11.35-3.53,6.559-15.806a25.947,25.947,0,0,0-3.077.432Z" transform="translate(-437.109 -279.618)" fill="#41c48b" fill-rule="evenodd"/>
        </g>
        <g id="Group_1204247" data-name="Group 1204247" transform="translate(37.644 17.176)">
          <path id="Path_1282790" data-name="Path 1282790" d="M236.145,104.213c6.448,13.275-1.979,23.534-12.785,24.812,13.517,1.585,26.08-11.047,15.891-27.478Z" transform="translate(-223.36 -101.547)" fill="#86db7b" fill-rule="evenodd"/>
        </g>
        <g id="Group_1204248" data-name="Group 1204248" transform="translate(0)">
          <path id="Path_1282791" data-name="Path 1282791" d="M379.034,44.45h.029a1.269,1.269,0,0,0,0-2.537h-.029a1.269,1.269,0,1,0,0,2.537Z" transform="translate(-314.005 -34.823)"/>
          <path id="Path_1282792" data-name="Path 1282792" d="M84.99,66.348H70.722l1.78-2.841a3.549,3.549,0,0,0,.61.408,4.993,4.993,0,0,0,2.337.531,8.292,8.292,0,0,0,5.335-2.127,9.649,9.649,0,0,0,3.042-5.886,19.007,19.007,0,0,0-1.487-9.6,1.267,1.267,0,0,0-1.286-.8,19.107,19.107,0,0,0-9.3,2.882,9.651,9.651,0,0,0-3.964,5.317c-.819,2.911.008,6.163,1.924,7.564a3.59,3.59,0,0,0,.639.372l-2.62,4.182H49.339V54.7c.332-.053.663-.107.991-.168,6.953-1.291,12.622-4.2,16.392-8.408A19.41,19.41,0,0,0,71.578,35.57a27.649,27.649,0,0,0-1.651-12.879,12.237,12.237,0,0,0,4.265-4.017,21.787,21.787,0,0,0,10.292-5.619,1.282,1.282,0,0,0,0-1.862A21.76,21.76,0,0,0,74.2,5.574a12.146,12.146,0,0,0-21.423,11.27L31.953,34.678l0,0L27.023,38.9,5.3,46.77a1.273,1.273,0,0,0-.175.079,5.266,5.266,0,0,0-2.8,6.062,4.886,4.886,0,0,0,.792,1.608,4.424,4.424,0,0,0-1.2,2.265A5.218,5.218,0,0,0,3.51,61.71a4.8,4.8,0,0,0,3.221,1.173,6.918,6.918,0,0,0,2.275-.414q.048-.017.095-.037l20.074-8.839A53.606,53.606,0,0,0,38.163,55.1V66.348H2.936A2.139,2.139,0,0,0,.8,68.486v4.385A2.137,2.137,0,0,0,2.936,75h55.31l11.009,10.98a2.159,2.159,0,0,0,3.019-.007l3.105-3.1a2.137,2.137,0,0,0,0-3.021L70.516,75H84.99a2.139,2.139,0,0,0,2.14-2.133V68.486A2.141,2.141,0,0,0,84.99,66.348Zm-13.784-6.6c-.782-.572-1.634-2.5-.979-4.829.563-2,2.625-5.392,10.082-6.263,2.481,7.055.336,10.391-1.213,11.773-1.738,1.55-3.9,1.719-4.8,1.246a.587.587,0,0,1-.369-.442l3.094-4.938a1.269,1.269,0,0,0-2.15-1.347l-3.094,4.939a.593.593,0,0,1-.571-.139Zm2.6-51.656a18.352,18.352,0,0,1,6.211,2.765H73.046A6.028,6.028,0,0,1,73.808,8.089Zm6.209,5.3a18.35,18.35,0,0,1-6.148,2.751,7.638,7.638,0,0,1-.775-2.751ZM54.006,19.128c4.323,7.829,3.616,15.336-2,20.285-5.218,4.6-14.375,6.11-22.313.538l3.187-2.73a12.346,12.346,0,0,0,6.31,1.613q.179,0,.36,0a13.29,13.29,0,0,0,7.769-2.609c3.948-3.045,4.974-8.051,2.875-13.83Zm-5.887,5.043c1.315,4.315.507,7.841-2.347,10.041a11.326,11.326,0,0,1-10.814,1.232ZM6.257,49.12l21.187-7.675a21.747,21.747,0,0,0,13.287,4.608c.117,0,.235,0,.352,0a19.5,19.5,0,0,0,12.6-4.734,16.28,16.28,0,0,0,5.528-10.545c.5-4.492-.8-9.405-3.769-14.212A9.578,9.578,0,0,1,63.971,2.537a9.665,9.665,0,0,1,7.82,4.008,9.137,9.137,0,0,0-1.315,4.791c-.009.251-.01.508-.006.768,0,.006,0,.013,0,.019s0,.017,0,.025a11.087,11.087,0,0,0,1.355,5.5A9.673,9.673,0,0,1,67.835,20.9a1.269,1.269,0,0,0-.675,1.619c3.409,8.829,2.6,16.4-2.327,21.91-3.8,4.247-9.822,6.959-16.843,7.914a1.268,1.268,0,0,0-.184.024,44.468,44.468,0,0,1-8.19.289,1.269,1.269,0,0,0-.184-.015l-.047,0a51,51,0,0,1-10-1.617l-.04-.009c-.024-.006-.048-.011-.073-.015L29.227,51c-.025,0-.05-.007-.076-.008l-.047,0c-.026,0-.053,0-.079,0l-.044,0c-.028,0-.055,0-.083.007h-.011L7.458,54a2.5,2.5,0,0,1-2.692-1.778,2.691,2.691,0,0,1,1.491-3.1Zm1.87,10.969A2.888,2.888,0,0,1,5.184,59.8,2.68,2.68,0,0,1,4.4,57.3a1.806,1.806,0,0,1,.764-1.19,5.581,5.581,0,0,0,2.171.43q.148,0,.3-.007.057,0,.114-.011l12.43-1.742ZM40.7,55.242a47,47,0,0,0,6.1-.209V66.348H40.7ZM84.593,72.467H67.448a1.269,1.269,0,0,0-.9,2.167L73.3,81.365,70.76,83.9,59.666,72.837a1.268,1.268,0,0,0-.9-.37H3.338V68.885H84.593v3.582Z" transform="translate(-0.801 0)"/>
        </g>
      </g>
    </g>
  </g>
</svg>
