<svg xmlns="http://www.w3.org/2000/svg" xmlns:xlink="http://www.w3.org/1999/xlink" width="129.063" height="101.795" viewBox="0 0 129.063 101.795">
  <defs>
    <clipPath id="clip-path">
      <path id="path4531" d="M0-682.665H101.8v101.8H0Z" transform="translate(0 682.665)"/>
    </clipPath>
  </defs>
  <g id="Group_1201315" data-name="Group 1201315" transform="translate(-788.103 -1978.22)">
    <g id="Rectangle_410589" data-name="Rectangle 410589" transform="translate(788.103 2007.607)" fill="#a1c6f1" stroke="#6f89a8" stroke-width="1">
      <rect width="129.063" height="43.021" rx="8" stroke="none"/>
      <rect x="0.5" y="0.5" width="128.063" height="42.021" rx="7.5" fill="none"/>
    </g>
    <g id="g4521" transform="translate(801.736 2660.885)">
      <g id="g4523" transform="translate(37.425 -654.956)">
        <path id="path4525" d="M-121.267-25.626-134.74-2.291l-7.779-4.491,13.473-23.336Z" transform="translate(142.518 30.117)" fill="#7b849b"/>
      </g>
      <g id="g4527" transform="translate(0 -682.665)">
        <g id="g4529" clip-path="url(#clip-path)">
          <g id="g4535" transform="translate(56.406 11.796)">
            <path id="path4537" d="M-172.532-49.51l-9.142,2.449-15.44,4.137a4.461,4.461,0,0,1-1.165.155,4.491,4.491,0,0,1-4.334-3.33,4.492,4.492,0,0,1,3.175-5.5L-184-55.737l9.142-2.45Z" transform="translate(202.767 58.187)" fill="#7b849b"/>
          </g>
          <g id="g4539" transform="translate(75.004 11.796)">
            <path id="path4541" d="M-66.4-49.51l-9.142,2.449a10.439,10.439,0,0,1-2.135-4.078,10.439,10.439,0,0,1-.189-4.6l9.142-2.45Z" transform="translate(78.041 58.187)" fill="#5d6a85"/>
          </g>
          <g id="g4543" transform="translate(79.335 4.491)">
            <path id="path4545" d="M-2.052-75.286a10.479,10.479,0,0,0,12.834,7.41,10.479,10.479,0,0,0,7.41-12.834A10.479,10.479,0,0,0,5.357-88.12a10.479,10.479,0,0,0-7.41,12.834" transform="translate(2.412 88.48)" fill="#83deff"/>
          </g>
          <g id="g4547" transform="translate(11.423 62.393)">
            <path id="path4549" d="M-132.606-42.1l-16.358,19.5-6.881-5.774,16.358-19.5a4.491,4.491,0,0,1,6.327-.554,4.491,4.491,0,0,1,.554,6.327" transform="translate(155.845 49.478)" fill="#5d6a85"/>
          </g>
          <g id="g4551" transform="translate(20.958 46.407)">
            <path id="path4553" d="M-170.844-85.422a14.97,14.97,0,0,1-14.97,14.97,14.97,14.97,0,0,1-14.97-14.97,14.97,14.97,0,0,1,14.97-14.97,14.97,14.97,0,0,1,14.97,14.97" transform="translate(200.783 100.392)" fill="#83deff"/>
          </g>
          <g id="g4555" transform="translate(20.958 46.706)">
            <path id="path4557" d="M-102.605-167.41a15.008,15.008,0,0,1-3.01.3,14.97,14.97,0,0,1-14.971-14.969,14.971,14.971,0,0,1,11.981-14.671,33.456,33.456,0,0,0,6,29.338" transform="translate(120.586 196.748)" fill="#2ecefb"/>
          </g>
          <g id="g4559" transform="translate(1.497 79.34)">
            <path id="path4561" d="M-98.232-13.991A10.479,10.479,0,0,1-96.941.772,10.479,10.479,0,0,1-111.7,2.063,10.479,10.479,0,0,1-113-12.7a10.479,10.479,0,0,1,14.763-1.292" transform="translate(115.447 16.443)" fill="#f5c956"/>
          </g>
          <g id="g4563" transform="translate(38.44 61.374)">
            <path id="path4565" d="M-164.209-76.04l-4.491,7.78-8.706-5.026-13.333-7.7a4.491,4.491,0,0,1-2.247-3.895,4.477,4.477,0,0,1,.6-2.24,4.494,4.494,0,0,1,6.136-1.644l13.047,7.533Z" transform="translate(192.986 89.366)" fill="#7b849b"/>
          </g>
          <g id="g4567" transform="translate(54.019 69.509)">
            <path id="path4569" d="M-75.309-29.622l-4.491,7.78-8.706-5.026a10.824,10.824,0,0,1,1.437-4.778A10.756,10.756,0,0,1-84.3-34.813Z" transform="translate(88.506 34.813)" fill="#5d6a85"/>
          </g>
          <g id="g4571" transform="translate(58.379 70.355)">
            <path id="path4573" d="M-8.021-29.908A10.479,10.479,0,0,0-4.186-15.593a10.479,10.479,0,0,0,14.314-3.835A10.479,10.479,0,0,0,6.293-33.743,10.479,10.479,0,0,0-8.021-29.908" transform="translate(9.427 35.149)" fill="#60daa8"/>
          </g>
          <g id="g4575" transform="translate(42.396 7.486)">
            <path id="path4577" d="M-170.846-85.416a14.97,14.97,0,0,1-10.339,14.237,14.873,14.873,0,0,1-4.632.734,14.971,14.971,0,0,1-14.969-14.971,14.968,14.968,0,0,1,14.816-14.967c.05,0,.1,0,.153,0a14.97,14.97,0,0,1,14.971,14.969" transform="translate(200.786 100.385)" fill="#60daa8"/>
          </g>
          <g id="g4579" transform="translate(42.396 7.487)">
            <path id="path4581" d="M-111.851-166.648a14.878,14.878,0,0,1-4.632.734,14.971,14.971,0,0,1-14.969-14.971,14.968,14.968,0,0,1,14.816-14.967,36.881,36.881,0,0,0,4.786,29.2" transform="translate(131.453 195.853)" fill="#00c67f"/>
          </g>
          <g id="g4583" transform="translate(22.639 8.803)">
            <path id="path4585" d="M-140.27-87.092l-24.582-6.587,2.325-8.676,24.582,6.587a4.491,4.491,0,0,1,3.176,5.5,4.491,4.491,0,0,1-5.5,3.176" transform="translate(164.852 102.354)" fill="#5d6a85"/>
          </g>
          <g id="g4587" transform="translate(8.982 1.497)">
            <path id="path4589" d="M-117.568-75.286a10.479,10.479,0,0,1-12.834,7.41,10.479,10.479,0,0,1-7.41-12.834,10.479,10.479,0,0,1,12.834-7.41,10.479,10.479,0,0,1,7.41,12.834" transform="translate(138.172 88.48)" fill="#f5c956"/>
          </g>
          <g id="g4591" transform="translate(47.454 37.531)">
            <path id="path4593" d="M-46.541,0-54.7,14.13" transform="translate(54.697)" fill="none" stroke="#000" stroke-linecap="round" stroke-linejoin="round" stroke-miterlimit="10" stroke-width="3"/>
          </g>
          <g id="g4595" transform="translate(39.925 34.039)">
            <path id="path4597" d="M-41.836,0l-7.332,12.7" transform="translate(49.168)" fill="none" stroke="#000" stroke-linecap="round" stroke-linejoin="round" stroke-miterlimit="10" stroke-width="3"/>
          </g>
          <g id="g4599" transform="translate(72.262 21.813)">
            <path id="path4601" d="M-53.953,0l-9.455,2.534" transform="translate(63.408)" fill="none" stroke="#000" stroke-linecap="round" stroke-linejoin="round" stroke-miterlimit="10" stroke-width="3"/>
          </g>
          <g id="g4603" transform="translate(70.737 13.133)">
            <path id="path4605" d="M-49.458,0l-8.667,2.324" transform="translate(58.125)" fill="none" stroke="#000" stroke-linecap="round" stroke-linejoin="round" stroke-miterlimit="10" stroke-width="3"/>
          </g>
          <g id="g4607" transform="translate(79.335 4.514)">
            <path id="path4609" d="M-52.948-.4A10.478,10.478,0,0,1-41.623,7.3a10.479,10.479,0,0,1-7.41,12.834,10.48,10.48,0,0,1-12.834-7.41,10.473,10.473,0,0,1,2.618-10.03" transform="translate(62.226 0.474)" fill="none" stroke="#000" stroke-linecap="round" stroke-linejoin="round" stroke-miterlimit="10" stroke-width="3"/>
          </g>
          <g id="g4611" transform="translate(21.648 75.201)">
            <path id="path4613" d="M-48.374,0l-8.477,10.1" transform="translate(56.852)" fill="none" stroke="#000" stroke-linecap="round" stroke-linejoin="round" stroke-miterlimit="10" stroke-width="3"/>
          </g>
          <g id="g4615" transform="translate(14.796 69.396)">
            <path id="path4617" d="M-48.355,0l-8.474,10.1" transform="translate(56.829)" fill="none" stroke="#000" stroke-linecap="round" stroke-linejoin="round" stroke-miterlimit="10" stroke-width="3"/>
          </g>
          <g id="g4619" transform="translate(36.742 72.794)">
            <path id="path4621" d="M0-20.269a14.911,14.911,0,0,0,8.893-3.552" transform="translate(0 23.821)" fill="none" stroke="#000" stroke-linecap="round" stroke-linejoin="round" stroke-miterlimit="10" stroke-width="3"/>
          </g>
          <g id="g4623" transform="translate(20.958 46.428)">
            <path id="path4625" d="M-52.312-164.188a15.5,15.5,0,0,1-9.168-13.8,14.97,14.97,0,0,1,14.971-14.971,14.979,14.979,0,0,1,14.551,18.5" transform="translate(61.48 192.961)" fill="none" stroke="#000" stroke-linecap="round" stroke-linejoin="round" stroke-miterlimit="10" stroke-width="3"/>
          </g>
          <g id="g4627" transform="translate(1.497 79.362)">
            <path id="path4629" d="M-98.232-13.99A10.479,10.479,0,0,1-96.941.773,10.479,10.479,0,0,1-111.7,2.064,10.479,10.479,0,0,1-113-12.7,10.479,10.479,0,0,1-98.232-13.99Z" transform="translate(115.447 16.442)" fill="none" stroke="#000" stroke-linecap="round" stroke-linejoin="round" stroke-miterlimit="10" stroke-width="3"/>
          </g>
          <g id="g4631" transform="translate(38.44 61.396)">
            <path id="path4633" d="M-139.394-61.718l-17.691-10.214a4.494,4.494,0,0,0-6.135,1.644,4.492,4.492,0,0,0,1.644,6.136l17.67,10.2" transform="translate(163.822 72.534)" fill="none" stroke="#000" stroke-linecap="round" stroke-linejoin="round" stroke-miterlimit="10" stroke-width="3"/>
          </g>
          <g id="g4635" transform="translate(58.379 70.377)">
            <path id="path4637" d="M-8.021-29.907A10.479,10.479,0,0,0-4.186-15.593a10.479,10.479,0,0,0,14.314-3.836A10.479,10.479,0,0,0,6.293-33.743,10.479,10.479,0,0,0-8.021-29.907Z" transform="translate(9.427 35.148)" fill="none" stroke="#000" stroke-linecap="round" stroke-linejoin="round" stroke-miterlimit="10" stroke-width="3"/>
          </g>
          <g id="g4639" transform="translate(42.408 7.507)">
            <path id="path4641" d="M-14.653-37.484A14.949,14.949,0,0,1-2.264-44.053,14.97,14.97,0,0,1,12.707-29.084,14.972,14.972,0,0,1-2.264-14.113,14.972,14.972,0,0,1-17.221-28.5" transform="translate(17.221 44.053)" fill="none" stroke="#000" stroke-linecap="round" stroke-linejoin="round" stroke-miterlimit="10" stroke-width="3"/>
          </g>
          <g id="g4643" transform="translate(27.536 11.915)">
            <path id="path4645" d="M-51.134,0l13.049,3.5A4.492,4.492,0,0,1-34.91,9a4.489,4.489,0,0,1-5.5,3.175L-60.095,6.9" transform="translate(60.095)" fill="none" stroke="#000" stroke-linecap="round" stroke-linejoin="round" stroke-miterlimit="10" stroke-width="3"/>
          </g>
          <g id="g4647" transform="translate(8.982 1.519)">
            <path id="path4649" d="M-117.568-75.287a10.479,10.479,0,0,1-12.834,7.41,10.479,10.479,0,0,1-7.41-12.834,10.479,10.479,0,0,1,12.834-7.41A10.479,10.479,0,0,1-117.568-75.287Z" transform="translate(138.172 88.481)" fill="none" stroke="#000" stroke-linecap="round" stroke-linejoin="round" stroke-miterlimit="10" stroke-width="3"/>
          </g>
        </g>
      </g>
    </g>
  </g>
</svg>
