<svg xmlns="http://www.w3.org/2000/svg" width="129.063" height="87.903" viewBox="0 0 129.063 87.903">
  <g id="Group_1202135" data-name="Group 1202135" transform="translate(-787.781 -2540.836)">
    <g id="Rectangle_410589" data-name="Rectangle 410589" transform="translate(787.781 2575.623)" fill="#a1c6f2" stroke="#6f89a8" stroke-width="1">
      <rect width="129.063" height="43.021" rx="8" stroke="none"/>
      <rect x="0.5" y="0.5" width="128.063" height="42.021" rx="7.5" fill="none"/>
    </g>
    <g id="fungi_7196673" transform="translate(795.432 2501.983)">
      <path id="Path_1282763" data-name="Path 1282763" d="M108.78,163.553H102.6c-.541,23,.874,34.381,6.346,52.99l.872,2.966,5.932-1.744-.872-2.966C109.541,196.666,108.235,186.13,108.78,163.553Z" transform="translate(-76.113 -99.119)" fill="#f1cc6e"/>
      <path id="Path_1282764" data-name="Path 1282764" d="M353.294,132.487c.191,23.809-1.845,42.657-6.186,57.419l-.872,2.966,5.932,1.744.872-2.966c4.509-15.334,6.627-34.754,6.437-59.163Z" transform="translate(-271.424 -74.226)" fill="#f1cc6e"/>
      <rect id="Rectangle_412918" data-name="Rectangle 412918" width="6.136" height="24.547" transform="translate(54.106 88.936)" fill="#f1cc6e"/>
      <path id="Path_1282765" data-name="Path 1282765" d="M47.488,89.139H10.463A2.963,2.963,0,0,1,7.5,86.176h0A15.445,15.445,0,0,1,22.945,70.731H35.007A15.445,15.445,0,0,1,50.451,86.176h0A2.963,2.963,0,0,1,47.488,89.139Z" transform="translate(0 -24.742)" fill="#e27976"/>
      <path id="Path_1282766" data-name="Path 1282766" d="M13.426,86.177h0A15.445,15.445,0,0,1,28.871,70.732H22.945A15.445,15.445,0,0,0,7.5,86.177h0a2.963,2.963,0,0,0,2.963,2.963h5.926A2.963,2.963,0,0,1,13.426,86.177Z" transform="translate(0 -24.743)" fill="#df5656"/>
      <circle id="Ellipse_12774" data-name="Ellipse 12774" cx="3.068" cy="3.068" r="3.068" transform="translate(26.495 45.989)" fill="#f1cc6e"/>
      <circle id="Ellipse_12775" data-name="Ellipse 12775" cx="3.068" cy="3.068" r="3.068" transform="translate(17.291 58.261)" fill="#f1cc6e"/>
      <circle id="Ellipse_12776" data-name="Ellipse 12776" cx="3.128" cy="3.128" r="3.128" transform="translate(35.579 55.074)" fill="#f1cc6e"/>
      <path id="Path_1282767" data-name="Path 1282767" d="M189.393,212.631H152.368a2.963,2.963,0,0,1-2.963-2.963h0a15.445,15.445,0,0,1,15.445-15.445h12.062a15.445,15.445,0,0,1,15.445,15.445h0A2.963,2.963,0,0,1,189.393,212.631Z" transform="translate(-113.706 -123.694)" fill="#e27976"/>
      <path id="Path_1282768" data-name="Path 1282768" d="M155.331,209.667h0a15.445,15.445,0,0,1,15.445-15.445H164.85A15.445,15.445,0,0,0,149.4,209.667h0a2.963,2.963,0,0,0,2.963,2.963h5.926A2.963,2.963,0,0,1,155.331,209.667Z" transform="translate(-113.706 -123.694)" fill="#df5656"/>
      <circle id="Ellipse_12777" data-name="Ellipse 12777" cx="3.068" cy="3.068" r="3.068" transform="translate(54.106 70.545)" fill="#f1cc6e"/>
      <circle id="Ellipse_12778" data-name="Ellipse 12778" cx="3.068" cy="3.068" r="3.068" transform="translate(63.31 79.736)" fill="#f1cc6e"/>
      <circle id="Ellipse_12779" data-name="Ellipse 12779" cx="3.068" cy="3.068" r="3.068" transform="translate(44.903 82.804)" fill="#f1cc6e"/>
      <path id="Path_1282769" data-name="Path 1282769" d="M328.343,58.262H291.318a2.963,2.963,0,0,1-2.963-2.963h0A15.445,15.445,0,0,1,303.8,39.854h12.062A15.445,15.445,0,0,1,331.306,55.3h0A2.963,2.963,0,0,1,328.343,58.262Z" transform="translate(-225.045 -0.001)" fill="#e27976"/>
      <path id="Path_1282770" data-name="Path 1282770" d="M294.281,55.3h0a15.445,15.445,0,0,1,15.445-15.445H303.8A15.445,15.445,0,0,0,288.355,55.3h0a2.963,2.963,0,0,0,2.963,2.963h5.926A2.963,2.963,0,0,1,294.281,55.3Z" transform="translate(-225.045)" fill="#df5656"/>
      <circle id="Ellipse_12780" data-name="Ellipse 12780" cx="3.058" cy="3.058" r="3.058" transform="translate(72.316 52.125)" fill="#f1cc6e"/>
      <circle id="Ellipse_12781" data-name="Ellipse 12781" cx="3.058" cy="3.058" r="3.058" transform="translate(81.727 39.863)" fill="#f1cc6e"/>
      <circle id="Ellipse_12782" data-name="Ellipse 12782" cx="3.058" cy="3.058" r="3.058" transform="translate(90.931 49.066)" fill="#f1cc6e"/>
      <path id="Path_1282771" data-name="Path 1282771" d="M110.158,299.986c-3.374-11.605-5.148-20.445-5.845-31.254" transform="translate(-77.575 -183.397)" fill="none" stroke="#000" stroke-linecap="round" stroke-linejoin="round" stroke-miterlimit="10" stroke-width="2"/>
      <path id="Path_1282772" data-name="Path 1282772" d="M102.566,178c-.115-4.342-.095-9.079.032-14.45h6.185c-.515,21.312.62,31.892,5.233,48.262" transform="translate(-76.114 -99.117)" fill="none" stroke="#000" stroke-linecap="round" stroke-linejoin="round" stroke-miterlimit="10" stroke-width="2"/>
      <path id="Path_1282773" data-name="Path 1282773" d="M354.756,186.955c3.777-14.3,5.543-32.218,5.365-54.47H366.3c.063,8.166-.132,15.771-.587,22.855" transform="translate(-278.251 -74.225)" fill="none" stroke="#000" stroke-linecap="round" stroke-linejoin="round" stroke-miterlimit="10" stroke-width="2"/>
      <path id="Path_1282774" data-name="Path 1282774" d="M386.74,279.895a158.667,158.667,0,0,1-5.124,29.093" transform="translate(-299.773 -192.342)" fill="none" stroke="#000" stroke-linecap="round" stroke-linejoin="round" stroke-miterlimit="10" stroke-width="2"/>
      <path id="Path_1282775" data-name="Path 1282775" d="M242.04,305.387V286.854h6.135v18.533" transform="translate(-187.933 -197.918)" fill="none" stroke="#000" stroke-linecap="round" stroke-linejoin="round" stroke-miterlimit="10" stroke-width="2"/>
      <g id="Group_1204237" data-name="Group 1204237" transform="translate(20.359 107.348)">
        <path id="Path_1282776" data-name="Path 1282776" d="M145.842,397.917H72.211l15.866-11.9a35.244,35.244,0,0,1,20.949-6.508h0a35.244,35.244,0,0,1,20.949,6.508Z" transform="translate(-72.211 -379.509)" fill="#ae7b84"/>
      </g>
      <path id="Path_1282777" data-name="Path 1282777" d="M111.99,379.62q-1.47-.111-2.963-.112h0a35.245,35.245,0,0,0-20.949,6.508l-15.866,11.9h5.926L94,386.017A34.469,34.469,0,0,1,111.99,379.62Z" transform="translate(-51.853 -272.161)" fill="#925660"/>
      <g id="Group_1204238" data-name="Group 1204238" transform="translate(20.36 107.348)">
        <path id="Path_1282778" data-name="Path 1282778" d="M112.257,397.919h33.587l-15.866-11.9a31.678,31.678,0,0,0-9.61-4.818,38.356,38.356,0,0,0-11.338-1.691,35.234,35.234,0,0,0-20.949,6.509l-15.866,11.9H105.8" transform="translate(-72.215 -379.511)" fill="none" stroke="#000" stroke-linecap="round" stroke-linejoin="round" stroke-miterlimit="10" stroke-width="2"/>
      </g>
      <path id="Path_1282779" data-name="Path 1282779" d="M189.393,212.631H152.368a2.963,2.963,0,0,1-2.963-2.963h0a15.445,15.445,0,0,1,15.445-15.445h12.062a15.445,15.445,0,0,1,15.445,15.445h0A2.963,2.963,0,0,1,189.393,212.631Z" transform="translate(-113.706 -123.694)" fill="none" stroke="#000" stroke-linecap="round" stroke-linejoin="round" stroke-miterlimit="10" stroke-width="2"/>
      <path id="Path_1282780" data-name="Path 1282780" d="M328.343,58.262H291.318a2.963,2.963,0,0,1-2.963-2.963h0A15.445,15.445,0,0,1,303.8,39.854h12.062A15.445,15.445,0,0,1,331.306,55.3h0A2.963,2.963,0,0,1,328.343,58.262Z" transform="translate(-225.045 -0.001)" fill="none" stroke="#000" stroke-linecap="round" stroke-linejoin="round" stroke-miterlimit="10" stroke-width="2"/>
      <path id="Path_1282781" data-name="Path 1282781" d="M47.488,89.139H10.463A2.963,2.963,0,0,1,7.5,86.176h0A15.445,15.445,0,0,1,22.945,70.731H35.007A15.445,15.445,0,0,1,50.451,86.176h0A2.963,2.963,0,0,1,47.488,89.139Z" transform="translate(0 -24.742)" fill="none" stroke="#000" stroke-linecap="round" stroke-linejoin="round" stroke-miterlimit="10" stroke-width="2"/>
      <circle id="Ellipse_12783" data-name="Ellipse 12783" cx="3.068" cy="3.068" r="3.068" transform="translate(26.495 45.989)" fill="none" stroke="#000" stroke-linecap="round" stroke-linejoin="round" stroke-miterlimit="10" stroke-width="2"/>
      <circle id="Ellipse_12784" data-name="Ellipse 12784" cx="3.068" cy="3.068" r="3.068" transform="translate(54.106 70.545)" fill="none" stroke="#000" stroke-linecap="round" stroke-linejoin="round" stroke-miterlimit="10" stroke-width="2"/>
      <circle id="Ellipse_12785" data-name="Ellipse 12785" cx="3.068" cy="3.068" r="3.068" transform="translate(63.31 79.736)" fill="none" stroke="#000" stroke-linecap="round" stroke-linejoin="round" stroke-miterlimit="10" stroke-width="2"/>
      <circle id="Ellipse_12786" data-name="Ellipse 12786" cx="3.068" cy="3.068" r="3.068" transform="translate(44.903 82.804)" fill="none" stroke="#000" stroke-linecap="round" stroke-linejoin="round" stroke-miterlimit="10" stroke-width="2"/>
      <circle id="Ellipse_12787" data-name="Ellipse 12787" cx="3.068" cy="3.068" r="3.068" transform="translate(17.291 58.261)" fill="none" stroke="#000" stroke-linecap="round" stroke-linejoin="round" stroke-miterlimit="10" stroke-width="2"/>
      <circle id="Ellipse_12788" data-name="Ellipse 12788" cx="3.058" cy="3.058" r="3.058" transform="translate(72.316 52.125)" fill="none" stroke="#000" stroke-linecap="round" stroke-linejoin="round" stroke-miterlimit="10" stroke-width="2"/>
      <circle id="Ellipse_12789" data-name="Ellipse 12789" cx="3.058" cy="3.058" r="3.058" transform="translate(81.727 39.863)" fill="none" stroke="#000" stroke-linecap="round" stroke-linejoin="round" stroke-miterlimit="10" stroke-width="2"/>
      <circle id="Ellipse_12790" data-name="Ellipse 12790" cx="3.058" cy="3.058" r="3.058" transform="translate(90.931 49.066)" fill="none" stroke="#000" stroke-linecap="round" stroke-linejoin="round" stroke-miterlimit="10" stroke-width="2"/>
      <circle id="Ellipse_12791" data-name="Ellipse 12791" cx="3.128" cy="3.128" r="3.128" transform="translate(35.579 55.074)" fill="none" stroke="#000" stroke-linecap="round" stroke-linejoin="round" stroke-miterlimit="10" stroke-width="2"/>
    </g>
  </g>
</svg>
