<svg xmlns="http://www.w3.org/2000/svg" width="129.063" height="79.787" viewBox="0 0 129.063 79.787">
  <g id="Group_1202133" data-name="Group 1202133" transform="translate(-787.781 -2549.319)">
    <g id="Rectangle_410589" data-name="Rectangle 410589" transform="translate(787.781 2575.623)" fill="#a1c6f2" stroke="#6f89a8" stroke-width="1">
      <rect width="129.063" height="43.021" rx="8" stroke="none"/>
      <rect x="0.5" y="0.5" width="128.063" height="42.021" rx="7.5" fill="none"/>
    </g>
    <g id="Layer_3" data-name="Layer 3" transform="translate(813.081 2549.319)">
      <path id="Path_1282743" data-name="Path 1282743" d="M60.463,9.449a1.09,1.09,0,0,0-.772-.773A17.4,17.4,0,0,0,42.949,13.16a17.152,17.152,0,0,0-3.34,4.705,1.091,1.091,0,0,0,.021.988,16.885,16.885,0,0,1,1.985,7.6c.012.444,0,.852-.023,1.247a1.091,1.091,0,0,0,1.088,1.167H52.2a1.09,1.09,0,0,0,.564-.157,17.006,17.006,0,0,0,3.218-2.531A17.391,17.391,0,0,0,60.463,9.449Z" transform="translate(-14.884 -3.048)" fill="#4db6ac"/>
      <path id="Path_1282744" data-name="Path 1282744" d="M53.039,26.438l-3.054-.818,2.468-2.468a1.091,1.091,0,1,0-1.543-1.543l-2.468,2.468-.817-3.054a1.091,1.091,0,1,0-2.107.564l1.144,4.274-5.88,5.875a1.091,1.091,0,1,0,1.541,1.544L48.2,27.4l4.27,1.143a1.091,1.091,0,1,0,.561-2.107Z" transform="translate(-15.245 -7.614)" fill="#00695c"/>
      <path id="Path_1282745" data-name="Path 1282745" d="M44.309,19.689a21.712,21.712,0,0,0-1.753-2.775,17.12,17.12,0,0,0-2.945,4.275,1.091,1.091,0,0,0,.021.988,16.885,16.885,0,0,1,1.985,7.6c.012.444,0,.852-.023,1.247A1.091,1.091,0,0,0,42.68,32.2h4.063a4.185,4.185,0,0,0,.135-.795c.04-.565.051-1.139.035-1.733A22.181,22.181,0,0,0,44.309,19.689Z" transform="translate(-14.885 -6.371)" fill="#26a69a"/>
      <path id="Path_1282746" data-name="Path 1282746" d="M46.594,29.381,40.781,35.19a1.091,1.091,0,0,0,1.541,1.544l4.766-4.762a22.3,22.3,0,0,0-.495-2.591Z" transform="translate(-15.245 -11.068)" fill="#004d40"/>
      <path id="Path_1282747" data-name="Path 1282747" d="M65.213,108.709H25.684A10.946,10.946,0,0,0,14.75,119.643a1.091,1.091,0,0,0,1.091,1.091H75.056a1.091,1.091,0,0,0,1.091-1.091A10.946,10.946,0,0,0,65.213,108.709Z" transform="translate(-5.561 -40.949)" fill="#495766"/>
      <path id="Path_1282748" data-name="Path 1282748" d="M105.419,10.712l-9.5-9.5a4.13,4.13,0,0,0-5.84,5.84l.325.325L71.634,23.917a1.091,1.091,0,0,0,.721,1.909H90.3a1.091,1.091,0,0,0,.818-.37l8.139-9.23.325.325a4.129,4.129,0,1,0,5.84-5.84Z" transform="translate(-26.848 0)" fill="#495766"/>
      <path id="Path_1282749" data-name="Path 1282749" d="M31,26.18A19.107,19.107,0,0,0,6.945,8.138a1.092,1.092,0,0,0-.772.773,19.2,19.2,0,0,0,4.945,18.461A14.462,14.462,0,0,0,12.25,28.4a1.089,1.089,0,0,0,.686.244H29.883a1.091,1.091,0,0,0,1.088-1.016c.034-.464.041-.941.027-1.449Z" transform="translate(-2.088 -2.822)" fill="#4db6ac"/>
      <path id="Path_1282750" data-name="Path 1282750" d="M31.418,31.854,26.7,27.133l1.287-4.808a1.091,1.091,0,1,0-2.107-.564l-.963,3.6-2.889-2.889a1.091,1.091,0,1,0-1.543,1.543L23.368,26.9l-3.588.961a1.091,1.091,0,1,0,.561,2.107l4.81-1.288,4.72,4.72a1.091,1.091,0,0,0,1.543-1.543Z" transform="translate(-7.139 -7.892)" fill="#00695c"/>
      <path id="Path_1282751" data-name="Path 1282751" d="M75.577,37.93H4.207A4.212,4.212,0,0,0,0,42.137V56.411A27.847,27.847,0,0,0,27.812,84.23h24.16A27.847,27.847,0,0,0,79.784,56.411V42.137A4.212,4.212,0,0,0,75.577,37.93Z" transform="translate(-0.005 -14.288)" fill="#fec13b"/>
      <path id="Path_1282752" data-name="Path 1282752" d="M28.518,108.709a10.864,10.864,0,0,0-6.244,1.971A30.723,30.723,0,0,0,36.2,114.008h24.16a30.723,30.723,0,0,0,13.929-3.328,10.864,10.864,0,0,0-6.244-1.971Z" transform="translate(-8.395 -40.949)" fill="#303c47"/>
      <path id="Path_1282753" data-name="Path 1282753" d="M75.481,32.93l-3.848,3.391a1.091,1.091,0,0,0,.721,1.909H90.3a1.091,1.091,0,0,0,.818-.37l4.347-4.931Z" transform="translate(-26.848 -12.404)" fill="#303c47"/>
      <path id="Path_1282754" data-name="Path 1282754" d="M75.577,37.93H4.207A4.212,4.212,0,0,0,0,42.137V56.411A27.847,27.847,0,0,0,27.812,84.23h24.16A27.847,27.847,0,0,0,79.784,56.411V42.137A4.212,4.212,0,0,0,75.577,37.93Z" transform="translate(-0.005 -14.288)" fill="#fec13b"/>
      <path id="Path_1282755" data-name="Path 1282755" d="M5.506,56.411V42.137A3.954,3.954,0,0,1,9.132,37.93H4.207A4.212,4.212,0,0,0,0,42.137V56.411A27.847,27.847,0,0,0,27.812,84.23H29.48C16.26,84.23,5.506,71.751,5.506,56.411Z" transform="translate(-0.005 -14.288)" fill="#ffa000"/>
      <path id="Path_1282756" data-name="Path 1282756" d="M105.978,37.93h-4.924a3.954,3.954,0,0,1,3.626,4.207V56.411c0,15.339-10.755,27.819-23.974,27.819h1.667a27.847,27.847,0,0,0,27.812-27.819V42.137A4.212,4.212,0,0,0,105.978,37.93Z" transform="translate(-30.405 -14.288)" fill="#ffa000"/>
      <path id="Path_1282757" data-name="Path 1282757" d="M55.119,51.494a14.7,14.7,0,1,0,14.7,14.7,14.7,14.7,0,0,0-14.7-14.7Z" transform="translate(-15.231 -19.397)" fill="#4db6ac"/>
      <path id="Path_1282758" data-name="Path 1282758" d="M66.506,66.1H61.987V61.579A1.091,1.091,0,0,0,60.9,60.488H56.118a1.091,1.091,0,0,0-1.091,1.091V66.1H50.508a1.091,1.091,0,0,0-1.091,1.091v4.776a1.091,1.091,0,0,0,1.091,1.091h4.519v4.519a1.091,1.091,0,0,0,1.091,1.091H60.9a1.091,1.091,0,0,0,1.091-1.091V73.055h4.519A1.091,1.091,0,0,0,67.6,71.964V67.189A1.091,1.091,0,0,0,66.506,66.1Z" transform="translate(-18.619 -22.785)" fill="#ffecb3"/>
      <path id="Path_1282759" data-name="Path 1282759" d="M75.565,23.642h-9.7L72.4,16.225l.325.325a4.129,4.129,0,1,0,5.84-5.84L75.1,7.243a1.091,1.091,0,0,0-1.543,1.543l3.466,3.466a1.95,1.95,0,0,1,0,2.754,2,2,0,0,1-2.755,0l-1.146-1.146a1.1,1.1,0,0,0-1.589.05l-8.576,9.731H48.389l17.47-15.4a1.1,1.1,0,0,0,.05-1.589L64.764,5.506a1.948,1.948,0,0,1,0-2.754,2,2,0,0,1,2.754,0l3.063,3.063a1.091,1.091,0,0,0,1.543-1.543L69.059,1.209a4.129,4.129,0,1,0-5.839,5.84l.325.325L45.09,23.642H40.551c.181-.166.363-.332.537-.507A17.391,17.391,0,0,0,45.571,6.4a1.09,1.09,0,0,0-.772-.772,17.4,17.4,0,0,0-16.741,4.484,17.189,17.189,0,0,0-2.395,3.021A19.058,19.058,0,0,0,4.849,5.316a1.092,1.092,0,0,0-.772.773,19.211,19.211,0,0,0,4.1,17.553H4.2A4.212,4.212,0,0,0-.012,27.85V42.124A27.858,27.858,0,0,0,17.7,68.037,10.947,10.947,0,0,0,9.182,78.7a1.091,1.091,0,0,0,1.091,1.091H26.094a1.091,1.091,0,1,0,0-2.182H11.431a8.766,8.766,0,0,1,8.685-7.661H59.647A8.766,8.766,0,0,1,68.33,77.6H39.88a1.091,1.091,0,0,0,0,2.182H69.488a1.091,1.091,0,0,0,1.091-1.091,10.947,10.947,0,0,0-8.523-10.659A27.858,27.858,0,0,0,79.772,42.124V27.85a4.212,4.212,0,0,0-4.207-4.207ZM29.6,11.656a15.209,15.209,0,0,1,14.015-4.07,15.2,15.2,0,0,1-4.07,14.01A14.907,14.907,0,0,1,37,23.642h-7.9l3.857-3.853,4.271,1.143a1.091,1.091,0,1,0,.561-2.107l-3.054-.818,2.47-2.47a1.091,1.091,0,0,0-1.543-1.543l-2.468,2.468-.817-3.054a1.091,1.091,0,1,0-2.107.564l1.144,4.274-2.71,2.71a19.1,19.1,0,0,0-1.773-5.672A14.974,14.974,0,0,1,29.6,11.656ZM10.564,23.008A17.017,17.017,0,0,1,6.032,7.271a16.927,16.927,0,0,1,20.69,16.14v.231H23.951l-4.4-4.4,1.287-4.808a1.091,1.091,0,1,0-2.107-.564l-.962,3.6-2.89-2.889a1.091,1.091,0,1,0-1.543,1.542L16.221,19l-3.587.961a1.091,1.091,0,1,0,.561,2.107l4.814-1.288,2.859,2.859h-9.63c-.214-.188-.437-.4-.674-.634ZM77.591,42.124A25.663,25.663,0,0,1,51.984,67.76H27.777A25.663,25.663,0,0,1,2.17,42.124V27.85A2.028,2.028,0,0,1,4.2,25.824h71.37a2.028,2.028,0,0,1,2.026,2.026Z" transform="translate(0 0)"/>
      <path id="Path_1282760" data-name="Path 1282760" d="M55.107,51.494a14.7,14.7,0,1,0,14.7,14.7,14.7,14.7,0,0,0-14.7-14.7Zm0,27.211A12.514,12.514,0,1,1,67.621,66.191,12.514,12.514,0,0,1,55.107,78.7Z" transform="translate(-15.227 -19.397)"/>
      <path id="Path_1282761" data-name="Path 1282761" d="M66.493,66.1H61.974V61.579a1.091,1.091,0,0,0-1.091-1.091H56.1a1.091,1.091,0,0,0-1.091,1.091V66.1H50.495A1.091,1.091,0,0,0,49.4,67.189v4.776a1.091,1.091,0,0,0,1.091,1.091h4.517v4.519A1.091,1.091,0,0,0,56.1,78.665h4.779a1.091,1.091,0,0,0,1.091-1.091V73.055h4.519a1.091,1.091,0,0,0,1.091-1.091V67.189A1.091,1.091,0,0,0,66.493,66.1ZM65.4,70.877H60.884a1.091,1.091,0,0,0-1.091,1.091v4.519h-2.6V71.964A1.091,1.091,0,0,0,56.1,70.874H51.583V68.279H56.1a1.091,1.091,0,0,0,1.091-1.091V62.67h2.6v4.519a1.091,1.091,0,0,0,1.091,1.091H65.4Z" transform="translate(-18.614 -22.785)"/>
      <path id="Path_1282762" data-name="Path 1282762" d="M52.842,126.682a1.091,1.091,0,1,0,0-2.182H49.949a1.091,1.091,0,0,0,0,2.182Z" transform="translate(-18.409 -46.897)"/>
    </g>
  </g>
</svg>
