<svg id="Group_1204190" data-name="Group 1204190" xmlns="http://www.w3.org/2000/svg" width="82.001" height="82.001" viewBox="0 0 82.001 82.001">
  <g id="Group_1187152" data-name="Group 1187152" transform="translate(0)">
    <g id="Group_1185946" data-name="Group 1185946" transform="translate(0)">
      <g id="Group_1184280" data-name="Group 1184280" transform="translate(0)">
        <g id="Group_1182168" data-name="Group 1182168" transform="translate(0)">
          <g id="Group_1178877" data-name="Group 1178877" transform="translate(0)">
            <g id="Group_1111311" data-name="Group 1111311" transform="translate(0)">
              <g id="Group_1098742" data-name="Group 1098742" transform="translate(0)">
                <g id="Rectangle_400898" data-name="Rectangle 400898" transform="translate(0)" fill="#fff" stroke="#7e6424" stroke-width="1" opacity="0.859">
                  <rect width="82.001" height="82.001" rx="41" stroke="none"/>
                  <rect x="0.5" y="0.5" width="81.001" height="81.001" rx="40.5" fill="none"/>
                </g>
                <g id="Rectangle_400907" data-name="Rectangle 400907" transform="translate(0)" fill="none" stroke="#7e6424" stroke-width="1">
                  <rect width="82.001" height="82.001" rx="41" stroke="none"/>
                  <rect x="0.5" y="0.5" width="81.001" height="81.001" rx="40.5" fill="none"/>
                </g>
              </g>
            </g>
          </g>
        </g>
      </g>
    </g>
  </g>
  <g id="compass_6253715" transform="translate(16.306 16.306)">
    <g id="Group_1204234" data-name="Group 1204234" transform="translate(0.797 0.797)">
      <g id="Group_1204220" data-name="Group 1204220" transform="translate(0 18.17)">
        <path id="Path_1282715" data-name="Path 1282715" d="M45.44,200.427v2.283a1.462,1.462,0,0,1-1.464,1.464,3.5,3.5,0,0,0-3.316,2.39l-.539.134a3.5,3.5,0,0,0-2.648,3.391v.458H33.491l-.636-1.91a2.149,2.149,0,0,0-.519-.838l-.376-.376a2.142,2.142,0,0,0-2.036-.564l-2.008.5-.168-.506a2.145,2.145,0,0,0-2.555-1.4l-1.26.315-.39-1.561a2.144,2.144,0,0,0-3.368-1.2l-2.615,1.961v-3.983l-1.341-4.024a1.105,1.105,0,0,0-2.1,0l-1.341,4.024v3.983h-1.5a2.145,2.145,0,0,0-1.517.628L8,207.36V191.428h2.508a1.636,1.636,0,0,1,1.157.479l.635.635a1.636,1.636,0,0,0,1.157.479H15.58a1.637,1.637,0,0,1,.732.172l2.5,1.249a1.637,1.637,0,0,0,.732.172h.726a1.636,1.636,0,0,0,1.587-1.239l.059-.234a1.635,1.635,0,0,1,2.1-1.155,1.618,1.618,0,0,0,.517.084,1.635,1.635,0,0,0,.842-.233l2.262-1.357a14.357,14.357,0,0,0,17.8,9.947Z" transform="translate(-8 -190.48)" fill="#f0d0b4"/>
      </g>
      <g id="Group_1204221" data-name="Group 1204221" transform="translate(0 12.746)">
        <path id="Path_1282716" data-name="Path 1282716" d="M27.636,141.425l-2.262,1.357a1.636,1.636,0,0,1-.842.233,1.618,1.618,0,0,1-.517-.084,1.635,1.635,0,0,0-2.1,1.155l-.059.234a1.636,1.636,0,0,1-1.587,1.239h-.726a1.637,1.637,0,0,1-.732-.172l-2.5-1.249a1.637,1.637,0,0,0-.732-.172H13.458a1.636,1.636,0,0,1-1.157-.479l-.635-.635a1.636,1.636,0,0,0-1.157-.479H8V136H27.206a14.507,14.507,0,0,0-.088,1.593A14.345,14.345,0,0,0,27.636,141.425Z" transform="translate(-8 -136)" fill="#b4dd7f"/>
      </g>
      <g id="Group_1204222" data-name="Group 1204222" transform="translate(29.474 20.913)">
        <path id="Path_1282717" data-name="Path 1282717" d="M320.729,218.02v17.324H304v-.458a3.5,3.5,0,0,1,2.648-3.391l.539-.134a3.5,3.5,0,0,1,3.316-2.39,1.462,1.462,0,0,0,1.464-1.464v-2.283A14.369,14.369,0,0,0,320.729,218.02Z" transform="translate(-304 -218.02)" fill="#b4dd7f"/>
      </g>
      <g id="Group_1204223" data-name="Group 1204223" transform="translate(9.559 30.271)">
        <path id="Path_1282718" data-name="Path 1282718" d="M119.3,318.056l.636,1.91H104V314.39l2.615-1.961a2.144,2.144,0,0,1,3.368,1.2l.39,1.561,1.26-.315a2.145,2.145,0,0,1,2.555,1.4l.168.506,2.008-.5a2.142,2.142,0,0,1,2.036.564l.376.376A2.149,2.149,0,0,1,119.3,318.056Z" transform="translate(-104 -312)" fill="#b4dd7f"/>
      </g>
      <g id="Group_1204224" data-name="Group 1204224" transform="translate(0 32.661)">
        <path id="Path_1282719" data-name="Path 1282719" d="M12.78,336v5.576H8V338.39l1.761-1.762A2.145,2.145,0,0,1,11.278,336Z" transform="translate(-8 -336)" fill="#b4dd7f"/>
      </g>
      <g id="Group_1204225" data-name="Group 1204225" transform="translate(4.78 28.678)">
        <path id="Path_1282720" data-name="Path 1282720" d="M60.78,305.559v4.78H56V296h4.78v9.559Z" transform="translate(-56 -296)" fill="#ff826e"/>
      </g>
      <g id="Group_1204226" data-name="Group 1204226" transform="translate(4.78 43.016)">
        <path id="Path_1282721" data-name="Path 1282721" d="M60.78,440v2.39a2.39,2.39,0,1,1-4.78,0V440Z" transform="translate(-56 -440)" fill="#ccd1d9"/>
      </g>
      <g id="Group_1204227" data-name="Group 1204227" transform="translate(4.78 23.898)">
        <path id="Path_1282722" data-name="Path 1282722" d="M59.438,248.756l1.341,4.024H56l1.341-4.024a1.105,1.105,0,0,1,2.1,0Z" transform="translate(-56 -248)" fill="#ccd1d9"/>
      </g>
      <g id="Group_1204228" data-name="Group 1204228" transform="translate(19.118)">
        <path id="Path_1282723" data-name="Path 1282723" d="M200.088,20.746A14.461,14.461,0,1,1,200,22.339,14.5,14.5,0,0,1,200.088,20.746Z" transform="translate(-200 -8)" fill="#ccd1d9"/>
      </g>
      <g id="Group_1204229" data-name="Group 1204229" transform="translate(33.457 3.186)">
        <path id="Path_1282724" data-name="Path 1282724" d="M344,40a11.152,11.152,0,1,1,0,22.3,1.591,1.591,0,0,0,1.593-1.593v-6.8a3.188,3.188,0,0,0,0-5.52v-6.8A1.593,1.593,0,0,0,344,40Z" transform="translate(-344 -40)" fill="#69d6f4"/>
      </g>
      <g id="Group_1204230" data-name="Group 1204230" transform="translate(22.305 3.186)">
        <path id="Path_1282725" data-name="Path 1282725" d="M243.152,40a1.591,1.591,0,0,0-1.593,1.593v6.8a3.188,3.188,0,0,0,0,5.52v6.8a1.593,1.593,0,0,0,1.593,1.593,11.152,11.152,0,0,1,0-22.3Z" transform="translate(-232 -40)" fill="#69d6f4"/>
      </g>
      <g id="Group_1204231" data-name="Group 1204231" transform="translate(31.864 17.099)">
        <path id="Path_1282726" data-name="Path 1282726" d="M331.186,179.72v6.8a1.593,1.593,0,0,1-3.186,0v-6.8a3.191,3.191,0,0,0,3.186,0Z" transform="translate(-328 -179.72)" fill="#ffeaa7"/>
      </g>
      <g id="Group_1204232" data-name="Group 1204232" transform="translate(31.864 3.186)">
        <path id="Path_1282727" data-name="Path 1282727" d="M331.186,41.593v6.8a3.191,3.191,0,0,0-3.186,0v-6.8a1.593,1.593,0,0,1,3.186,0Z" transform="translate(-328 -40)" fill="#ffeaa7"/>
      </g>
      <g id="Group_1204233" data-name="Group 1204233" transform="translate(30.271 11.152)">
        <path id="Path_1282728" data-name="Path 1282728" d="M316.78,125.947a3.188,3.188,0,1,1,1.593-2.76A3.175,3.175,0,0,1,316.78,125.947Z" transform="translate(-312 -120)" fill="#fcd770"/>
      </g>
    </g>
    <g id="Group_1204235" data-name="Group 1204235">
      <ellipse id="Ellipse_12773" data-name="Ellipse 12773" cx="1.187" cy="0.593" rx="1.187" ry="0.593" transform="translate(33.232 14.242)"/>
      <path id="Path_1282729" data-name="Path 1282729" d="M47.8,21.889a15.134,15.134,0,1,0-28.488-9.144H0V39.83H4.78V46.2a3.186,3.186,0,0,0,6.373,0V39.83H47.8ZM29.488,38.237H26.862l-.455-1.365a2.959,2.959,0,0,0-.711-1.15l-.376-.376a2.957,2.957,0,0,0-2.794-.774l-1.3.325a2.957,2.957,0,0,0-3.432-1.731l-.487.122-.2-.789a2.942,2.942,0,0,0-4.619-1.64l-1.34,1V29.345L9.77,25.2a1.9,1.9,0,0,0-3.608,0L4.78,29.345v3.316h-.7a2.923,2.923,0,0,0-2.08.862l-.4.4V20.712H3.305a.834.834,0,0,1,.594.246l.635.635a2.417,2.417,0,0,0,1.72.712H8.376a.844.844,0,0,1,.375.089l2.5,1.248a2.444,2.444,0,0,0,1.088.257h.726a2.429,2.429,0,0,0,2.36-1.843l.058-.233a.839.839,0,0,1,1.08-.593,2.429,2.429,0,0,0,2.021-.222l1.4-.84A15.139,15.139,0,0,0,37.44,29.932V31.2a.668.668,0,0,1-.667.667,4.286,4.286,0,0,0-3.906,2.513l-.142.035a4.285,4.285,0,0,0-3.237,3.824ZM6.373,30.271H9.559V43.016H6.373Zm.309-1.593L7.673,25.7a.309.309,0,0,1,.586,0l.992,2.975ZM46.176,14.339a11.9,11.9,0,0,0-2.932-7.066l1.128-1.128a13.487,13.487,0,0,1,3.4,8.194Zm-1.6,1.593a10.312,10.312,0,0,1-2.465,5.937l-1.1-1.1-1.127,1.126,1.1,1.1a10.332,10.332,0,0,1-4.4,2.231,2.388,2.388,0,0,0,.061-.532V18.319a3.979,3.979,0,0,0,0-6.368V5.576a2.388,2.388,0,0,0-.061-.532,10.334,10.334,0,0,1,4.4,2.231l-1.1,1.1L41.013,9.5l1.1-1.1a10.311,10.311,0,0,1,2.465,5.937H43.016v1.593h1.563Zm-22.247,0A11.9,11.9,0,0,0,25.264,23l-1.128,1.128a13.487,13.487,0,0,1-3.4-8.194Zm1.6-1.593A10.312,10.312,0,0,1,26.393,8.4l1.1,1.1,1.127-1.126-1.1-1.1a10.332,10.332,0,0,1,4.4-2.231,2.393,2.393,0,0,0-.06.532v6.375a3.979,3.979,0,0,0,0,6.368v6.375a2.388,2.388,0,0,0,.061.532A10.334,10.334,0,0,1,27.52,23l1.1-1.1-1.127-1.126-1.1,1.1a10.311,10.311,0,0,1-2.465-5.937h1.563V14.339H23.928ZM35.05,5.576v5.656a4,4,0,0,0-1.593,0V5.576a.8.8,0,0,1,1.593,0Zm-.8,19.915a.8.8,0,0,1-.8-.8V19.038a4,4,0,0,0,1.593,0v5.656A.8.8,0,0,1,34.254,25.491Zm0-7.966a2.39,2.39,0,1,1,2.39-2.39A2.393,2.393,0,0,1,34.254,17.525Zm-7.863,6.6a11.9,11.9,0,0,0,7.066,2.932v1.6a13.487,13.487,0,0,1-8.194-3.4ZM42.117,6.146A11.9,11.9,0,0,0,35.05,3.214v-1.6a13.487,13.487,0,0,1,8.194,3.4Zm-8.66-2.932a11.9,11.9,0,0,0-7.066,2.932L25.263,5.018a13.487,13.487,0,0,1,8.194-3.4ZM25.264,7.272a11.9,11.9,0,0,0-2.932,7.066h-1.6a13.487,13.487,0,0,1,3.4-8.194ZM35.05,28.653v-1.6a11.9,11.9,0,0,0,7.066-2.932l1.128,1.128A13.487,13.487,0,0,1,35.05,28.653Zm9.321-4.527L43.243,23a11.9,11.9,0,0,0,2.932-7.066h1.6A13.487,13.487,0,0,1,44.371,24.126ZM19.139,14.339q-.021.4-.021.8a15.128,15.128,0,0,0,.4,3.453L17.76,19.641a.839.839,0,0,1-.7.077,2.433,2.433,0,0,0-3.129,1.718l-.058.233a.838.838,0,0,1-.814.636h-.726a.844.844,0,0,1-.375-.089l-2.5-1.248a2.443,2.443,0,0,0-1.088-.257H6.254a.834.834,0,0,1-.594-.246l-.635-.635a2.417,2.417,0,0,0-1.72-.712H1.593v-4.78ZM1.593,38.237v-2.06l1.528-1.528a1.339,1.339,0,0,1,.953-.4h.7v3.983H1.593ZM7.966,47.8A1.6,1.6,0,0,1,6.373,46.2V44.61H9.559V46.2A1.6,1.6,0,0,1,7.966,47.8Zm3.186-13.94,2.3-1.722a1.348,1.348,0,0,1,2.117.752l.584,2.334,2.032-.508a1.354,1.354,0,0,1,1.606.882l.4,1.205,2.724-.681a1.355,1.355,0,0,1,1.281.355l.376.376a1.355,1.355,0,0,1,.326.527l.287.861H11.152Zm19.938,4.381a2.693,2.693,0,0,1,2.02-2.279l.963-.241.138-.415a2.7,2.7,0,0,1,2.56-1.845A2.263,2.263,0,0,0,39.033,31.2V29.5A15.2,15.2,0,0,0,46.2,24.414V38.237Z"/>
    </g>
  </g>
</svg>
