<svg xmlns="http://www.w3.org/2000/svg" width="129.063" height="93.83" viewBox="0 0 129.063 93.83">
  <g id="Group_1202122" data-name="Group 1202122" transform="translate(-788.103 -1982.203)">
    <g id="Rectangle_410589" data-name="Rectangle 410589" transform="translate(788.103 2007.607)" fill="#a1c6f1" stroke="#6f89a8" stroke-width="1">
      <rect width="129.063" height="43.021" rx="8" stroke="none"/>
      <rect x="0.5" y="0.5" width="128.063" height="42.021" rx="7.5" fill="none"/>
    </g>
    <g id="earth_13700022" transform="translate(799.149 1975.953)">
      <g id="Group_1204040" data-name="Group 1204040" transform="translate(9.123 31.453)">
        <circle id="Ellipse_12754" data-name="Ellipse 12754" cx="21.712" cy="21.712" r="21.712" transform="translate(0 0)" fill="#68b1de"/>
        <path id="Path_1282299" data-name="Path 1282299" d="M13.386,50.378A21.71,21.71,0,0,0,43.431,80.423,21.71,21.71,0,0,0,13.386,50.378Z" transform="translate(-9.858 -40.526)" fill="#97c9e8" fill-rule="evenodd"/>
        <path id="Path_1282300" data-name="Path 1282300" d="M13.386,50.378A21.71,21.71,0,0,0,43.431,80.423,21.71,21.71,0,0,0,13.386,50.378Z" transform="translate(-9.858 -40.526)" fill="#97c9e8" fill-rule="evenodd"/>
        <path id="Path_1282301" data-name="Path 1282301" d="M12.845,49.429l.317.147c.71.253,1.068,2.153,2.377,1.971.919-.128,1.394-.947,2.367-.592,1.369.5,1.955,2.261,2.824,3.3.719.86,1.032.607,1.863.607,3.55,0,1.977,6.984-.376,5.206-.388-.293-.545-1.157-.956-1.208-.919-.115-2.539,2.444-2.481,3.3.072,1.042,2.681,1.278,2.784,2.706.147,2.063-1.951,3.87-.721,6.024.392.686,1.309.669,1.914,1.081.745.506.544,1.709,1.27,2.094,1.684.891,3.814-.169,5.556.5.909.352,1.373,2.233,2.392,2.089,1.176-.165,1.587-2.174,2.861-2.269,1.164-.087,1.509,2.962,2.928,2.547,1.44-.422,1.218-3.372,2.938-3.864,1.078-.308,1.826.249,2.819.515a9.523,9.523,0,0,0,5.419-.146,21.711,21.711,0,0,1-36.1-24.012Zm39.89,6.126a21.768,21.768,0,0,1-1.6,14.288l-.454-.543c.01-2.132-.673-4.615-1.738-5.1-1.148-.524-1.866-.074-2.83,0a3.6,3.6,0,0,1-1.2.1c-.832-.24-1.233-1.417-1.947-1.885-.657-.432-.953.2-1.591.142-.476-.045-3.292,1.644-4.841-.93-.4-.667-2-3.353-1.065-4.2.982-.9,4.381,1.9,4.8,1.778,1.058-.307,1.069-1.811,2.062-2.223.525-.218,1.035.2,1.562.239.84.06,1.642-.312,2.492-.239.488.042.927.477,1.409.445.693-.046,1.526-.919,2.136-1.23a8.2,8.2,0,0,1,2.521-.545ZM19.342,42.48a21.712,21.712,0,0,1,32.305,9.662l-.088.04c-1.149,0-3.066.339-4.133-.243-.829-.452-.82-1.727-1.492-2.376-.631-.608-1.973-.613-2.66-1.118-.422-.311-.7-.9-1.222-1.066-.807-.255-1.569.755-2.408.7-.969-.064-1.358-1.021-2.148-1.412-.717-.354-1.459.086-2.153-.2-1.093-.453-.975-2.31-1.98-2.6-.965-.28-1.707,1.162-2.663.905s-.509-1.86-1.807-1.9c-2.392-.078-4.582,1.9-7.005,1.655-.943-.095-1.612-1.576-2.39-1.715,0,0-.061-.119-.156-.327Z" transform="translate(-9.858 -38.706)" fill="#a4e242" fill-rule="evenodd"/>
        <path id="Path_1282302" data-name="Path 1282302" d="M9.859,63.547V56.507l3.3-3.8c.71.253,1.068,2.153,2.377,1.971.919-.128,1.394-.947,2.367-.592,1.369.5,1.955,2.261,2.824,3.3.719.86,1.032.607,1.863.607,3.55,0,1.977,6.984-.376,5.206-.388-.293-.545-1.157-.956-1.208-.919-.115-2.539,2.444-2.481,3.3.072,1.042,2.681,1.278,2.784,2.706.147,2.063-1.951,3.87-.721,6.024.392.686,1.309.669,1.914,1.081.745.506.544,1.709,1.27,2.094,1.684.891,3.814-.169,5.556.5.909.352,1.373,2.233,2.392,2.089,1.176-.165,1.587-2.173,2.861-2.269,1.164-.087,1.509,2.962,2.928,2.547,1.44-.422,1.218-3.372,2.938-3.864,1.078-.308,1.826.249,2.819.515a9.531,9.531,0,0,0,2.226.321,21.644,21.644,0,0,1-2.315,4.695l-5.347,3.8-6.514-.276A21.722,21.722,0,0,1,9.859,63.547ZM46.8,67.223a5.68,5.68,0,0,1-.687.1,3.6,3.6,0,0,1-1.2.1c-.832-.24-1.233-1.417-1.947-1.885-.657-.432-.953.2-1.591.142-.476-.045-3.292,1.644-4.841-.93-.4-.667-2-3.353-1.065-4.2.982-.9,4.381,1.9,4.8,1.778,1.058-.307,1.069-1.811,2.062-2.223.525-.218,1.035.2,1.562.239a3.629,3.629,0,0,0,.841-.054A21.551,21.551,0,0,1,46.8,67.223Z" transform="translate(-9.858 -41.834)" fill="#baeb6c" fill-rule="evenodd"/>
      </g>
      <path id="Path_1282303" data-name="Path 1282303" d="M53.484,9.486a43.68,43.68,0,1,1,0,87.359,1.618,1.618,0,0,0,0,3.235,46.915,46.915,0,1,0,0-93.83,1.618,1.618,0,0,0,0,3.236ZM30.835,25.756a27.409,27.409,0,1,1,0,54.819,1.618,1.618,0,0,0,0,3.236,30.645,30.645,0,1,0,0-61.291,1.618,1.618,0,0,0,0,3.236Zm0,3.143A24.266,24.266,0,1,0,55.1,53.165,24.278,24.278,0,0,0,30.835,28.9ZM11.688,44.461A21.03,21.03,0,0,0,44.879,68.816a11.568,11.568,0,0,1-2-.351c-.457-.122-.87-.294-1.279-.439a1.232,1.232,0,0,0-.8-.106c-.194.056-.226.28-.315.463-.183.376-.328.791-.488,1.174a3.759,3.759,0,0,1-2.251,2.391,2.74,2.74,0,0,1-3.167-1.433c-.137-.207-.323-.506-.485-.769-.127.162-.249.328-.375.486a3.572,3.572,0,0,1-2.24,1.475,2.52,2.52,0,0,1-2.18-.775,7.447,7.447,0,0,1-.837-1.042c-.11-.156-.314-.406-.382-.488a7.816,7.816,0,0,0-2.775,0,5.938,5.938,0,0,1-3.1-.572,2.667,2.667,0,0,1-1.187-1.3c-.128-.28-.325-.857-.382-1.027-.29-.161-.654-.214-.961-.352a3,3,0,0,1-1.44-1.255,4.7,4.7,0,0,1-.4-3.793c.179-.655.464-1.3.7-1.955a3.414,3.414,0,0,0,.252-1.078,4.037,4.037,0,0,0-.342-.242c-.4-.239-.842-.45-1.191-.676a2.7,2.7,0,0,1-1.375-2.055,3.545,3.545,0,0,1,.279-1.458,8.683,8.683,0,0,1,1.8-2.73,2.983,2.983,0,0,1,2.323-.968,2.073,2.073,0,0,1,1.433.89c.036.048.078.113.122.186a2.368,2.368,0,0,0,.148-.485,2.571,2.571,0,0,0-.047-1.149.479.479,0,0,0-.468-.389,5.227,5.227,0,0,1-1.715-.112,3.28,3.28,0,0,1-1.469-1.1c-.486-.582-.9-1.36-1.378-2.068a2.223,2.223,0,0,0-.81-.865l-.488.248a3.988,3.988,0,0,1-1.274.422,2.849,2.849,0,0,1-2.648-1.053ZM50.7,46.233c-.547.033-1.146.073-1.718.055A5.413,5.413,0,0,1,46.6,45.74a3.349,3.349,0,0,1-1.416-1.628c-.109-.237-.2-.489-.305-.735A1.048,1.048,0,0,0,44.695,43a.818.818,0,0,0-.314-.121c-.221-.073-.454-.133-.682-.2a5.131,5.131,0,0,1-1.614-.707,6.78,6.78,0,0,1-.747-.719c-.195.1-.458.237-.63.317a3.187,3.187,0,0,1-1.558.33,3.242,3.242,0,0,1-1.91-.8,6.269,6.269,0,0,0-.906-.822l-.874.046a3.215,3.215,0,0,1-1.309-.231,3.462,3.462,0,0,1-1.772-1.9l-.209-.463c-.216.141-.467.3-.642.391a2.707,2.707,0,0,1-2.019.272,2.369,2.369,0,0,1-1.312-.885,3.613,3.613,0,0,1-.465-.862l-.069-.176a9.085,9.085,0,0,0-2.668.809,9.537,9.537,0,0,1-4.42.9,3.6,3.6,0,0,1-2.1-1.141l-.514-.513a21.178,21.178,0,0,0-4.524,4.813c.033.045.067.091.1.138.139.2.4.57.542.761.11-.049.207-.12.307-.173a5.749,5.749,0,0,1,.57-.27,2.881,2.881,0,0,1,2.18-.033,4.772,4.772,0,0,1,2.121,1.661c.558.728.98,1.631,1.511,2.267.021.025.046.053.07.078.166-.011.426-.025.631-.025a3.509,3.509,0,0,1,3.556,2.658,6.208,6.208,0,0,1-.172,3.856,3.756,3.756,0,0,1-2.2,2.334,2.715,2.715,0,0,1-2.556-.509,2.374,2.374,0,0,1-.248-.218l-.487.742c.268.153.6.342.825.483a3.366,3.366,0,0,1,1.817,2.59,7.443,7.443,0,0,1-.673,3.194c-.29.75-.742,1.483-.34,2.3.114.044.394.152.557.21a4.371,4.371,0,0,1,1,.482,2.987,2.987,0,0,1,1.058,1.316c.1.238.249.66.319.869a5.744,5.744,0,0,0,2.411.028,7.01,7.01,0,0,1,3.007.326A3.527,3.527,0,0,1,30.8,67.6c.114.148.273.36.417.552l.506-.615a3.456,3.456,0,0,1,2.4-1.411,2.64,2.64,0,0,1,2.361,1.3c.148.211.362.547.549.848.144-.343.278-.708.433-1.055a3.949,3.949,0,0,1,2.453-2.409,4.085,4.085,0,0,1,2.413.05c.45.135.888.345,1.39.479a8.312,8.312,0,0,0,4.253.013q.571-.8,1.067-1.655a8.663,8.663,0,0,0-.243-3.9,5.053,5.053,0,0,0-.341-.893,2.975,2.975,0,0,0-.224-.339.517.517,0,0,0-.205.059c-.149.05-.3.113-.439.177a5.647,5.647,0,0,1-1.764.542,5.408,5.408,0,0,1-1.819.046,3.865,3.865,0,0,1-1.442-.787c-.233-.2-.434-.429-.682-.641a3.38,3.38,0,0,1-1.2.2,6.171,6.171,0,0,1-6.051-2.9,12.688,12.688,0,0,1-1.59-3.763,2.6,2.6,0,0,1,3.636-3.042,18.22,18.22,0,0,1,2.947,1.484l.388-.64a3.209,3.209,0,0,1,1.43-1.214,2.571,2.571,0,0,1,1.664-.1,4.48,4.48,0,0,0,.7.228,4.829,4.829,0,0,0,1.164-.158,5.691,5.691,0,0,1,1.459-.091,5.233,5.233,0,0,1,1.253.4c.141-.087.36-.226.5-.326a8.619,8.619,0,0,1,1.076-.717,5.707,5.707,0,0,1,1.637-.506c-.062-.195-.127-.389-.193-.58Zm22.731-1.156a7.886,7.886,0,1,0,7.886,7.886,7.89,7.89,0,0,0-7.886-7.886Zm14.195,6.471H84.994a1.618,1.618,0,1,0-.04,3.236h2.667a.661.661,0,0,1,.661.661v.388a.661.661,0,0,1-.661.661H84.994a1.531,1.531,0,0,0-1.657,1.618,1.618,1.618,0,0,0,1.618,1.618h2.667a3.9,3.9,0,0,0,3.9-3.9v-.388a3.9,3.9,0,0,0-.735-2.278,3.9,3.9,0,0,0,.735-2.279V50.5a3.9,3.9,0,0,0-3.9-3.9H84.994a1.618,1.618,0,1,0-.04,3.236h2.667a.661.661,0,0,1,.661.661v.388a.661.661,0,0,1-.661.661ZM73.426,48.312a4.65,4.65,0,1,1-4.65,4.65A4.652,4.652,0,0,1,73.426,48.312ZM51.619,49.931a2.912,2.912,0,0,0-.9.269c-.342.175-.751.548-1.169.82a3.677,3.677,0,0,1-1.689.637,2.682,2.682,0,0,1-1.107-.174c-.2-.075-.577-.251-.676-.3a4.967,4.967,0,0,0-1.072.152,5.844,5.844,0,0,1-1.434.1,5.193,5.193,0,0,1-.94-.215l-.407.679a3.214,3.214,0,0,1-1.869,1.545,1.926,1.926,0,0,1-1.286-.1c-.432-.179-1.311-.752-2.233-1.267-.092-.051-.2-.1-.311-.157A13.319,13.319,0,0,0,37.4,53.59a2.849,2.849,0,0,0,2.821,1.361c.245-.011.447-.019.6-.019a3.069,3.069,0,0,1,2.561.116,6.927,6.927,0,0,1,.994.828,1.741,1.741,0,0,0,.422.364c.169-.031.575-.1.785-.12a1.93,1.93,0,0,0,.577-.221,9.062,9.062,0,0,1,.946-.374,3.4,3.4,0,0,1,2.524.113A4.014,4.014,0,0,1,51.4,57.572a21.2,21.2,0,0,0,.216-7.641ZM49.28,43.059a21.033,21.033,0,0,0-28.532-8.348l.273.272a6.673,6.673,0,0,0,2.785-.7A10.943,10.943,0,0,1,28.1,33.24a2.486,2.486,0,0,1,2.06,1.044,3.989,3.989,0,0,1,.361.653c.207-.133.433-.273.6-.356a2.7,2.7,0,0,1,2.043-.239,2.765,2.765,0,0,1,1.653,1.392c.182.325.33.71.495,1.083.034.078.1.193.141.273l.582-.034a3.35,3.35,0,0,1,1.706.312,4.359,4.359,0,0,1,1.048.757c.137.128.269.262.4.389.043.04.07.1.116.138a12.767,12.767,0,0,1,1.155-.556,2.693,2.693,0,0,1,1.8-.077,2.979,2.979,0,0,1,1.216.775A5.4,5.4,0,0,0,44,39.37a4.528,4.528,0,0,0,1.239.391,4.231,4.231,0,0,1,1.7.915,4.508,4.508,0,0,1,.978,1.588c.084.208.251.565.3.669a2.624,2.624,0,0,0,1.06.126Z" fill="#2e2e2e" fill-rule="evenodd"/>
    </g>
  </g>
</svg>
