<svg xmlns="http://www.w3.org/2000/svg" width="129.063" height="84.804" viewBox="0 0 129.063 84.804">
  <g id="Group_1203808" data-name="Group 1203808" transform="translate(-787.781 -2547.628)">
    <g id="Rectangle_410589" data-name="Rectangle 410589" transform="translate(787.781 2575.623)" fill="#a1c6f2" stroke="#6f89a8" stroke-width="1">
      <rect width="129.063" height="43.021" rx="8" stroke="none"/>
      <rect x="0.5" y="0.5" width="128.063" height="42.021" rx="7.5" fill="none"/>
    </g>
    <g id="respect_12459890" transform="translate(778.528 2516.171)">
      <g id="Group_1204075" data-name="Group 1204075" transform="translate(27.756 32.278)">
        <path id="Path_1282377" data-name="Path 1282377" d="M240.313,67.028A10.017,10.017,0,0,0,226,64.721a10.017,10.017,0,0,0,14.313,2.307Z" transform="translate(-189.129 -57.593)" fill="#b4c08b" fill-rule="evenodd"/>
        <path id="Path_1282378" data-name="Path 1282378" d="M310.729,46.426a8.473,8.473,0,0,0-1.134-6.769,8.386,8.386,0,0,0-5.672-3.857,8.732,8.732,0,0,0,6.807,10.626Z" transform="translate(-252.095 -35.8)" fill="#b4c08b" fill-rule="evenodd"/>
        <path id="Path_1282379" data-name="Path 1282379" d="M130.019,242.175a28.811,28.811,0,0,0,7.544,1.91h8.225a3.465,3.465,0,0,0,3.574-2.912c.529-4.67,3.555-16.393-4.084-16.393-3.838,0-.662-4.122-.662-7.885,0-4.859-6.977-6.353-6.977-1.38,0,8.036-4.784,9.359-7.639,9.757v16.9Z" transform="translate(-111.281 -179.04)" fill="#e18a7a" fill-rule="evenodd"/>
        <path id="Path_1282380" data-name="Path 1282380" d="M157.3,238.582c.832-5.408,2-13.8-4.462-13.8-3.838,0-.662-4.122-.662-7.885,0-4.859-6.977-6.353-6.977-1.38,0,6.561-3.177,8.641-5.9,9.4.662,7.866,7,14.049,14.692,14.049A12.692,12.692,0,0,0,157.3,238.582Z" transform="translate(-118.823 -179.04)" fill="#eeb8a2" fill-rule="evenodd"/>
        <path id="Path_1282381" data-name="Path 1282381" d="M180.34,302.138h9.87c3.46,0,3.46-5.238,0-5.238h-9.87C176.861,296.9,176.88,302.138,180.34,302.138Z" transform="translate(-149.992 -247.531)" fill="#e18a7a" fill-rule="evenodd"/>
        <path id="Path_1282382" data-name="Path 1282382" d="M197.254,300.114a2.557,2.557,0,0,0-2.534-3.214h-9.87a2.642,2.642,0,0,0-1.55.454,21.657,21.657,0,0,0,11.307,2.893,24.321,24.321,0,0,0,2.647-.132Z" transform="translate(-154.503 -247.531)" fill="#eeb8a2" fill-rule="evenodd"/>
        <path id="Path_1282383" data-name="Path 1282383" d="M94.731,269.7H89.248A1.247,1.247,0,0,0,88,270.948V289.61a1.259,1.259,0,0,0,1.248,1.248h5.483a1.259,1.259,0,0,0,1.248-1.248V270.948A1.259,1.259,0,0,0,94.731,269.7Z" transform="translate(-77.222 -225.474)" fill="#df5356" fill-rule="evenodd"/>
        <path id="Path_1282384" data-name="Path 1282384" d="M94.731,269.7H89.248A1.247,1.247,0,0,0,88,270.948v6.6a18.2,18.2,0,0,0,7.979,2.5v-9.076A1.263,1.263,0,0,0,94.731,269.7Z" transform="translate(-77.222 -225.474)" fill="#f598a2" fill-rule="evenodd"/>
        <path id="Path_1282385" data-name="Path 1282385" d="M185.37,357.438h7.147c3.46,0,3.46-5.238,0-5.238H185.37C181.91,352.2,181.91,357.438,185.37,357.438Z" transform="translate(-154.077 -292.375)" fill="#e18a7a" fill-rule="evenodd"/>
        <path id="Path_1282386" data-name="Path 1282386" d="M196.431,355.547a2.58,2.58,0,0,0-2.5-3.347h-7.147a2.436,2.436,0,0,0-2.288,1.324,22.892,22.892,0,0,0,9.87,2.1C195.051,355.622,195.75,355.6,196.431,355.547Z" transform="translate(-155.476 -292.375)" fill="#eeb8a2" fill-rule="evenodd"/>
        <path id="Path_1282387" data-name="Path 1282387" d="M183.07,324.6h9.359c3.46,0,3.46,5.238,0,5.238H183.07C179.61,329.819,179.61,324.6,183.07,324.6Z" transform="translate(-152.212 -269.993)" fill="#e18a7a" fill-rule="evenodd"/>
        <path id="Path_1282388" data-name="Path 1282388" d="M185.766,324.6h9.359a2.577,2.577,0,0,1,2.515,3.347,24.663,24.663,0,0,1-2.931.17,22.1,22.1,0,0,1-10.91-2.647A2.4,2.4,0,0,1,185.766,324.6Z" transform="translate(-154.908 -269.993)" fill="#eeb8a2" fill-rule="evenodd"/>
        <path id="Path_1282389" data-name="Path 1282389" d="M183.57,269.2h7.771c3.46,0,3.46,5.238,0,5.238H183.57C180.11,274.438,180.11,269.2,183.57,269.2Z" transform="translate(-152.618 -225.069)" fill="#e18a7a" fill-rule="evenodd"/>
        <path id="Path_1282390" data-name="Path 1282390" d="M186.672,269.2h7.771a2.585,2.585,0,0,1,2.515,3.328c-.416.019-.851.038-1.286.038a22,22,0,0,1-10.872-2.628A2.5,2.5,0,0,1,186.672,269.2Z" transform="translate(-155.719 -225.069)" fill="#eeb8a2" fill-rule="evenodd"/>
        <path id="Path_1282391" data-name="Path 1282391" d="M31,280.2H41.778v17.3H31Z" transform="translate(-31 -233.989)" fill="#c62a29" fill-rule="evenodd"/>
        <path id="Path_1282392" data-name="Path 1282392" d="M41.778,280.2H31v2.553a20.308,20.308,0,0,0,4.784,3.914,11.54,11.54,0,0,0,5.994,1.7Z" transform="translate(-31 -233.989)" fill="#d04d4d" fill-rule="evenodd"/>
        <path id="Path_1282393" data-name="Path 1282393" d="M345.317,247.4l.019.643.964,22.765h-3.8l.945-22.765.038-.643Z" transform="translate(-283.601 -207.391)" fill="#dd6e42" fill-rule="evenodd"/>
        <path id="Path_1282394" data-name="Path 1282394" d="M332.616,159.8a14.941,14.941,0,0,1,.208,21.612,14.941,14.941,0,0,1-.208-21.612Z" transform="translate(-271.922 -136.354)" fill="#718446" fill-rule="evenodd"/>
        <path id="Path_1282395" data-name="Path 1282395" d="M352.178,165.8a14.7,14.7,0,0,1,3.574,9.624,15.475,15.475,0,0,1-1.38,6.542,14.7,14.7,0,0,1-3.574-9.624,15.314,15.314,0,0,1,1.38-6.542Z" transform="translate(-290.33 -141.22)" fill="#b4c08b" fill-rule="evenodd"/>
        <path id="Path_1282396" data-name="Path 1282396" d="M268.242,254.087A14.516,14.516,0,0,0,251.3,241.7a14.516,14.516,0,0,0,16.942,12.385Z" transform="translate(-209.646 -202.543)" fill="#718446" fill-rule="evenodd"/>
        <path id="Path_1282397" data-name="Path 1282397" d="M290.034,253.472a14.33,14.33,0,0,0-5.578-8.263A14.754,14.754,0,0,0,278.5,242.6a14.33,14.33,0,0,0,5.578,8.263A14.98,14.98,0,0,0,290.034,253.472Z" transform="translate(-231.703 -203.498)" fill="#b4c08b" fill-rule="evenodd"/>
        <path id="Path_1282398" data-name="Path 1282398" d="M364.2,254.087A14.516,14.516,0,0,1,381.142,241.7,14.516,14.516,0,0,1,364.2,254.087Z" transform="translate(-301.198 -202.543)" fill="#718446" fill-rule="evenodd"/>
        <path id="Path_1282399" data-name="Path 1282399" d="M365.5,253.472a14.329,14.329,0,0,1,5.578-8.263,14.754,14.754,0,0,1,5.956-2.609,14.33,14.33,0,0,1-5.578,8.263A14.753,14.753,0,0,1,365.5,253.472Z" transform="translate(-302.253 -203.498)" fill="#b4c08b" fill-rule="evenodd"/>
        <path id="Path_1282400" data-name="Path 1282400" d="M175.5,355.8a17.9,17.9,0,0,0,3.025-4.273c3.214-6.069,10.437.076,15.769-6.675,2.7-3.4,6.561-3.347,13.065-8.509,4.557-3.611,7.507,6.221,17.169,4.1a9.774,9.774,0,0,1,4.954.983A37.012,37.012,0,0,1,175.5,355.8Z" transform="translate(-148.178 -278.866)" fill="#cb8f30" fill-rule="evenodd"/>
      </g>
      <path id="Path_1282401" data-name="Path 1282401" d="M54.984,108.213a18.6,18.6,0,0,0,2.477-3.63c3.5-6.618,10.759-.359,15.845-6.788,1.475-1.872,3.214-2.742,5.464-3.857A40.919,40.919,0,0,0,86.163,89.4l.208-4.822c-6.126,1.248-12.631-2-15.807-7.355a14.226,14.226,0,0,1-1.91-5.672.775.775,0,0,1,.586-.87c7.261-1.569,14.994,3.2,17.282,10.248l.189-4.519a15.478,15.478,0,0,1-3.536-9.851,15.183,15.183,0,0,1,4.765-11.42.752.752,0,0,1,1-.019c4.9,4.254,6.259,11.7,3.763,17.641a14.587,14.587,0,0,1-2.307,3.8l.189,4.33c2.269-7.053,10.021-11.818,17.282-10.248a.759.759,0,0,1,.586.87,13.72,13.72,0,0,1-1.891,5.672c-3.177,5.351-9.681,8.6-15.807,7.355l.17,4.046c3.385,1.588,6.5,5.918,13.047,4.481a9.421,9.421,0,0,1,4.727.775A36.236,36.236,0,0,0,79.243,42.432a10.81,10.81,0,0,1-15.221-2.666.761.761,0,0,1,.17-.983,10.823,10.823,0,0,1,15.2,2.137c.737.076,1.456.17,2.174.265a9.484,9.484,0,0,1-2.685-9.17.761.761,0,0,1,.851-.548A9.518,9.518,0,0,1,87.3,42.507a37.755,37.755,0,1,1-41.825,58.35.758.758,0,0,1,1.229-.889,33.3,33.3,0,0,0,8.282,8.244Zm32.73-19.8a3.476,3.476,0,0,1,1.664-.246l-.416-10.154a.723.723,0,0,1-.794-.132h-.019Zm20.307,6.826a8.456,8.456,0,0,0-3.744-.662c-9.813,2.156-13.047-7.261-16.866-4.235a41.22,41.22,0,0,1-7.96,4.935c-2.1,1.04-3.706,1.853-4.954,3.441-5.578,7.034-12.8,1.1-15.694,6.561a19.478,19.478,0,0,1-2.553,3.782,36.867,36.867,0,0,0,12.158,4.973,36.263,36.263,0,0,0,39.612-18.795ZM93.216,78.773A12.676,12.676,0,0,0,91.59,83.2a13.846,13.846,0,0,0,15.278-11.156A13.889,13.889,0,0,0,93.216,78.773ZM85.52,83.2A13.846,13.846,0,0,0,70.243,72.042,13.835,13.835,0,0,0,85.52,83.2Zm5.691-22.425a12.927,12.927,0,0,0-2.761-4.027A14.3,14.3,0,0,0,88.64,76.3,14.351,14.351,0,0,0,91.212,60.773ZM37.778,79.227H28.513V95.015h9.265ZM27.756,77.714H37.778a2,2,0,0,1,2-1.985h5.483a2.009,2.009,0,0,1,2,1.891c4.027-.813,6.126-3.536,6.126-8.868,0-5.994,8.49-4.5,8.49,1.38,0,2.042-.756,3.744-1.134,5.521H66.5a3.391,3.391,0,0,1,2.7,5.427,3.462,3.462,0,0,1,.983,5.786,3.448,3.448,0,0,1-1.21,5.862,3.386,3.386,0,0,1-2.761,5.351H54.057a27.668,27.668,0,0,1-6.788-1.588,1.993,1.993,0,0,1-2,1.872H39.782A2,2,0,0,1,37.8,96.509H27.756A.759.759,0,0,1,27,95.753v-17.3a.755.755,0,0,1,.756-.737Zm11.534.756V95.79c0,.4-.113,1.1.492,1.1h5.483a.5.5,0,0,0,.492-.492V77.733a.5.5,0,0,0-.492-.492H39.782a.5.5,0,0,0-.492.492Zm19.419-2.817H59.2c.3-1.721,1.153-3.593,1.153-5.521,0-3.819-5.464-5.351-5.464-1.38,0,6.277-2.779,9.53-7.639,10.4V94.9a28.673,28.673,0,0,0,6.788,1.664h2.174a3.587,3.587,0,0,1,.435-4.292,3.544,3.544,0,0,1-.473-5.2,3.511,3.511,0,0,1,.057-5.71,3.4,3.4,0,0,1,2.477-5.71ZM66.5,82.4H58.1a1.863,1.863,0,0,0,0,3.725h9.87a1.863,1.863,0,0,0,0-3.725Zm-.019-5.238H58.709a1.863,1.863,0,0,0-.019,3.725h7.79A1.863,1.863,0,0,0,66.48,77.166ZM58.614,87.622a1.863,1.863,0,0,0,0,3.725h9.359a1.863,1.863,0,0,0,0-3.725Zm3.668,8.962H66.2a1.863,1.863,0,0,0,0-3.725H59.049a1.863,1.863,0,0,0-.019,3.725ZM85.823,42.016a8.072,8.072,0,0,0-5.672-8.849A8.072,8.072,0,0,0,85.823,42.016ZM77.9,41.543a9.373,9.373,0,0,0-12.234-1.985A9.352,9.352,0,0,0,77.9,41.543ZM56.95,45.854a.754.754,0,0,1,.756,1.3A36.143,36.143,0,0,0,39.971,73.29a.754.754,0,0,1-1.494-.208A37.7,37.7,0,0,1,56.95,45.854Z" transform="translate(0 0)"/>
    </g>
  </g>
</svg>
