<svg xmlns="http://www.w3.org/2000/svg" width="129.063" height="68.792" viewBox="0 0 129.063 68.792">
  <g id="Group_1201005" data-name="Group 1201005" transform="translate(-787.781 -2562.738)">
    <g id="Rectangle_410589" data-name="Rectangle 410589" transform="translate(787.781 2575.623)" fill="#a1c6f2" stroke="#6f89a8" stroke-width="1">
      <rect width="129.063" height="43.021" rx="8" stroke="none"/>
      <rect x="0.5" y="0.5" width="128.063" height="42.021" rx="7.5" fill="none"/>
    </g>
    <g id="map-pointer_11416673" transform="translate(802.668 2551.74)">
      <g id="Group_1204048" data-name="Group 1204048" transform="translate(5.973 12.639)">
        <g id="XMLID_00000123421077599984071860000011904721685300916405_">
          <g id="Group_1204047" data-name="Group 1204047">
            <g id="Group_1204041" data-name="Group 1204041" transform="translate(0)">
              <path id="Path_1282304" data-name="Path 1282304" d="M11.885,64.409A6.549,6.549,0,0,0,5.334,70.96V20.729A8.737,8.737,0,0,1,14.063,12V64.409Z" transform="translate(-5.334 -12)" fill="#314f25"/>
            </g>
            <g id="Group_1204042" data-name="Group 1204042" transform="translate(78.614)">
              <path id="Path_1282305" data-name="Path 1282305" d="M62.063,20.729V70.96a6.549,6.549,0,0,0-6.551-6.551H53.334V12A8.735,8.735,0,0,1,62.063,20.729Z" transform="translate(-53.334 -12)" fill="#314f25"/>
            </g>
            <g id="Group_1204043" data-name="Group 1204043" transform="translate(8.729 26.205)">
              <path id="Path_1282306" data-name="Path 1282306" d="M23.8,28c5.729.154,5.714,8.536,0,8.7H10.664V28Z" transform="translate(-10.664 -28)" fill="#517c3a"/>
            </g>
            <g id="Group_1204044" data-name="Group 1204044" transform="translate(43.728 13.102)">
              <path id="Path_1282307" data-name="Path 1282307" d="M66.919,20V59.307H36.342c-5.739-.141-5.75-8.579,0-8.729h8.746V41.832a13.109,13.109,0,0,1,13.1-13.1A8.721,8.721,0,0,1,66.919,20Z" transform="translate(-32.033 -20)" fill="#517c3a"/>
            </g>
            <g id="Group_1204045" data-name="Group 1204045" transform="translate(0 4.373)">
              <path id="Path_1282308" data-name="Path 1282308" d="M56.646,14.67h27.3V23.4a8.722,8.722,0,0,0-8.729,8.729,13.109,13.109,0,0,0-13.1,13.1v8.746H53.37a4.365,4.365,0,0,0,0,8.729H83.948c2.437-.123,5.107.044,6.813,1.916,4.08,3.977,1.16,11.263-4.635,11.186H11.885a6.551,6.551,0,0,1,0-13.1h2.178V45.2H27.2a4.348,4.348,0,0,0,0-8.7H14.063V14.67H41.316c-.424,1.345-1.12,2.54-1.048,4.357V23.4l8.746,21.832L57.743,23.4V19.027a10.4,10.4,0,0,0-1.1-4.357Z" transform="translate(-5.334 -14.67)" fill="#6b903d"/>
            </g>
            <g id="Group_1204046" data-name="Group 1204046" transform="translate(34.918 0.044)">
              <path id="Path_1282309" data-name="Path 1282309" d="M44.145,20.712v4.373L35.416,46.917,26.67,25.085c.054-2.573-.368-6.474,1.13-8.68,4.343-7.684,16.34-4.627,16.345,4.307Zm-7.108,0a1.63,1.63,0,0,0-3.259,0A1.63,1.63,0,0,0,37.037,20.712Z" transform="translate(-26.654 -12.027)" fill="#cd3c3f"/>
            </g>
          </g>
        </g>
      </g>
      <path id="Path_1282310" data-name="Path 1282310" d="M12.524,79.788H86.764A8.2,8.2,0,0,0,94.953,71.6V21.368A10.436,10.436,0,0,0,84.586,11a1.637,1.637,0,0,0-1.638,1.638v2.735H58.084A10.269,10.269,0,0,0,49.652,11a10.422,10.422,0,0,0-8.458,4.373H16.34V12.639A1.637,1.637,0,0,0,14.7,11,10.38,10.38,0,0,0,4.335,21.368V71.6a8.244,8.244,0,0,0,8.189,8.189Zm73.7-65.321a7.138,7.138,0,0,1,5.454,6.9V65.041a8.357,8.357,0,0,0-5.454-1.633ZM54.009,63.41a2.727,2.727,0,0,1,0-5.454h8.746a1.637,1.637,0,0,0,1.638-1.638V47.573A11.478,11.478,0,0,1,75.857,36.108a1.637,1.637,0,0,0,1.638-1.638,7.071,7.071,0,0,1,5.454-6.882V63.41ZM49.652,14.277a7.14,7.14,0,0,1,7.092,7.092v4.057L49.651,43.164l-7.106-17.74V21.368a7.132,7.132,0,0,1,7.108-7.092ZM16.34,40.481h11.5a2.711,2.711,0,0,1,0,5.421H16.34ZM7.61,21.368a7.1,7.1,0,0,1,5.454-6.9V63.41A8.373,8.373,0,0,0,7.61,65.051Zm4.913,45.317H14.7a1.637,1.637,0,0,0,1.638-1.638V49.178h11.5a5.986,5.986,0,0,0,0-11.972H16.34V18.649H39.631a26.516,26.516,0,0,0-.246,7.7l8.746,21.832a1.649,1.649,0,0,0,3.041,0L59.9,26.349a26.527,26.527,0,0,0-.255-7.7h23.3v5.593a10.338,10.338,0,0,0-8.615,8.669A14.76,14.76,0,0,0,61.115,47.573v7.108H54.007c-7.92.257-7.919,11.748,0,12H86.763c6.461.146,6.492,9.661,0,9.827H12.522c-6.45-.154-6.5-9.653,0-9.827Z" transform="translate(0 0)"/>
      <path id="Path_1282311" data-name="Path 1282311" d="M32.947,20.737a2.449,2.449,0,0,0,0-4.9A2.449,2.449,0,0,0,32.947,20.737Z" transform="translate(16.705 3.088)"/>
    </g>
  </g>
</svg>
