<svg xmlns="http://www.w3.org/2000/svg" width="129.063" height="86.798" viewBox="0 0 129.063 86.798">
  <g id="Group_1201006" data-name="Group 1201006" transform="translate(-787.781 -2548.038)">
    <g id="Rectangle_410589" data-name="Rectangle 410589" transform="translate(787.781 2575.623)" fill="#a1c6f2" stroke="#6f89a8" stroke-width="1">
      <rect width="129.063" height="43.021" rx="8" stroke="none"/>
      <rect x="0.5" y="0.5" width="128.063" height="42.021" rx="7.5" fill="none"/>
    </g>
    <g id="satellite-dish_2513435" transform="translate(813.773 2546.776)">
      <circle id="Ellipse_12755" data-name="Ellipse 12755" cx="5.081" cy="5.081" r="5.081" transform="translate(48.798 30.765)" fill="#f05b76"/>
      <g id="Group_1204050" data-name="Group 1204050" transform="translate(23.567 50.914)">
        <g id="Group_1204049" data-name="Group 1204049">
          <path id="Path_1282312" data-name="Path 1282312" d="M23.362,29.6l4.731,4.731L18.631,44.669,13.9,39.763Z" transform="translate(-13.9 -29.6)" fill="#c8c7c7"/>
        </g>
      </g>
      <g id="Group_1204061" data-name="Group 1204061" transform="translate(4.293 2.905)">
        <g id="Group_1204055" data-name="Group 1204055">
          <path id="Path_1282313" data-name="Path 1282313" d="M0,0H9.812V5.256H0Z" transform="translate(24.249 27.406) rotate(45)" fill="#c8c7c7"/>
          <g id="Group_1204054" data-name="Group 1204054">
            <g id="Group_1204051" data-name="Group 1204051">
              <path id="Path_1282314" data-name="Path 1282314" d="M5.879,28.482,2.9,17.093,17.793,2.2l2.979,11.389Z" transform="translate(-2.9 -2.2)" fill="#41c1f0"/>
            </g>
            <g id="Group_1204052" data-name="Group 1204052" transform="translate(2.979 11.389)">
              <path id="Path_1282315" data-name="Path 1282315" d="M15.814,26.4,4.6,23.593,19.493,8.7l11.214,2.8Z" transform="translate(-4.6 -8.7)" fill="#41c1f0"/>
            </g>
            <g id="Group_1204053" data-name="Group 1204053" transform="translate(14.193 14.193)">
              <path id="Path_1282316" data-name="Path 1282316" d="M13.8,36.407,11,25.193,25.893,10.3l2.8,11.214Z" transform="translate(-11 -10.3)" fill="#41c1f0"/>
            </g>
          </g>
        </g>
        <g id="Group_1204060" data-name="Group 1204060" transform="translate(42.052 50.462)">
          <path id="Path_1282317" data-name="Path 1282317" d="M0,0H9.812V5.256H0Z" transform="translate(9.419 11.381) rotate(-135)" fill="#c8c7c7"/>
          <g id="Group_1204059" data-name="Group 1204059">
            <g id="Group_1204056" data-name="Group 1204056" transform="translate(14.193 14.193)">
              <path id="Path_1282318" data-name="Path 1282318" d="M35,53.993l11.214,2.8L61.107,41.9,49.893,39.1Z" transform="translate(-35 -39.1)" fill="#41c1f0"/>
            </g>
            <g id="Group_1204057" data-name="Group 1204057" transform="translate(11.389 2.803)">
              <path id="Path_1282319" data-name="Path 1282319" d="M33.4,47.669l2.8,11.214L51.1,43.989,48.293,32.6Z" transform="translate(-33.4 -32.6)" fill="#41c1f0"/>
            </g>
            <g id="Group_1204058" data-name="Group 1204058">
              <path id="Path_1282320" data-name="Path 1282320" d="M26.9,45.893l11.389,2.979L53.182,33.8,41.793,31Z" transform="translate(-26.9 -31)" fill="#41c1f0"/>
            </g>
          </g>
        </g>
      </g>
      <g id="Group_1204062" data-name="Group 1204062" transform="translate(30.225 34.269)">
        <circle id="Ellipse_12756" data-name="Ellipse 12756" cx="12.616" cy="12.616" r="12.616" fill="#daeaf8"/>
      </g>
      <g id="Group_1204064" data-name="Group 1204064" transform="translate(38.285 33.743)" opacity="0.1">
        <g id="Group_1204063" data-name="Group 1204063">
          <path id="Path_1282321" data-name="Path 1282321" d="M35.266,41.352A12.422,12.422,0,0,1,22.3,44.33a12.385,12.385,0,0,0,9.987-3.68,12.691,12.691,0,0,0,0-17.872A11.968,11.968,0,0,0,27.381,19.8a12.283,12.283,0,0,1,8.06,3.68A12.857,12.857,0,0,1,35.266,41.352Z" transform="translate(-22.3 -19.8)" fill="#231f20"/>
        </g>
      </g>
      <g id="Group_1204071" data-name="Group 1204071" transform="translate(1.048 1.262)">
        <g id="Group_1204065" data-name="Group 1204065" transform="translate(0 52.347)">
          <ellipse id="Ellipse_12757" data-name="Ellipse 12757" cx="3.504" cy="20.851" rx="3.504" ry="20.851" transform="translate(34.438 29.483) rotate(135)" fill="#daeaf8"/>
        </g>
        <g id="Group_1204066" data-name="Group 1204066" transform="translate(3.77 62.618)">
          <path id="Path_1282322" data-name="Path 1282322" d="M4.251,57.325,3.2,56.274,17.743,37l5.782,5.957Z" transform="translate(-3.2 -37)" fill="#c8c7c7"/>
        </g>
        <g id="Group_1204067" data-name="Group 1204067" transform="translate(1.755 76.372)">
          <path id="Path_1282323" data-name="Path 1282323" d="M3.364,52.3a4.234,4.234,0,0,1,0-6.133,4.234,4.234,0,0,1,6.133,0,4.234,4.234,0,0,1,0,6.133,4.565,4.565,0,0,1-6.133,0Z" transform="translate(-2.05 -44.85)" fill="#f05b76"/>
        </g>
        <g id="Group_1204068" data-name="Group 1204068" transform="translate(2.719 52.622)">
          <path id="Path_1282324" data-name="Path 1282324" d="M2.6,33.406A22.127,22.127,0,0,1,32.036,62.843c.526-2.1-4.906-9.286-12.44-17-7.71-7.71-14.893-12.966-17-12.44Z" transform="translate(-2.6 -31.295)" fill="#fbb566"/>
        </g>
        <g id="Group_1204070" data-name="Group 1204070" transform="translate(9.728 52.499)" opacity="0.1">
          <g id="Group_1204069" data-name="Group 1204069">
            <path id="Path_1282325" data-name="Path 1282325" d="M29.028,62.72c.175-.876-.876-2.979-2.8-5.782a21.73,21.73,0,0,0-6.133-19.274A21.573,21.573,0,0,0,6.6,31.356a21.686,21.686,0,0,1,17.872,6.308A22.144,22.144,0,0,1,29.028,62.72Z" transform="translate(-6.6 -31.225)" fill="#231f20"/>
          </g>
        </g>
        <path id="Path_1282326" data-name="Path 1282326" d="M88.339,69.838a2.117,2.117,0,0,0-1.227-1.227L76.775,65.983,74.146,55.645a2.117,2.117,0,0,0-1.227-1.227l-11.214-2.8a1.778,1.778,0,0,0-1.752.526L56.1,56l-1.227-1.227a13.829,13.829,0,0,0,2.278-7.885,18.351,18.351,0,0,0-.876-5.256,7.78,7.78,0,0,0,1.927-1.4,6.319,6.319,0,1,0-10.338-6.833,12.767,12.767,0,0,0-5.256-.876,15.321,15.321,0,0,0-7.885,2.278L33.5,33.568l3.855-3.855a2.118,2.118,0,0,0,.526-1.752l-2.8-11.389a2.117,2.117,0,0,0-1.227-1.227L23.509,12.717,20.881,2.555a1.731,1.731,0,0,0-1.227-1.227,1.778,1.778,0,0,0-1.752.526L3.009,16.572a2.037,2.037,0,0,0-.35,1.752l2.8,11.214c0,.175,0,.175.175.175v.175c0,.175.175.175.35.35.175.35.35.526.7.526l10.338,2.628,2.628,10.338a2.117,2.117,0,0,0,1.227,1.227h.526a1.591,1.591,0,0,0,1.227-.526L28.065,39l1.752,1.752a14.744,14.744,0,0,0-.35,11.564L26.137,56a23.936,23.936,0,0,0-12.966-3.855c-5.256,0-10.338,2.1-11.039,2.8-2.8,2.628,4.03,11.039,9.286,16.47l-3.5,4.731a6.81,6.81,0,0,0-5.081,1.577,6.247,6.247,0,0,0,0,8.586A5.7,5.7,0,0,0,7.039,88.06a6.119,6.119,0,0,0,4.205-1.752A5.7,5.7,0,0,0,13,82.1v-.876l4.556-3.5C22.983,82.8,29.291,87.71,32.27,87.71a2.8,2.8,0,0,0,1.927-.7,3.83,3.83,0,0,0,.526-.876,24.23,24.23,0,0,0-1.4-22.953l3.154-3.329a13.642,13.642,0,0,0,6.483,1.577,14.937,14.937,0,0,0,6.133-1.4l1.752,1.752L45.411,67.21a1.681,1.681,0,0,0-.526,1.752,2.117,2.117,0,0,0,1.227,1.227L56.45,72.817l2.628,10.163a.172.172,0,0,0,.175.175c0,.175.175.35.35.526l.35.35h.175l.175.175,11.214,2.8h.526a1.591,1.591,0,0,0,1.227-.526L79.753,80l8.41-8.41a2.721,2.721,0,0,0,.175-1.752ZM59.6,71.765l4.03-4.03,3.154,6.133-5.256,5.257Zm13.842-4.731-4.03,4.03-3.154-6.133,5.256-5.256Zm-11.74-11.74,7.359,1.927-5.256,5.432c-.175-.175-6.483-3.329-6.133-3.154.175-.175,4.38-4.38,4.03-4.205ZM51.193,33.218a3.717,3.717,0,1,1,3.855,6.133,15.24,15.24,0,0,0-4.731-4.731A3.815,3.815,0,0,1,51.193,33.218Zm-21.026-1.4c-.175-.175-3.329-6.483-3.154-6.133l5.432-5.256,1.927,7.359c-.35.175-4.38,4.38-4.205,4.03Zm-5.607-8.41-6.133-3.154,4.03-4.03,7.359,1.927Zm-6.308-17,1.927,7.184-4.03,4.03L13,11.666Zm-7.885,7.885,3.154,6.133L8.09,25.859,6.162,18.324Zm5.607,8.586,6.133,3.154-4.03,4.03-7.359-1.927Zm6.308,17-1.927-7.359,4.03-4.03c.175.175,3.329,6.483,3.154,6.133-.175.175-2.278,2.278-2.1,1.927Zm7.71-2.8,1.752-1.752L32.8,36.371A25.7,25.7,0,0,0,31.043,38.3ZM5.462,58.1a62.075,62.075,0,0,1,10.163,7.71l-2.1,2.8C9.141,63.88,6.513,60.2,5.462,58.1ZM8.791,80.176a2.485,2.485,0,0,1,0,3.5,2.665,2.665,0,0,1-3.5,0,2.339,2.339,0,0,1,0-3.5A2.662,2.662,0,0,1,8.791,80.176ZM11.419,77.9l-.35-.35c.175-.175,5.256-7.009,7.009-9.286h.175a8.1,8.1,0,0,1,1.227,1.227l1.227,1.227c-.175.35-9.462,7.359-9.286,7.184Zm8.936-2.278,2.8-2.1c2.453,2.628,6.133,7.009,7.71,10.163A66.326,66.326,0,0,1,20.355,75.62Zm12.616,4.731c-2.8-4.556-8.586-10.863-12.265-14.368C17.552,63,13.346,58.974,9.141,56.346c-.175-.175-.175-.175-.35-.175a17.652,17.652,0,0,1,4.38-.526,20.228,20.228,0,0,1,13.316,4.906A20.877,20.877,0,0,1,32.971,80.351ZM31.043,60.2c-.35-.35-.7-.876-1.051-1.227a7.62,7.62,0,0,0-1.227-1.051l2.453-2.628a11.336,11.336,0,0,0,1.4,1.577,3.076,3.076,0,0,0,.876.7Zm4.03-5.607a11,11,0,0,1,0-15.419,10.9,10.9,0,1,1,0,15.419Zm16.12,3.855A9.928,9.928,0,0,0,53.12,56.7l1.051,1.051L52.42,59.5Zm3.68,3.68a37.79,37.79,0,0,1,3.5,1.577l2.628,1.4-3.855,4.03-7.359-1.752c.175-.175,5.256-5.432,5.081-5.256Zm16.3,21.2L63.809,81.4l5.432-5.256L75.373,79.3Zm6.658-6.658-6.133-3.154,4.03-4.03,7.359,1.927Z" transform="translate(-0.99 -1.262)" fill="#12263f"/>
      </g>
    </g>
  </g>
</svg>
