<svg xmlns="http://www.w3.org/2000/svg" width="129.063" height="78.561" viewBox="0 0 129.063 78.561">
  <g id="Group_1201008" data-name="Group 1201008" transform="translate(-788.103 -1982.58)">
    <g id="Rectangle_410589" data-name="Rectangle 410589" transform="translate(788.103 2007.607)" fill="#ffc94a" stroke="#b18c32" stroke-width="1">
      <rect width="129.063" height="43.021" rx="8" stroke="none"/>
      <rect x="0.5" y="0.5" width="128.063" height="42.021" rx="7.5" fill="none"/>
    </g>
    <g id="asia_6253687" transform="translate(815.163 1982.58)">
      <g id="Group_1204101" data-name="Group 1204101" transform="translate(1.267 1.267)">
        <g id="Group_1204085" data-name="Group 1204085" transform="translate(0 38.013)">
          <path id="Path_1282416" data-name="Path 1282416" d="M15.6,273.342v5.068H11.8a3.8,3.8,0,0,0-3.8,3.8V251.8a3.8,3.8,0,0,1,3.8-3.8h3.8v25.342Z" transform="translate(-8 -248)" fill="#ecc19c"/>
        </g>
        <g id="Group_1204086" data-name="Group 1204086" transform="translate(7.603 45.616)">
          <path id="Path_1282417" data-name="Path 1282417" d="M124.424,296v13.938h-3.317a2.045,2.045,0,0,0-.917.217l-3.74,1.869a2.049,2.049,0,0,0-1.093,1.432l-.741,3.7a2.05,2.05,0,0,1-2.01,1.649h-2.539a2.049,2.049,0,0,1-1.449-.6l-1.334-1.334a2.049,2.049,0,0,0-1.449-.6H98.663a2.049,2.049,0,0,0-1.449.6l-1.334,1.334a2.049,2.049,0,0,1-1.449.6H91.479a2.05,2.05,0,0,0-1.834,1.134l-2.233,4.465a3.623,3.623,0,0,1-6.755-.741l-1.46-5.84a2.05,2.05,0,0,0-1.989-1.552H75.628a2.059,2.059,0,0,0-1.137.344l-2.769,1.847a2.059,2.059,0,0,1-1.137.344H66.137a2.05,2.05,0,0,1-1.834-1.134l-1.4-2.8a2.05,2.05,0,0,0-1.834-1.134H56V301.068h4.219a2.049,2.049,0,0,1,1.449.6l2.6,2.6a2.049,2.049,0,0,0,1.449.6h3.6a2.059,2.059,0,0,0,1.137-.344l2.769-1.847a2.059,2.059,0,0,1,1.137-.344h2.846a2.05,2.05,0,0,1,1.989,1.552l.491,1.964a2.05,2.05,0,0,0,1.989,1.552h1.867a2.048,2.048,0,0,0,.648-.1l3.171-1.058a2.047,2.047,0,0,1,.648-.1h3.469c0,2.8,4.538,5.068,10.137,5.068s10.137-2.27,10.137-5.068l1.967-3.934a2.046,2.046,0,0,1,1.834-1.134,2.05,2.05,0,0,0,1.834-1.134L119.355,296Z" transform="translate(-56 -296)" fill="#f0d0b4"/>
        </g>
        <g id="Group_1204087" data-name="Group 1204087" transform="translate(0 63.355)">
          <path id="Path_1282418" data-name="Path 1282418" d="M43.774,420.671H11.8a3.8,3.8,0,0,1,0-7.6h3.8V408h5.068a2.05,2.05,0,0,1,1.834,1.134l1.4,2.8a2.05,2.05,0,0,0,1.834,1.134h4.448a2.059,2.059,0,0,0,1.137-.344l2.769-1.847a2.059,2.059,0,0,1,1.137-.344h1.579a2.05,2.05,0,0,1,1.989,1.552l1.46,5.84A3.621,3.621,0,0,0,43.774,420.671Z" transform="translate(-8 -408)" fill="#b4dd7f"/>
        </g>
        <g id="Group_1204088" data-name="Group 1204088" transform="translate(35.774 59.554)">
          <path id="Path_1282419" data-name="Path 1282419" d="M274.113,384v16.472H233.86a3.623,3.623,0,0,0,3.241-2L239.334,394a2.05,2.05,0,0,1,1.834-1.134h2.952a2.049,2.049,0,0,0,1.449-.6l1.334-1.334a2.049,2.049,0,0,1,1.449-.6h7.172a2.049,2.049,0,0,1,1.449.6l1.334,1.334a2.049,2.049,0,0,0,1.449.6H262.3a2.05,2.05,0,0,0,2.01-1.649l.741-3.7a2.049,2.049,0,0,1,1.093-1.432l3.74-1.869A2.045,2.045,0,0,1,270.8,384Z" transform="translate(-233.86 -384)" fill="#b4dd7f"/>
        </g>
        <g id="Group_1204089" data-name="Group 1204089" transform="translate(57.484 45.616)">
          <path id="Path_1282420" data-name="Path 1282420" d="M384.4,296l-1.967,3.934a2.05,2.05,0,0,1-1.834,1.134,2.046,2.046,0,0,0-1.834,1.134l-1.967,3.934c0-2.037-2.4-3.792-5.871-4.6L374.543,296Z" transform="translate(-370.93 -296)" fill="#b4dd7f"/>
        </g>
        <g id="Group_1204090" data-name="Group 1204090" transform="translate(7.603 45.616)">
          <path id="Path_1282421" data-name="Path 1282421" d="M93.738,296l3.613,5.539c-3.467.806-5.871,2.561-5.871,4.6H88.01a2.048,2.048,0,0,0-.648.1L84.192,307.3a2.047,2.047,0,0,1-.648.1H81.676a2.05,2.05,0,0,1-1.989-1.552l-.491-1.964a2.05,2.05,0,0,0-1.989-1.552H74.36a2.059,2.059,0,0,0-1.137.344l-2.769,1.847a2.059,2.059,0,0,1-1.137.344h-3.6a2.049,2.049,0,0,1-1.449-.6l-2.6-2.6a2.049,2.049,0,0,0-1.449-.6H56V296Z" transform="translate(-56 -296)" fill="#b4dd7f"/>
        </g>
        <g id="Group_1204091" data-name="Group 1204091" transform="translate(43.082 51.155)">
          <path id="Path_1282422" data-name="Path 1282422" d="M294.4,330.97c3.467.806,5.871,2.561,5.871,4.6,0,2.8-4.538,5.068-10.137,5.068S280,338.367,280,335.568c0-2.037,2.4-3.792,5.871-4.6l2.306,3.537a2.339,2.339,0,0,0,3.918,0Z" transform="translate(-280 -330.97)" fill="#aab2bd"/>
        </g>
        <g id="Group_1204092" data-name="Group 1204092" transform="translate(32.945)">
          <path id="Path_1282423" data-name="Path 1282423" d="M256.547,28.274v.309a20.266,20.266,0,0,1-3.293,11.074l-9.1,13.959-3.613,5.539-2.306,3.537a2.339,2.339,0,0,1-3.919,0l-2.306-3.537L228.4,53.616l-9.1-13.959A20.266,20.266,0,0,1,216,28.583v-.309a20.274,20.274,0,1,1,40.547,0Z" transform="translate(-216 -8)" fill="#ffeaa7"/>
        </g>
        <g id="Group_1204093" data-name="Group 1204093" transform="translate(38.013 7.603)">
          <path id="Path_1282424" data-name="Path 1282424" d="M272.075,63.15v4a2.687,2.687,0,0,1-1.305,2.3l-3.725,2.236a2.687,2.687,0,0,0-1.305,2.3v2.911a2.679,2.679,0,0,0,.283,1.2l2,4.006a2.349,2.349,0,0,1,.249,1.05v.9a2.349,2.349,0,0,1-4.451,1.05l-1.332-2.664a2.686,2.686,0,0,0-1.752-1.4l-2.3-.577a2.689,2.689,0,0,1-1.956-1.956l-.367-1.468a2.687,2.687,0,0,0-2.607-2.035h-1.532a2.69,2.69,0,0,1-2.236-1.2l-1.285-1.926A2.69,2.69,0,0,1,248,70.391V68.825a2.688,2.688,0,0,1,2.688-2.688H252.4a2.688,2.688,0,0,0,2.55-1.837l.128-.388a2.685,2.685,0,0,0-.649-2.751l-.572-.572a2.688,2.688,0,0,1,1.9-4.589h1.267a2.689,2.689,0,0,1,1.9.787l1.839,1.839a2.685,2.685,0,0,0,2.751.649l1.812-.6a2.67,2.67,0,0,1,.849-.138H268.1a2.69,2.69,0,0,1,2.236,1.2l1.285,1.926A2.691,2.691,0,0,1,272.075,63.15Z" transform="translate(-248 -56)" fill="#b4dd7f"/>
        </g>
        <g id="Group_1204094" data-name="Group 1204094" transform="translate(60.821 24.075)">
          <path id="Path_1282425" data-name="Path 1282425" d="M397.593,160.743a2.531,2.531,0,0,1,0,3.583l-1.267,1.267a2.533,2.533,0,1,1-3.583-3.583l1.267-1.267a2.531,2.531,0,0,1,3.583,0Z" transform="translate(-392 -160)" fill="#a0d468"/>
        </g>
        <g id="Group_1204095" data-name="Group 1204095" transform="translate(0 0)">
          <path id="Path_1282426" data-name="Path 1282426" d="M40.945,24.472A16.472,16.472,0,1,1,24.472,8,16.472,16.472,0,0,1,40.945,24.472Z" transform="translate(-8 -8)" fill="#e6e9ed"/>
        </g>
        <g id="Group_1204096" data-name="Group 1204096" transform="translate(17.904 7.603)">
          <path id="Path_1282427" data-name="Path 1282427" d="M128.478,56,126,63.438l-3.857-1.1-1.1-3.857Z" transform="translate(-121.04 -56)" fill="#ff826e"/>
        </g>
        <g id="Group_1204097" data-name="Group 1204097" transform="translate(17.904 17.904)">
          <path id="Path_1282428" data-name="Path 1282428" d="M126,121.04l2.479,7.438L121.04,126l1.1-3.857Z" transform="translate(-121.04 -121.04)" fill="#ff826e"/>
        </g>
        <g id="Group_1204098" data-name="Group 1204098" transform="translate(7.603 17.904)">
          <path id="Path_1282429" data-name="Path 1282429" d="M62.336,122.142l1.1,3.857L56,128.478l2.479-7.438Z" transform="translate(-56 -121.04)" fill="#ff826e"/>
        </g>
        <g id="Group_1204099" data-name="Group 1204099" transform="translate(7.603 7.603)">
          <path id="Path_1282430" data-name="Path 1282430" d="M63.438,58.479l-1.1,3.857-3.857,1.1L56,56Z" transform="translate(-56 -56)" fill="#ff826e"/>
        </g>
        <g id="Group_1204100" data-name="Group 1204100" transform="translate(5.068 5.068)">
          <path id="Path_1282431" data-name="Path 1282431" d="M57.795,49.972l-3.857-1.1-1.1-3.857L51.4,40l-1.432,5.013-1.1,3.857-3.857,1.1L40,51.4l5.013,1.432,3.857,1.1,1.1,3.857L51.4,62.808l1.432-5.013,1.1-3.857,3.857-1.1L62.808,51.4Z" transform="translate(-40 -40)" fill="#fc6e51"/>
        </g>
      </g>
      <g id="Group_1204102" data-name="Group 1204102">
        <path id="Path_1282432" data-name="Path 1282432" d="M64.7,45.616l7.825-12a21.488,21.488,0,0,0,3.5-11.767v-.309a21.54,21.54,0,0,0-41.239-8.712,17.747,17.747,0,1,0-1.414,13.287,21.491,21.491,0,0,0,3.07,7.5l7.826,12H10.137v-7.6H5.068A5.074,5.074,0,0,0,0,43.082V73.492a5.074,5.074,0,0,0,5.068,5.068H78.561V45.616ZM76.026,59.554h-2.05a3.336,3.336,0,0,0-1.484.35l-3.739,1.869a3.3,3.3,0,0,0-1.769,2.316l-.741,3.7a.785.785,0,0,1-.768.63H62.937a.778.778,0,0,1-.554-.23l-1.333-1.333a3.3,3.3,0,0,0-2.346-.972H51.533a3.3,3.3,0,0,0-2.346.972l-1.333,1.333a.778.778,0,0,1-.554.229H44.349a3.3,3.3,0,0,0-2.967,1.834l-2.233,4.466a2.356,2.356,0,0,1-4.394-.482L33.295,68.4a3.312,3.312,0,0,0-3.218-2.513H28.5a3.306,3.306,0,0,0-1.84.557l-2.768,1.846a.78.78,0,0,1-.434.131H19.007a.779.779,0,0,1-.7-.433l-1.4-2.8a3.3,3.3,0,0,0-2.967-1.833h-3.8V53.218h2.952a.778.778,0,0,1,.554.23l2.6,2.6a3.3,3.3,0,0,0,2.346.972h3.6a3.305,3.305,0,0,0,1.84-.557L26.8,54.617a.78.78,0,0,1,.434-.131h2.847a.782.782,0,0,1,.76.593l.491,1.962a3.312,3.312,0,0,0,3.218,2.513h1.868a3.31,3.31,0,0,0,1.049-.17l3.17-1.057a.783.783,0,0,1,.248-.04h2.414a6.44,6.44,0,0,0,3.457,3.45,17.69,17.69,0,0,0,7.734,1.618,17.69,17.69,0,0,0,7.735-1.618c2.226-1.113,3.511-2.662,3.655-4.389l1.848-3.7a.779.779,0,0,1,.7-.433,3.3,3.3,0,0,0,2.967-1.834l1.617-3.235h3.018Zm-24.561-2.9a3.606,3.606,0,0,0,6.041,0l1.806-2.769c2.419.724,4.043,1.96,4.043,3.138,0,1.794-3.793,3.8-8.87,3.8s-8.87-2.007-8.87-3.8c0-1.178,1.624-2.414,4.043-3.138Zm18.71-8.5-1.051,2.1a.779.779,0,0,1-.7.433,3.3,3.3,0,0,0-2.967,1.834l-.787,1.574a9.5,9.5,0,0,0-3.924-2.409l2.3-3.533ZM17.739,32.945A15.205,15.205,0,1,1,32.945,17.739,15.222,15.222,0,0,1,17.739,32.945Zm17.739-11.1v-.309a19.007,19.007,0,0,1,38.013,0v.309a18.959,18.959,0,0,1-3.087,10.383L55.384,55.266a1.072,1.072,0,0,1-1.8,0L38.565,32.232a18.959,18.959,0,0,1-3.087-10.383Zm10.442,26.3,2.3,3.533c-2.591.914-4.346,2.366-4.93,4.07H40.88a3.31,3.31,0,0,0-1.049.17l-3.17,1.057a.783.783,0,0,1-.248.04H34.545a.782.782,0,0,1-.76-.593l-.491-1.962a3.312,3.312,0,0,0-3.218-2.513H27.23a3.305,3.305,0,0,0-1.84.557l-2.768,1.846a.78.78,0,0,1-.434.131h-3.6a.778.778,0,0,1-.554-.23l-2.6-2.6a3.3,3.3,0,0,0-2.346-.972H10.137V48.15H45.921ZM2.534,43.082a2.537,2.537,0,0,1,2.534-2.534H7.6V68.424H5.068a5.038,5.038,0,0,0-2.534.68Zm0,30.411a2.537,2.537,0,0,1,2.534-2.534h5.068V65.889h3.8a.779.779,0,0,1,.7.433l1.4,2.8a3.3,3.3,0,0,0,2.967,1.834h4.448a3.305,3.305,0,0,0,1.84-.557l2.768-1.846a.78.78,0,0,1,.434-.131h1.58a.782.782,0,0,1,.76.593l1.46,5.839a4.9,4.9,0,0,0,.459,1.17H5.068A2.537,2.537,0,0,1,2.534,73.492Zm38.789,2.534c.031-.056.063-.111.092-.169l2.233-4.466a.779.779,0,0,1,.7-.433H47.3a3.3,3.3,0,0,0,2.346-.972l1.333-1.333a.778.778,0,0,1,.554-.229H58.7a.778.778,0,0,1,.554.229l1.333,1.333a3.3,3.3,0,0,0,2.346.972h2.538a3.326,3.326,0,0,0,3.253-2.667l.741-3.7a.778.778,0,0,1,.418-.547l3.739-1.869a.788.788,0,0,1,.35-.083h2.05V76.027h-34.7Z"/>
        <path id="Path_1282433" data-name="Path 1282433" d="M259.191,80.945a3.621,3.621,0,0,0,3.616-3.616v-.9a3.633,3.633,0,0,0-.382-1.617l-2-4a1.427,1.427,0,0,1-.15-.635V67.261a1.428,1.428,0,0,1,.69-1.218l3.725-2.235a3.975,3.975,0,0,0,1.92-3.391v-4a3.943,3.943,0,0,0-.664-2.194L264.66,52.3a3.947,3.947,0,0,0-3.291-1.761h-1.927a3.943,3.943,0,0,0-1.251.2l-1.812.6A1.413,1.413,0,0,1,254.926,51l-1.839-1.839a3.929,3.929,0,0,0-2.8-1.158h-1.267a3.955,3.955,0,0,0-2.8,6.752l.572.572a1.414,1.414,0,0,1,.343,1.454l-.129.387a1.419,1.419,0,0,1-1.348.972h-1.71A3.96,3.96,0,0,0,240,62.092v1.567a3.942,3.942,0,0,0,.664,2.194l1.285,1.927a3.947,3.947,0,0,0,3.291,1.761h1.531a1.419,1.419,0,0,1,1.378,1.076l.367,1.468a3.948,3.948,0,0,0,2.878,2.878l2.3.576a1.419,1.419,0,0,1,.926.743l1.332,2.664A3.6,3.6,0,0,0,259.191,80.945Zm-4.878-7.865-2.3-.576a1.418,1.418,0,0,1-1.034-1.034L250.608,70a3.95,3.95,0,0,0-3.837-3H245.24a1.418,1.418,0,0,1-1.182-.633l-1.285-1.927a1.418,1.418,0,0,1-.239-.788V62.092a1.423,1.423,0,0,1,1.421-1.421h1.71a3.95,3.95,0,0,0,3.752-2.7l.129-.388a3.934,3.934,0,0,0-.956-4.047l-.572-.572a1.421,1.421,0,0,1,1-2.426h1.267a1.412,1.412,0,0,1,1,.416l1.839,1.839a3.933,3.933,0,0,0,4.047.955l1.812-.6a1.417,1.417,0,0,1,.449-.073h1.927a1.418,1.418,0,0,1,1.182.633l1.285,1.927a1.418,1.418,0,0,1,.239.788v4a1.428,1.428,0,0,1-.69,1.218L259.66,63.87a3.976,3.976,0,0,0-1.92,3.392v2.912a3.974,3.974,0,0,0,.418,1.769l2,4.005a1.086,1.086,0,0,1,.114.484v.9a1.082,1.082,0,0,1-2.05.484l-1.332-2.664a3.951,3.951,0,0,0-2.579-2.068Z" transform="translate(-201.987 -40.397)"/>
        <path id="Path_1282434" data-name="Path 1282434" d="M385.113,154.381a3.8,3.8,0,0,0,5.376,5.376l1.267-1.267a3.8,3.8,0,0,0-5.376-5.376Zm1.792,1.792,1.267-1.267a1.243,1.243,0,0,1,.9-.371,1.259,1.259,0,0,1,.9.371,1.243,1.243,0,0,1,.371.9,1.259,1.259,0,0,1-.371.9l-1.267,1.267a1.267,1.267,0,0,1-1.792,0,1.243,1.243,0,0,1-.371-.9A1.259,1.259,0,0,1,386.905,156.172Z" transform="translate(-323.179 -127.925)"/>
        <path id="Path_1282435" data-name="Path 1282435" d="M0,0H2.534V5.376H0Z" transform="translate(44.711 37.643) rotate(-45)"/>
        <path id="Path_1282436" data-name="Path 1282436" d="M0,0H2.534V2.833H0Z" transform="translate(49.526 15.776) rotate(-26.565)"/>
        <path id="Path_1282437" data-name="Path 1282437" d="M0,0H2.833V2.534H0Z" transform="translate(56.426 17.881) rotate(-26.565)"/>
        <path id="Path_1282438" data-name="Path 1282438" d="M0,0H2.534V2.833H0Z" transform="translate(43.763 23.955) rotate(-63.435)"/>
        <path id="Path_1282439" data-name="Path 1282439" d="M56.423,43.453l-3.741-1.069L54.743,36.2a1.267,1.267,0,0,0-1.6-1.6L46.958,36.66l-1.069-3.741a1.267,1.267,0,0,0-2.437,0L42.384,36.66,36.2,34.6a1.267,1.267,0,0,0-1.6,1.6l2.061,6.182-3.741,1.069a1.267,1.267,0,0,0,0,2.436l3.741,1.069L34.6,53.14a1.267,1.267,0,0,0,1.6,1.6l6.182-2.061,1.069,3.741a1.267,1.267,0,0,0,2.437,0l1.069-3.741,6.182,2.061a1.267,1.267,0,0,0,1.6-1.6l-2.061-6.182,3.741-1.069a1.267,1.267,0,0,0,0-2.437Zm-8.849,2.329-1.111-1.111,1.111-1.111,3.888,1.111Zm-5.806,0-3.889-1.111,3.889-1.111,1.111,1.111ZM51.537,37.8l-1.294,3.882-2.013-.575L47.655,39.1Zm-6.866.074,1.111,3.889-1.111,1.111L43.56,41.768ZM37.8,37.8,41.687,39.1l-.575,2.013-2.013.575Zm0,13.733L39.1,47.655l2.013.575.575,2.013Zm6.866-.075L43.56,47.574l1.111-1.111,1.111,1.111Zm6.866.075-3.882-1.294.575-2.013,2.013-.575Z" transform="translate(-26.932 -26.932)"/>
        <path id="Path_1282440" data-name="Path 1282440" d="M345.267,272A1.267,1.267,0,0,0,344,273.267v5.068a1.267,1.267,0,0,0,2.534,0v-5.068A1.267,1.267,0,0,0,345.267,272Z" transform="translate(-289.514 -228.918)"/>
      </g>
    </g>
  </g>
</svg>
