<svg id="Group_1204125" data-name="Group 1204125" xmlns="http://www.w3.org/2000/svg" width="82.001" height="82.001" viewBox="0 0 82.001 82.001">
  <g id="Group_1187152" data-name="Group 1187152" transform="translate(0)">
    <g id="Group_1185946" data-name="Group 1185946" transform="translate(0)">
      <g id="Group_1184280" data-name="Group 1184280" transform="translate(0)">
        <g id="Group_1182168" data-name="Group 1182168" transform="translate(0)">
          <g id="Group_1178877" data-name="Group 1178877" transform="translate(0)">
            <g id="Group_1111311" data-name="Group 1111311" transform="translate(0)">
              <g id="Group_1098742" data-name="Group 1098742" transform="translate(0)">
                <g id="Rectangle_400898" data-name="Rectangle 400898" transform="translate(0)" fill="#fff" stroke="#4f6278" stroke-width="1" opacity="0.859">
                  <rect width="82.001" height="82.001" rx="41" stroke="none"/>
                  <rect x="0.5" y="0.5" width="81.001" height="81.001" rx="40.5" fill="none"/>
                </g>
                <g id="Rectangle_400907" data-name="Rectangle 400907" transform="translate(0)" fill="none" stroke="#4f6278" stroke-width="1">
                  <rect width="82.001" height="82.001" rx="41" stroke="none"/>
                  <rect x="0.5" y="0.5" width="81.001" height="81.001" rx="40.5" fill="none"/>
                </g>
              </g>
            </g>
          </g>
        </g>
      </g>
    </g>
  </g>
  <g id="Layer_4" transform="translate(10.903 10.931)">
    <g id="Group_1204166" data-name="Group 1204166" transform="translate(4.07 4)">
      <g id="Group_1204154" data-name="Group 1204154" transform="translate(5.114 39.515)">
        <path id="Path_1282563" data-name="Path 1282563" d="M31.758,83.252a.856.856,0,0,1-.82-.612,5.057,5.057,0,0,0-2.715-3.547c-4.591-1.865-7.656-3.426-9.736-5.892-1.069-1.254-3.068-.872-4.473.014a.856.856,0,1,1-.914-1.448c2.009-1.267,4.96-1.708,6.693.328,1.854,2.2,4.731,3.647,9.073,5.411a6.662,6.662,0,0,1,3.712,4.646.856.856,0,0,1-.821,1.1Z" transform="translate(-12.702 -70.693)" fill="#2a2a2a"/>
      </g>
      <g id="Group_1204155" data-name="Group 1204155" transform="translate(32.598 30.288)">
        <path id="Path_1282564" data-name="Path 1282564" d="M59.944,75.865a.857.857,0,0,1-.8-1.168l.32-.831A2.817,2.817,0,0,1,60.3,72.42a20.155,20.155,0,0,0,2.452-2.861c2.666-3.511,2.783-4.985,2.869-6.063a5.3,5.3,0,0,1,.2-1.21l.044-.129c.437-1.271,1.6-4.64,5.11-3.5.793.27,1.278-.185,2.277-1.359.9-1.058,2.025-2.374,3.845-2.155a2.241,2.241,0,0,1,.29.05.856.856,0,0,1-.411,1.661l-.146-.022c-.784-.091-1.386.533-2.274,1.575-.962,1.129-2.157,2.535-4.12,1.875-1.607-.53-2.255.406-2.952,2.429a3.688,3.688,0,0,0-.152.918c-.1,1.289-.243,3.052-3.214,6.965a21.64,21.64,0,0,1-2.658,3.085,1.14,1.14,0,0,0-.116.111c-.037.057-.143.333-.277.683l-.325.843a.856.856,0,0,1-.8.546Z" transform="translate(-59.088 -55.12)" fill="#2a2a2a"/>
      </g>
      <g id="Group_1204156" data-name="Group 1204156" transform="translate(0 25.022)">
        <path id="Path_1282565" data-name="Path 1282565" d="M55.727,47.679H5.651l-.135.135A25.176,25.176,0,0,0,30.695,73.082,18.414,18.414,0,0,0,32.606,73a24.641,24.641,0,0,0,5.508-1.028A25.174,25.174,0,0,0,55.334,52.989a21.962,21.962,0,0,0,.448-3.123c.044-.558.071-1.682.077-2.062a.125.125,0,0,0-.132-.125Z" transform="translate(-4.659 -46.822)" fill="#86daf1"/>
        <path id="Path_1282566" data-name="Path 1282566" d="M30.105,73.349A26.033,26.033,0,0,1,4.07,47.221v-.35l.5-.5.492-.135H55.5l.6.552.027.445c-.007.391-.034,1.543-.08,2.116a22.965,22.965,0,0,1-.466,3.239A25.951,25.951,0,0,1,37.775,72.2a25.62,25.62,0,0,1-5.7,1.064,19.166,19.166,0,0,1-1.97.081ZM5.79,47.946a24.322,24.322,0,0,0,24.316,23.69,17.729,17.729,0,0,0,1.822-.073A24.175,24.175,0,0,0,53.906,52.228a21.426,21.426,0,0,0,.433-3.015c.025-.322.044-.828.057-1.268Zm49.348,0h.013Z" transform="translate(-4.07 -46.233)" fill="#2a2a2a"/>
      </g>
      <g id="Group_1204157" data-name="Group 1204157" transform="translate(0.347)">
        <path id="Path_1282567" data-name="Path 1282567" d="M6.1,26.517c.053-.329.118-.658.184-.975A25.161,25.161,0,0,1,23.5,6.551,24.682,24.682,0,0,1,29,5.524a18.391,18.391,0,0,1,1.91-.079A25.145,25.145,0,0,1,55.751,26.517" transform="translate(-5.245 -4.589)" fill="#db9067"/>
        <path id="Path_1282568" data-name="Path 1282568" d="M55.161,26.785a.857.857,0,0,1-.844-.72A24.287,24.287,0,0,0,30.324,5.713a17.7,17.7,0,0,0-1.821.073,24,24,0,0,0-5.343.994A24.239,24.239,0,0,0,6.535,25.125c-.064.307-.127.624-.178.939a.856.856,0,0,1-1.69-.27c.055-.344.123-.686.191-1.015a25.945,25.945,0,0,1,17.8-19.634,25.6,25.6,0,0,1,5.7-1.064A19.139,19.139,0,0,1,30.324,4,26,26,0,0,1,56.007,25.792a.855.855,0,0,1-.709.981.779.779,0,0,1-.137.012Z" transform="translate(-4.656 -4)" fill="#2a2a2a"/>
      </g>
      <g id="Group_1204158" data-name="Group 1204158" transform="translate(12.753 3.265)">
        <path id="Path_1282569" data-name="Path 1282569" d="M38.974,27.713a.853.853,0,0,1-.513-.172l-5.191-3.9a1.821,1.821,0,0,1-.672-1.9l1.029-4.14.133-.966-.209.831-4.325-1.079a1.862,1.862,0,0,1-1.205-.978L25.685,10.75a.856.856,0,1,1,1.53-.766l2.344,4.676.779.235,3.63.911a1.823,1.823,0,0,1,1.318,2.214l-1.026,4.128.011.008.03.118,5.187,3.9a.856.856,0,0,1-.514,1.541Z" transform="translate(-25.594 -9.51)" fill="#2a2a2a"/>
      </g>
      <g id="Group_1204159" data-name="Group 1204159" transform="translate(6.735 8.625)">
        <path id="Path_1282570" data-name="Path 1282570" d="M16.292,27.12a.856.856,0,0,1-.27-1.668L20.084,24.1l5.305-5.289A.856.856,0,1,1,26.6,20.02l-5.259,5.259a1.836,1.836,0,0,1-.716.443l-4.061,1.353a.841.841,0,0,1-.271.045Z" transform="translate(-15.436 -18.558)" fill="#2a2a2a"/>
      </g>
      <g id="Group_1204160" data-name="Group 1204160" transform="translate(21.33 15.475)">
        <path id="Path_1282571" data-name="Path 1282571" d="M40.926,33.144a.857.857,0,0,1-.27-1.67l3.952-1.313a.857.857,0,0,1,.54,1.626L41.2,33.1A.843.843,0,0,1,40.926,33.144Z" transform="translate(-40.07 -30.119)" fill="#2a2a2a"/>
      </g>
      <g id="Group_1204161" data-name="Group 1204161" transform="translate(11.015 14.047)">
        <path id="Path_1282572" data-name="Path 1282572" d="M24.943,33.7a.856.856,0,0,1-.812-.587L22.7,28.836a.856.856,0,0,1,1.625-.54l1.427,4.28a.856.856,0,0,1-.542,1.082A.838.838,0,0,1,24.943,33.7Z" transform="translate(-22.661 -27.708)" fill="#2a2a2a"/>
      </g>
      <g id="Group_1204162" data-name="Group 1204162" transform="translate(34.712 14.049)">
        <path id="Path_1282573" data-name="Path 1282573" d="M64.325,33.861a.857.857,0,0,1-.841-.7l-.813-4.437a.856.856,0,1,1,1.684-.309l.813,4.437a.856.856,0,0,1-.688,1,.917.917,0,0,1-.155.014Z" transform="translate(-62.656 -27.711)" fill="#2a2a2a"/>
      </g>
      <g id="Group_1204163" data-name="Group 1204163" transform="translate(21.002 6.989)">
        <path id="Path_1282574" data-name="Path 1282574" d="M60.347,24.569H53.814a1.819,1.819,0,0,1-1.636-1.014l-2.384-4.767-4.932-1.276-4.015,2.631a.857.857,0,0,1-.95-1.426L43.819,16.1a1.838,1.838,0,0,1,1.459-.254l4.854,1.214a1.823,1.823,0,0,1,1.193.958l2.384,4.767,6.637.066a.857.857,0,0,1,0,1.714Z" transform="translate(-39.516 -15.797)" fill="#2a2a2a"/>
      </g>
      <g id="Group_1204164" data-name="Group 1204164" transform="translate(26.423 3.951)">
        <path id="Path_1282575" data-name="Path 1282575" d="M49.523,15.63a.856.856,0,0,1-.606-1.462l3.249-3.249a.856.856,0,0,1,1.21,1.212L50.128,15.38A.851.851,0,0,1,49.523,15.63Z" transform="translate(-48.667 -10.669)" fill="#2a2a2a"/>
      </g>
      <g id="Group_1204165" data-name="Group 1204165" transform="translate(11.203 25.022)">
        <path id="Path_1282576" data-name="Path 1282576" d="M24.549,47.679a5.909,5.909,0,0,0,3.9,7.012c4.658,1.873,7.858,0,7.858,4.492s-1.127,6.933,2.254,6.933c2.5,0,5.6-4.885,5.6-7.139,0-3.15-2.487-3.606,1.128-5.414,1.409-.713,5.686-.9,6.233-5.885H24.549Z" transform="translate(-23.565 -46.822)" fill="#08bc77"/>
        <path id="Path_1282577" data-name="Path 1282577" d="M37.97,66.384a3.278,3.278,0,0,1-2.544-.853c-.88-.937-.793-2.343-.671-4.288.049-.779.1-1.664.1-2.65,0-2.216-.679-2.312-2.929-2.634A17.87,17.87,0,0,1,27.538,54.9a6.775,6.775,0,0,1-4.418-7.962l.13-.7H51.888l-.1.95c-.5,4.585-3.911,5.646-5.742,6.217a7.436,7.436,0,0,0-.955.338c-1.66.829-1.622.927-1.259,1.856a7.163,7.163,0,0,1,.6,2.794C44.43,60.9,41.187,66.384,37.97,66.384ZM24.708,47.946a4.946,4.946,0,0,0,3.472,5.362,16.185,16.185,0,0,0,3.993.958c2.263.323,4.4.627,4.4,4.328,0,1.025-.057,1.945-.108,2.756-.088,1.4-.163,2.611.21,3.008a1.859,1.859,0,0,0,1.3.312c1.938,0,4.747-4.411,4.747-6.283a5.522,5.522,0,0,0-.483-2.17c-.672-1.716-.53-2.7,2.084-4.009a8.168,8.168,0,0,1,1.216-.444c1.586-.494,3.7-1.152,4.38-3.82H24.708Z" transform="translate(-22.978 -46.233)" fill="#2a2a2a"/>
      </g>
    </g>
  </g>
</svg>
